%TF.GenerationSoftware,KiCad,Pcbnew,8.0.7-unknown-202501031821~9d36205ced~ubuntu20.04.1*%
%TF.CreationDate,2025-01-13T23:31:32-03:00*%
%TF.ProjectId,Wise-Shield-32,57697365-2d53-4686-9965-6c642d33322e,rev?*%
%TF.SameCoordinates,Original*%
%TF.FileFunction,Legend,Bot*%
%TF.FilePolarity,Positive*%
%FSLAX46Y46*%
G04 Gerber Fmt 4.6, Leading zero omitted, Abs format (unit mm)*
G04 Created by KiCad (PCBNEW 8.0.7-unknown-202501031821~9d36205ced~ubuntu20.04.1) date 2025-01-13 23:31:32*
%MOMM*%
%LPD*%
G01*
G04 APERTURE LIST*
%ADD10C,0.150000*%
%ADD11C,0.120000*%
G04 APERTURE END LIST*
D10*
X129033333Y-85754819D02*
X129033333Y-86469104D01*
X129033333Y-86469104D02*
X129080952Y-86611961D01*
X129080952Y-86611961D02*
X129176190Y-86707200D01*
X129176190Y-86707200D02*
X129319047Y-86754819D01*
X129319047Y-86754819D02*
X129414285Y-86754819D01*
X128557142Y-86754819D02*
X128557142Y-85754819D01*
X128557142Y-85754819D02*
X128176190Y-85754819D01*
X128176190Y-85754819D02*
X128080952Y-85802438D01*
X128080952Y-85802438D02*
X128033333Y-85850057D01*
X128033333Y-85850057D02*
X127985714Y-85945295D01*
X127985714Y-85945295D02*
X127985714Y-86088152D01*
X127985714Y-86088152D02*
X128033333Y-86183390D01*
X128033333Y-86183390D02*
X128080952Y-86231009D01*
X128080952Y-86231009D02*
X128176190Y-86278628D01*
X128176190Y-86278628D02*
X128557142Y-86278628D01*
X127604761Y-85850057D02*
X127557142Y-85802438D01*
X127557142Y-85802438D02*
X127461904Y-85754819D01*
X127461904Y-85754819D02*
X127223809Y-85754819D01*
X127223809Y-85754819D02*
X127128571Y-85802438D01*
X127128571Y-85802438D02*
X127080952Y-85850057D01*
X127080952Y-85850057D02*
X127033333Y-85945295D01*
X127033333Y-85945295D02*
X127033333Y-86040533D01*
X127033333Y-86040533D02*
X127080952Y-86183390D01*
X127080952Y-86183390D02*
X127652380Y-86754819D01*
X127652380Y-86754819D02*
X127033333Y-86754819D01*
X125314285Y-84954819D02*
X125885713Y-84954819D01*
X125599999Y-84954819D02*
X125599999Y-83954819D01*
X125599999Y-83954819D02*
X125695237Y-84097676D01*
X125695237Y-84097676D02*
X125790475Y-84192914D01*
X125790475Y-84192914D02*
X125885713Y-84240533D01*
X131133332Y-83954819D02*
X130514285Y-83954819D01*
X130514285Y-83954819D02*
X130847618Y-84335771D01*
X130847618Y-84335771D02*
X130704761Y-84335771D01*
X130704761Y-84335771D02*
X130609523Y-84383390D01*
X130609523Y-84383390D02*
X130561904Y-84431009D01*
X130561904Y-84431009D02*
X130514285Y-84526247D01*
X130514285Y-84526247D02*
X130514285Y-84764342D01*
X130514285Y-84764342D02*
X130561904Y-84859580D01*
X130561904Y-84859580D02*
X130609523Y-84907200D01*
X130609523Y-84907200D02*
X130704761Y-84954819D01*
X130704761Y-84954819D02*
X130990475Y-84954819D01*
X130990475Y-84954819D02*
X131085713Y-84907200D01*
X131085713Y-84907200D02*
X131133332Y-84859580D01*
X137824819Y-75896666D02*
X138539104Y-75896666D01*
X138539104Y-75896666D02*
X138681961Y-75849047D01*
X138681961Y-75849047D02*
X138777200Y-75753809D01*
X138777200Y-75753809D02*
X138824819Y-75610952D01*
X138824819Y-75610952D02*
X138824819Y-75515714D01*
X138824819Y-76896666D02*
X138824819Y-76325238D01*
X138824819Y-76610952D02*
X137824819Y-76610952D01*
X137824819Y-76610952D02*
X137967676Y-76515714D01*
X137967676Y-76515714D02*
X138062914Y-76420476D01*
X138062914Y-76420476D02*
X138110533Y-76325238D01*
D11*
%TO.C,JP2*%
X126150000Y-84800000D02*
X126150000Y-84200000D01*
X126800000Y-83500000D02*
X129600000Y-83500000D01*
X129600000Y-85500000D02*
X126800000Y-85500000D01*
X130250000Y-84200000D02*
X130250000Y-84800000D01*
X126150000Y-84200000D02*
G75*
G02*
X126850000Y-83500000I699999J1D01*
G01*
X126850000Y-85500000D02*
G75*
G02*
X126150000Y-84800000I-1J699999D01*
G01*
X129550000Y-83500000D02*
G75*
G02*
X130250000Y-84200000I0J-700000D01*
G01*
X130250000Y-84800000D02*
G75*
G02*
X129550000Y-85500000I-700000J0D01*
G01*
%TO.C,J1*%
X116930000Y-73630000D02*
X116930000Y-78830000D01*
X116930000Y-73630000D02*
X137370000Y-73630000D01*
X116930000Y-78830000D02*
X134770000Y-78830000D01*
X134770000Y-76230000D02*
X134770000Y-78830000D01*
X137370000Y-73630000D02*
X137370000Y-76230000D01*
X137370000Y-76230000D02*
X134770000Y-76230000D01*
X137370000Y-77500000D02*
X137370000Y-78830000D01*
X137370000Y-78830000D02*
X136040000Y-78830000D01*
%TD*%
M02*
