M48
; DRILL file {KiCad 8.0.7-unknown-202501031821~9d36205ced~ubuntu20.04.1} date 2025-02-02T17:40:53-0300
; FORMAT={-:-/ absolute / inch / decimal}
; #@! TF.CreationDate,2025-02-02T17:40:53-03:00
; #@! TF.GenerationSoftware,Kicad,Pcbnew,8.0.7-unknown-202501031821~9d36205ced~ubuntu20.04.1
; #@! TF.FileFunction,Plated,1,2,PTH
FMAT,2
INCH
; #@! TA.AperFunction,Plated,PTH,ViaDrill
T1C0.0150
; #@! TA.AperFunction,Plated,PTH,ComponentDrill
T2C0.0276
; #@! TA.AperFunction,Plated,PTH,ComponentDrill
T3C0.0300
; #@! TA.AperFunction,Plated,PTH,ComponentDrill
T4C0.0315
; #@! TA.AperFunction,Plated,PTH,ComponentDrill
T5C0.0354
; #@! TA.AperFunction,Plated,PTH,ComponentDrill
T6C0.0394
; #@! TA.AperFunction,Plated,PTH,ComponentDrill
T7C0.0433
; #@! TA.AperFunction,Plated,PTH,ComponentDrill
T8C0.0551
; #@! TA.AperFunction,Plated,PTH,ComponentDrill
T9C0.0598
%
G90
G05
T1
X3.9173Y-2.9075
X4.0748Y-3.4055
X4.1339Y-3.1299
X4.6532Y-3.7323
X4.6874Y-4.0945
X5.3613Y-3.7553
X5.4921Y-2.7756
X6.0085Y-4.2185
T2
X5.2165Y-3.9087
X5.2165Y-4.0087
T3
X4.3874Y-2.5
X4.3874Y-3.5
X4.4874Y-2.5
X4.4874Y-3.5
X4.5874Y-2.5
X4.5874Y-3.5
X4.6874Y-2.5
X4.6874Y-3.5
X4.7874Y-2.5
X4.7874Y-3.5
X4.8874Y-2.5
X4.8874Y-3.5
X4.9874Y-2.5
X4.9874Y-3.5
X5.0874Y-2.5
X5.0874Y-3.5
X5.1874Y-2.5
X5.1874Y-3.5
X5.2874Y-2.5
X5.2874Y-3.5
X5.3874Y-2.5
X5.3874Y-3.5
X5.4874Y-2.5
X5.4874Y-3.5
X5.5874Y-2.5
X5.5874Y-3.5
X5.6874Y-2.5
X5.6874Y-3.5
X5.7874Y-2.5
X5.7874Y-3.5
T4
X4.311Y-2.6969
X4.311Y-3.3071
X4.5079Y-2.6969
X4.5079Y-3.3071
X4.5079Y-3.7795
X4.6063Y-3.7795
X4.685Y-3.3071
X4.8819Y-3.3071
X4.8819Y-3.7795
X5.0787Y-3.7795
X5.3087Y-2.6969
X5.3087Y-3.3071
X5.4331Y-3.7008
X5.4331Y-3.8008
X5.4331Y-3.9008
X5.4331Y-4.0008
X5.7087Y-2.6969
X5.7087Y-3.3071
X5.9252Y-4.4882
X5.9252Y-4.6063
T5
X4.5167Y-4.0748
X4.6167Y-4.0748
T6
X4.6638Y-2.9512
X4.6638Y-3.0512
X4.7638Y-2.9512
X4.7638Y-3.0512
X4.8638Y-2.9512
X4.8638Y-3.0512
X4.9638Y-2.9512
X4.9638Y-3.0512
X5.0638Y-2.9512
X5.0638Y-3.0512
X5.1638Y-2.9512
X5.1638Y-3.0512
X5.2638Y-2.9512
X5.2638Y-3.0512
X5.3638Y-2.9512
X5.3638Y-3.0512
X5.9252Y-3.7008
X5.9252Y-3.8008
X5.9252Y-3.9008
X5.9252Y-4.0008
X5.9252Y-4.1008
X5.9252Y-4.2008
X5.9252Y-4.3008
T7
X4.6457Y-4.2791
X4.6457Y-4.5791
T8
X5.0984Y-4.2913
X5.3984Y-4.2913
T9
X3.9961Y-3.7386
X3.9961Y-3.9386
T6
G00X4.1535Y-4.3324
M15
G01X4.1535Y-4.4111
M16
G05
G00X4.2323Y-4.5568
M15
G01X4.311Y-4.5568
M16
G05
G00X4.3898Y-4.3324
M15
G01X4.3898Y-4.4111
M16
G05
M30
