%TF.GenerationSoftware,KiCad,Pcbnew,8.0.7-unknown-202501031821~9d36205ced~ubuntu20.04.1*%
%TF.CreationDate,2025-02-02T17:39:59-03:00*%
%TF.ProjectId,Wise-Shield-32,57697365-2d53-4686-9965-6c642d33322e,1*%
%TF.SameCoordinates,Original*%
%TF.FileFunction,Copper,L2,Bot*%
%TF.FilePolarity,Positive*%
%FSLAX46Y46*%
G04 Gerber Fmt 4.6, Leading zero omitted, Abs format (unit mm)*
G04 Created by KiCad (PCBNEW 8.0.7-unknown-202501031821~9d36205ced~ubuntu20.04.1) date 2025-02-02 17:39:59*
%MOMM*%
%LPD*%
G01*
G04 APERTURE LIST*
G04 Aperture macros list*
%AMRoundRect*
0 Rectangle with rounded corners*
0 $1 Rounding radius*
0 $2 $3 $4 $5 $6 $7 $8 $9 X,Y pos of 4 corners*
0 Add a 4 corners polygon primitive as box body*
4,1,4,$2,$3,$4,$5,$6,$7,$8,$9,$2,$3,0*
0 Add four circle primitives for the rounded corners*
1,1,$1+$1,$2,$3*
1,1,$1+$1,$4,$5*
1,1,$1+$1,$6,$7*
1,1,$1+$1,$8,$9*
0 Add four rect primitives between the rounded corners*
20,1,$1+$1,$2,$3,$4,$5,0*
20,1,$1+$1,$4,$5,$6,$7,0*
20,1,$1+$1,$6,$7,$8,$9,0*
20,1,$1+$1,$8,$9,$2,$3,0*%
%AMFreePoly0*
4,1,19,0.550000,-0.750000,0.000000,-0.750000,0.000000,-0.744911,-0.071157,-0.744911,-0.207708,-0.704816,-0.327430,-0.627875,-0.420627,-0.520320,-0.479746,-0.390866,-0.500000,-0.250000,-0.500000,0.250000,-0.479746,0.390866,-0.420627,0.520320,-0.327430,0.627875,-0.207708,0.704816,-0.071157,0.744911,0.000000,0.744911,0.000000,0.750000,0.550000,0.750000,0.550000,-0.750000,0.550000,-0.750000,
$1*%
%AMFreePoly1*
4,1,19,0.000000,0.744911,0.071157,0.744911,0.207708,0.704816,0.327430,0.627875,0.420627,0.520320,0.479746,0.390866,0.500000,0.250000,0.500000,-0.250000,0.479746,-0.390866,0.420627,-0.520320,0.327430,-0.627875,0.207708,-0.704816,0.071157,-0.744911,0.000000,-0.744911,0.000000,-0.750000,-0.550000,-0.750000,-0.550000,0.750000,0.000000,0.750000,0.000000,0.744911,0.000000,0.744911,
$1*%
G04 Aperture macros list end*
%TA.AperFunction,EtchedComponent*%
%ADD10C,0.000000*%
%TD*%
%TA.AperFunction,ComponentPad*%
%ADD11R,1.600000X1.600000*%
%TD*%
%TA.AperFunction,ComponentPad*%
%ADD12C,1.600000*%
%TD*%
%TA.AperFunction,ComponentPad*%
%ADD13R,3.000000X3.000000*%
%TD*%
%TA.AperFunction,ComponentPad*%
%ADD14C,3.000000*%
%TD*%
%TA.AperFunction,ComponentPad*%
%ADD15R,1.800000X1.800000*%
%TD*%
%TA.AperFunction,ComponentPad*%
%ADD16C,1.800000*%
%TD*%
%TA.AperFunction,ComponentPad*%
%ADD17R,1.524000X1.524000*%
%TD*%
%TA.AperFunction,ComponentPad*%
%ADD18C,1.524000*%
%TD*%
%TA.AperFunction,ComponentPad*%
%ADD19R,2.200000X2.200000*%
%TD*%
%TA.AperFunction,ComponentPad*%
%ADD20O,2.200000X2.200000*%
%TD*%
%TA.AperFunction,ComponentPad*%
%ADD21O,1.600000X1.600000*%
%TD*%
%TA.AperFunction,ComponentPad*%
%ADD22R,1.500000X1.500000*%
%TD*%
%TA.AperFunction,ComponentPad*%
%ADD23C,1.500000*%
%TD*%
%TA.AperFunction,ComponentPad*%
%ADD24R,1.700000X1.700000*%
%TD*%
%TA.AperFunction,ComponentPad*%
%ADD25O,1.700000X1.700000*%
%TD*%
%TA.AperFunction,ComponentPad*%
%ADD26R,3.500000X3.500000*%
%TD*%
%TA.AperFunction,ComponentPad*%
%ADD27RoundRect,0.750000X-0.750000X-1.000000X0.750000X-1.000000X0.750000X1.000000X-0.750000X1.000000X0*%
%TD*%
%TA.AperFunction,ComponentPad*%
%ADD28RoundRect,0.875000X-0.875000X-0.875000X0.875000X-0.875000X0.875000X0.875000X-0.875000X0.875000X0*%
%TD*%
%TA.AperFunction,ComponentPad*%
%ADD29C,1.400000*%
%TD*%
%TA.AperFunction,ComponentPad*%
%ADD30O,1.400000X1.400000*%
%TD*%
%TA.AperFunction,SMDPad,CuDef*%
%ADD31FreePoly0,270.000000*%
%TD*%
%TA.AperFunction,SMDPad,CuDef*%
%ADD32R,1.500000X1.000000*%
%TD*%
%TA.AperFunction,SMDPad,CuDef*%
%ADD33FreePoly1,270.000000*%
%TD*%
%TA.AperFunction,ViaPad*%
%ADD34C,0.762000*%
%TD*%
%TA.AperFunction,Conductor*%
%ADD35C,0.254000*%
%TD*%
%TA.AperFunction,Conductor*%
%ADD36C,1.270000*%
%TD*%
G04 APERTURE END LIST*
D10*
%TA.AperFunction,EtchedComponent*%
%TO.C,JP1*%
G36*
X99300000Y-69800000D02*
G01*
X98900000Y-69800000D01*
X98900000Y-69300000D01*
X99300000Y-69300000D01*
X99300000Y-69800000D01*
G37*
%TD.AperFunction*%
%TA.AperFunction,EtchedComponent*%
G36*
X100100000Y-69800000D02*
G01*
X99700000Y-69800000D01*
X99700000Y-69300000D01*
X100100000Y-69300000D01*
X100100000Y-69800000D01*
G37*
%TD.AperFunction*%
%TD*%
D11*
%TO.P,C3\u002A,1*%
%TO.N,+3.3V*%
X114500000Y-96000000D03*
D12*
%TO.P,C3\u002A,2*%
%TO.N,GNDREF*%
X117000000Y-96000000D03*
%TD*%
D13*
%TO.P,J6\u002A,1,Pin_1*%
%TO.N,+5VA*%
X101500000Y-100040000D03*
D14*
%TO.P,J6\u002A,2,Pin_2*%
%TO.N,GNDREF*%
X101500000Y-94960000D03*
%TD*%
D15*
%TO.P,D1\u002A,1,K*%
%TO.N,GNDREF*%
X114725000Y-103500000D03*
D16*
%TO.P,D1\u002A,2,A*%
%TO.N,Net-(D1-A)*%
X117265000Y-103500000D03*
%TD*%
D12*
%TO.P,C4,1*%
%TO.N,PWR_ON*%
X109500000Y-68500000D03*
%TO.P,C4,2*%
%TO.N,GNDREF*%
X114500000Y-68500000D03*
%TD*%
D14*
%TO.P,J5,1,Pin_1*%
%TO.N,+5VA*%
X137120000Y-109000000D03*
%TO.P,J5,2,Pin_2*%
%TO.N,GNDREF*%
X129500000Y-109000000D03*
%TD*%
D17*
%TO.P,U1,1,EN*%
%TO.N,unconnected-(U1-EN-Pad1)*%
X147000000Y-63500000D03*
D18*
%TO.P,U1,2,SENSOR_VP*%
%TO.N,unconnected-(U1-SENSOR_VP-Pad2)*%
X144460000Y-63500000D03*
%TO.P,U1,3,SENSOR_VN*%
%TO.N,unconnected-(U1-SENSOR_VN-Pad3)*%
X141920000Y-63500000D03*
%TO.P,U1,4,IO34*%
%TO.N,IO34*%
X139380000Y-63500000D03*
%TO.P,U1,5,IO35*%
%TO.N,IO35*%
X136840000Y-63500000D03*
%TO.P,U1,6,IO32*%
%TO.N,IO32*%
X134300000Y-63500000D03*
%TO.P,U1,7,IO33*%
%TO.N,IO33*%
X131760000Y-63500000D03*
%TO.P,U1,8,IO25*%
%TO.N,IO25*%
X129220000Y-63500000D03*
%TO.P,U1,9,IO26*%
%TO.N,IO26*%
X126680000Y-63500000D03*
%TO.P,U1,10,IO27*%
%TO.N,IO27*%
X124140000Y-63500000D03*
%TO.P,U1,11,IO14*%
%TO.N,IO14*%
X121600000Y-63500000D03*
%TO.P,U1,12,IO12*%
%TO.N,IO12*%
X119060000Y-63500000D03*
%TO.P,U1,13,IO13*%
%TO.N,IO13*%
X116520000Y-63500000D03*
%TO.P,U1,14,GND*%
%TO.N,GNDREF*%
X113980000Y-63500000D03*
%TO.P,U1,15,VIN*%
%TO.N,PWR_ON*%
X111440000Y-63500000D03*
%TO.P,U1,16,3V3*%
%TO.N,+3.3V*%
X111440000Y-88900000D03*
%TO.P,U1,17,GND*%
%TO.N,GNDREF*%
X113980000Y-88900000D03*
%TO.P,U1,18,IO15*%
%TO.N,IO15*%
X116520000Y-88900000D03*
%TO.P,U1,19,IO2*%
%TO.N,IO02*%
X119060000Y-88900000D03*
%TO.P,U1,20,IO4*%
%TO.N,IO04*%
X121600000Y-88900000D03*
%TO.P,U1,21,IO16*%
%TO.N,IO16*%
X124140000Y-88900000D03*
%TO.P,U1,22,IO17*%
%TO.N,IO17*%
X126680000Y-88900000D03*
%TO.P,U1,23,IO5*%
%TO.N,IO05*%
X129220000Y-88900000D03*
%TO.P,U1,24,IO18*%
%TO.N,IO18*%
X131760000Y-88900000D03*
%TO.P,U1,25,IO19*%
%TO.N,IO19*%
X134300000Y-88900000D03*
%TO.P,U1,26,IO21*%
%TO.N,SDA*%
X136840000Y-88900000D03*
%TO.P,U1,27,RXD0/IO3*%
%TO.N,unconnected-(U1-RXD0{slash}IO3-Pad27)*%
X139380000Y-88900000D03*
%TO.P,U1,28,TXD0/IO1*%
%TO.N,unconnected-(U1-TXD0{slash}IO1-Pad28)*%
X141920000Y-88900000D03*
%TO.P,U1,29,IO22*%
%TO.N,SCL*%
X144460000Y-88900000D03*
%TO.P,U1,30,IO23*%
%TO.N,IO23*%
X147000000Y-88900000D03*
%TD*%
D12*
%TO.P,R1\u002A,1*%
%TO.N,+3.3V*%
X150500000Y-117000000D03*
%TO.P,R1\u002A,2*%
%TO.N,IO35*%
X150500000Y-114000000D03*
%TD*%
%TO.P,C2,1*%
%TO.N,+3.3V*%
X109500000Y-84000000D03*
%TO.P,C2,2*%
%TO.N,GNDREF*%
X114500000Y-84000000D03*
%TD*%
D11*
%TO.P,C5,1*%
%TO.N,PWR_ON*%
X129000000Y-96000000D03*
D12*
%TO.P,C5,2*%
%TO.N,GNDREF*%
X124000000Y-96000000D03*
%TD*%
D19*
%TO.P,D2,1,K*%
%TO.N,PWR_ON*%
X118000000Y-108690000D03*
D20*
%TO.P,D2,2,A*%
%TO.N,+5VA*%
X118000000Y-116310000D03*
%TD*%
D12*
%TO.P,R2,1*%
%TO.N,IO35*%
X134840000Y-68500000D03*
D21*
%TO.P,R2,2*%
%TO.N,GNDREF*%
X145000000Y-68500000D03*
%TD*%
D22*
%TO.P,U2\u002A,1,VDD*%
%TO.N,+3.3V*%
X138000000Y-94000000D03*
D23*
%TO.P,U2\u002A,2,DATA*%
%TO.N,IO33*%
X138000000Y-96540000D03*
%TO.P,U2\u002A,3,NC*%
%TO.N,unconnected-(U2-NC-Pad3)*%
X138000000Y-99080000D03*
%TO.P,U2\u002A,4,GND*%
%TO.N,GNDREF*%
X138000000Y-101620000D03*
%TD*%
D24*
%TO.P,J4\u002A,1,Pin_1*%
%TO.N,+3.3V*%
X150500000Y-94000000D03*
D25*
%TO.P,J4\u002A,2,Pin_2*%
%TO.N,SCL*%
X150500000Y-96540000D03*
%TO.P,J4\u002A,3,Pin_3*%
%TO.N,SDA*%
X150500000Y-99080000D03*
%TO.P,J4\u002A,4,Pin_4*%
%TO.N,IO02*%
X150500000Y-101620000D03*
%TO.P,J4\u002A,5,Pin_5*%
%TO.N,IO32*%
X150500000Y-104160000D03*
%TO.P,J4\u002A,6,Pin_6*%
%TO.N,IO34*%
X150500000Y-106700000D03*
%TO.P,J4\u002A,7,Pin_7*%
%TO.N,GNDREF*%
X150500000Y-109240000D03*
%TD*%
D26*
%TO.P,J3,1*%
%TO.N,+5VA*%
X111500000Y-111042500D03*
D27*
%TO.P,J3,2*%
%TO.N,GNDREF*%
X105500000Y-111042500D03*
D28*
%TO.P,J3,3*%
X108500000Y-115742500D03*
%TD*%
D12*
%TO.P,R3,1*%
%TO.N,PWR_ON*%
X145000000Y-84000000D03*
D21*
%TO.P,R3,2*%
%TO.N,Net-(D1-A)*%
X134840000Y-84000000D03*
%TD*%
D12*
%TO.P,C1,1*%
%TO.N,+3.3V*%
X119000000Y-84000000D03*
%TO.P,C1,2*%
%TO.N,GNDREF*%
X124000000Y-84000000D03*
%TD*%
D29*
%TO.P,R4\u002A,1*%
%TO.N,+3.3V*%
X132500000Y-99280000D03*
D30*
%TO.P,R4\u002A,2*%
%TO.N,IO33*%
X132500000Y-101820000D03*
%TD*%
D25*
%TO.P,J1,A,Pin_9*%
%TO.N,IO23*%
X126080000Y-74960000D03*
%TO.P,J1,B,Pin_10*%
%TO.N,IO19*%
X126080000Y-77500000D03*
%TO.P,J1,B1,Pin_3*%
%TO.N,IO27*%
X133700000Y-74960000D03*
%TO.P,J1,B2,Pin_7*%
%TO.N,IO13*%
X128620000Y-74960000D03*
%TO.P,J1,C,Pin_11*%
%TO.N,IO05*%
X123540000Y-74960000D03*
%TO.P,J1,CLK,Pin_13*%
%TO.N,IO16*%
X121000000Y-74960000D03*
%TO.P,J1,D,Pin_12*%
%TO.N,IO17*%
X123540000Y-77500000D03*
%TO.P,J1,E,Pin_8*%
%TO.N,Net-(J1-Pin_8)*%
X128620000Y-77500000D03*
%TO.P,J1,G/E,Pin_16*%
%TO.N,Net-(J1-Pin_16)*%
X118460000Y-77500000D03*
%TO.P,J1,G1,Pin_2*%
%TO.N,IO26*%
X136240000Y-77500000D03*
%TO.P,J1,G2,Pin_6*%
%TO.N,IO12*%
X131160000Y-77500000D03*
%TO.P,J1,GND,Pin_4*%
%TO.N,GNDREF*%
X133700000Y-77500000D03*
%TO.P,J1,LAT,Pin_14*%
%TO.N,IO04*%
X121000000Y-77500000D03*
%TO.P,J1,OE,Pin_15*%
%TO.N,IO15*%
X118460000Y-74960000D03*
D24*
%TO.P,J1,R1,Pin_1*%
%TO.N,IO25*%
X136240000Y-74960000D03*
D25*
%TO.P,J1,R2,Pin_5*%
%TO.N,IO14*%
X131160000Y-74960000D03*
%TD*%
D31*
%TO.P,JP1,1,A*%
%TO.N,Net-(J1-Pin_8)*%
X99500000Y-68900000D03*
D32*
%TO.P,JP1,2,C*%
%TO.N,IO18*%
X99500000Y-70200000D03*
D33*
%TO.P,JP1,3,B*%
%TO.N,Net-(J1-Pin_16)*%
X99500000Y-71500000D03*
%TD*%
D34*
%TO.N,Net-(D1-A)*%
X118190800Y-94799500D03*
%TO.N,IO34*%
X152616000Y-107150000D03*
%TO.N,SDA*%
X136176800Y-95385300D03*
%TO.N,IO02*%
X119060000Y-104000000D03*
%TO.N,IO18*%
X103500000Y-86500000D03*
%TO.N,IO35*%
X139500000Y-70500000D03*
%TO.N,Net-(J1-Pin_8)*%
X105000000Y-79500000D03*
%TO.N,Net-(J1-Pin_16)*%
X99500000Y-73850000D03*
%TD*%
D35*
%TO.N,+3.3V*%
X150500000Y-94000000D02*
X151854000Y-95354000D01*
X109500000Y-84000000D02*
X111440000Y-85940000D01*
X111440000Y-88900000D02*
X111440000Y-91757300D01*
X114500000Y-96000000D02*
X114500000Y-94817300D01*
X151854000Y-115646000D02*
X150500000Y-117000000D01*
X151854000Y-95354000D02*
X151854000Y-115646000D01*
X111440000Y-91757300D02*
X114500000Y-94817300D01*
X111440000Y-85940000D02*
X111440000Y-88900000D01*
%TO.N,Net-(D1-A)*%
X117265000Y-103500000D02*
X118190800Y-102574200D01*
X118190800Y-102574200D02*
X118190800Y-94799500D01*
%TO.N,IO34*%
X142965900Y-67085900D02*
X145278400Y-67085900D01*
X152616000Y-74423500D02*
X152616000Y-107150000D01*
X139380000Y-63500000D02*
X142965900Y-67085900D01*
X145278400Y-67085900D02*
X152616000Y-74423500D01*
%TO.N,SCL*%
X149267300Y-96540000D02*
X144460000Y-91732700D01*
X150500000Y-96540000D02*
X149267300Y-96540000D01*
X144460000Y-91732700D02*
X144460000Y-88900000D01*
%TO.N,SDA*%
X136840000Y-88900000D02*
X136176800Y-89563200D01*
X136176800Y-89563200D02*
X136176800Y-95385300D01*
%TO.N,IO32*%
X143063000Y-72263000D02*
X143063000Y-96723000D01*
X143063000Y-96723000D02*
X150500000Y-104160000D01*
X134300000Y-63500000D02*
X143063000Y-72263000D01*
%TO.N,IO02*%
X119060000Y-88900000D02*
X119060000Y-104000000D01*
%TO.N,IO18*%
X103500000Y-71500000D02*
X103500000Y-86500000D01*
X99500000Y-70200000D02*
X102200000Y-70200000D01*
X102200000Y-70200000D02*
X103500000Y-71500000D01*
%TO.N,IO35*%
X140777000Y-104277000D02*
X140777000Y-71777000D01*
X150500000Y-114000000D02*
X140777000Y-104277000D01*
X140777000Y-71777000D02*
X139500000Y-70500000D01*
%TO.N,IO13*%
X127980000Y-74960000D02*
X128620000Y-74960000D01*
X116520000Y-63500000D02*
X127980000Y-74960000D01*
%TO.N,IO12*%
X131160000Y-77500000D02*
X129851000Y-76191000D01*
X129851000Y-74291000D02*
X119060000Y-63500000D01*
X129851000Y-76191000D02*
X129851000Y-74291000D01*
%TO.N,IO05*%
X123540000Y-74960000D02*
X124849000Y-76269000D01*
X129220000Y-83694280D02*
X129220000Y-88900000D01*
X124849000Y-76269000D02*
X124849000Y-79323280D01*
X124849000Y-79323280D02*
X129220000Y-83694280D01*
%TO.N,IO26*%
X136240000Y-77500000D02*
X134931000Y-76191000D01*
X134931000Y-73431000D02*
X126680000Y-65180000D01*
X134931000Y-76191000D02*
X134931000Y-73431000D01*
X126680000Y-65180000D02*
X126680000Y-63500000D01*
%TO.N,IO16*%
X122309000Y-87069000D02*
X124140000Y-88900000D01*
X122309000Y-76269000D02*
X122309000Y-87069000D01*
X121000000Y-74960000D02*
X122309000Y-76269000D01*
%TO.N,IO15*%
X116520000Y-76900000D02*
X116520000Y-88900000D01*
X118460000Y-74960000D02*
X116520000Y-76900000D01*
%TO.N,IO25*%
X136240000Y-72740000D02*
X136240000Y-74960000D01*
X129220000Y-63500000D02*
X129220000Y-65720000D01*
X129220000Y-65720000D02*
X136240000Y-72740000D01*
%TO.N,IO14*%
X121600000Y-64167300D02*
X131160000Y-73727300D01*
X131160000Y-74960000D02*
X131160000Y-73727300D01*
X121600000Y-63500000D02*
X121600000Y-64167300D01*
%TO.N,IO27*%
X124140000Y-64640000D02*
X133700000Y-74200000D01*
X133700000Y-74200000D02*
X133700000Y-74960000D01*
X124140000Y-63500000D02*
X124140000Y-64640000D01*
%TO.N,IO04*%
X121000000Y-88300000D02*
X121600000Y-88900000D01*
X121000000Y-77500000D02*
X121000000Y-88300000D01*
%TO.N,IO33*%
X138000000Y-96540000D02*
X138000000Y-96128400D01*
X138038700Y-91830500D02*
X138038700Y-85500000D01*
X136832200Y-93037000D02*
X138038700Y-91830500D01*
X138038700Y-69778700D02*
X131760000Y-63500000D01*
X136832200Y-94960600D02*
X136832200Y-93037000D01*
X138000000Y-96820000D02*
X138000000Y-96540000D01*
X138000000Y-96128400D02*
X136832200Y-94960600D01*
X138038700Y-85500000D02*
X138038700Y-69778700D01*
X132500000Y-102320000D02*
X138000000Y-96820000D01*
%TO.N,IO19*%
X126080000Y-77500000D02*
X134300000Y-85720000D01*
X134300000Y-85720000D02*
X134300000Y-88900000D01*
%TO.N,IO17*%
X123540000Y-79040000D02*
X126680000Y-82180000D01*
X126680000Y-82180000D02*
X126680000Y-88900000D01*
X123540000Y-77500000D02*
X123540000Y-79040000D01*
D36*
%TO.N,PWR_ON*%
X118000000Y-108690000D02*
X119310000Y-108690000D01*
X111440000Y-63500000D02*
X109500000Y-65440000D01*
X109500000Y-65440000D02*
X109500000Y-68500000D01*
X129000000Y-99000000D02*
X129000000Y-96000000D01*
X119310000Y-108690000D02*
X129000000Y-99000000D01*
D35*
%TO.N,Net-(J1-Pin_8)*%
X102900000Y-68900000D02*
X105000000Y-71000000D01*
X99500000Y-68900000D02*
X102900000Y-68900000D01*
X105000000Y-71000000D02*
X105000000Y-79500000D01*
%TO.N,Net-(J1-Pin_16)*%
X99500000Y-71500000D02*
X99500000Y-73850000D01*
%TD*%
%TA.AperFunction,Conductor*%
%TO.N,GNDREF*%
G36*
X141560575Y-90110729D02*
G01*
X141699932Y-90148070D01*
X141857123Y-90161822D01*
X141919998Y-90167323D01*
X141920000Y-90167323D01*
X141920002Y-90167323D01*
X141975017Y-90162509D01*
X142140068Y-90148070D01*
X142279410Y-90110733D01*
X142349255Y-90112396D01*
X142407118Y-90151558D01*
X142434623Y-90215786D01*
X142435500Y-90230508D01*
X142435500Y-96784807D01*
X142459612Y-96906027D01*
X142459614Y-96906035D01*
X142485832Y-96969330D01*
X142506917Y-97020234D01*
X142557596Y-97096081D01*
X142557597Y-97096081D01*
X142557598Y-97096083D01*
X142575589Y-97123008D01*
X142575592Y-97123011D01*
X142575594Y-97123014D01*
X149159164Y-103706583D01*
X149192649Y-103767906D01*
X149191258Y-103826356D01*
X149164939Y-103924583D01*
X149164936Y-103924596D01*
X149144341Y-104159999D01*
X149144341Y-104160000D01*
X149164936Y-104395403D01*
X149164938Y-104395413D01*
X149226094Y-104623655D01*
X149226096Y-104623659D01*
X149226097Y-104623663D01*
X149302232Y-104786935D01*
X149325965Y-104837830D01*
X149325967Y-104837834D01*
X149461501Y-105031395D01*
X149461506Y-105031402D01*
X149628597Y-105198493D01*
X149628603Y-105198498D01*
X149814158Y-105328425D01*
X149857783Y-105383002D01*
X149864977Y-105452500D01*
X149833454Y-105514855D01*
X149814158Y-105531575D01*
X149628597Y-105661505D01*
X149461505Y-105828597D01*
X149325965Y-106022169D01*
X149325964Y-106022171D01*
X149226098Y-106236335D01*
X149226094Y-106236344D01*
X149164938Y-106464586D01*
X149164936Y-106464596D01*
X149144341Y-106699999D01*
X149144341Y-106700000D01*
X149164936Y-106935403D01*
X149164938Y-106935413D01*
X149226094Y-107163655D01*
X149226096Y-107163659D01*
X149226097Y-107163663D01*
X149295627Y-107312770D01*
X149325965Y-107377830D01*
X149325967Y-107377834D01*
X149461501Y-107571395D01*
X149461506Y-107571402D01*
X149628597Y-107738493D01*
X149628603Y-107738498D01*
X149814594Y-107868730D01*
X149858219Y-107923307D01*
X149865413Y-107992805D01*
X149833890Y-108055160D01*
X149814595Y-108071880D01*
X149628922Y-108201890D01*
X149628920Y-108201891D01*
X149461891Y-108368920D01*
X149461886Y-108368926D01*
X149326400Y-108562420D01*
X149326399Y-108562422D01*
X149226570Y-108776507D01*
X149226567Y-108776513D01*
X149169364Y-108989999D01*
X149169364Y-108990000D01*
X150066988Y-108990000D01*
X150034075Y-109047007D01*
X150000000Y-109174174D01*
X150000000Y-109305826D01*
X150034075Y-109432993D01*
X150066988Y-109490000D01*
X149169364Y-109490000D01*
X149226567Y-109703486D01*
X149226570Y-109703492D01*
X149326399Y-109917578D01*
X149461894Y-110111082D01*
X149628917Y-110278105D01*
X149822421Y-110413600D01*
X150036507Y-110513429D01*
X150036516Y-110513433D01*
X150250000Y-110570634D01*
X150250000Y-109673012D01*
X150307007Y-109705925D01*
X150434174Y-109740000D01*
X150565826Y-109740000D01*
X150692993Y-109705925D01*
X150750000Y-109673012D01*
X150750000Y-110570633D01*
X150963483Y-110513433D01*
X150963492Y-110513430D01*
X151050095Y-110473046D01*
X151119172Y-110462554D01*
X151182956Y-110491073D01*
X151221196Y-110549550D01*
X151226500Y-110585428D01*
X151226500Y-112709188D01*
X151206815Y-112776227D01*
X151154011Y-112821982D01*
X151084853Y-112831926D01*
X151050095Y-112821570D01*
X151010573Y-112803141D01*
X150946496Y-112773261D01*
X150946492Y-112773260D01*
X150946488Y-112773258D01*
X150726697Y-112714366D01*
X150726693Y-112714365D01*
X150726692Y-112714365D01*
X150726691Y-112714364D01*
X150726686Y-112714364D01*
X150500002Y-112694532D01*
X150499998Y-112694532D01*
X150273313Y-112714364D01*
X150273302Y-112714366D01*
X150207182Y-112732083D01*
X150137332Y-112730420D01*
X150087408Y-112699989D01*
X141440819Y-104053400D01*
X141407334Y-103992077D01*
X141404500Y-103965719D01*
X141404500Y-90230508D01*
X141424185Y-90163469D01*
X141476989Y-90117714D01*
X141546147Y-90107770D01*
X141560575Y-90110729D01*
G37*
%TD.AperFunction*%
%TA.AperFunction,Conductor*%
G36*
X113599000Y-88950160D02*
G01*
X113624964Y-89047061D01*
X113675124Y-89133940D01*
X113746060Y-89204876D01*
X113832939Y-89255036D01*
X113929840Y-89281000D01*
X113952553Y-89281000D01*
X113281810Y-89951740D01*
X113346590Y-89997099D01*
X113346592Y-89997100D01*
X113546715Y-90090419D01*
X113546729Y-90090424D01*
X113760013Y-90147573D01*
X113760023Y-90147575D01*
X113979999Y-90166821D01*
X113980001Y-90166821D01*
X114199976Y-90147575D01*
X114199986Y-90147573D01*
X114413270Y-90090424D01*
X114413284Y-90090419D01*
X114613407Y-89997100D01*
X114613417Y-89997094D01*
X114678188Y-89951741D01*
X114007448Y-89281000D01*
X114030160Y-89281000D01*
X114127061Y-89255036D01*
X114213940Y-89204876D01*
X114284876Y-89133940D01*
X114335036Y-89047061D01*
X114361000Y-88950160D01*
X114361000Y-88927447D01*
X115031741Y-89598188D01*
X115077094Y-89533417D01*
X115077095Y-89533416D01*
X115137340Y-89404219D01*
X115183512Y-89351780D01*
X115250706Y-89332627D01*
X115317587Y-89352842D01*
X115362105Y-89404218D01*
X115422466Y-89533662D01*
X115422468Y-89533666D01*
X115549170Y-89714615D01*
X115549175Y-89714621D01*
X115705378Y-89870824D01*
X115705384Y-89870829D01*
X115886333Y-89997531D01*
X115886335Y-89997532D01*
X115886338Y-89997534D01*
X116086550Y-90090894D01*
X116299932Y-90148070D01*
X116457123Y-90161822D01*
X116519998Y-90167323D01*
X116520000Y-90167323D01*
X116520002Y-90167323D01*
X116575017Y-90162509D01*
X116740068Y-90148070D01*
X116953450Y-90090894D01*
X117153662Y-89997534D01*
X117334620Y-89870826D01*
X117490826Y-89714620D01*
X117617534Y-89533662D01*
X117677618Y-89404811D01*
X117723790Y-89352371D01*
X117790983Y-89333219D01*
X117857865Y-89353435D01*
X117902382Y-89404811D01*
X117962464Y-89533658D01*
X117962468Y-89533666D01*
X118089170Y-89714615D01*
X118089174Y-89714620D01*
X118245380Y-89870826D01*
X118379624Y-89964824D01*
X118423248Y-90019399D01*
X118432500Y-90066398D01*
X118432500Y-93796555D01*
X118412815Y-93863594D01*
X118360011Y-93909349D01*
X118290853Y-93919293D01*
X118283783Y-93918035D01*
X118283449Y-93918000D01*
X118098151Y-93918000D01*
X117916903Y-93956524D01*
X117916895Y-93956526D01*
X117747622Y-94031892D01*
X117597709Y-94140811D01*
X117597706Y-94140813D01*
X117473722Y-94278514D01*
X117381074Y-94438985D01*
X117321805Y-94621396D01*
X117320359Y-94620926D01*
X117290858Y-94675566D01*
X117229693Y-94709340D01*
X117191957Y-94711827D01*
X117000002Y-94695034D01*
X116999998Y-94695034D01*
X116773400Y-94714858D01*
X116773389Y-94714860D01*
X116553682Y-94773730D01*
X116553673Y-94773734D01*
X116347516Y-94869866D01*
X116347512Y-94869868D01*
X116274526Y-94920973D01*
X116274526Y-94920974D01*
X116953553Y-95600000D01*
X116947339Y-95600000D01*
X116845606Y-95627259D01*
X116754394Y-95679920D01*
X116679920Y-95754394D01*
X116627259Y-95845606D01*
X116600000Y-95947339D01*
X116600000Y-95953552D01*
X115915799Y-95269351D01*
X115866805Y-95259505D01*
X115816622Y-95210889D01*
X115801981Y-95155366D01*
X115800900Y-95155423D01*
X115800854Y-95155429D01*
X115800853Y-95155426D01*
X115800676Y-95155436D01*
X115800499Y-95152135D01*
X115800499Y-95152128D01*
X115794091Y-95092517D01*
X115768829Y-95024787D01*
X115743797Y-94957671D01*
X115743793Y-94957664D01*
X115657547Y-94842455D01*
X115657544Y-94842452D01*
X115542335Y-94756206D01*
X115542328Y-94756202D01*
X115407482Y-94705908D01*
X115407483Y-94705908D01*
X115347883Y-94699501D01*
X115347881Y-94699500D01*
X115347873Y-94699500D01*
X115347865Y-94699500D01*
X115213261Y-94699500D01*
X115146222Y-94679815D01*
X115100467Y-94627011D01*
X115098700Y-94622954D01*
X115089194Y-94600005D01*
X115058407Y-94525679D01*
X115056763Y-94521084D01*
X114987414Y-94417296D01*
X114987413Y-94417294D01*
X114965223Y-94395104D01*
X114900008Y-94329889D01*
X112103819Y-91533700D01*
X112070334Y-91472377D01*
X112067500Y-91446019D01*
X112067500Y-90066398D01*
X112087185Y-89999359D01*
X112120374Y-89964825D01*
X112254620Y-89870826D01*
X112410826Y-89714620D01*
X112537534Y-89533662D01*
X112597894Y-89404218D01*
X112644066Y-89351779D01*
X112711259Y-89332627D01*
X112778141Y-89352843D01*
X112822658Y-89404219D01*
X112882898Y-89533405D01*
X112882901Y-89533411D01*
X112928258Y-89598187D01*
X112928258Y-89598188D01*
X113599000Y-88927446D01*
X113599000Y-88950160D01*
G37*
%TD.AperFunction*%
%TA.AperFunction,Conductor*%
G36*
X138177865Y-63953435D02*
G01*
X138222382Y-64004811D01*
X138282464Y-64133658D01*
X138282468Y-64133666D01*
X138409170Y-64314615D01*
X138409175Y-64314621D01*
X138565378Y-64470824D01*
X138565384Y-64470829D01*
X138746333Y-64597531D01*
X138746335Y-64597532D01*
X138746338Y-64597534D01*
X138946550Y-64690894D01*
X139159932Y-64748070D01*
X139317123Y-64761822D01*
X139379998Y-64767323D01*
X139380000Y-64767323D01*
X139380002Y-64767323D01*
X139435151Y-64762498D01*
X139600068Y-64748070D01*
X139641791Y-64736890D01*
X139711640Y-64738553D01*
X139761565Y-64768984D01*
X142565888Y-67573308D01*
X142565892Y-67573311D01*
X142668660Y-67641979D01*
X142668673Y-67641986D01*
X142782860Y-67689283D01*
X142782865Y-67689285D01*
X142782869Y-67689285D01*
X142782870Y-67689286D01*
X142904093Y-67713400D01*
X142904096Y-67713400D01*
X142904097Y-67713400D01*
X143737765Y-67713400D01*
X143804804Y-67733085D01*
X143850559Y-67785889D01*
X143860503Y-67855047D01*
X143850147Y-67889805D01*
X143773734Y-68053673D01*
X143773730Y-68053682D01*
X143721127Y-68249999D01*
X143721128Y-68250000D01*
X144684314Y-68250000D01*
X144679920Y-68254394D01*
X144627259Y-68345606D01*
X144600000Y-68447339D01*
X144600000Y-68552661D01*
X144627259Y-68654394D01*
X144679920Y-68745606D01*
X144684314Y-68750000D01*
X143721128Y-68750000D01*
X143773730Y-68946317D01*
X143773734Y-68946326D01*
X143869865Y-69152482D01*
X144000342Y-69338820D01*
X144161179Y-69499657D01*
X144347517Y-69630134D01*
X144553673Y-69726265D01*
X144553682Y-69726269D01*
X144749999Y-69778872D01*
X144750000Y-69778871D01*
X144750000Y-68815686D01*
X144754394Y-68820080D01*
X144845606Y-68872741D01*
X144947339Y-68900000D01*
X145052661Y-68900000D01*
X145154394Y-68872741D01*
X145245606Y-68820080D01*
X145250000Y-68815686D01*
X145250000Y-69778872D01*
X145446317Y-69726269D01*
X145446326Y-69726265D01*
X145652482Y-69630134D01*
X145838820Y-69499657D01*
X145999657Y-69338820D01*
X146130134Y-69152481D01*
X146130135Y-69152479D01*
X146159420Y-69089679D01*
X146205592Y-69037239D01*
X146272785Y-69018087D01*
X146339667Y-69038303D01*
X146359483Y-69054402D01*
X151952181Y-74647100D01*
X151985666Y-74708423D01*
X151988500Y-74734781D01*
X151988500Y-92795203D01*
X151968815Y-92862242D01*
X151916011Y-92907997D01*
X151846853Y-92917941D01*
X151783297Y-92888916D01*
X151765234Y-92869514D01*
X151707547Y-92792455D01*
X151707544Y-92792452D01*
X151592335Y-92706206D01*
X151592328Y-92706202D01*
X151457482Y-92655908D01*
X151457483Y-92655908D01*
X151397883Y-92649501D01*
X151397881Y-92649500D01*
X151397873Y-92649500D01*
X151397864Y-92649500D01*
X149602129Y-92649500D01*
X149602123Y-92649501D01*
X149542516Y-92655908D01*
X149407671Y-92706202D01*
X149407664Y-92706206D01*
X149292455Y-92792452D01*
X149292452Y-92792455D01*
X149206206Y-92907664D01*
X149206202Y-92907671D01*
X149155908Y-93042517D01*
X149149501Y-93102116D01*
X149149500Y-93102135D01*
X149149500Y-94897870D01*
X149149501Y-94897876D01*
X149155908Y-94957483D01*
X149206202Y-95092328D01*
X149206206Y-95092335D01*
X149292452Y-95207544D01*
X149292455Y-95207547D01*
X149407664Y-95293793D01*
X149407671Y-95293797D01*
X149539082Y-95342810D01*
X149595016Y-95384681D01*
X149619433Y-95450145D01*
X149604582Y-95518418D01*
X149583430Y-95546673D01*
X149460092Y-95670011D01*
X149398769Y-95703496D01*
X149329077Y-95698512D01*
X149284730Y-95670011D01*
X145123819Y-91509100D01*
X145090334Y-91447777D01*
X145087500Y-91421419D01*
X145087500Y-90066398D01*
X145107185Y-89999359D01*
X145140374Y-89964825D01*
X145274620Y-89870826D01*
X145430826Y-89714620D01*
X145557534Y-89533662D01*
X145617618Y-89404811D01*
X145663790Y-89352371D01*
X145730983Y-89333219D01*
X145797865Y-89353435D01*
X145842382Y-89404811D01*
X145902464Y-89533658D01*
X145902468Y-89533666D01*
X146029170Y-89714615D01*
X146029175Y-89714621D01*
X146185378Y-89870824D01*
X146185384Y-89870829D01*
X146366333Y-89997531D01*
X146366335Y-89997532D01*
X146366338Y-89997534D01*
X146566550Y-90090894D01*
X146779932Y-90148070D01*
X146937123Y-90161822D01*
X146999998Y-90167323D01*
X147000000Y-90167323D01*
X147000002Y-90167323D01*
X147055017Y-90162509D01*
X147220068Y-90148070D01*
X147433450Y-90090894D01*
X147633662Y-89997534D01*
X147814620Y-89870826D01*
X147970826Y-89714620D01*
X148097534Y-89533662D01*
X148190894Y-89333450D01*
X148248070Y-89120068D01*
X148267323Y-88900000D01*
X148248070Y-88679932D01*
X148190894Y-88466550D01*
X148097534Y-88266339D01*
X147970826Y-88085380D01*
X147814620Y-87929174D01*
X147814616Y-87929171D01*
X147814615Y-87929170D01*
X147633666Y-87802468D01*
X147633662Y-87802466D01*
X147627499Y-87799592D01*
X147433450Y-87709106D01*
X147433447Y-87709105D01*
X147433445Y-87709104D01*
X147220070Y-87651930D01*
X147220062Y-87651929D01*
X147000002Y-87632677D01*
X146999998Y-87632677D01*
X146779937Y-87651929D01*
X146779929Y-87651930D01*
X146566554Y-87709104D01*
X146566548Y-87709107D01*
X146366340Y-87802465D01*
X146366338Y-87802466D01*
X146185377Y-87929175D01*
X146029175Y-88085377D01*
X145902466Y-88266338D01*
X145902465Y-88266340D01*
X145842382Y-88395189D01*
X145796209Y-88447628D01*
X145729016Y-88466780D01*
X145662135Y-88446564D01*
X145617618Y-88395189D01*
X145569900Y-88292859D01*
X145557534Y-88266339D01*
X145430826Y-88085380D01*
X145274620Y-87929174D01*
X145274616Y-87929171D01*
X145274615Y-87929170D01*
X145093666Y-87802468D01*
X145093662Y-87802466D01*
X145087499Y-87799592D01*
X144893450Y-87709106D01*
X144893447Y-87709105D01*
X144893445Y-87709104D01*
X144680070Y-87651930D01*
X144680062Y-87651929D01*
X144460002Y-87632677D01*
X144459998Y-87632677D01*
X144239937Y-87651929D01*
X144239929Y-87651930D01*
X144026554Y-87709104D01*
X144026550Y-87709106D01*
X143866904Y-87783550D01*
X143797827Y-87794042D01*
X143734043Y-87765522D01*
X143695804Y-87707046D01*
X143690500Y-87671168D01*
X143690500Y-84790470D01*
X143710185Y-84723431D01*
X143762989Y-84677676D01*
X143832147Y-84667732D01*
X143895703Y-84696757D01*
X143916072Y-84719344D01*
X143945456Y-84761308D01*
X143999954Y-84839141D01*
X144160858Y-85000045D01*
X144160861Y-85000047D01*
X144347266Y-85130568D01*
X144553504Y-85226739D01*
X144773308Y-85285635D01*
X144926448Y-85299033D01*
X144999998Y-85305468D01*
X145000000Y-85305468D01*
X145000002Y-85305468D01*
X145073552Y-85299033D01*
X145226692Y-85285635D01*
X145446496Y-85226739D01*
X145652734Y-85130568D01*
X145839139Y-85000047D01*
X146000047Y-84839139D01*
X146130568Y-84652734D01*
X146226739Y-84446496D01*
X146285635Y-84226692D01*
X146302634Y-84032384D01*
X146305468Y-84000001D01*
X146305468Y-83999998D01*
X146296969Y-83902855D01*
X146285635Y-83773308D01*
X146226739Y-83553504D01*
X146130568Y-83347266D01*
X146000047Y-83160861D01*
X146000045Y-83160858D01*
X145839141Y-82999954D01*
X145652734Y-82869432D01*
X145652732Y-82869431D01*
X145446497Y-82773261D01*
X145446488Y-82773258D01*
X145226697Y-82714366D01*
X145226693Y-82714365D01*
X145226692Y-82714365D01*
X145226691Y-82714364D01*
X145226686Y-82714364D01*
X145000002Y-82694532D01*
X144999998Y-82694532D01*
X144773313Y-82714364D01*
X144773302Y-82714366D01*
X144553511Y-82773258D01*
X144553502Y-82773261D01*
X144347267Y-82869431D01*
X144347265Y-82869432D01*
X144160858Y-82999954D01*
X143999954Y-83160858D01*
X143916075Y-83280652D01*
X143861499Y-83324277D01*
X143792000Y-83331471D01*
X143729645Y-83299948D01*
X143694231Y-83239719D01*
X143690500Y-83209529D01*
X143690500Y-72201196D01*
X143685689Y-72177013D01*
X143685688Y-72177012D01*
X143685688Y-72177008D01*
X143666385Y-72079965D01*
X143619083Y-71965767D01*
X143550411Y-71862991D01*
X143550406Y-71862985D01*
X136658706Y-64971287D01*
X136625221Y-64909964D01*
X136630205Y-64840272D01*
X136672077Y-64784339D01*
X136737541Y-64759922D01*
X136757186Y-64760077D01*
X136830466Y-64766488D01*
X136839999Y-64767323D01*
X136840000Y-64767323D01*
X136840002Y-64767323D01*
X136895151Y-64762498D01*
X137060068Y-64748070D01*
X137273450Y-64690894D01*
X137473662Y-64597534D01*
X137654620Y-64470826D01*
X137810826Y-64314620D01*
X137937534Y-64133662D01*
X137997618Y-64004811D01*
X138043790Y-63952371D01*
X138110983Y-63933219D01*
X138177865Y-63953435D01*
G37*
%TD.AperFunction*%
%TA.AperFunction,Conductor*%
G36*
X123141703Y-79529568D02*
G01*
X123148181Y-79535600D01*
X126016181Y-82403600D01*
X126049666Y-82464923D01*
X126052500Y-82491281D01*
X126052500Y-87733601D01*
X126032815Y-87800640D01*
X125999623Y-87835176D01*
X125865378Y-87929174D01*
X125709175Y-88085377D01*
X125582466Y-88266338D01*
X125582465Y-88266340D01*
X125522382Y-88395189D01*
X125476209Y-88447628D01*
X125409016Y-88466780D01*
X125342135Y-88446564D01*
X125297618Y-88395189D01*
X125249900Y-88292859D01*
X125237534Y-88266339D01*
X125110826Y-88085380D01*
X124954620Y-87929174D01*
X124954616Y-87929171D01*
X124954615Y-87929170D01*
X124773666Y-87802468D01*
X124773662Y-87802466D01*
X124767499Y-87799592D01*
X124573450Y-87709106D01*
X124573447Y-87709105D01*
X124573445Y-87709104D01*
X124360070Y-87651930D01*
X124360062Y-87651929D01*
X124140002Y-87632677D01*
X124139998Y-87632677D01*
X123919938Y-87651929D01*
X123919933Y-87651929D01*
X123919932Y-87651930D01*
X123919929Y-87651930D01*
X123919928Y-87651931D01*
X123878205Y-87663110D01*
X123808356Y-87661445D01*
X123758434Y-87631015D01*
X122972819Y-86845400D01*
X122939334Y-86784077D01*
X122936500Y-86757719D01*
X122936500Y-84761308D01*
X122956185Y-84694269D01*
X122972819Y-84673627D01*
X123600000Y-84046446D01*
X123600000Y-84052661D01*
X123627259Y-84154394D01*
X123679920Y-84245606D01*
X123754394Y-84320080D01*
X123845606Y-84372741D01*
X123947339Y-84400000D01*
X123953553Y-84400000D01*
X123274526Y-85079025D01*
X123347513Y-85130132D01*
X123347521Y-85130136D01*
X123553668Y-85226264D01*
X123553682Y-85226269D01*
X123773389Y-85285139D01*
X123773400Y-85285141D01*
X123999998Y-85304966D01*
X124000002Y-85304966D01*
X124226599Y-85285141D01*
X124226610Y-85285139D01*
X124446317Y-85226269D01*
X124446331Y-85226264D01*
X124652478Y-85130136D01*
X124725471Y-85079024D01*
X124046447Y-84400000D01*
X124052661Y-84400000D01*
X124154394Y-84372741D01*
X124245606Y-84320080D01*
X124320080Y-84245606D01*
X124372741Y-84154394D01*
X124400000Y-84052661D01*
X124400000Y-84046447D01*
X125079024Y-84725471D01*
X125130136Y-84652478D01*
X125226264Y-84446331D01*
X125226269Y-84446317D01*
X125285139Y-84226610D01*
X125285141Y-84226599D01*
X125304966Y-84000002D01*
X125304966Y-83999997D01*
X125285141Y-83773400D01*
X125285139Y-83773389D01*
X125226269Y-83553682D01*
X125226264Y-83553668D01*
X125130136Y-83347521D01*
X125130132Y-83347513D01*
X125079025Y-83274526D01*
X124400000Y-83953551D01*
X124400000Y-83947339D01*
X124372741Y-83845606D01*
X124320080Y-83754394D01*
X124245606Y-83679920D01*
X124154394Y-83627259D01*
X124052661Y-83600000D01*
X124046445Y-83600000D01*
X124725472Y-82920974D01*
X124652478Y-82869863D01*
X124446331Y-82773735D01*
X124446317Y-82773730D01*
X124226610Y-82714860D01*
X124226599Y-82714858D01*
X124000002Y-82695034D01*
X123999998Y-82695034D01*
X123773400Y-82714858D01*
X123773389Y-82714860D01*
X123553682Y-82773730D01*
X123553673Y-82773734D01*
X123347516Y-82869866D01*
X123347512Y-82869868D01*
X123274526Y-82920973D01*
X123274526Y-82920974D01*
X123953553Y-83600000D01*
X123947339Y-83600000D01*
X123845606Y-83627259D01*
X123754394Y-83679920D01*
X123679920Y-83754394D01*
X123627259Y-83845606D01*
X123600000Y-83947339D01*
X123600000Y-83953553D01*
X122972819Y-83326372D01*
X122939334Y-83265049D01*
X122936500Y-83238691D01*
X122936500Y-79623281D01*
X122956185Y-79556242D01*
X123008989Y-79510487D01*
X123078147Y-79500543D01*
X123141703Y-79529568D01*
G37*
%TD.AperFunction*%
%TA.AperFunction,Conductor*%
G36*
X133950000Y-78830633D02*
G01*
X134163483Y-78773433D01*
X134163492Y-78773429D01*
X134377578Y-78673600D01*
X134571082Y-78538105D01*
X134738105Y-78371082D01*
X134868119Y-78185405D01*
X134922696Y-78141781D01*
X134992195Y-78134588D01*
X135054549Y-78166110D01*
X135071269Y-78185405D01*
X135201505Y-78371401D01*
X135368599Y-78538495D01*
X135465384Y-78606265D01*
X135562165Y-78674032D01*
X135562167Y-78674033D01*
X135562170Y-78674035D01*
X135776337Y-78773903D01*
X135776343Y-78773904D01*
X135776344Y-78773905D01*
X135792594Y-78778259D01*
X136004592Y-78835063D01*
X136192918Y-78851539D01*
X136239999Y-78855659D01*
X136240000Y-78855659D01*
X136240001Y-78855659D01*
X136279234Y-78852226D01*
X136475408Y-78835063D01*
X136703663Y-78773903D01*
X136917830Y-78674035D01*
X137111401Y-78538495D01*
X137199519Y-78450377D01*
X137260842Y-78416892D01*
X137330534Y-78421876D01*
X137386467Y-78463748D01*
X137410884Y-78529212D01*
X137411200Y-78538058D01*
X137411200Y-87584415D01*
X137391515Y-87651454D01*
X137338711Y-87697209D01*
X137269553Y-87707153D01*
X137255107Y-87704190D01*
X137060073Y-87651931D01*
X137060069Y-87651930D01*
X137060068Y-87651930D01*
X137060067Y-87651929D01*
X137060062Y-87651929D01*
X136840002Y-87632677D01*
X136839998Y-87632677D01*
X136619937Y-87651929D01*
X136619929Y-87651930D01*
X136406554Y-87709104D01*
X136406548Y-87709107D01*
X136206340Y-87802465D01*
X136206338Y-87802466D01*
X136025377Y-87929175D01*
X135869175Y-88085377D01*
X135742466Y-88266338D01*
X135742465Y-88266340D01*
X135682382Y-88395189D01*
X135636209Y-88447628D01*
X135569016Y-88466780D01*
X135502135Y-88446564D01*
X135457618Y-88395189D01*
X135409900Y-88292859D01*
X135397534Y-88266339D01*
X135270826Y-88085380D01*
X135114620Y-87929174D01*
X134980377Y-87835176D01*
X134980376Y-87835175D01*
X134936751Y-87780598D01*
X134927500Y-87733600D01*
X134927500Y-85658194D01*
X134903386Y-85536970D01*
X134903385Y-85536969D01*
X134903385Y-85536965D01*
X134903383Y-85536960D01*
X134873350Y-85464452D01*
X134865881Y-85394983D01*
X134897157Y-85332504D01*
X134957246Y-85296852D01*
X134977094Y-85293473D01*
X135066692Y-85285635D01*
X135286496Y-85226739D01*
X135492734Y-85130568D01*
X135679139Y-85000047D01*
X135840047Y-84839139D01*
X135970568Y-84652734D01*
X136066739Y-84446496D01*
X136125635Y-84226692D01*
X136142634Y-84032384D01*
X136145468Y-84000001D01*
X136145468Y-83999998D01*
X136136969Y-83902855D01*
X136125635Y-83773308D01*
X136066739Y-83553504D01*
X135970568Y-83347266D01*
X135840047Y-83160861D01*
X135840045Y-83160858D01*
X135679141Y-82999954D01*
X135492734Y-82869432D01*
X135492732Y-82869431D01*
X135286497Y-82773261D01*
X135286488Y-82773258D01*
X135066697Y-82714366D01*
X135066693Y-82714365D01*
X135066692Y-82714365D01*
X135066691Y-82714364D01*
X135066686Y-82714364D01*
X134840002Y-82694532D01*
X134839998Y-82694532D01*
X134613313Y-82714364D01*
X134613302Y-82714366D01*
X134393511Y-82773258D01*
X134393502Y-82773261D01*
X134187267Y-82869431D01*
X134187265Y-82869432D01*
X134000858Y-82999954D01*
X133839954Y-83160858D01*
X133709432Y-83347265D01*
X133709431Y-83347267D01*
X133613261Y-83553502D01*
X133613258Y-83553511D01*
X133554366Y-83773302D01*
X133554364Y-83773312D01*
X133552309Y-83796808D01*
X133526856Y-83861877D01*
X133470265Y-83902855D01*
X133400503Y-83906733D01*
X133341100Y-83873681D01*
X128534759Y-79067340D01*
X128501274Y-79006017D01*
X128506258Y-78936325D01*
X128548130Y-78880392D01*
X128613594Y-78855975D01*
X128618317Y-78855806D01*
X128619998Y-78855658D01*
X128620000Y-78855659D01*
X128855408Y-78835063D01*
X129083663Y-78773903D01*
X129297830Y-78674035D01*
X129491401Y-78538495D01*
X129658495Y-78371401D01*
X129788425Y-78185842D01*
X129843002Y-78142217D01*
X129912500Y-78135023D01*
X129974855Y-78166546D01*
X129991575Y-78185842D01*
X130121281Y-78371082D01*
X130121505Y-78371401D01*
X130288599Y-78538495D01*
X130385384Y-78606265D01*
X130482165Y-78674032D01*
X130482167Y-78674033D01*
X130482170Y-78674035D01*
X130696337Y-78773903D01*
X130696343Y-78773904D01*
X130696344Y-78773905D01*
X130712594Y-78778259D01*
X130924592Y-78835063D01*
X131112918Y-78851539D01*
X131159999Y-78855659D01*
X131160000Y-78855659D01*
X131160001Y-78855659D01*
X131199234Y-78852226D01*
X131395408Y-78835063D01*
X131623663Y-78773903D01*
X131837830Y-78674035D01*
X132031401Y-78538495D01*
X132198495Y-78371401D01*
X132328730Y-78185405D01*
X132383307Y-78141781D01*
X132452805Y-78134587D01*
X132515160Y-78166110D01*
X132531879Y-78185405D01*
X132661890Y-78371078D01*
X132828917Y-78538105D01*
X133022421Y-78673600D01*
X133236507Y-78773429D01*
X133236516Y-78773433D01*
X133450000Y-78830634D01*
X133450000Y-77933012D01*
X133507007Y-77965925D01*
X133634174Y-78000000D01*
X133765826Y-78000000D01*
X133892993Y-77965925D01*
X133950000Y-77933012D01*
X133950000Y-78830633D01*
G37*
%TD.AperFunction*%
%TA.AperFunction,Conductor*%
G36*
X153338193Y-61520185D02*
G01*
X153383948Y-61572989D01*
X153393892Y-61642147D01*
X153372458Y-61696008D01*
X153217255Y-61915879D01*
X153217251Y-61915885D01*
X153086234Y-62168738D01*
X152990871Y-62437062D01*
X152990870Y-62437065D01*
X152932930Y-62715893D01*
X152913497Y-63000000D01*
X152932930Y-63284106D01*
X152990870Y-63562934D01*
X152990871Y-63562937D01*
X153086234Y-63831261D01*
X153086233Y-63831261D01*
X153175853Y-64004218D01*
X153217251Y-64084113D01*
X153379961Y-64314621D01*
X153381480Y-64316772D01*
X153430709Y-64369483D01*
X153575851Y-64524891D01*
X153796755Y-64704610D01*
X153796757Y-64704611D01*
X153796758Y-64704612D01*
X154040074Y-64852576D01*
X154252069Y-64944657D01*
X154301273Y-64966030D01*
X154575488Y-65042862D01*
X154823519Y-65076953D01*
X154857611Y-65081639D01*
X154857612Y-65081639D01*
X155142389Y-65081639D01*
X155172804Y-65077458D01*
X155424512Y-65042862D01*
X155698727Y-64966030D01*
X155959927Y-64852575D01*
X156203245Y-64704610D01*
X156297245Y-64628134D01*
X156361671Y-64601097D01*
X156430488Y-64613182D01*
X156481846Y-64660554D01*
X156499500Y-64724323D01*
X156499500Y-116275676D01*
X156479815Y-116342715D01*
X156427011Y-116388470D01*
X156357853Y-116398414D01*
X156297246Y-116371865D01*
X156257396Y-116339445D01*
X156203245Y-116295390D01*
X156170827Y-116275676D01*
X155959925Y-116147423D01*
X155698728Y-116033970D01*
X155424517Y-115957139D01*
X155424513Y-115957138D01*
X155424512Y-115957138D01*
X155267033Y-115935493D01*
X155142389Y-115918361D01*
X155142388Y-115918361D01*
X154857612Y-115918361D01*
X154857611Y-115918361D01*
X154575488Y-115957138D01*
X154575482Y-115957139D01*
X154301271Y-116033970D01*
X154040074Y-116147423D01*
X153796758Y-116295387D01*
X153575854Y-116475106D01*
X153381480Y-116683227D01*
X153217251Y-116915886D01*
X153086234Y-117168738D01*
X152990871Y-117437062D01*
X152990870Y-117437065D01*
X152932930Y-117715893D01*
X152913497Y-118000000D01*
X152932930Y-118284106D01*
X152932930Y-118284110D01*
X152932931Y-118284112D01*
X152937369Y-118305468D01*
X152990870Y-118562934D01*
X152990871Y-118562937D01*
X153086234Y-118831261D01*
X153086233Y-118831261D01*
X153217251Y-119084114D01*
X153217255Y-119084120D01*
X153372458Y-119303992D01*
X153395037Y-119370113D01*
X153378284Y-119437944D01*
X153327517Y-119485950D01*
X153271154Y-119499500D01*
X101228846Y-119499500D01*
X101161807Y-119479815D01*
X101116052Y-119427011D01*
X101106108Y-119357853D01*
X101127542Y-119303992D01*
X101282744Y-119084120D01*
X101282748Y-119084114D01*
X101282749Y-119084113D01*
X101413764Y-118831265D01*
X101509130Y-118562932D01*
X101567069Y-118284112D01*
X101586503Y-118000000D01*
X101567069Y-117715888D01*
X101509130Y-117437068D01*
X101413765Y-117168738D01*
X101413766Y-117168738D01*
X101322958Y-116993487D01*
X101282749Y-116915887D01*
X101118524Y-116683233D01*
X101118520Y-116683229D01*
X101118519Y-116683227D01*
X101029028Y-116587407D01*
X100924149Y-116475109D01*
X100703245Y-116295390D01*
X100703243Y-116295389D01*
X100703241Y-116295387D01*
X100459925Y-116147423D01*
X100198728Y-116033970D01*
X99924517Y-115957139D01*
X99924513Y-115957138D01*
X99924512Y-115957138D01*
X99767033Y-115935493D01*
X99642389Y-115918361D01*
X99642388Y-115918361D01*
X99357612Y-115918361D01*
X99357611Y-115918361D01*
X99075488Y-115957138D01*
X99075482Y-115957139D01*
X98801271Y-116033970D01*
X98540074Y-116147423D01*
X98296759Y-116295387D01*
X98202754Y-116371865D01*
X98138328Y-116398903D01*
X98069512Y-116386817D01*
X98018154Y-116339445D01*
X98000500Y-116275676D01*
X98000500Y-114773921D01*
X106250000Y-114773921D01*
X106250000Y-115492500D01*
X107066988Y-115492500D01*
X107034075Y-115549507D01*
X107000000Y-115676674D01*
X107000000Y-115808326D01*
X107034075Y-115935493D01*
X107066988Y-115992500D01*
X106250001Y-115992500D01*
X106250001Y-116711088D01*
X106252794Y-116763691D01*
X106297237Y-116993487D01*
X106379879Y-117212475D01*
X106498339Y-117414341D01*
X106498344Y-117414348D01*
X106649211Y-117593286D01*
X106649213Y-117593288D01*
X106828151Y-117744155D01*
X106828158Y-117744160D01*
X107030024Y-117862620D01*
X107249012Y-117945262D01*
X107478809Y-117989705D01*
X107531382Y-117992498D01*
X107531421Y-117992499D01*
X108249999Y-117992499D01*
X108250000Y-117992498D01*
X108250000Y-116242500D01*
X108750000Y-116242500D01*
X108750000Y-117992499D01*
X109468576Y-117992499D01*
X109468588Y-117992498D01*
X109521191Y-117989705D01*
X109750987Y-117945262D01*
X109969975Y-117862620D01*
X110171841Y-117744160D01*
X110171848Y-117744155D01*
X110350786Y-117593288D01*
X110350788Y-117593286D01*
X110501655Y-117414348D01*
X110501660Y-117414341D01*
X110620120Y-117212475D01*
X110702762Y-116993487D01*
X110747205Y-116763691D01*
X110747205Y-116763690D01*
X110749998Y-116711117D01*
X110750000Y-116711078D01*
X110750000Y-116310000D01*
X116394551Y-116310000D01*
X116414317Y-116561151D01*
X116473126Y-116806110D01*
X116569533Y-117038859D01*
X116701160Y-117253653D01*
X116701161Y-117253656D01*
X116701164Y-117253659D01*
X116864776Y-117445224D01*
X117013066Y-117571875D01*
X117056343Y-117608838D01*
X117056345Y-117608838D01*
X117076661Y-117621288D01*
X117271140Y-117740466D01*
X117418329Y-117801433D01*
X117503889Y-117836873D01*
X117748852Y-117895683D01*
X118000000Y-117915449D01*
X118251148Y-117895683D01*
X118496111Y-117836873D01*
X118728859Y-117740466D01*
X118943659Y-117608836D01*
X119135224Y-117445224D01*
X119298836Y-117253659D01*
X119430466Y-117038859D01*
X119526873Y-116806111D01*
X119585683Y-116561148D01*
X119605449Y-116310000D01*
X119585683Y-116058852D01*
X119526873Y-115813889D01*
X119492988Y-115732083D01*
X119430466Y-115581140D01*
X119298839Y-115366346D01*
X119298838Y-115366343D01*
X119261875Y-115323066D01*
X119135224Y-115174776D01*
X119008571Y-115066604D01*
X118943656Y-115011161D01*
X118943653Y-115011160D01*
X118728859Y-114879533D01*
X118496110Y-114783126D01*
X118251151Y-114724317D01*
X118000000Y-114704551D01*
X117748848Y-114724317D01*
X117503889Y-114783126D01*
X117271140Y-114879533D01*
X117056346Y-115011160D01*
X117056343Y-115011161D01*
X116864776Y-115174776D01*
X116701161Y-115366343D01*
X116701160Y-115366346D01*
X116569533Y-115581140D01*
X116473126Y-115813889D01*
X116414317Y-116058848D01*
X116394551Y-116310000D01*
X110750000Y-116310000D01*
X110750000Y-115992500D01*
X109933012Y-115992500D01*
X109965925Y-115935493D01*
X110000000Y-115808326D01*
X110000000Y-115676674D01*
X109965925Y-115549507D01*
X109933012Y-115492500D01*
X110749999Y-115492500D01*
X110749999Y-114773923D01*
X110749998Y-114773911D01*
X110747205Y-114721308D01*
X110702762Y-114491512D01*
X110620120Y-114272524D01*
X110501660Y-114070658D01*
X110501655Y-114070651D01*
X110350788Y-113891713D01*
X110350786Y-113891711D01*
X110171848Y-113740844D01*
X110171841Y-113740839D01*
X109969975Y-113622379D01*
X109750984Y-113539736D01*
X109745840Y-113538741D01*
X109683760Y-113506680D01*
X109648869Y-113446146D01*
X109652244Y-113376358D01*
X109692814Y-113319473D01*
X109757697Y-113293552D01*
X109769374Y-113292999D01*
X113297872Y-113292999D01*
X113357483Y-113286591D01*
X113492331Y-113236296D01*
X113607546Y-113150046D01*
X113693796Y-113034831D01*
X113744091Y-112899983D01*
X113750500Y-112840373D01*
X113750499Y-109244628D01*
X113744091Y-109185017D01*
X113717603Y-109114000D01*
X113693797Y-109050171D01*
X113693793Y-109050164D01*
X113607547Y-108934955D01*
X113607544Y-108934952D01*
X113492335Y-108848706D01*
X113492328Y-108848702D01*
X113357482Y-108798408D01*
X113357483Y-108798408D01*
X113297883Y-108792001D01*
X113297881Y-108792000D01*
X113297873Y-108792000D01*
X113297864Y-108792000D01*
X109702129Y-108792000D01*
X109702123Y-108792001D01*
X109642516Y-108798408D01*
X109507671Y-108848702D01*
X109507664Y-108848706D01*
X109392455Y-108934952D01*
X109392452Y-108934955D01*
X109306206Y-109050164D01*
X109306202Y-109050171D01*
X109255908Y-109185017D01*
X109249997Y-109240000D01*
X109249501Y-109244623D01*
X109249500Y-109244635D01*
X109249500Y-112840370D01*
X109249501Y-112840376D01*
X109255908Y-112899983D01*
X109306202Y-113034828D01*
X109306206Y-113034835D01*
X109392452Y-113150044D01*
X109392455Y-113150047D01*
X109507664Y-113236293D01*
X109507673Y-113236298D01*
X109556506Y-113254511D01*
X109612440Y-113296381D01*
X109636858Y-113361845D01*
X109622007Y-113430118D01*
X109572603Y-113479524D01*
X109506598Y-113494518D01*
X109468625Y-113492501D01*
X109468579Y-113492500D01*
X108750000Y-113492500D01*
X108750000Y-115242500D01*
X108250000Y-115242500D01*
X108250000Y-113492500D01*
X107531423Y-113492500D01*
X107531411Y-113492501D01*
X107478808Y-113495294D01*
X107249012Y-113539737D01*
X107030024Y-113622379D01*
X106828158Y-113740839D01*
X106828151Y-113740844D01*
X106649213Y-113891711D01*
X106649211Y-113891713D01*
X106498344Y-114070651D01*
X106498339Y-114070658D01*
X106379879Y-114272524D01*
X106297237Y-114491512D01*
X106252794Y-114721308D01*
X106252794Y-114721309D01*
X106250001Y-114773882D01*
X106250000Y-114773921D01*
X98000500Y-114773921D01*
X98000500Y-109978303D01*
X103500000Y-109978303D01*
X103500000Y-110792500D01*
X105000000Y-110792500D01*
X105000000Y-111292500D01*
X103500001Y-111292500D01*
X103500001Y-112106697D01*
X103510400Y-112238832D01*
X103565377Y-112457019D01*
X103658428Y-112661874D01*
X103658431Y-112661880D01*
X103786559Y-112846823D01*
X103786569Y-112846835D01*
X103945664Y-113005930D01*
X103945676Y-113005940D01*
X104130619Y-113134068D01*
X104130625Y-113134071D01*
X104335480Y-113227122D01*
X104553667Y-113282099D01*
X104685810Y-113292499D01*
X105249999Y-113292499D01*
X105250000Y-113292498D01*
X105250000Y-112475512D01*
X105307007Y-112508425D01*
X105434174Y-112542500D01*
X105565826Y-112542500D01*
X105692993Y-112508425D01*
X105750000Y-112475512D01*
X105750000Y-113292499D01*
X106314182Y-113292499D01*
X106314197Y-113292498D01*
X106446332Y-113282099D01*
X106664519Y-113227122D01*
X106869374Y-113134071D01*
X106869380Y-113134068D01*
X107054323Y-113005940D01*
X107054335Y-113005930D01*
X107213430Y-112846835D01*
X107213440Y-112846823D01*
X107341568Y-112661880D01*
X107341571Y-112661874D01*
X107434622Y-112457019D01*
X107489599Y-112238832D01*
X107499999Y-112106696D01*
X107500000Y-112106684D01*
X107500000Y-111292500D01*
X106000000Y-111292500D01*
X106000000Y-110792500D01*
X107499999Y-110792500D01*
X107499999Y-109978317D01*
X107499998Y-109978302D01*
X107489599Y-109846167D01*
X107434622Y-109627980D01*
X107341571Y-109423125D01*
X107341568Y-109423119D01*
X107213440Y-109238176D01*
X107213430Y-109238164D01*
X107054335Y-109079069D01*
X107054323Y-109079059D01*
X106869380Y-108950931D01*
X106869374Y-108950928D01*
X106664519Y-108857877D01*
X106446332Y-108802900D01*
X106314196Y-108792500D01*
X105750000Y-108792500D01*
X105750000Y-109609488D01*
X105692993Y-109576575D01*
X105565826Y-109542500D01*
X105434174Y-109542500D01*
X105307007Y-109576575D01*
X105250000Y-109609488D01*
X105250000Y-108792500D01*
X104685817Y-108792500D01*
X104685802Y-108792501D01*
X104553667Y-108802900D01*
X104335480Y-108857877D01*
X104130625Y-108950928D01*
X104130619Y-108950931D01*
X103945676Y-109079059D01*
X103945664Y-109079069D01*
X103786569Y-109238164D01*
X103786559Y-109238176D01*
X103658431Y-109423119D01*
X103658428Y-109423125D01*
X103565377Y-109627980D01*
X103510400Y-109846167D01*
X103500000Y-109978303D01*
X98000500Y-109978303D01*
X98000500Y-107542135D01*
X116399500Y-107542135D01*
X116399500Y-109837870D01*
X116399501Y-109837876D01*
X116405908Y-109897483D01*
X116456202Y-110032328D01*
X116456206Y-110032335D01*
X116542452Y-110147544D01*
X116542455Y-110147547D01*
X116657664Y-110233793D01*
X116657671Y-110233797D01*
X116792517Y-110284091D01*
X116792516Y-110284091D01*
X116799444Y-110284835D01*
X116852127Y-110290500D01*
X119147872Y-110290499D01*
X119207483Y-110284091D01*
X119342331Y-110233796D01*
X119457546Y-110147546D01*
X119543796Y-110032331D01*
X119594091Y-109897483D01*
X119597298Y-109867649D01*
X119624035Y-109803102D01*
X119681427Y-109763253D01*
X119682163Y-109763011D01*
X119704193Y-109755853D01*
X119745881Y-109742309D01*
X119905132Y-109661167D01*
X120049728Y-109556111D01*
X120176111Y-109429728D01*
X120234670Y-109371169D01*
X120234683Y-109371154D01*
X120605839Y-108999998D01*
X127494891Y-108999998D01*
X127494891Y-109000001D01*
X127515300Y-109285362D01*
X127576109Y-109564895D01*
X127676091Y-109832958D01*
X127813191Y-110084038D01*
X127813196Y-110084046D01*
X127919882Y-110226562D01*
X127919883Y-110226563D01*
X128860690Y-109285756D01*
X128879668Y-109331574D01*
X128956274Y-109446224D01*
X129053776Y-109543726D01*
X129168426Y-109620332D01*
X129214242Y-109639309D01*
X128273435Y-110580115D01*
X128273436Y-110580116D01*
X128415953Y-110686803D01*
X128415961Y-110686808D01*
X128667042Y-110823908D01*
X128667041Y-110823908D01*
X128935104Y-110923890D01*
X129214637Y-110984699D01*
X129499999Y-111005109D01*
X129500001Y-111005109D01*
X129785362Y-110984699D01*
X130064895Y-110923890D01*
X130332958Y-110823908D01*
X130584038Y-110686808D01*
X130584039Y-110686807D01*
X130726563Y-110580115D01*
X129785757Y-109639309D01*
X129831574Y-109620332D01*
X129946224Y-109543726D01*
X130043726Y-109446224D01*
X130120332Y-109331574D01*
X130139309Y-109285757D01*
X131080115Y-110226563D01*
X131186807Y-110084039D01*
X131186808Y-110084038D01*
X131323908Y-109832958D01*
X131423890Y-109564895D01*
X131484699Y-109285362D01*
X131505109Y-109000001D01*
X131505109Y-108999998D01*
X135114390Y-108999998D01*
X135114390Y-109000001D01*
X135134804Y-109285433D01*
X135195628Y-109565037D01*
X135195630Y-109565043D01*
X135195631Y-109565046D01*
X135284422Y-109803102D01*
X135295635Y-109833166D01*
X135432770Y-110084309D01*
X135432775Y-110084317D01*
X135604254Y-110313387D01*
X135604270Y-110313405D01*
X135806594Y-110515729D01*
X135806612Y-110515745D01*
X136035682Y-110687224D01*
X136035690Y-110687229D01*
X136286833Y-110824364D01*
X136286832Y-110824364D01*
X136286836Y-110824365D01*
X136286839Y-110824367D01*
X136554954Y-110924369D01*
X136554960Y-110924370D01*
X136554962Y-110924371D01*
X136834566Y-110985195D01*
X136834568Y-110985195D01*
X136834572Y-110985196D01*
X137088220Y-111003337D01*
X137119999Y-111005610D01*
X137120000Y-111005610D01*
X137120001Y-111005610D01*
X137148595Y-111003564D01*
X137405428Y-110985196D01*
X137685046Y-110924369D01*
X137953161Y-110824367D01*
X138204315Y-110687226D01*
X138433395Y-110515739D01*
X138635739Y-110313395D01*
X138807226Y-110084315D01*
X138944367Y-109833161D01*
X139044369Y-109565046D01*
X139105196Y-109285428D01*
X139125610Y-109000000D01*
X139105196Y-108714572D01*
X139072097Y-108562420D01*
X139044371Y-108434962D01*
X139044370Y-108434960D01*
X139044369Y-108434954D01*
X138944367Y-108166839D01*
X138938175Y-108155500D01*
X138807229Y-107915690D01*
X138807224Y-107915682D01*
X138635745Y-107686612D01*
X138635729Y-107686594D01*
X138433405Y-107484270D01*
X138433387Y-107484254D01*
X138204317Y-107312775D01*
X138204309Y-107312770D01*
X137953166Y-107175635D01*
X137953167Y-107175635D01*
X137739413Y-107095909D01*
X137685046Y-107075631D01*
X137685043Y-107075630D01*
X137685037Y-107075628D01*
X137405433Y-107014804D01*
X137120001Y-106994390D01*
X137119999Y-106994390D01*
X136834566Y-107014804D01*
X136554962Y-107075628D01*
X136286833Y-107175635D01*
X136035690Y-107312770D01*
X136035682Y-107312775D01*
X135806612Y-107484254D01*
X135806594Y-107484270D01*
X135604270Y-107686594D01*
X135604254Y-107686612D01*
X135432775Y-107915682D01*
X135432770Y-107915690D01*
X135295635Y-108166833D01*
X135195628Y-108434962D01*
X135134804Y-108714566D01*
X135114390Y-108999998D01*
X131505109Y-108999998D01*
X131484699Y-108714637D01*
X131423890Y-108435104D01*
X131323908Y-108167041D01*
X131186808Y-107915961D01*
X131186803Y-107915953D01*
X131080116Y-107773436D01*
X131080115Y-107773435D01*
X130139309Y-108714242D01*
X130120332Y-108668426D01*
X130043726Y-108553776D01*
X129946224Y-108456274D01*
X129831574Y-108379668D01*
X129785756Y-108360689D01*
X130726563Y-107419883D01*
X130726562Y-107419882D01*
X130584046Y-107313196D01*
X130584038Y-107313191D01*
X130332957Y-107176091D01*
X130332958Y-107176091D01*
X130064895Y-107076109D01*
X129785362Y-107015300D01*
X129500001Y-106994891D01*
X129499999Y-106994891D01*
X129214637Y-107015300D01*
X128935104Y-107076109D01*
X128667041Y-107176091D01*
X128415961Y-107313191D01*
X128415953Y-107313196D01*
X128273435Y-107419882D01*
X129214243Y-108360689D01*
X129168426Y-108379668D01*
X129053776Y-108456274D01*
X128956274Y-108553776D01*
X128879668Y-108668426D01*
X128860690Y-108714243D01*
X127919882Y-107773435D01*
X127813196Y-107915953D01*
X127813191Y-107915961D01*
X127676091Y-108167041D01*
X127576109Y-108435104D01*
X127515300Y-108714637D01*
X127494891Y-108999998D01*
X120605839Y-108999998D01*
X129866111Y-99739729D01*
X129928371Y-99654035D01*
X129971167Y-99595132D01*
X130052309Y-99435881D01*
X130052310Y-99435878D01*
X130107539Y-99265901D01*
X130107539Y-99265900D01*
X130107540Y-99265897D01*
X130135500Y-99089366D01*
X130135500Y-97228267D01*
X130155185Y-97161228D01*
X130160234Y-97153956D01*
X130243793Y-97042335D01*
X130243792Y-97042335D01*
X130243796Y-97042331D01*
X130294091Y-96907483D01*
X130300500Y-96847873D01*
X130300499Y-95152128D01*
X130294091Y-95092517D01*
X130268829Y-95024787D01*
X130243797Y-94957671D01*
X130243793Y-94957664D01*
X130157547Y-94842455D01*
X130157544Y-94842452D01*
X130042335Y-94756206D01*
X130042328Y-94756202D01*
X129907482Y-94705908D01*
X129907483Y-94705908D01*
X129847883Y-94699501D01*
X129847881Y-94699500D01*
X129847873Y-94699500D01*
X129847864Y-94699500D01*
X128152129Y-94699500D01*
X128152123Y-94699501D01*
X128092516Y-94705908D01*
X127957671Y-94756202D01*
X127957664Y-94756206D01*
X127842455Y-94842452D01*
X127842452Y-94842455D01*
X127756206Y-94957664D01*
X127756202Y-94957671D01*
X127705908Y-95092517D01*
X127699501Y-95152116D01*
X127699501Y-95152123D01*
X127699500Y-95152135D01*
X127699500Y-96847870D01*
X127699501Y-96847876D01*
X127705908Y-96907483D01*
X127756202Y-97042328D01*
X127756206Y-97042335D01*
X127839766Y-97153956D01*
X127864184Y-97219420D01*
X127864500Y-97228267D01*
X127864500Y-98478298D01*
X127844815Y-98545337D01*
X127828181Y-98565979D01*
X119329800Y-107064359D01*
X119268477Y-107097844D01*
X119213611Y-107097357D01*
X119207484Y-107095909D01*
X119207483Y-107095909D01*
X119207481Y-107095908D01*
X119207478Y-107095908D01*
X119147883Y-107089501D01*
X119147881Y-107089500D01*
X119147873Y-107089500D01*
X119147864Y-107089500D01*
X116852129Y-107089500D01*
X116852123Y-107089501D01*
X116792516Y-107095908D01*
X116657671Y-107146202D01*
X116657664Y-107146206D01*
X116542455Y-107232452D01*
X116542452Y-107232455D01*
X116456206Y-107347664D01*
X116456202Y-107347671D01*
X116405908Y-107482517D01*
X116399501Y-107542116D01*
X116399500Y-107542135D01*
X98000500Y-107542135D01*
X98000500Y-98492135D01*
X99499500Y-98492135D01*
X99499500Y-101587870D01*
X99499501Y-101587876D01*
X99505908Y-101647483D01*
X99556202Y-101782328D01*
X99556206Y-101782335D01*
X99642452Y-101897544D01*
X99642455Y-101897547D01*
X99757664Y-101983793D01*
X99757671Y-101983797D01*
X99892517Y-102034091D01*
X99892516Y-102034091D01*
X99899444Y-102034835D01*
X99952127Y-102040500D01*
X103047872Y-102040499D01*
X103107483Y-102034091D01*
X103242331Y-101983796D01*
X103357546Y-101897546D01*
X103443796Y-101782331D01*
X103494091Y-101647483D01*
X103500500Y-101587873D01*
X103500499Y-98492128D01*
X103494091Y-98432517D01*
X103443796Y-98297669D01*
X103443795Y-98297668D01*
X103443793Y-98297664D01*
X103357547Y-98182455D01*
X103357544Y-98182452D01*
X103242335Y-98096206D01*
X103242328Y-98096202D01*
X103107482Y-98045908D01*
X103107483Y-98045908D01*
X103047883Y-98039501D01*
X103047881Y-98039500D01*
X103047873Y-98039500D01*
X103047864Y-98039500D01*
X99952129Y-98039500D01*
X99952123Y-98039501D01*
X99892516Y-98045908D01*
X99757671Y-98096202D01*
X99757664Y-98096206D01*
X99642455Y-98182452D01*
X99642452Y-98182455D01*
X99556206Y-98297664D01*
X99556202Y-98297671D01*
X99505908Y-98432517D01*
X99499501Y-98492116D01*
X99499501Y-98492123D01*
X99499500Y-98492135D01*
X98000500Y-98492135D01*
X98000500Y-94959998D01*
X99494891Y-94959998D01*
X99494891Y-94960001D01*
X99515300Y-95245362D01*
X99576109Y-95524895D01*
X99676091Y-95792958D01*
X99813191Y-96044038D01*
X99813196Y-96044046D01*
X99919882Y-96186562D01*
X99919883Y-96186563D01*
X100814768Y-95291678D01*
X100826497Y-95319995D01*
X100909670Y-95444472D01*
X101015528Y-95550330D01*
X101140005Y-95633503D01*
X101168320Y-95645231D01*
X100273435Y-96540115D01*
X100273436Y-96540116D01*
X100415953Y-96646803D01*
X100415961Y-96646808D01*
X100667042Y-96783908D01*
X100667041Y-96783908D01*
X100935104Y-96883890D01*
X101214637Y-96944699D01*
X101499999Y-96965109D01*
X101500001Y-96965109D01*
X101785362Y-96944699D01*
X102064895Y-96883890D01*
X102332958Y-96783908D01*
X102584038Y-96646808D01*
X102584039Y-96646807D01*
X102726563Y-96540115D01*
X101831679Y-95645231D01*
X101859995Y-95633503D01*
X101984472Y-95550330D01*
X102090330Y-95444472D01*
X102173503Y-95319995D01*
X102185231Y-95291679D01*
X103080115Y-96186563D01*
X103186807Y-96044039D01*
X103186808Y-96044038D01*
X103323908Y-95792958D01*
X103423890Y-95524895D01*
X103484699Y-95245362D01*
X103505109Y-94960001D01*
X103505109Y-94959998D01*
X103484699Y-94674637D01*
X103423890Y-94395104D01*
X103323908Y-94127041D01*
X103186808Y-93875961D01*
X103186803Y-93875953D01*
X103080116Y-93733436D01*
X103080115Y-93733435D01*
X102185231Y-94628320D01*
X102173503Y-94600005D01*
X102090330Y-94475528D01*
X101984472Y-94369670D01*
X101859995Y-94286497D01*
X101831678Y-94274767D01*
X102726563Y-93379883D01*
X102726562Y-93379882D01*
X102584046Y-93273196D01*
X102584038Y-93273191D01*
X102332957Y-93136091D01*
X102332958Y-93136091D01*
X102064895Y-93036109D01*
X101785362Y-92975300D01*
X101500001Y-92954891D01*
X101499999Y-92954891D01*
X101214637Y-92975300D01*
X100935104Y-93036109D01*
X100667041Y-93136091D01*
X100415961Y-93273191D01*
X100415953Y-93273196D01*
X100273435Y-93379882D01*
X101168321Y-94274767D01*
X101140005Y-94286497D01*
X101015528Y-94369670D01*
X100909670Y-94475528D01*
X100826497Y-94600005D01*
X100814768Y-94628321D01*
X99919882Y-93733435D01*
X99813196Y-93875953D01*
X99813191Y-93875961D01*
X99676091Y-94127041D01*
X99576109Y-94395104D01*
X99515300Y-94674637D01*
X99494891Y-94959998D01*
X98000500Y-94959998D01*
X98000500Y-71608577D01*
X98020185Y-71541538D01*
X98072989Y-71495783D01*
X98142147Y-71485839D01*
X98205703Y-71514864D01*
X98243477Y-71573642D01*
X98247238Y-71590931D01*
X98264974Y-71714296D01*
X98264977Y-71714308D01*
X98267894Y-71724242D01*
X98305483Y-71852259D01*
X98310385Y-71862992D01*
X98365252Y-71983136D01*
X98365253Y-71983138D01*
X98439376Y-72098476D01*
X98440196Y-72099917D01*
X98442988Y-72104098D01*
X98537207Y-72212830D01*
X98537210Y-72212833D01*
X98645864Y-72306981D01*
X98645867Y-72306984D01*
X98645869Y-72306985D01*
X98645870Y-72306986D01*
X98766906Y-72384770D01*
X98766913Y-72384773D01*
X98766916Y-72384775D01*
X98800010Y-72399888D01*
X98852815Y-72445642D01*
X98872500Y-72512682D01*
X98872500Y-73181927D01*
X98852815Y-73248966D01*
X98840650Y-73264899D01*
X98782926Y-73329007D01*
X98782921Y-73329014D01*
X98690274Y-73489485D01*
X98633014Y-73665711D01*
X98633013Y-73665713D01*
X98613644Y-73850000D01*
X98633013Y-74034286D01*
X98633014Y-74034288D01*
X98690274Y-74210514D01*
X98752206Y-74317783D01*
X98782923Y-74370987D01*
X98826112Y-74418954D01*
X98906906Y-74508686D01*
X98906909Y-74508688D01*
X98906912Y-74508691D01*
X99056822Y-74617607D01*
X99226095Y-74692973D01*
X99226098Y-74692973D01*
X99226101Y-74692975D01*
X99407351Y-74731500D01*
X99592649Y-74731500D01*
X99773899Y-74692975D01*
X99773902Y-74692973D01*
X99773904Y-74692973D01*
X99830922Y-74667586D01*
X99943178Y-74617607D01*
X100093088Y-74508691D01*
X100104206Y-74496344D01*
X100119951Y-74478855D01*
X100217077Y-74370987D01*
X100309726Y-74210513D01*
X100366987Y-74034284D01*
X100386356Y-73850000D01*
X100366987Y-73665716D01*
X100309726Y-73489487D01*
X100275420Y-73430067D01*
X100217078Y-73329014D01*
X100217073Y-73329007D01*
X100159350Y-73264899D01*
X100129120Y-73201907D01*
X100127500Y-73181927D01*
X100127500Y-72512683D01*
X100147185Y-72445644D01*
X100199989Y-72399889D01*
X100199990Y-72399888D01*
X100233083Y-72384775D01*
X100233082Y-72384775D01*
X100233094Y-72384770D01*
X100354130Y-72306986D01*
X100462791Y-72212832D01*
X100462794Y-72212829D01*
X100557015Y-72104091D01*
X100634747Y-71983137D01*
X100694517Y-71852259D01*
X100735024Y-71714304D01*
X100755500Y-71571889D01*
X100755500Y-70951500D01*
X100775185Y-70884461D01*
X100827989Y-70838706D01*
X100879500Y-70827500D01*
X101888719Y-70827500D01*
X101955758Y-70847185D01*
X101976400Y-70863819D01*
X102836181Y-71723600D01*
X102869666Y-71784923D01*
X102872500Y-71811281D01*
X102872500Y-85831927D01*
X102852815Y-85898966D01*
X102840650Y-85914899D01*
X102782926Y-85979007D01*
X102782921Y-85979014D01*
X102690274Y-86139485D01*
X102633014Y-86315711D01*
X102633013Y-86315713D01*
X102613644Y-86500000D01*
X102633013Y-86684286D01*
X102633014Y-86684288D01*
X102690274Y-86860514D01*
X102763343Y-86987074D01*
X102782923Y-87020987D01*
X102826112Y-87068954D01*
X102906906Y-87158686D01*
X102906909Y-87158688D01*
X102906912Y-87158691D01*
X103035389Y-87252035D01*
X103056822Y-87267607D01*
X103226095Y-87342973D01*
X103226098Y-87342973D01*
X103226101Y-87342975D01*
X103407351Y-87381500D01*
X103592649Y-87381500D01*
X103773899Y-87342975D01*
X103773902Y-87342973D01*
X103773904Y-87342973D01*
X103830922Y-87317586D01*
X103943178Y-87267607D01*
X104093088Y-87158691D01*
X104217077Y-87020987D01*
X104309726Y-86860513D01*
X104366987Y-86684284D01*
X104386356Y-86500000D01*
X104366987Y-86315716D01*
X104309726Y-86139487D01*
X104217077Y-85979013D01*
X104217073Y-85979007D01*
X104159350Y-85914899D01*
X104129120Y-85851907D01*
X104127500Y-85831927D01*
X104127500Y-80171403D01*
X104147185Y-80104364D01*
X104199989Y-80058609D01*
X104269147Y-80048665D01*
X104332703Y-80077690D01*
X104343651Y-80088432D01*
X104406907Y-80158687D01*
X104406909Y-80158688D01*
X104406912Y-80158691D01*
X104556822Y-80267607D01*
X104726095Y-80342973D01*
X104726098Y-80342973D01*
X104726101Y-80342975D01*
X104907351Y-80381500D01*
X105092649Y-80381500D01*
X105273899Y-80342975D01*
X105273902Y-80342973D01*
X105273904Y-80342973D01*
X105330922Y-80317586D01*
X105443178Y-80267607D01*
X105593088Y-80158691D01*
X105717077Y-80020987D01*
X105809726Y-79860513D01*
X105866987Y-79684284D01*
X105886356Y-79500000D01*
X105866987Y-79315716D01*
X105809726Y-79139487D01*
X105786744Y-79099680D01*
X105717078Y-78979014D01*
X105717073Y-78979007D01*
X105659350Y-78914899D01*
X105629120Y-78851907D01*
X105627500Y-78831927D01*
X105627500Y-70938194D01*
X105603386Y-70816970D01*
X105603385Y-70816969D01*
X105603385Y-70816965D01*
X105602664Y-70815225D01*
X105556086Y-70702773D01*
X105556079Y-70702760D01*
X105487412Y-70599993D01*
X105487411Y-70599992D01*
X105400008Y-70512589D01*
X104362842Y-69475423D01*
X103387418Y-68499998D01*
X108194532Y-68499998D01*
X108194532Y-68500000D01*
X108214364Y-68726686D01*
X108214366Y-68726697D01*
X108273258Y-68946488D01*
X108273261Y-68946497D01*
X108369431Y-69152732D01*
X108369432Y-69152734D01*
X108499954Y-69339141D01*
X108660858Y-69500045D01*
X108660861Y-69500047D01*
X108847266Y-69630568D01*
X109053504Y-69726739D01*
X109273308Y-69785635D01*
X109435230Y-69799801D01*
X109499998Y-69805468D01*
X109500000Y-69805468D01*
X109500002Y-69805468D01*
X109556673Y-69800509D01*
X109726692Y-69785635D01*
X109946496Y-69726739D01*
X110152734Y-69630568D01*
X110339139Y-69500047D01*
X110500047Y-69339139D01*
X110630568Y-69152734D01*
X110726739Y-68946496D01*
X110785635Y-68726692D01*
X110805468Y-68500000D01*
X110805468Y-68499997D01*
X113195034Y-68499997D01*
X113195034Y-68500000D01*
X113214858Y-68726599D01*
X113214860Y-68726610D01*
X113273730Y-68946317D01*
X113273735Y-68946331D01*
X113369863Y-69152478D01*
X113420974Y-69225472D01*
X114100000Y-68546446D01*
X114100000Y-68552661D01*
X114127259Y-68654394D01*
X114179920Y-68745606D01*
X114254394Y-68820080D01*
X114345606Y-68872741D01*
X114447339Y-68900000D01*
X114453553Y-68900000D01*
X113774526Y-69579025D01*
X113847513Y-69630132D01*
X113847521Y-69630136D01*
X114053668Y-69726264D01*
X114053682Y-69726269D01*
X114273389Y-69785139D01*
X114273400Y-69785141D01*
X114499998Y-69804966D01*
X114500002Y-69804966D01*
X114726599Y-69785141D01*
X114726610Y-69785139D01*
X114946317Y-69726269D01*
X114946331Y-69726264D01*
X115152478Y-69630136D01*
X115225471Y-69579024D01*
X114546447Y-68900000D01*
X114552661Y-68900000D01*
X114654394Y-68872741D01*
X114745606Y-68820080D01*
X114820080Y-68745606D01*
X114872741Y-68654394D01*
X114900000Y-68552661D01*
X114900000Y-68546447D01*
X115579024Y-69225471D01*
X115630136Y-69152478D01*
X115726264Y-68946331D01*
X115726269Y-68946317D01*
X115785139Y-68726610D01*
X115785141Y-68726599D01*
X115804966Y-68500000D01*
X115804966Y-68499997D01*
X115785141Y-68273400D01*
X115785139Y-68273389D01*
X115726269Y-68053682D01*
X115726264Y-68053668D01*
X115630136Y-67847521D01*
X115630132Y-67847513D01*
X115579025Y-67774526D01*
X114900000Y-68453551D01*
X114900000Y-68447339D01*
X114872741Y-68345606D01*
X114820080Y-68254394D01*
X114745606Y-68179920D01*
X114654394Y-68127259D01*
X114552661Y-68100000D01*
X114546445Y-68100000D01*
X115225472Y-67420974D01*
X115152478Y-67369863D01*
X114946331Y-67273735D01*
X114946317Y-67273730D01*
X114726610Y-67214860D01*
X114726599Y-67214858D01*
X114500002Y-67195034D01*
X114499998Y-67195034D01*
X114273400Y-67214858D01*
X114273389Y-67214860D01*
X114053682Y-67273730D01*
X114053673Y-67273734D01*
X113847516Y-67369866D01*
X113847512Y-67369868D01*
X113774526Y-67420973D01*
X113774526Y-67420974D01*
X114453553Y-68100000D01*
X114447339Y-68100000D01*
X114345606Y-68127259D01*
X114254394Y-68179920D01*
X114179920Y-68254394D01*
X114127259Y-68345606D01*
X114100000Y-68447339D01*
X114100000Y-68453552D01*
X113420974Y-67774526D01*
X113420973Y-67774526D01*
X113369868Y-67847512D01*
X113369866Y-67847516D01*
X113273734Y-68053673D01*
X113273730Y-68053682D01*
X113214860Y-68273389D01*
X113214858Y-68273400D01*
X113195034Y-68499997D01*
X110805468Y-68499997D01*
X110785635Y-68273308D01*
X110726739Y-68053504D01*
X110667670Y-67926832D01*
X110647118Y-67882756D01*
X110635500Y-67830351D01*
X110635500Y-65961701D01*
X110655185Y-65894662D01*
X110671819Y-65874020D01*
X111195210Y-65350629D01*
X111824918Y-64720920D01*
X111870193Y-64692079D01*
X111873439Y-64690896D01*
X111873450Y-64690894D01*
X112073662Y-64597534D01*
X112254620Y-64470826D01*
X112410826Y-64314620D01*
X112537534Y-64133662D01*
X112597894Y-64004218D01*
X112644066Y-63951779D01*
X112711259Y-63932627D01*
X112778141Y-63952843D01*
X112822658Y-64004219D01*
X112882898Y-64133405D01*
X112882901Y-64133411D01*
X112928258Y-64198187D01*
X112928258Y-64198188D01*
X113599000Y-63527446D01*
X113599000Y-63550160D01*
X113624964Y-63647061D01*
X113675124Y-63733940D01*
X113746060Y-63804876D01*
X113832939Y-63855036D01*
X113929840Y-63881000D01*
X113952553Y-63881000D01*
X113281810Y-64551740D01*
X113346590Y-64597099D01*
X113346592Y-64597100D01*
X113546715Y-64690419D01*
X113546729Y-64690424D01*
X113760013Y-64747573D01*
X113760023Y-64747575D01*
X113979999Y-64766821D01*
X113980001Y-64766821D01*
X114199976Y-64747575D01*
X114199986Y-64747573D01*
X114413270Y-64690424D01*
X114413284Y-64690419D01*
X114613407Y-64597100D01*
X114613417Y-64597094D01*
X114678188Y-64551741D01*
X114007448Y-63881000D01*
X114030160Y-63881000D01*
X114127061Y-63855036D01*
X114213940Y-63804876D01*
X114284876Y-63733940D01*
X114335036Y-63647061D01*
X114361000Y-63550160D01*
X114361000Y-63527447D01*
X115031741Y-64198188D01*
X115077094Y-64133417D01*
X115077095Y-64133416D01*
X115137340Y-64004219D01*
X115183512Y-63951780D01*
X115250706Y-63932627D01*
X115317587Y-63952842D01*
X115362105Y-64004218D01*
X115422466Y-64133662D01*
X115422468Y-64133666D01*
X115549170Y-64314615D01*
X115549175Y-64314621D01*
X115705378Y-64470824D01*
X115705384Y-64470829D01*
X115886333Y-64597531D01*
X115886335Y-64597532D01*
X115886338Y-64597534D01*
X116086550Y-64690894D01*
X116299932Y-64748070D01*
X116457123Y-64761822D01*
X116519998Y-64767323D01*
X116520000Y-64767323D01*
X116520002Y-64767323D01*
X116575151Y-64762498D01*
X116740068Y-64748070D01*
X116781791Y-64736890D01*
X116851640Y-64738553D01*
X116901565Y-64768984D01*
X125629109Y-73496528D01*
X125662594Y-73557851D01*
X125657610Y-73627543D01*
X125615738Y-73683476D01*
X125593833Y-73696591D01*
X125402171Y-73785964D01*
X125402169Y-73785965D01*
X125208597Y-73921505D01*
X125041505Y-74088597D01*
X124911575Y-74274158D01*
X124856998Y-74317783D01*
X124787500Y-74324977D01*
X124725145Y-74293454D01*
X124708425Y-74274158D01*
X124578494Y-74088597D01*
X124411402Y-73921506D01*
X124411395Y-73921501D01*
X124217834Y-73785967D01*
X124217830Y-73785965D01*
X124217828Y-73785964D01*
X124003663Y-73686097D01*
X124003659Y-73686096D01*
X124003655Y-73686094D01*
X123775413Y-73624938D01*
X123775403Y-73624936D01*
X123540001Y-73604341D01*
X123539999Y-73604341D01*
X123304596Y-73624936D01*
X123304586Y-73624938D01*
X123076344Y-73686094D01*
X123076335Y-73686098D01*
X122862171Y-73785964D01*
X122862169Y-73785965D01*
X122668597Y-73921505D01*
X122501505Y-74088597D01*
X122371575Y-74274158D01*
X122316998Y-74317783D01*
X122247500Y-74324977D01*
X122185145Y-74293454D01*
X122168425Y-74274158D01*
X122038494Y-74088597D01*
X121871402Y-73921506D01*
X121871395Y-73921501D01*
X121677834Y-73785967D01*
X121677830Y-73785965D01*
X121677828Y-73785964D01*
X121463663Y-73686097D01*
X121463659Y-73686096D01*
X121463655Y-73686094D01*
X121235413Y-73624938D01*
X121235403Y-73624936D01*
X121000001Y-73604341D01*
X120999999Y-73604341D01*
X120764596Y-73624936D01*
X120764586Y-73624938D01*
X120536344Y-73686094D01*
X120536335Y-73686098D01*
X120322171Y-73785964D01*
X120322169Y-73785965D01*
X120128597Y-73921505D01*
X119961505Y-74088597D01*
X119831575Y-74274158D01*
X119776998Y-74317783D01*
X119707500Y-74324977D01*
X119645145Y-74293454D01*
X119628425Y-74274158D01*
X119498494Y-74088597D01*
X119331402Y-73921506D01*
X119331395Y-73921501D01*
X119137834Y-73785967D01*
X119137830Y-73785965D01*
X119137828Y-73785964D01*
X118923663Y-73686097D01*
X118923659Y-73686096D01*
X118923655Y-73686094D01*
X118695413Y-73624938D01*
X118695403Y-73624936D01*
X118460001Y-73604341D01*
X118459999Y-73604341D01*
X118224596Y-73624936D01*
X118224586Y-73624938D01*
X117996344Y-73686094D01*
X117996335Y-73686098D01*
X117782171Y-73785964D01*
X117782169Y-73785965D01*
X117588597Y-73921505D01*
X117421505Y-74088597D01*
X117285965Y-74282169D01*
X117285964Y-74282171D01*
X117186098Y-74496335D01*
X117186094Y-74496344D01*
X117124938Y-74724586D01*
X117124936Y-74724596D01*
X117104341Y-74959999D01*
X117104341Y-74960000D01*
X117124936Y-75195403D01*
X117124938Y-75195413D01*
X117151258Y-75293641D01*
X117149595Y-75363491D01*
X117119164Y-75413415D01*
X116367822Y-76164759D01*
X116119992Y-76412589D01*
X116076289Y-76456292D01*
X116032586Y-76499994D01*
X116032585Y-76499996D01*
X115963233Y-76603789D01*
X115961586Y-76608393D01*
X115916614Y-76716964D01*
X115916612Y-76716972D01*
X115892500Y-76838192D01*
X115892500Y-83350834D01*
X115872815Y-83417873D01*
X115820011Y-83463628D01*
X115750853Y-83473572D01*
X115687297Y-83444547D01*
X115656118Y-83403239D01*
X115630134Y-83347517D01*
X115630132Y-83347513D01*
X115579025Y-83274526D01*
X114900000Y-83953551D01*
X114900000Y-83947339D01*
X114872741Y-83845606D01*
X114820080Y-83754394D01*
X114745606Y-83679920D01*
X114654394Y-83627259D01*
X114552661Y-83600000D01*
X114546445Y-83600000D01*
X115225472Y-82920974D01*
X115152478Y-82869863D01*
X114946331Y-82773735D01*
X114946317Y-82773730D01*
X114726610Y-82714860D01*
X114726599Y-82714858D01*
X114500002Y-82695034D01*
X114499998Y-82695034D01*
X114273400Y-82714858D01*
X114273389Y-82714860D01*
X114053682Y-82773730D01*
X114053673Y-82773734D01*
X113847516Y-82869866D01*
X113847512Y-82869868D01*
X113774526Y-82920973D01*
X113774526Y-82920974D01*
X114453553Y-83600000D01*
X114447339Y-83600000D01*
X114345606Y-83627259D01*
X114254394Y-83679920D01*
X114179920Y-83754394D01*
X114127259Y-83845606D01*
X114100000Y-83947339D01*
X114100000Y-83953552D01*
X113420974Y-83274526D01*
X113420973Y-83274526D01*
X113369868Y-83347512D01*
X113369866Y-83347516D01*
X113273734Y-83553673D01*
X113273730Y-83553682D01*
X113214860Y-83773389D01*
X113214858Y-83773400D01*
X113195034Y-83999997D01*
X113195034Y-84000002D01*
X113214858Y-84226599D01*
X113214860Y-84226610D01*
X113273730Y-84446317D01*
X113273735Y-84446331D01*
X113369863Y-84652478D01*
X113420974Y-84725472D01*
X114100000Y-84046446D01*
X114100000Y-84052661D01*
X114127259Y-84154394D01*
X114179920Y-84245606D01*
X114254394Y-84320080D01*
X114345606Y-84372741D01*
X114447339Y-84400000D01*
X114453553Y-84400000D01*
X113774526Y-85079025D01*
X113847513Y-85130132D01*
X113847521Y-85130136D01*
X114053668Y-85226264D01*
X114053682Y-85226269D01*
X114273389Y-85285139D01*
X114273400Y-85285141D01*
X114499998Y-85304966D01*
X114500002Y-85304966D01*
X114726599Y-85285141D01*
X114726610Y-85285139D01*
X114946317Y-85226269D01*
X114946331Y-85226264D01*
X115152478Y-85130136D01*
X115225471Y-85079024D01*
X114546447Y-84400000D01*
X114552661Y-84400000D01*
X114654394Y-84372741D01*
X114745606Y-84320080D01*
X114820080Y-84245606D01*
X114872741Y-84154394D01*
X114900000Y-84052661D01*
X114900000Y-84046447D01*
X115579024Y-84725471D01*
X115630136Y-84652478D01*
X115656118Y-84596761D01*
X115702290Y-84544321D01*
X115769483Y-84525169D01*
X115836365Y-84545384D01*
X115881699Y-84598550D01*
X115892500Y-84649165D01*
X115892500Y-87733601D01*
X115872815Y-87800640D01*
X115839623Y-87835176D01*
X115705378Y-87929174D01*
X115549175Y-88085377D01*
X115422467Y-88266337D01*
X115362105Y-88395782D01*
X115315932Y-88448221D01*
X115248738Y-88467372D01*
X115181857Y-88447156D01*
X115137341Y-88395780D01*
X115077098Y-88266589D01*
X115077097Y-88266587D01*
X115031741Y-88201811D01*
X115031740Y-88201810D01*
X114361000Y-88872551D01*
X114361000Y-88849840D01*
X114335036Y-88752939D01*
X114284876Y-88666060D01*
X114213940Y-88595124D01*
X114127061Y-88544964D01*
X114030160Y-88519000D01*
X114007447Y-88519000D01*
X114678188Y-87848258D01*
X114613411Y-87802901D01*
X114613405Y-87802898D01*
X114413284Y-87709580D01*
X114413270Y-87709575D01*
X114199986Y-87652426D01*
X114199976Y-87652424D01*
X113980001Y-87633179D01*
X113979999Y-87633179D01*
X113760023Y-87652424D01*
X113760013Y-87652426D01*
X113546729Y-87709575D01*
X113546720Y-87709579D01*
X113346590Y-87802901D01*
X113281811Y-87848258D01*
X113952554Y-88519000D01*
X113929840Y-88519000D01*
X113832939Y-88544964D01*
X113746060Y-88595124D01*
X113675124Y-88666060D01*
X113624964Y-88752939D01*
X113599000Y-88849840D01*
X113599000Y-88872553D01*
X112928258Y-88201811D01*
X112882901Y-88266590D01*
X112822658Y-88395781D01*
X112776485Y-88448220D01*
X112709292Y-88467372D01*
X112642411Y-88447156D01*
X112597894Y-88395781D01*
X112549900Y-88292859D01*
X112537534Y-88266339D01*
X112410826Y-88085380D01*
X112254620Y-87929174D01*
X112120377Y-87835176D01*
X112120376Y-87835175D01*
X112076751Y-87780598D01*
X112067500Y-87733600D01*
X112067500Y-85878194D01*
X112043386Y-85756970D01*
X112043385Y-85756969D01*
X112043385Y-85756965D01*
X112043383Y-85756960D01*
X111996086Y-85642773D01*
X111996079Y-85642760D01*
X111927412Y-85539993D01*
X111924379Y-85536960D01*
X111840008Y-85452589D01*
X110800010Y-84412591D01*
X110766525Y-84351268D01*
X110767917Y-84292815D01*
X110785633Y-84226699D01*
X110785632Y-84226699D01*
X110785635Y-84226692D01*
X110803991Y-84016880D01*
X110805468Y-84000001D01*
X110805468Y-83999998D01*
X110796969Y-83902855D01*
X110785635Y-83773308D01*
X110726739Y-83553504D01*
X110630568Y-83347266D01*
X110500047Y-83160861D01*
X110500045Y-83160858D01*
X110339141Y-82999954D01*
X110152734Y-82869432D01*
X110152732Y-82869431D01*
X109946497Y-82773261D01*
X109946488Y-82773258D01*
X109726697Y-82714366D01*
X109726693Y-82714365D01*
X109726692Y-82714365D01*
X109726691Y-82714364D01*
X109726686Y-82714364D01*
X109500002Y-82694532D01*
X109499998Y-82694532D01*
X109273313Y-82714364D01*
X109273302Y-82714366D01*
X109053511Y-82773258D01*
X109053502Y-82773261D01*
X108847267Y-82869431D01*
X108847265Y-82869432D01*
X108660858Y-82999954D01*
X108499954Y-83160858D01*
X108369432Y-83347265D01*
X108369431Y-83347267D01*
X108273261Y-83553502D01*
X108273258Y-83553511D01*
X108214366Y-83773302D01*
X108214364Y-83773313D01*
X108194532Y-83999998D01*
X108194532Y-84000001D01*
X108214364Y-84226686D01*
X108214366Y-84226697D01*
X108273258Y-84446488D01*
X108273261Y-84446497D01*
X108369431Y-84652732D01*
X108369432Y-84652734D01*
X108499954Y-84839141D01*
X108660858Y-85000045D01*
X108660861Y-85000047D01*
X108847266Y-85130568D01*
X109053504Y-85226739D01*
X109273308Y-85285635D01*
X109426448Y-85299033D01*
X109499998Y-85305468D01*
X109500000Y-85305468D01*
X109500002Y-85305468D01*
X109531421Y-85302719D01*
X109726692Y-85285635D01*
X109792815Y-85267917D01*
X109862665Y-85269578D01*
X109912591Y-85300010D01*
X110776181Y-86163600D01*
X110809666Y-86224923D01*
X110812500Y-86251281D01*
X110812500Y-87733601D01*
X110792815Y-87800640D01*
X110759623Y-87835176D01*
X110625378Y-87929174D01*
X110469175Y-88085377D01*
X110342466Y-88266338D01*
X110342465Y-88266340D01*
X110249107Y-88466548D01*
X110249104Y-88466554D01*
X110191930Y-88679929D01*
X110191929Y-88679937D01*
X110172677Y-88899997D01*
X110172677Y-88900002D01*
X110191929Y-89120062D01*
X110191930Y-89120070D01*
X110249104Y-89333445D01*
X110249105Y-89333447D01*
X110249106Y-89333450D01*
X110282106Y-89404218D01*
X110342466Y-89533662D01*
X110342468Y-89533666D01*
X110469170Y-89714615D01*
X110469174Y-89714620D01*
X110625380Y-89870826D01*
X110759624Y-89964824D01*
X110803248Y-90019399D01*
X110812500Y-90066398D01*
X110812500Y-91819107D01*
X110836612Y-91940328D01*
X110836613Y-91940332D01*
X110836614Y-91940335D01*
X110859907Y-91996567D01*
X110866935Y-92013534D01*
X110866934Y-92013534D01*
X110866935Y-92013535D01*
X110883913Y-92054525D01*
X110883920Y-92054538D01*
X110932827Y-92127732D01*
X110932828Y-92127733D01*
X110952590Y-92157310D01*
X110952591Y-92157311D01*
X113410132Y-94614851D01*
X113443617Y-94676174D01*
X113438633Y-94745866D01*
X113396763Y-94801798D01*
X113342452Y-94842455D01*
X113256206Y-94957664D01*
X113256202Y-94957671D01*
X113205908Y-95092517D01*
X113199501Y-95152116D01*
X113199501Y-95152123D01*
X113199500Y-95152135D01*
X113199500Y-96847870D01*
X113199501Y-96847876D01*
X113205908Y-96907483D01*
X113256202Y-97042328D01*
X113256206Y-97042335D01*
X113342452Y-97157544D01*
X113342455Y-97157547D01*
X113457664Y-97243793D01*
X113457671Y-97243797D01*
X113592517Y-97294091D01*
X113592516Y-97294091D01*
X113599444Y-97294835D01*
X113652127Y-97300500D01*
X115347872Y-97300499D01*
X115407483Y-97294091D01*
X115542331Y-97243796D01*
X115657546Y-97157546D01*
X115743796Y-97042331D01*
X115794091Y-96907483D01*
X115800500Y-96847873D01*
X115800499Y-96847845D01*
X115800678Y-96844547D01*
X115802183Y-96844627D01*
X115820112Y-96783326D01*
X115872868Y-96737514D01*
X115916465Y-96729981D01*
X116600000Y-96046446D01*
X116600000Y-96052661D01*
X116627259Y-96154394D01*
X116679920Y-96245606D01*
X116754394Y-96320080D01*
X116845606Y-96372741D01*
X116947339Y-96400000D01*
X116953552Y-96400000D01*
X116274526Y-97079025D01*
X116347513Y-97130132D01*
X116347521Y-97130136D01*
X116553668Y-97226264D01*
X116553682Y-97226269D01*
X116773389Y-97285139D01*
X116773400Y-97285141D01*
X116999998Y-97304966D01*
X117000002Y-97304966D01*
X117226599Y-97285141D01*
X117226606Y-97285140D01*
X117407206Y-97236748D01*
X117477056Y-97238411D01*
X117534919Y-97277573D01*
X117562423Y-97341801D01*
X117563300Y-97356523D01*
X117563300Y-101983505D01*
X117543615Y-102050544D01*
X117490811Y-102096299D01*
X117421653Y-102106243D01*
X117418892Y-102105814D01*
X117381050Y-102099500D01*
X117381049Y-102099500D01*
X117148951Y-102099500D01*
X117107596Y-102106401D01*
X116920015Y-102137702D01*
X116700504Y-102213061D01*
X116700495Y-102213064D01*
X116496371Y-102323531D01*
X116496365Y-102323535D01*
X116313222Y-102466081D01*
X116313215Y-102466087D01*
X116304484Y-102475572D01*
X116244595Y-102511561D01*
X116174757Y-102509458D01*
X116117143Y-102469932D01*
X116097075Y-102434918D01*
X116068355Y-102357915D01*
X116068350Y-102357906D01*
X115982190Y-102242812D01*
X115982187Y-102242809D01*
X115867093Y-102156649D01*
X115867086Y-102156645D01*
X115732379Y-102106403D01*
X115732372Y-102106401D01*
X115672844Y-102100000D01*
X114975000Y-102100000D01*
X114975000Y-103124722D01*
X114898694Y-103080667D01*
X114784244Y-103050000D01*
X114665756Y-103050000D01*
X114551306Y-103080667D01*
X114475000Y-103124722D01*
X114475000Y-102100000D01*
X113777155Y-102100000D01*
X113717627Y-102106401D01*
X113717620Y-102106403D01*
X113582913Y-102156645D01*
X113582906Y-102156649D01*
X113467812Y-102242809D01*
X113467809Y-102242812D01*
X113381649Y-102357906D01*
X113381645Y-102357913D01*
X113331403Y-102492620D01*
X113331401Y-102492627D01*
X113325000Y-102552155D01*
X113325000Y-103250000D01*
X114349722Y-103250000D01*
X114305667Y-103326306D01*
X114275000Y-103440756D01*
X114275000Y-103559244D01*
X114305667Y-103673694D01*
X114349722Y-103750000D01*
X113325000Y-103750000D01*
X113325000Y-104447844D01*
X113331401Y-104507372D01*
X113331403Y-104507379D01*
X113381645Y-104642086D01*
X113381649Y-104642093D01*
X113467809Y-104757187D01*
X113467812Y-104757190D01*
X113582906Y-104843350D01*
X113582913Y-104843354D01*
X113717620Y-104893596D01*
X113717627Y-104893598D01*
X113777155Y-104899999D01*
X113777172Y-104900000D01*
X114475000Y-104900000D01*
X114475000Y-103875277D01*
X114551306Y-103919333D01*
X114665756Y-103950000D01*
X114784244Y-103950000D01*
X114898694Y-103919333D01*
X114975000Y-103875277D01*
X114975000Y-104900000D01*
X115672828Y-104900000D01*
X115672844Y-104899999D01*
X115732372Y-104893598D01*
X115732379Y-104893596D01*
X115867086Y-104843354D01*
X115867093Y-104843350D01*
X115982187Y-104757190D01*
X115982190Y-104757187D01*
X116068350Y-104642093D01*
X116068355Y-104642084D01*
X116097075Y-104565081D01*
X116138945Y-104509147D01*
X116204409Y-104484729D01*
X116272682Y-104499580D01*
X116304484Y-104524428D01*
X116313216Y-104533913D01*
X116313219Y-104533915D01*
X116313222Y-104533918D01*
X116496365Y-104676464D01*
X116496371Y-104676468D01*
X116496374Y-104676470D01*
X116700497Y-104786936D01*
X116814487Y-104826068D01*
X116920015Y-104862297D01*
X116920017Y-104862297D01*
X116920019Y-104862298D01*
X117148951Y-104900500D01*
X117148952Y-104900500D01*
X117381048Y-104900500D01*
X117381049Y-104900500D01*
X117609981Y-104862298D01*
X117829503Y-104786936D01*
X118033626Y-104676470D01*
X118056469Y-104658691D01*
X118206709Y-104541755D01*
X118271703Y-104516112D01*
X118340243Y-104529678D01*
X118375021Y-104556636D01*
X118466906Y-104658686D01*
X118466909Y-104658688D01*
X118466912Y-104658691D01*
X118602480Y-104757187D01*
X118616822Y-104767607D01*
X118786095Y-104842973D01*
X118786098Y-104842973D01*
X118786101Y-104842975D01*
X118967351Y-104881500D01*
X119152649Y-104881500D01*
X119333899Y-104842975D01*
X119333902Y-104842973D01*
X119333904Y-104842973D01*
X119390922Y-104817586D01*
X119503178Y-104767607D01*
X119653088Y-104658691D01*
X119777077Y-104520987D01*
X119869726Y-104360513D01*
X119926987Y-104184284D01*
X119946356Y-104000000D01*
X119926987Y-103815716D01*
X119869726Y-103639487D01*
X119777077Y-103479013D01*
X119777073Y-103479007D01*
X119719350Y-103414899D01*
X119689120Y-103351907D01*
X119687500Y-103331927D01*
X119687500Y-95999997D01*
X122695034Y-95999997D01*
X122695034Y-96000002D01*
X122714858Y-96226599D01*
X122714860Y-96226610D01*
X122773730Y-96446317D01*
X122773735Y-96446331D01*
X122869863Y-96652478D01*
X122920974Y-96725472D01*
X123600000Y-96046446D01*
X123600000Y-96052661D01*
X123627259Y-96154394D01*
X123679920Y-96245606D01*
X123754394Y-96320080D01*
X123845606Y-96372741D01*
X123947339Y-96400000D01*
X123953553Y-96400000D01*
X123274526Y-97079025D01*
X123347513Y-97130132D01*
X123347521Y-97130136D01*
X123553668Y-97226264D01*
X123553682Y-97226269D01*
X123773389Y-97285139D01*
X123773400Y-97285141D01*
X123999998Y-97304966D01*
X124000002Y-97304966D01*
X124226599Y-97285141D01*
X124226610Y-97285139D01*
X124446317Y-97226269D01*
X124446331Y-97226264D01*
X124652478Y-97130136D01*
X124725471Y-97079024D01*
X124046447Y-96400000D01*
X124052661Y-96400000D01*
X124154394Y-96372741D01*
X124245606Y-96320080D01*
X124320080Y-96245606D01*
X124372741Y-96154394D01*
X124400000Y-96052661D01*
X124400000Y-96046447D01*
X125079024Y-96725471D01*
X125130136Y-96652478D01*
X125226264Y-96446331D01*
X125226269Y-96446317D01*
X125285139Y-96226610D01*
X125285141Y-96226599D01*
X125304966Y-96000002D01*
X125304966Y-95999997D01*
X125285141Y-95773400D01*
X125285139Y-95773389D01*
X125226269Y-95553682D01*
X125226264Y-95553668D01*
X125130136Y-95347521D01*
X125130132Y-95347513D01*
X125079025Y-95274526D01*
X124400000Y-95953551D01*
X124400000Y-95947339D01*
X124372741Y-95845606D01*
X124320080Y-95754394D01*
X124245606Y-95679920D01*
X124154394Y-95627259D01*
X124052661Y-95600000D01*
X124046445Y-95600000D01*
X124725472Y-94920974D01*
X124652478Y-94869863D01*
X124446331Y-94773735D01*
X124446317Y-94773730D01*
X124226610Y-94714860D01*
X124226599Y-94714858D01*
X124000002Y-94695034D01*
X123999998Y-94695034D01*
X123773400Y-94714858D01*
X123773389Y-94714860D01*
X123553682Y-94773730D01*
X123553673Y-94773734D01*
X123347516Y-94869866D01*
X123347512Y-94869868D01*
X123274526Y-94920973D01*
X123274526Y-94920974D01*
X123953553Y-95600000D01*
X123947339Y-95600000D01*
X123845606Y-95627259D01*
X123754394Y-95679920D01*
X123679920Y-95754394D01*
X123627259Y-95845606D01*
X123600000Y-95947339D01*
X123600000Y-95953552D01*
X122920974Y-95274526D01*
X122920973Y-95274526D01*
X122869868Y-95347512D01*
X122869866Y-95347516D01*
X122773734Y-95553673D01*
X122773730Y-95553682D01*
X122714860Y-95773389D01*
X122714858Y-95773400D01*
X122695034Y-95999997D01*
X119687500Y-95999997D01*
X119687500Y-90066398D01*
X119707185Y-89999359D01*
X119740374Y-89964825D01*
X119874620Y-89870826D01*
X120030826Y-89714620D01*
X120157534Y-89533662D01*
X120217618Y-89404811D01*
X120263790Y-89352371D01*
X120330983Y-89333219D01*
X120397865Y-89353435D01*
X120442382Y-89404811D01*
X120502464Y-89533658D01*
X120502468Y-89533666D01*
X120629170Y-89714615D01*
X120629175Y-89714621D01*
X120785378Y-89870824D01*
X120785384Y-89870829D01*
X120966333Y-89997531D01*
X120966335Y-89997532D01*
X120966338Y-89997534D01*
X121166550Y-90090894D01*
X121379932Y-90148070D01*
X121537123Y-90161822D01*
X121599998Y-90167323D01*
X121600000Y-90167323D01*
X121600002Y-90167323D01*
X121655017Y-90162509D01*
X121820068Y-90148070D01*
X122033450Y-90090894D01*
X122233662Y-89997534D01*
X122414620Y-89870826D01*
X122570826Y-89714620D01*
X122697534Y-89533662D01*
X122757618Y-89404811D01*
X122803790Y-89352371D01*
X122870983Y-89333219D01*
X122937865Y-89353435D01*
X122982382Y-89404811D01*
X123042464Y-89533658D01*
X123042468Y-89533666D01*
X123169170Y-89714615D01*
X123169175Y-89714621D01*
X123325378Y-89870824D01*
X123325384Y-89870829D01*
X123506333Y-89997531D01*
X123506335Y-89997532D01*
X123506338Y-89997534D01*
X123706550Y-90090894D01*
X123919932Y-90148070D01*
X124077123Y-90161822D01*
X124139998Y-90167323D01*
X124140000Y-90167323D01*
X124140002Y-90167323D01*
X124195017Y-90162509D01*
X124360068Y-90148070D01*
X124573450Y-90090894D01*
X124773662Y-89997534D01*
X124954620Y-89870826D01*
X125110826Y-89714620D01*
X125237534Y-89533662D01*
X125297618Y-89404811D01*
X125343790Y-89352371D01*
X125410983Y-89333219D01*
X125477865Y-89353435D01*
X125522382Y-89404811D01*
X125582464Y-89533658D01*
X125582468Y-89533666D01*
X125709170Y-89714615D01*
X125709175Y-89714621D01*
X125865378Y-89870824D01*
X125865384Y-89870829D01*
X126046333Y-89997531D01*
X126046335Y-89997532D01*
X126046338Y-89997534D01*
X126246550Y-90090894D01*
X126459932Y-90148070D01*
X126617123Y-90161822D01*
X126679998Y-90167323D01*
X126680000Y-90167323D01*
X126680002Y-90167323D01*
X126735017Y-90162509D01*
X126900068Y-90148070D01*
X127113450Y-90090894D01*
X127313662Y-89997534D01*
X127494620Y-89870826D01*
X127650826Y-89714620D01*
X127777534Y-89533662D01*
X127837618Y-89404811D01*
X127883790Y-89352371D01*
X127950983Y-89333219D01*
X128017865Y-89353435D01*
X128062382Y-89404811D01*
X128122464Y-89533658D01*
X128122468Y-89533666D01*
X128249170Y-89714615D01*
X128249175Y-89714621D01*
X128405378Y-89870824D01*
X128405384Y-89870829D01*
X128586333Y-89997531D01*
X128586335Y-89997532D01*
X128586338Y-89997534D01*
X128786550Y-90090894D01*
X128999932Y-90148070D01*
X129157123Y-90161822D01*
X129219998Y-90167323D01*
X129220000Y-90167323D01*
X129220002Y-90167323D01*
X129275017Y-90162509D01*
X129440068Y-90148070D01*
X129653450Y-90090894D01*
X129853662Y-89997534D01*
X130034620Y-89870826D01*
X130190826Y-89714620D01*
X130317534Y-89533662D01*
X130377618Y-89404811D01*
X130423790Y-89352371D01*
X130490983Y-89333219D01*
X130557865Y-89353435D01*
X130602382Y-89404811D01*
X130662464Y-89533658D01*
X130662468Y-89533666D01*
X130789170Y-89714615D01*
X130789175Y-89714621D01*
X130945378Y-89870824D01*
X130945384Y-89870829D01*
X131126333Y-89997531D01*
X131126335Y-89997532D01*
X131126338Y-89997534D01*
X131326550Y-90090894D01*
X131539932Y-90148070D01*
X131697123Y-90161822D01*
X131759998Y-90167323D01*
X131760000Y-90167323D01*
X131760002Y-90167323D01*
X131815017Y-90162509D01*
X131980068Y-90148070D01*
X132193450Y-90090894D01*
X132393662Y-89997534D01*
X132574620Y-89870826D01*
X132730826Y-89714620D01*
X132857534Y-89533662D01*
X132917618Y-89404811D01*
X132963790Y-89352371D01*
X133030983Y-89333219D01*
X133097865Y-89353435D01*
X133142382Y-89404811D01*
X133202464Y-89533658D01*
X133202468Y-89533666D01*
X133329170Y-89714615D01*
X133329175Y-89714621D01*
X133485378Y-89870824D01*
X133485384Y-89870829D01*
X133666333Y-89997531D01*
X133666335Y-89997532D01*
X133666338Y-89997534D01*
X133866550Y-90090894D01*
X134079932Y-90148070D01*
X134237123Y-90161822D01*
X134299998Y-90167323D01*
X134300000Y-90167323D01*
X134300002Y-90167323D01*
X134355017Y-90162509D01*
X134520068Y-90148070D01*
X134733450Y-90090894D01*
X134933662Y-89997534D01*
X135114620Y-89870826D01*
X135270826Y-89714620D01*
X135323725Y-89639071D01*
X135378301Y-89595447D01*
X135447800Y-89588253D01*
X135510155Y-89619775D01*
X135545569Y-89680005D01*
X135549300Y-89710195D01*
X135549300Y-94717227D01*
X135529615Y-94784266D01*
X135517450Y-94800199D01*
X135459726Y-94864307D01*
X135459721Y-94864314D01*
X135367074Y-95024785D01*
X135309814Y-95201011D01*
X135309813Y-95201013D01*
X135290444Y-95385300D01*
X135309813Y-95569586D01*
X135309814Y-95569588D01*
X135367074Y-95745814D01*
X135424689Y-95845606D01*
X135459723Y-95906287D01*
X135496686Y-95947339D01*
X135583706Y-96043986D01*
X135583709Y-96043988D01*
X135583712Y-96043991D01*
X135730196Y-96150418D01*
X135733622Y-96152907D01*
X135902895Y-96228273D01*
X135902898Y-96228273D01*
X135902901Y-96228275D01*
X136084151Y-96266800D01*
X136269449Y-96266800D01*
X136450699Y-96228275D01*
X136597233Y-96163033D01*
X136666479Y-96153749D01*
X136729756Y-96183376D01*
X136766970Y-96242511D01*
X136767442Y-96308402D01*
X136763794Y-96322017D01*
X136763793Y-96322024D01*
X136744723Y-96539997D01*
X136744723Y-96540002D01*
X136763793Y-96757975D01*
X136763793Y-96757979D01*
X136820423Y-96969327D01*
X136829152Y-96988046D01*
X136839643Y-97057124D01*
X136811121Y-97120907D01*
X136804450Y-97128129D01*
X133202225Y-100730354D01*
X133140902Y-100763839D01*
X133071210Y-100758855D01*
X133049270Y-100748102D01*
X133037401Y-100740753D01*
X133037399Y-100740752D01*
X133037395Y-100740750D01*
X132943956Y-100704552D01*
X132843475Y-100665625D01*
X132788075Y-100623054D01*
X132764484Y-100557288D01*
X132780195Y-100489207D01*
X132830219Y-100440428D01*
X132843466Y-100434377D01*
X133037401Y-100359247D01*
X133226562Y-100242124D01*
X133390981Y-100092236D01*
X133525058Y-99914689D01*
X133624229Y-99715528D01*
X133685115Y-99501536D01*
X133705643Y-99280000D01*
X133685115Y-99058464D01*
X133624229Y-98844472D01*
X133527730Y-98650677D01*
X133525061Y-98645316D01*
X133525056Y-98645308D01*
X133390979Y-98467761D01*
X133226562Y-98317876D01*
X133226560Y-98317874D01*
X133037404Y-98200754D01*
X133037398Y-98200752D01*
X132829940Y-98120382D01*
X132611243Y-98079500D01*
X132388757Y-98079500D01*
X132170060Y-98120382D01*
X132038864Y-98171207D01*
X131962601Y-98200752D01*
X131962595Y-98200754D01*
X131773439Y-98317874D01*
X131773437Y-98317876D01*
X131609020Y-98467761D01*
X131474943Y-98645308D01*
X131474938Y-98645316D01*
X131375775Y-98844461D01*
X131375769Y-98844476D01*
X131314885Y-99058462D01*
X131314884Y-99058464D01*
X131294357Y-99279999D01*
X131294357Y-99280000D01*
X131314884Y-99501535D01*
X131314885Y-99501537D01*
X131375769Y-99715523D01*
X131375775Y-99715538D01*
X131474938Y-99914683D01*
X131474943Y-99914691D01*
X131609020Y-100092238D01*
X131773437Y-100242123D01*
X131773439Y-100242125D01*
X131962595Y-100359245D01*
X131962596Y-100359245D01*
X131962599Y-100359247D01*
X132156524Y-100434374D01*
X132211924Y-100476946D01*
X132235515Y-100542713D01*
X132219804Y-100610793D01*
X132169780Y-100659572D01*
X132156533Y-100665622D01*
X132008488Y-100722975D01*
X131962601Y-100740752D01*
X131962595Y-100740754D01*
X131773439Y-100857874D01*
X131773437Y-100857876D01*
X131609020Y-101007761D01*
X131474943Y-101185308D01*
X131474938Y-101185316D01*
X131375775Y-101384461D01*
X131375769Y-101384476D01*
X131314885Y-101598462D01*
X131314884Y-101598464D01*
X131294357Y-101819999D01*
X131294357Y-101820000D01*
X131314884Y-102041535D01*
X131314885Y-102041537D01*
X131375769Y-102255523D01*
X131375775Y-102255538D01*
X131474938Y-102454683D01*
X131474943Y-102454691D01*
X131609020Y-102632238D01*
X131773437Y-102782123D01*
X131773439Y-102782125D01*
X131962595Y-102899245D01*
X131962596Y-102899245D01*
X131962599Y-102899247D01*
X132170060Y-102979618D01*
X132388757Y-103020500D01*
X132388759Y-103020500D01*
X132611241Y-103020500D01*
X132611243Y-103020500D01*
X132829940Y-102979618D01*
X133037401Y-102899247D01*
X133226562Y-102782124D01*
X133390981Y-102632236D01*
X133525058Y-102454689D01*
X133624229Y-102255528D01*
X133683950Y-102045627D01*
X133715533Y-101991884D01*
X136547254Y-99160163D01*
X136608575Y-99126680D01*
X136678267Y-99131664D01*
X136734200Y-99173536D01*
X136758461Y-99237037D01*
X136763793Y-99297976D01*
X136763793Y-99297979D01*
X136820422Y-99509322D01*
X136820424Y-99509326D01*
X136820425Y-99509330D01*
X136860435Y-99595132D01*
X136912897Y-99707638D01*
X136912898Y-99707639D01*
X137038402Y-99886877D01*
X137193123Y-100041598D01*
X137372360Y-100167101D01*
X137372361Y-100167102D01*
X137524175Y-100237894D01*
X137576614Y-100284066D01*
X137595766Y-100351260D01*
X137575550Y-100418141D01*
X137524175Y-100462658D01*
X137372614Y-100533332D01*
X137372612Y-100533333D01*
X137310428Y-100576875D01*
X137310427Y-100576875D01*
X137953554Y-101220000D01*
X137947339Y-101220000D01*
X137845606Y-101247259D01*
X137754394Y-101299920D01*
X137679920Y-101374394D01*
X137627259Y-101465606D01*
X137600000Y-101567339D01*
X137600000Y-101573552D01*
X136956875Y-100930427D01*
X136956875Y-100930428D01*
X136913333Y-100992612D01*
X136913332Y-100992614D01*
X136820898Y-101190840D01*
X136820894Y-101190849D01*
X136764289Y-101402105D01*
X136764287Y-101402115D01*
X136745225Y-101619999D01*
X136745225Y-101620000D01*
X136764287Y-101837884D01*
X136764289Y-101837894D01*
X136820894Y-102049150D01*
X136820898Y-102049159D01*
X136913333Y-102247387D01*
X136956874Y-102309571D01*
X137600000Y-101666445D01*
X137600000Y-101672661D01*
X137627259Y-101774394D01*
X137679920Y-101865606D01*
X137754394Y-101940080D01*
X137845606Y-101992741D01*
X137947339Y-102020000D01*
X137953553Y-102020000D01*
X137310427Y-102663124D01*
X137372612Y-102706666D01*
X137570840Y-102799101D01*
X137570849Y-102799105D01*
X137782105Y-102855710D01*
X137782115Y-102855712D01*
X137999999Y-102874775D01*
X138000001Y-102874775D01*
X138217884Y-102855712D01*
X138217894Y-102855710D01*
X138429150Y-102799105D01*
X138429164Y-102799100D01*
X138627383Y-102706669D01*
X138627385Y-102706668D01*
X138689571Y-102663124D01*
X138046448Y-102020000D01*
X138052661Y-102020000D01*
X138154394Y-101992741D01*
X138245606Y-101940080D01*
X138320080Y-101865606D01*
X138372741Y-101774394D01*
X138400000Y-101672661D01*
X138400000Y-101666446D01*
X139043124Y-102309570D01*
X139086668Y-102247385D01*
X139086669Y-102247383D01*
X139179100Y-102049164D01*
X139179105Y-102049150D01*
X139235710Y-101837894D01*
X139235712Y-101837884D01*
X139254775Y-101620000D01*
X139254775Y-101619999D01*
X139235712Y-101402115D01*
X139235710Y-101402105D01*
X139179105Y-101190849D01*
X139179101Y-101190840D01*
X139086668Y-100992615D01*
X139043123Y-100930428D01*
X138400000Y-101573551D01*
X138400000Y-101567339D01*
X138372741Y-101465606D01*
X138320080Y-101374394D01*
X138245606Y-101299920D01*
X138154394Y-101247259D01*
X138052661Y-101220000D01*
X138046447Y-101220000D01*
X138689571Y-100576874D01*
X138627387Y-100533333D01*
X138475824Y-100462658D01*
X138423385Y-100416486D01*
X138404233Y-100349292D01*
X138424449Y-100282411D01*
X138475822Y-100237895D01*
X138627639Y-100167102D01*
X138806877Y-100041598D01*
X138961598Y-99886877D01*
X139087102Y-99707639D01*
X139179575Y-99509330D01*
X139236207Y-99297977D01*
X139255277Y-99080000D01*
X139236207Y-98862023D01*
X139179575Y-98650670D01*
X139087102Y-98452362D01*
X139087100Y-98452359D01*
X139087099Y-98452357D01*
X138961599Y-98273124D01*
X138889227Y-98200752D01*
X138806877Y-98118402D01*
X138627639Y-97992898D01*
X138476414Y-97922381D01*
X138423977Y-97876210D01*
X138404825Y-97809016D01*
X138425041Y-97742135D01*
X138476414Y-97697618D01*
X138627639Y-97627102D01*
X138806877Y-97501598D01*
X138961598Y-97346877D01*
X139087102Y-97167639D01*
X139179575Y-96969330D01*
X139236207Y-96757977D01*
X139255277Y-96540000D01*
X139236207Y-96322023D01*
X139190892Y-96152907D01*
X139179577Y-96110677D01*
X139179576Y-96110676D01*
X139179575Y-96110670D01*
X139087102Y-95912362D01*
X139087100Y-95912359D01*
X139087099Y-95912357D01*
X138961599Y-95733124D01*
X138897074Y-95668599D01*
X138806877Y-95578402D01*
X138660736Y-95476072D01*
X138617112Y-95421496D01*
X138609920Y-95351998D01*
X138641442Y-95289643D01*
X138701672Y-95254230D01*
X138731861Y-95250499D01*
X138797871Y-95250499D01*
X138797872Y-95250499D01*
X138857483Y-95244091D01*
X138992331Y-95193796D01*
X139107546Y-95107546D01*
X139193796Y-94992331D01*
X139244091Y-94857483D01*
X139250500Y-94797873D01*
X139250499Y-93202128D01*
X139244091Y-93142517D01*
X139241694Y-93136091D01*
X139193797Y-93007671D01*
X139193793Y-93007664D01*
X139107547Y-92892455D01*
X139107544Y-92892452D01*
X138992335Y-92806206D01*
X138992328Y-92806202D01*
X138857482Y-92755908D01*
X138857483Y-92755908D01*
X138797883Y-92749501D01*
X138797881Y-92749500D01*
X138797873Y-92749500D01*
X138797865Y-92749500D01*
X138306481Y-92749500D01*
X138239442Y-92729815D01*
X138193687Y-92677011D01*
X138183743Y-92607853D01*
X138212768Y-92544297D01*
X138218800Y-92537819D01*
X138526107Y-92230512D01*
X138526107Y-92230511D01*
X138526111Y-92230508D01*
X138533054Y-92220115D01*
X138533059Y-92220112D01*
X138533058Y-92220111D01*
X138594779Y-92127739D01*
X138594779Y-92127738D01*
X138594783Y-92127733D01*
X138635293Y-92029933D01*
X138642086Y-92013534D01*
X138666200Y-91892303D01*
X138666200Y-91768697D01*
X138666200Y-90154805D01*
X138685885Y-90087766D01*
X138738689Y-90042011D01*
X138807847Y-90032067D01*
X138842599Y-90042421D01*
X138946550Y-90090894D01*
X139159932Y-90148070D01*
X139317123Y-90161822D01*
X139379998Y-90167323D01*
X139380000Y-90167323D01*
X139380002Y-90167323D01*
X139435017Y-90162509D01*
X139600068Y-90148070D01*
X139813450Y-90090894D01*
X139973096Y-90016449D01*
X140042173Y-90005958D01*
X140105957Y-90034478D01*
X140144196Y-90092954D01*
X140149500Y-90128832D01*
X140149500Y-104338807D01*
X140173612Y-104460028D01*
X140173613Y-104460032D01*
X140173614Y-104460035D01*
X140184954Y-104487411D01*
X140220915Y-104574231D01*
X140240392Y-104603380D01*
X140240393Y-104603381D01*
X140240396Y-104603385D01*
X140266254Y-104642084D01*
X140289590Y-104677010D01*
X140289591Y-104677011D01*
X149199989Y-113587408D01*
X149233474Y-113648731D01*
X149232083Y-113707182D01*
X149214366Y-113773302D01*
X149214364Y-113773313D01*
X149194532Y-113999998D01*
X149194532Y-114000001D01*
X149214364Y-114226686D01*
X149214366Y-114226697D01*
X149273258Y-114446488D01*
X149273261Y-114446497D01*
X149369431Y-114652732D01*
X149369432Y-114652734D01*
X149499954Y-114839141D01*
X149660858Y-115000045D01*
X149676738Y-115011164D01*
X149847266Y-115130568D01*
X150053504Y-115226739D01*
X150273308Y-115285635D01*
X150435230Y-115299801D01*
X150499998Y-115305468D01*
X150500000Y-115305468D01*
X150500002Y-115305468D01*
X150556673Y-115300509D01*
X150726692Y-115285635D01*
X150946496Y-115226739D01*
X151050097Y-115178428D01*
X151119172Y-115167937D01*
X151182956Y-115196456D01*
X151221196Y-115254933D01*
X151226500Y-115290811D01*
X151226500Y-115334718D01*
X151206815Y-115401757D01*
X151190181Y-115422399D01*
X150912590Y-115699989D01*
X150851267Y-115733474D01*
X150792816Y-115732083D01*
X150762930Y-115724075D01*
X150726694Y-115714365D01*
X150726686Y-115714364D01*
X150500002Y-115694532D01*
X150499998Y-115694532D01*
X150273313Y-115714364D01*
X150273302Y-115714366D01*
X150053511Y-115773258D01*
X150053502Y-115773261D01*
X149847267Y-115869431D01*
X149847265Y-115869432D01*
X149660858Y-115999954D01*
X149499954Y-116160858D01*
X149369432Y-116347265D01*
X149369431Y-116347267D01*
X149273261Y-116553502D01*
X149273258Y-116553511D01*
X149214366Y-116773302D01*
X149214364Y-116773313D01*
X149194532Y-116999998D01*
X149194532Y-117000001D01*
X149214364Y-117226686D01*
X149214366Y-117226697D01*
X149273258Y-117446488D01*
X149273261Y-117446497D01*
X149369431Y-117652732D01*
X149369432Y-117652734D01*
X149499954Y-117839141D01*
X149660858Y-118000045D01*
X149660861Y-118000047D01*
X149847266Y-118130568D01*
X150053504Y-118226739D01*
X150273308Y-118285635D01*
X150435230Y-118299801D01*
X150499998Y-118305468D01*
X150500000Y-118305468D01*
X150500002Y-118305468D01*
X150556673Y-118300509D01*
X150726692Y-118285635D01*
X150946496Y-118226739D01*
X151152734Y-118130568D01*
X151339139Y-118000047D01*
X151500047Y-117839139D01*
X151630568Y-117652734D01*
X151726739Y-117446496D01*
X151785635Y-117226692D01*
X151805468Y-117000000D01*
X151785635Y-116773308D01*
X151767916Y-116707181D01*
X151769579Y-116637332D01*
X151800008Y-116587409D01*
X152341411Y-116046008D01*
X152410083Y-115943233D01*
X152457385Y-115829035D01*
X152476394Y-115733474D01*
X152481500Y-115707805D01*
X152481500Y-108155500D01*
X152501185Y-108088461D01*
X152553989Y-108042706D01*
X152605500Y-108031500D01*
X152708649Y-108031500D01*
X152889899Y-107992975D01*
X152889902Y-107992973D01*
X152889904Y-107992973D01*
X152946922Y-107967586D01*
X153059178Y-107917607D01*
X153209088Y-107808691D01*
X153333077Y-107670987D01*
X153425726Y-107510513D01*
X153482987Y-107334284D01*
X153502356Y-107150000D01*
X153482987Y-106965716D01*
X153425726Y-106789487D01*
X153374061Y-106700000D01*
X153333078Y-106629014D01*
X153333073Y-106629007D01*
X153275350Y-106564899D01*
X153245120Y-106501907D01*
X153243500Y-106481927D01*
X153243500Y-74361696D01*
X153237331Y-74330687D01*
X153237331Y-74330684D01*
X153219387Y-74240472D01*
X153219384Y-74240463D01*
X153172086Y-74126272D01*
X153172079Y-74126260D01*
X153103411Y-74023492D01*
X153103408Y-74023488D01*
X145678411Y-66598491D01*
X145678407Y-66598488D01*
X145575639Y-66529820D01*
X145575626Y-66529813D01*
X145542185Y-66515962D01*
X145461435Y-66482514D01*
X145461427Y-66482512D01*
X145340207Y-66458400D01*
X145340203Y-66458400D01*
X143277181Y-66458400D01*
X143210142Y-66438715D01*
X143189500Y-66422081D01*
X141738706Y-64971287D01*
X141705221Y-64909964D01*
X141710205Y-64840272D01*
X141752077Y-64784339D01*
X141817541Y-64759922D01*
X141837186Y-64760077D01*
X141910466Y-64766488D01*
X141919999Y-64767323D01*
X141920000Y-64767323D01*
X141920002Y-64767323D01*
X141975151Y-64762498D01*
X142140068Y-64748070D01*
X142353450Y-64690894D01*
X142553662Y-64597534D01*
X142734620Y-64470826D01*
X142890826Y-64314620D01*
X143017534Y-64133662D01*
X143077618Y-64004811D01*
X143123790Y-63952371D01*
X143190983Y-63933219D01*
X143257865Y-63953435D01*
X143302382Y-64004811D01*
X143362464Y-64133658D01*
X143362468Y-64133666D01*
X143489170Y-64314615D01*
X143489175Y-64314621D01*
X143645378Y-64470824D01*
X143645384Y-64470829D01*
X143826333Y-64597531D01*
X143826335Y-64597532D01*
X143826338Y-64597534D01*
X144026550Y-64690894D01*
X144239932Y-64748070D01*
X144397123Y-64761822D01*
X144459998Y-64767323D01*
X144460000Y-64767323D01*
X144460002Y-64767323D01*
X144515151Y-64762498D01*
X144680068Y-64748070D01*
X144893450Y-64690894D01*
X145093662Y-64597534D01*
X145274620Y-64470826D01*
X145430826Y-64314620D01*
X145511927Y-64198795D01*
X145566501Y-64155172D01*
X145635999Y-64147978D01*
X145698354Y-64179500D01*
X145733769Y-64239730D01*
X145737500Y-64269917D01*
X145737500Y-64309868D01*
X145737501Y-64309876D01*
X145743908Y-64369483D01*
X145794202Y-64504328D01*
X145794206Y-64504335D01*
X145880452Y-64619544D01*
X145880455Y-64619547D01*
X145995664Y-64705793D01*
X145995671Y-64705797D01*
X146130517Y-64756091D01*
X146130516Y-64756091D01*
X146137444Y-64756835D01*
X146190127Y-64762500D01*
X147809872Y-64762499D01*
X147869483Y-64756091D01*
X148004331Y-64705796D01*
X148119546Y-64619546D01*
X148205796Y-64504331D01*
X148256091Y-64369483D01*
X148262500Y-64309873D01*
X148262499Y-62690128D01*
X148256091Y-62630517D01*
X148205796Y-62495669D01*
X148205795Y-62495668D01*
X148205793Y-62495664D01*
X148119547Y-62380455D01*
X148119544Y-62380452D01*
X148004335Y-62294206D01*
X148004328Y-62294202D01*
X147869482Y-62243908D01*
X147869483Y-62243908D01*
X147809883Y-62237501D01*
X147809881Y-62237500D01*
X147809873Y-62237500D01*
X147809864Y-62237500D01*
X146190129Y-62237500D01*
X146190123Y-62237501D01*
X146130516Y-62243908D01*
X145995671Y-62294202D01*
X145995664Y-62294206D01*
X145880455Y-62380452D01*
X145880452Y-62380455D01*
X145794206Y-62495664D01*
X145794202Y-62495671D01*
X145743908Y-62630517D01*
X145738010Y-62685380D01*
X145737501Y-62690123D01*
X145737500Y-62690135D01*
X145737500Y-62730079D01*
X145717815Y-62797118D01*
X145665011Y-62842873D01*
X145595853Y-62852817D01*
X145532297Y-62823792D01*
X145511925Y-62801202D01*
X145430827Y-62685381D01*
X145355074Y-62609628D01*
X145274620Y-62529174D01*
X145274616Y-62529171D01*
X145274615Y-62529170D01*
X145093666Y-62402468D01*
X145093662Y-62402466D01*
X145046457Y-62380454D01*
X144893450Y-62309106D01*
X144893447Y-62309105D01*
X144893445Y-62309104D01*
X144680070Y-62251930D01*
X144680062Y-62251929D01*
X144460002Y-62232677D01*
X144459998Y-62232677D01*
X144239937Y-62251929D01*
X144239929Y-62251930D01*
X144026554Y-62309104D01*
X144026548Y-62309107D01*
X143826340Y-62402465D01*
X143826338Y-62402466D01*
X143645377Y-62529175D01*
X143489175Y-62685377D01*
X143362466Y-62866338D01*
X143362465Y-62866340D01*
X143302382Y-62995189D01*
X143256209Y-63047628D01*
X143189016Y-63066780D01*
X143122135Y-63046564D01*
X143077618Y-62995189D01*
X143017651Y-62866590D01*
X143017534Y-62866339D01*
X142954180Y-62775859D01*
X142890827Y-62685381D01*
X142815074Y-62609628D01*
X142734620Y-62529174D01*
X142734616Y-62529171D01*
X142734615Y-62529170D01*
X142553666Y-62402468D01*
X142553662Y-62402466D01*
X142506457Y-62380454D01*
X142353450Y-62309106D01*
X142353447Y-62309105D01*
X142353445Y-62309104D01*
X142140070Y-62251930D01*
X142140062Y-62251929D01*
X141920002Y-62232677D01*
X141919998Y-62232677D01*
X141699937Y-62251929D01*
X141699929Y-62251930D01*
X141486554Y-62309104D01*
X141486548Y-62309107D01*
X141286340Y-62402465D01*
X141286338Y-62402466D01*
X141105377Y-62529175D01*
X140949175Y-62685377D01*
X140822466Y-62866338D01*
X140822465Y-62866340D01*
X140762382Y-62995189D01*
X140716209Y-63047628D01*
X140649016Y-63066780D01*
X140582135Y-63046564D01*
X140537618Y-62995189D01*
X140477651Y-62866590D01*
X140477534Y-62866339D01*
X140414180Y-62775859D01*
X140350827Y-62685381D01*
X140275074Y-62609628D01*
X140194620Y-62529174D01*
X140194616Y-62529171D01*
X140194615Y-62529170D01*
X140013666Y-62402468D01*
X140013662Y-62402466D01*
X139966457Y-62380454D01*
X139813450Y-62309106D01*
X139813447Y-62309105D01*
X139813445Y-62309104D01*
X139600070Y-62251930D01*
X139600062Y-62251929D01*
X139380002Y-62232677D01*
X139379998Y-62232677D01*
X139159937Y-62251929D01*
X139159929Y-62251930D01*
X138946554Y-62309104D01*
X138946548Y-62309107D01*
X138746340Y-62402465D01*
X138746338Y-62402466D01*
X138565377Y-62529175D01*
X138409175Y-62685377D01*
X138282466Y-62866338D01*
X138282465Y-62866340D01*
X138222382Y-62995189D01*
X138176209Y-63047628D01*
X138109016Y-63066780D01*
X138042135Y-63046564D01*
X137997618Y-62995189D01*
X137937651Y-62866590D01*
X137937534Y-62866339D01*
X137874180Y-62775859D01*
X137810827Y-62685381D01*
X137735074Y-62609628D01*
X137654620Y-62529174D01*
X137654616Y-62529171D01*
X137654615Y-62529170D01*
X137473666Y-62402468D01*
X137473662Y-62402466D01*
X137426457Y-62380454D01*
X137273450Y-62309106D01*
X137273447Y-62309105D01*
X137273445Y-62309104D01*
X137060070Y-62251930D01*
X137060062Y-62251929D01*
X136840002Y-62232677D01*
X136839998Y-62232677D01*
X136619937Y-62251929D01*
X136619929Y-62251930D01*
X136406554Y-62309104D01*
X136406548Y-62309107D01*
X136206340Y-62402465D01*
X136206338Y-62402466D01*
X136025377Y-62529175D01*
X135869175Y-62685377D01*
X135742466Y-62866338D01*
X135742465Y-62866340D01*
X135682382Y-62995189D01*
X135636209Y-63047628D01*
X135569016Y-63066780D01*
X135502135Y-63046564D01*
X135457618Y-62995189D01*
X135397651Y-62866590D01*
X135397534Y-62866339D01*
X135334180Y-62775859D01*
X135270827Y-62685381D01*
X135195074Y-62609628D01*
X135114620Y-62529174D01*
X135114616Y-62529171D01*
X135114615Y-62529170D01*
X134933666Y-62402468D01*
X134933662Y-62402466D01*
X134886457Y-62380454D01*
X134733450Y-62309106D01*
X134733447Y-62309105D01*
X134733445Y-62309104D01*
X134520070Y-62251930D01*
X134520062Y-62251929D01*
X134300002Y-62232677D01*
X134299998Y-62232677D01*
X134079937Y-62251929D01*
X134079929Y-62251930D01*
X133866554Y-62309104D01*
X133866548Y-62309107D01*
X133666340Y-62402465D01*
X133666338Y-62402466D01*
X133485377Y-62529175D01*
X133329175Y-62685377D01*
X133202466Y-62866338D01*
X133202465Y-62866340D01*
X133142382Y-62995189D01*
X133096209Y-63047628D01*
X133029016Y-63066780D01*
X132962135Y-63046564D01*
X132917618Y-62995189D01*
X132857651Y-62866590D01*
X132857534Y-62866339D01*
X132794180Y-62775859D01*
X132730827Y-62685381D01*
X132655074Y-62609628D01*
X132574620Y-62529174D01*
X132574616Y-62529171D01*
X132574615Y-62529170D01*
X132393666Y-62402468D01*
X132393662Y-62402466D01*
X132346457Y-62380454D01*
X132193450Y-62309106D01*
X132193447Y-62309105D01*
X132193445Y-62309104D01*
X131980070Y-62251930D01*
X131980062Y-62251929D01*
X131760002Y-62232677D01*
X131759998Y-62232677D01*
X131539937Y-62251929D01*
X131539929Y-62251930D01*
X131326554Y-62309104D01*
X131326548Y-62309107D01*
X131126340Y-62402465D01*
X131126338Y-62402466D01*
X130945377Y-62529175D01*
X130789175Y-62685377D01*
X130662466Y-62866338D01*
X130662465Y-62866340D01*
X130602382Y-62995189D01*
X130556209Y-63047628D01*
X130489016Y-63066780D01*
X130422135Y-63046564D01*
X130377618Y-62995189D01*
X130317651Y-62866590D01*
X130317534Y-62866339D01*
X130254180Y-62775859D01*
X130190827Y-62685381D01*
X130115074Y-62609628D01*
X130034620Y-62529174D01*
X130034616Y-62529171D01*
X130034615Y-62529170D01*
X129853666Y-62402468D01*
X129853662Y-62402466D01*
X129806457Y-62380454D01*
X129653450Y-62309106D01*
X129653447Y-62309105D01*
X129653445Y-62309104D01*
X129440070Y-62251930D01*
X129440062Y-62251929D01*
X129220002Y-62232677D01*
X129219998Y-62232677D01*
X128999937Y-62251929D01*
X128999929Y-62251930D01*
X128786554Y-62309104D01*
X128786548Y-62309107D01*
X128586340Y-62402465D01*
X128586338Y-62402466D01*
X128405377Y-62529175D01*
X128249175Y-62685377D01*
X128122466Y-62866338D01*
X128122465Y-62866340D01*
X128062382Y-62995189D01*
X128016209Y-63047628D01*
X127949016Y-63066780D01*
X127882135Y-63046564D01*
X127837618Y-62995189D01*
X127777651Y-62866590D01*
X127777534Y-62866339D01*
X127714180Y-62775859D01*
X127650827Y-62685381D01*
X127575074Y-62609628D01*
X127494620Y-62529174D01*
X127494616Y-62529171D01*
X127494615Y-62529170D01*
X127313666Y-62402468D01*
X127313662Y-62402466D01*
X127266457Y-62380454D01*
X127113450Y-62309106D01*
X127113447Y-62309105D01*
X127113445Y-62309104D01*
X126900070Y-62251930D01*
X126900062Y-62251929D01*
X126680002Y-62232677D01*
X126679998Y-62232677D01*
X126459937Y-62251929D01*
X126459929Y-62251930D01*
X126246554Y-62309104D01*
X126246548Y-62309107D01*
X126046340Y-62402465D01*
X126046338Y-62402466D01*
X125865377Y-62529175D01*
X125709175Y-62685377D01*
X125582466Y-62866338D01*
X125582465Y-62866340D01*
X125522382Y-62995189D01*
X125476209Y-63047628D01*
X125409016Y-63066780D01*
X125342135Y-63046564D01*
X125297618Y-62995189D01*
X125237651Y-62866590D01*
X125237534Y-62866339D01*
X125174180Y-62775859D01*
X125110827Y-62685381D01*
X125035074Y-62609628D01*
X124954620Y-62529174D01*
X124954616Y-62529171D01*
X124954615Y-62529170D01*
X124773666Y-62402468D01*
X124773662Y-62402466D01*
X124726457Y-62380454D01*
X124573450Y-62309106D01*
X124573447Y-62309105D01*
X124573445Y-62309104D01*
X124360070Y-62251930D01*
X124360062Y-62251929D01*
X124140002Y-62232677D01*
X124139998Y-62232677D01*
X123919937Y-62251929D01*
X123919929Y-62251930D01*
X123706554Y-62309104D01*
X123706548Y-62309107D01*
X123506340Y-62402465D01*
X123506338Y-62402466D01*
X123325377Y-62529175D01*
X123169175Y-62685377D01*
X123042466Y-62866338D01*
X123042465Y-62866340D01*
X122982382Y-62995189D01*
X122936209Y-63047628D01*
X122869016Y-63066780D01*
X122802135Y-63046564D01*
X122757618Y-62995189D01*
X122697651Y-62866590D01*
X122697534Y-62866339D01*
X122634180Y-62775859D01*
X122570827Y-62685381D01*
X122495074Y-62609628D01*
X122414620Y-62529174D01*
X122414616Y-62529171D01*
X122414615Y-62529170D01*
X122233666Y-62402468D01*
X122233662Y-62402466D01*
X122186457Y-62380454D01*
X122033450Y-62309106D01*
X122033447Y-62309105D01*
X122033445Y-62309104D01*
X121820070Y-62251930D01*
X121820062Y-62251929D01*
X121600002Y-62232677D01*
X121599998Y-62232677D01*
X121379937Y-62251929D01*
X121379929Y-62251930D01*
X121166554Y-62309104D01*
X121166548Y-62309107D01*
X120966340Y-62402465D01*
X120966338Y-62402466D01*
X120785377Y-62529175D01*
X120629175Y-62685377D01*
X120502466Y-62866338D01*
X120502465Y-62866340D01*
X120442382Y-62995189D01*
X120396209Y-63047628D01*
X120329016Y-63066780D01*
X120262135Y-63046564D01*
X120217618Y-62995189D01*
X120157651Y-62866590D01*
X120157534Y-62866339D01*
X120094180Y-62775859D01*
X120030827Y-62685381D01*
X119955074Y-62609628D01*
X119874620Y-62529174D01*
X119874616Y-62529171D01*
X119874615Y-62529170D01*
X119693666Y-62402468D01*
X119693662Y-62402466D01*
X119646457Y-62380454D01*
X119493450Y-62309106D01*
X119493447Y-62309105D01*
X119493445Y-62309104D01*
X119280070Y-62251930D01*
X119280062Y-62251929D01*
X119060002Y-62232677D01*
X119059998Y-62232677D01*
X118839937Y-62251929D01*
X118839929Y-62251930D01*
X118626554Y-62309104D01*
X118626548Y-62309107D01*
X118426340Y-62402465D01*
X118426338Y-62402466D01*
X118245377Y-62529175D01*
X118089175Y-62685377D01*
X117962466Y-62866338D01*
X117962465Y-62866340D01*
X117902382Y-62995189D01*
X117856209Y-63047628D01*
X117789016Y-63066780D01*
X117722135Y-63046564D01*
X117677618Y-62995189D01*
X117617651Y-62866590D01*
X117617534Y-62866339D01*
X117554180Y-62775859D01*
X117490827Y-62685381D01*
X117415074Y-62609628D01*
X117334620Y-62529174D01*
X117334616Y-62529171D01*
X117334615Y-62529170D01*
X117153666Y-62402468D01*
X117153662Y-62402466D01*
X117106457Y-62380454D01*
X116953450Y-62309106D01*
X116953447Y-62309105D01*
X116953445Y-62309104D01*
X116740070Y-62251930D01*
X116740062Y-62251929D01*
X116520002Y-62232677D01*
X116519998Y-62232677D01*
X116299937Y-62251929D01*
X116299929Y-62251930D01*
X116086554Y-62309104D01*
X116086548Y-62309107D01*
X115886340Y-62402465D01*
X115886338Y-62402466D01*
X115705377Y-62529175D01*
X115549175Y-62685377D01*
X115422467Y-62866337D01*
X115362105Y-62995782D01*
X115315932Y-63048221D01*
X115248738Y-63067372D01*
X115181857Y-63047156D01*
X115137341Y-62995780D01*
X115077098Y-62866589D01*
X115077097Y-62866587D01*
X115031741Y-62801811D01*
X115031740Y-62801810D01*
X114361000Y-63472551D01*
X114361000Y-63449840D01*
X114335036Y-63352939D01*
X114284876Y-63266060D01*
X114213940Y-63195124D01*
X114127061Y-63144964D01*
X114030160Y-63119000D01*
X114007447Y-63119000D01*
X114678188Y-62448258D01*
X114613411Y-62402901D01*
X114613405Y-62402898D01*
X114413284Y-62309580D01*
X114413270Y-62309575D01*
X114199986Y-62252426D01*
X114199976Y-62252424D01*
X113980001Y-62233179D01*
X113979999Y-62233179D01*
X113760023Y-62252424D01*
X113760013Y-62252426D01*
X113546729Y-62309575D01*
X113546720Y-62309579D01*
X113346590Y-62402901D01*
X113281811Y-62448258D01*
X113952554Y-63119000D01*
X113929840Y-63119000D01*
X113832939Y-63144964D01*
X113746060Y-63195124D01*
X113675124Y-63266060D01*
X113624964Y-63352939D01*
X113599000Y-63449840D01*
X113599000Y-63472553D01*
X112928258Y-62801811D01*
X112882901Y-62866590D01*
X112822658Y-62995781D01*
X112776485Y-63048220D01*
X112709292Y-63067372D01*
X112642411Y-63047156D01*
X112597894Y-62995781D01*
X112537651Y-62866590D01*
X112537534Y-62866339D01*
X112474180Y-62775859D01*
X112410827Y-62685381D01*
X112335074Y-62609628D01*
X112254620Y-62529174D01*
X112254616Y-62529171D01*
X112254615Y-62529170D01*
X112073666Y-62402468D01*
X112073662Y-62402466D01*
X112026457Y-62380454D01*
X111873450Y-62309106D01*
X111873447Y-62309105D01*
X111873445Y-62309104D01*
X111660070Y-62251930D01*
X111660062Y-62251929D01*
X111440002Y-62232677D01*
X111439998Y-62232677D01*
X111219937Y-62251929D01*
X111219929Y-62251930D01*
X111006554Y-62309104D01*
X111006548Y-62309107D01*
X110806340Y-62402465D01*
X110806338Y-62402466D01*
X110625377Y-62529175D01*
X110469175Y-62685377D01*
X110342466Y-62866338D01*
X110342465Y-62866340D01*
X110249106Y-63066549D01*
X110247920Y-63069808D01*
X110219079Y-63115079D01*
X108760272Y-64573889D01*
X108633891Y-64700269D01*
X108633890Y-64700270D01*
X108528833Y-64844867D01*
X108447243Y-65004997D01*
X108446184Y-65008754D01*
X108392459Y-65174101D01*
X108392457Y-65174110D01*
X108377667Y-65267499D01*
X108377667Y-65267501D01*
X108364500Y-65350629D01*
X108364500Y-67830351D01*
X108352882Y-67882756D01*
X108273262Y-68053502D01*
X108273258Y-68053511D01*
X108214366Y-68273302D01*
X108214364Y-68273313D01*
X108194532Y-68499998D01*
X103387418Y-68499998D01*
X103300011Y-68412591D01*
X103298099Y-68411314D01*
X103298083Y-68411303D01*
X103197238Y-68343920D01*
X103197226Y-68343913D01*
X103163785Y-68330062D01*
X103083035Y-68296614D01*
X103083027Y-68296612D01*
X102961807Y-68272500D01*
X102961803Y-68272500D01*
X100593361Y-68272500D01*
X100526322Y-68252815D01*
X100499649Y-68229704D01*
X100496163Y-68225681D01*
X100462791Y-68187168D01*
X100393651Y-68127259D01*
X100354135Y-68093018D01*
X100354132Y-68093015D01*
X100292913Y-68053673D01*
X100233094Y-68015230D01*
X100233087Y-68015227D01*
X100233081Y-68015223D01*
X100108356Y-67958263D01*
X100104057Y-67956014D01*
X99964261Y-67914966D01*
X99964251Y-67914963D01*
X99836300Y-67896567D01*
X99821941Y-67894503D01*
X99821940Y-67894503D01*
X99765601Y-67894503D01*
X99765591Y-67894500D01*
X99714236Y-67894500D01*
X99285764Y-67894500D01*
X99234427Y-67894500D01*
X99234399Y-67894503D01*
X99178059Y-67894503D01*
X99044521Y-67913703D01*
X99044519Y-67913703D01*
X99035744Y-67914964D01*
X98897686Y-67955503D01*
X98766918Y-68015223D01*
X98766908Y-68015228D01*
X98766906Y-68015230D01*
X98733253Y-68036857D01*
X98645867Y-68093015D01*
X98645863Y-68093018D01*
X98537226Y-68187152D01*
X98537207Y-68187169D01*
X98537206Y-68187171D01*
X98442985Y-68295909D01*
X98442983Y-68295911D01*
X98442983Y-68295912D01*
X98442981Y-68295915D01*
X98365255Y-68416857D01*
X98365252Y-68416863D01*
X98305483Y-68547741D01*
X98264977Y-68685691D01*
X98264975Y-68685701D01*
X98247238Y-68809069D01*
X98218213Y-68872624D01*
X98159435Y-68910399D01*
X98089566Y-68910399D01*
X98030787Y-68872625D01*
X98001762Y-68809070D01*
X98000500Y-68791422D01*
X98000500Y-64724323D01*
X98020185Y-64657284D01*
X98072989Y-64611529D01*
X98142147Y-64601585D01*
X98202754Y-64628134D01*
X98296755Y-64704610D01*
X98296757Y-64704611D01*
X98296758Y-64704612D01*
X98540074Y-64852576D01*
X98752069Y-64944657D01*
X98801273Y-64966030D01*
X99075488Y-65042862D01*
X99323519Y-65076953D01*
X99357611Y-65081639D01*
X99357612Y-65081639D01*
X99642389Y-65081639D01*
X99672804Y-65077458D01*
X99924512Y-65042862D01*
X100198727Y-64966030D01*
X100459927Y-64852575D01*
X100703245Y-64704610D01*
X100924149Y-64524891D01*
X101118524Y-64316767D01*
X101282749Y-64084113D01*
X101413764Y-63831265D01*
X101509130Y-63562932D01*
X101567069Y-63284112D01*
X101586503Y-63000000D01*
X101567069Y-62715888D01*
X101509130Y-62437068D01*
X101413765Y-62168738D01*
X101413766Y-62168738D01*
X101282748Y-61915885D01*
X101282744Y-61915879D01*
X101127542Y-61696008D01*
X101104963Y-61629887D01*
X101121716Y-61562056D01*
X101172483Y-61514050D01*
X101228846Y-61500500D01*
X153271154Y-61500500D01*
X153338193Y-61520185D01*
G37*
%TD.AperFunction*%
%TD*%
M02*
