%TF.GenerationSoftware,KiCad,Pcbnew,8.0.7-unknown-202501031821~9d36205ced~ubuntu20.04.1*%
%TF.CreationDate,2025-02-02T17:40:00-03:00*%
%TF.ProjectId,Wise-Shield-32,57697365-2d53-4686-9965-6c642d33322e,1*%
%TF.SameCoordinates,Original*%
%TF.FileFunction,AssemblyDrawing,Top*%
%FSLAX46Y46*%
G04 Gerber Fmt 4.6, Leading zero omitted, Abs format (unit mm)*
G04 Created by KiCad (PCBNEW 8.0.7-unknown-202501031821~9d36205ced~ubuntu20.04.1) date 2025-02-02 17:40:00*
%MOMM*%
%LPD*%
G01*
G04 APERTURE LIST*
%ADD10C,0.150000*%
%ADD11C,0.100000*%
G04 APERTURE END LIST*
D10*
X114202380Y-100204819D02*
X113630952Y-100204819D01*
X113916666Y-100204819D02*
X113916666Y-99204819D01*
X113916666Y-99204819D02*
X113821428Y-99347676D01*
X113821428Y-99347676D02*
X113726190Y-99442914D01*
X113726190Y-99442914D02*
X113630952Y-99490533D01*
X114821428Y-99204819D02*
X114916666Y-99204819D01*
X114916666Y-99204819D02*
X115011904Y-99252438D01*
X115011904Y-99252438D02*
X115059523Y-99300057D01*
X115059523Y-99300057D02*
X115107142Y-99395295D01*
X115107142Y-99395295D02*
X115154761Y-99585771D01*
X115154761Y-99585771D02*
X115154761Y-99823866D01*
X115154761Y-99823866D02*
X115107142Y-100014342D01*
X115107142Y-100014342D02*
X115059523Y-100109580D01*
X115059523Y-100109580D02*
X115011904Y-100157200D01*
X115011904Y-100157200D02*
X114916666Y-100204819D01*
X114916666Y-100204819D02*
X114821428Y-100204819D01*
X114821428Y-100204819D02*
X114726190Y-100157200D01*
X114726190Y-100157200D02*
X114678571Y-100109580D01*
X114678571Y-100109580D02*
X114630952Y-100014342D01*
X114630952Y-100014342D02*
X114583333Y-99823866D01*
X114583333Y-99823866D02*
X114583333Y-99585771D01*
X114583333Y-99585771D02*
X114630952Y-99395295D01*
X114630952Y-99395295D02*
X114678571Y-99300057D01*
X114678571Y-99300057D02*
X114726190Y-99252438D01*
X114726190Y-99252438D02*
X114821428Y-99204819D01*
X115773809Y-99204819D02*
X115869047Y-99204819D01*
X115869047Y-99204819D02*
X115964285Y-99252438D01*
X115964285Y-99252438D02*
X116011904Y-99300057D01*
X116011904Y-99300057D02*
X116059523Y-99395295D01*
X116059523Y-99395295D02*
X116107142Y-99585771D01*
X116107142Y-99585771D02*
X116107142Y-99823866D01*
X116107142Y-99823866D02*
X116059523Y-100014342D01*
X116059523Y-100014342D02*
X116011904Y-100109580D01*
X116011904Y-100109580D02*
X115964285Y-100157200D01*
X115964285Y-100157200D02*
X115869047Y-100204819D01*
X115869047Y-100204819D02*
X115773809Y-100204819D01*
X115773809Y-100204819D02*
X115678571Y-100157200D01*
X115678571Y-100157200D02*
X115630952Y-100109580D01*
X115630952Y-100109580D02*
X115583333Y-100014342D01*
X115583333Y-100014342D02*
X115535714Y-99823866D01*
X115535714Y-99823866D02*
X115535714Y-99585771D01*
X115535714Y-99585771D02*
X115583333Y-99395295D01*
X115583333Y-99395295D02*
X115630952Y-99300057D01*
X115630952Y-99300057D02*
X115678571Y-99252438D01*
X115678571Y-99252438D02*
X115773809Y-99204819D01*
X116964285Y-99538152D02*
X116964285Y-100204819D01*
X116535714Y-99538152D02*
X116535714Y-100061961D01*
X116535714Y-100061961D02*
X116583333Y-100157200D01*
X116583333Y-100157200D02*
X116678571Y-100204819D01*
X116678571Y-100204819D02*
X116821428Y-100204819D01*
X116821428Y-100204819D02*
X116916666Y-100157200D01*
X116916666Y-100157200D02*
X116964285Y-100109580D01*
X117773809Y-99681009D02*
X117440476Y-99681009D01*
X117440476Y-100204819D02*
X117440476Y-99204819D01*
X117440476Y-99204819D02*
X117916666Y-99204819D01*
X115202380Y-96359580D02*
X115154761Y-96407200D01*
X115154761Y-96407200D02*
X115011904Y-96454819D01*
X115011904Y-96454819D02*
X114916666Y-96454819D01*
X114916666Y-96454819D02*
X114773809Y-96407200D01*
X114773809Y-96407200D02*
X114678571Y-96311961D01*
X114678571Y-96311961D02*
X114630952Y-96216723D01*
X114630952Y-96216723D02*
X114583333Y-96026247D01*
X114583333Y-96026247D02*
X114583333Y-95883390D01*
X114583333Y-95883390D02*
X114630952Y-95692914D01*
X114630952Y-95692914D02*
X114678571Y-95597676D01*
X114678571Y-95597676D02*
X114773809Y-95502438D01*
X114773809Y-95502438D02*
X114916666Y-95454819D01*
X114916666Y-95454819D02*
X115011904Y-95454819D01*
X115011904Y-95454819D02*
X115154761Y-95502438D01*
X115154761Y-95502438D02*
X115202380Y-95550057D01*
X115535714Y-95454819D02*
X116154761Y-95454819D01*
X116154761Y-95454819D02*
X115821428Y-95835771D01*
X115821428Y-95835771D02*
X115964285Y-95835771D01*
X115964285Y-95835771D02*
X116059523Y-95883390D01*
X116059523Y-95883390D02*
X116107142Y-95931009D01*
X116107142Y-95931009D02*
X116154761Y-96026247D01*
X116154761Y-96026247D02*
X116154761Y-96264342D01*
X116154761Y-96264342D02*
X116107142Y-96359580D01*
X116107142Y-96359580D02*
X116059523Y-96407200D01*
X116059523Y-96407200D02*
X115964285Y-96454819D01*
X115964285Y-96454819D02*
X115678571Y-96454819D01*
X115678571Y-96454819D02*
X115583333Y-96407200D01*
X115583333Y-96407200D02*
X115535714Y-96359580D01*
X116726190Y-95454819D02*
X116726190Y-95692914D01*
X116488095Y-95597676D02*
X116726190Y-95692914D01*
X116726190Y-95692914D02*
X116964285Y-95597676D01*
X116583333Y-95883390D02*
X116726190Y-95692914D01*
X116726190Y-95692914D02*
X116869047Y-95883390D01*
X107454819Y-101778095D02*
X106454819Y-101778095D01*
X106454819Y-101778095D02*
X106454819Y-101397143D01*
X106454819Y-101397143D02*
X106502438Y-101301905D01*
X106502438Y-101301905D02*
X106550057Y-101254286D01*
X106550057Y-101254286D02*
X106645295Y-101206667D01*
X106645295Y-101206667D02*
X106788152Y-101206667D01*
X106788152Y-101206667D02*
X106883390Y-101254286D01*
X106883390Y-101254286D02*
X106931009Y-101301905D01*
X106931009Y-101301905D02*
X106978628Y-101397143D01*
X106978628Y-101397143D02*
X106978628Y-101778095D01*
X107454819Y-100635238D02*
X107407200Y-100730476D01*
X107407200Y-100730476D02*
X107359580Y-100778095D01*
X107359580Y-100778095D02*
X107264342Y-100825714D01*
X107264342Y-100825714D02*
X106978628Y-100825714D01*
X106978628Y-100825714D02*
X106883390Y-100778095D01*
X106883390Y-100778095D02*
X106835771Y-100730476D01*
X106835771Y-100730476D02*
X106788152Y-100635238D01*
X106788152Y-100635238D02*
X106788152Y-100492381D01*
X106788152Y-100492381D02*
X106835771Y-100397143D01*
X106835771Y-100397143D02*
X106883390Y-100349524D01*
X106883390Y-100349524D02*
X106978628Y-100301905D01*
X106978628Y-100301905D02*
X107264342Y-100301905D01*
X107264342Y-100301905D02*
X107359580Y-100349524D01*
X107359580Y-100349524D02*
X107407200Y-100397143D01*
X107407200Y-100397143D02*
X107454819Y-100492381D01*
X107454819Y-100492381D02*
X107454819Y-100635238D01*
X106788152Y-99968571D02*
X107454819Y-99778095D01*
X107454819Y-99778095D02*
X106978628Y-99587619D01*
X106978628Y-99587619D02*
X107454819Y-99397143D01*
X107454819Y-99397143D02*
X106788152Y-99206667D01*
X107407200Y-98444762D02*
X107454819Y-98540000D01*
X107454819Y-98540000D02*
X107454819Y-98730476D01*
X107454819Y-98730476D02*
X107407200Y-98825714D01*
X107407200Y-98825714D02*
X107311961Y-98873333D01*
X107311961Y-98873333D02*
X106931009Y-98873333D01*
X106931009Y-98873333D02*
X106835771Y-98825714D01*
X106835771Y-98825714D02*
X106788152Y-98730476D01*
X106788152Y-98730476D02*
X106788152Y-98540000D01*
X106788152Y-98540000D02*
X106835771Y-98444762D01*
X106835771Y-98444762D02*
X106931009Y-98397143D01*
X106931009Y-98397143D02*
X107026247Y-98397143D01*
X107026247Y-98397143D02*
X107121485Y-98873333D01*
X107454819Y-97968571D02*
X106788152Y-97968571D01*
X106978628Y-97968571D02*
X106883390Y-97920952D01*
X106883390Y-97920952D02*
X106835771Y-97873333D01*
X106835771Y-97873333D02*
X106788152Y-97778095D01*
X106788152Y-97778095D02*
X106788152Y-97682857D01*
X107454819Y-96587618D02*
X106454819Y-96587618D01*
X106788152Y-96111428D02*
X107454819Y-96111428D01*
X106883390Y-96111428D02*
X106835771Y-96063809D01*
X106835771Y-96063809D02*
X106788152Y-95968571D01*
X106788152Y-95968571D02*
X106788152Y-95825714D01*
X106788152Y-95825714D02*
X106835771Y-95730476D01*
X106835771Y-95730476D02*
X106931009Y-95682857D01*
X106931009Y-95682857D02*
X107454819Y-95682857D01*
X106788152Y-95206666D02*
X107788152Y-95206666D01*
X106835771Y-95206666D02*
X106788152Y-95111428D01*
X106788152Y-95111428D02*
X106788152Y-94920952D01*
X106788152Y-94920952D02*
X106835771Y-94825714D01*
X106835771Y-94825714D02*
X106883390Y-94778095D01*
X106883390Y-94778095D02*
X106978628Y-94730476D01*
X106978628Y-94730476D02*
X107264342Y-94730476D01*
X107264342Y-94730476D02*
X107359580Y-94778095D01*
X107359580Y-94778095D02*
X107407200Y-94825714D01*
X107407200Y-94825714D02*
X107454819Y-94920952D01*
X107454819Y-94920952D02*
X107454819Y-95111428D01*
X107454819Y-95111428D02*
X107407200Y-95206666D01*
X106788152Y-93873333D02*
X107454819Y-93873333D01*
X106788152Y-94301904D02*
X107311961Y-94301904D01*
X107311961Y-94301904D02*
X107407200Y-94254285D01*
X107407200Y-94254285D02*
X107454819Y-94159047D01*
X107454819Y-94159047D02*
X107454819Y-94016190D01*
X107454819Y-94016190D02*
X107407200Y-93920952D01*
X107407200Y-93920952D02*
X107359580Y-93873333D01*
X106788152Y-93539999D02*
X106788152Y-93159047D01*
X106454819Y-93397142D02*
X107311961Y-93397142D01*
X107311961Y-93397142D02*
X107407200Y-93349523D01*
X107407200Y-93349523D02*
X107454819Y-93254285D01*
X107454819Y-93254285D02*
X107454819Y-93159047D01*
X100954819Y-98214285D02*
X101669104Y-98214285D01*
X101669104Y-98214285D02*
X101811961Y-98261904D01*
X101811961Y-98261904D02*
X101907200Y-98357142D01*
X101907200Y-98357142D02*
X101954819Y-98499999D01*
X101954819Y-98499999D02*
X101954819Y-98595237D01*
X100954819Y-97309523D02*
X100954819Y-97499999D01*
X100954819Y-97499999D02*
X101002438Y-97595237D01*
X101002438Y-97595237D02*
X101050057Y-97642856D01*
X101050057Y-97642856D02*
X101192914Y-97738094D01*
X101192914Y-97738094D02*
X101383390Y-97785713D01*
X101383390Y-97785713D02*
X101764342Y-97785713D01*
X101764342Y-97785713D02*
X101859580Y-97738094D01*
X101859580Y-97738094D02*
X101907200Y-97690475D01*
X101907200Y-97690475D02*
X101954819Y-97595237D01*
X101954819Y-97595237D02*
X101954819Y-97404761D01*
X101954819Y-97404761D02*
X101907200Y-97309523D01*
X101907200Y-97309523D02*
X101859580Y-97261904D01*
X101859580Y-97261904D02*
X101764342Y-97214285D01*
X101764342Y-97214285D02*
X101526247Y-97214285D01*
X101526247Y-97214285D02*
X101431009Y-97261904D01*
X101431009Y-97261904D02*
X101383390Y-97309523D01*
X101383390Y-97309523D02*
X101335771Y-97404761D01*
X101335771Y-97404761D02*
X101335771Y-97595237D01*
X101335771Y-97595237D02*
X101383390Y-97690475D01*
X101383390Y-97690475D02*
X101431009Y-97738094D01*
X101431009Y-97738094D02*
X101526247Y-97785713D01*
X100954819Y-96642856D02*
X101192914Y-96642856D01*
X101097676Y-96880951D02*
X101192914Y-96642856D01*
X101192914Y-96642856D02*
X101097676Y-96404761D01*
X101383390Y-96785713D02*
X101192914Y-96642856D01*
X101192914Y-96642856D02*
X101383390Y-96499999D01*
X115352142Y-106914819D02*
X114875952Y-106914819D01*
X114875952Y-106914819D02*
X114875952Y-105914819D01*
X115685476Y-106391009D02*
X116018809Y-106391009D01*
X116161666Y-106914819D02*
X115685476Y-106914819D01*
X115685476Y-106914819D02*
X115685476Y-105914819D01*
X115685476Y-105914819D02*
X116161666Y-105914819D01*
X116590238Y-106914819D02*
X116590238Y-105914819D01*
X116590238Y-105914819D02*
X116828333Y-105914819D01*
X116828333Y-105914819D02*
X116971190Y-105962438D01*
X116971190Y-105962438D02*
X117066428Y-106057676D01*
X117066428Y-106057676D02*
X117114047Y-106152914D01*
X117114047Y-106152914D02*
X117161666Y-106343390D01*
X117161666Y-106343390D02*
X117161666Y-106486247D01*
X117161666Y-106486247D02*
X117114047Y-106676723D01*
X117114047Y-106676723D02*
X117066428Y-106771961D01*
X117066428Y-106771961D02*
X116971190Y-106867200D01*
X116971190Y-106867200D02*
X116828333Y-106914819D01*
X116828333Y-106914819D02*
X116590238Y-106914819D01*
X111404761Y-71454819D02*
X110833333Y-71454819D01*
X111119047Y-71454819D02*
X111119047Y-70454819D01*
X111119047Y-70454819D02*
X111023809Y-70597676D01*
X111023809Y-70597676D02*
X110928571Y-70692914D01*
X110928571Y-70692914D02*
X110833333Y-70740533D01*
X112261904Y-70788152D02*
X112261904Y-71454819D01*
X111833333Y-70788152D02*
X111833333Y-71311961D01*
X111833333Y-71311961D02*
X111880952Y-71407200D01*
X111880952Y-71407200D02*
X111976190Y-71454819D01*
X111976190Y-71454819D02*
X112119047Y-71454819D01*
X112119047Y-71454819D02*
X112214285Y-71407200D01*
X112214285Y-71407200D02*
X112261904Y-71359580D01*
X113071428Y-70931009D02*
X112738095Y-70931009D01*
X112738095Y-71454819D02*
X112738095Y-70454819D01*
X112738095Y-70454819D02*
X113214285Y-70454819D01*
X111833333Y-68859580D02*
X111785714Y-68907200D01*
X111785714Y-68907200D02*
X111642857Y-68954819D01*
X111642857Y-68954819D02*
X111547619Y-68954819D01*
X111547619Y-68954819D02*
X111404762Y-68907200D01*
X111404762Y-68907200D02*
X111309524Y-68811961D01*
X111309524Y-68811961D02*
X111261905Y-68716723D01*
X111261905Y-68716723D02*
X111214286Y-68526247D01*
X111214286Y-68526247D02*
X111214286Y-68383390D01*
X111214286Y-68383390D02*
X111261905Y-68192914D01*
X111261905Y-68192914D02*
X111309524Y-68097676D01*
X111309524Y-68097676D02*
X111404762Y-68002438D01*
X111404762Y-68002438D02*
X111547619Y-67954819D01*
X111547619Y-67954819D02*
X111642857Y-67954819D01*
X111642857Y-67954819D02*
X111785714Y-68002438D01*
X111785714Y-68002438D02*
X111833333Y-68050057D01*
X112690476Y-68288152D02*
X112690476Y-68954819D01*
X112452381Y-67907200D02*
X112214286Y-68621485D01*
X112214286Y-68621485D02*
X112833333Y-68621485D01*
X138231009Y-84366666D02*
X138231009Y-84033333D01*
X138754819Y-83890476D02*
X138754819Y-84366666D01*
X138754819Y-84366666D02*
X137754819Y-84366666D01*
X137754819Y-84366666D02*
X137754819Y-83890476D01*
X138707200Y-83509523D02*
X138754819Y-83366666D01*
X138754819Y-83366666D02*
X138754819Y-83128571D01*
X138754819Y-83128571D02*
X138707200Y-83033333D01*
X138707200Y-83033333D02*
X138659580Y-82985714D01*
X138659580Y-82985714D02*
X138564342Y-82938095D01*
X138564342Y-82938095D02*
X138469104Y-82938095D01*
X138469104Y-82938095D02*
X138373866Y-82985714D01*
X138373866Y-82985714D02*
X138326247Y-83033333D01*
X138326247Y-83033333D02*
X138278628Y-83128571D01*
X138278628Y-83128571D02*
X138231009Y-83319047D01*
X138231009Y-83319047D02*
X138183390Y-83414285D01*
X138183390Y-83414285D02*
X138135771Y-83461904D01*
X138135771Y-83461904D02*
X138040533Y-83509523D01*
X138040533Y-83509523D02*
X137945295Y-83509523D01*
X137945295Y-83509523D02*
X137850057Y-83461904D01*
X137850057Y-83461904D02*
X137802438Y-83414285D01*
X137802438Y-83414285D02*
X137754819Y-83319047D01*
X137754819Y-83319047D02*
X137754819Y-83080952D01*
X137754819Y-83080952D02*
X137802438Y-82938095D01*
X138754819Y-82509523D02*
X137754819Y-82509523D01*
X137754819Y-82509523D02*
X137754819Y-82128571D01*
X137754819Y-82128571D02*
X137802438Y-82033333D01*
X137802438Y-82033333D02*
X137850057Y-81985714D01*
X137850057Y-81985714D02*
X137945295Y-81938095D01*
X137945295Y-81938095D02*
X138088152Y-81938095D01*
X138088152Y-81938095D02*
X138183390Y-81985714D01*
X138183390Y-81985714D02*
X138231009Y-82033333D01*
X138231009Y-82033333D02*
X138278628Y-82128571D01*
X138278628Y-82128571D02*
X138278628Y-82509523D01*
X137754819Y-81604761D02*
X137754819Y-80985714D01*
X137754819Y-80985714D02*
X138135771Y-81319047D01*
X138135771Y-81319047D02*
X138135771Y-81176190D01*
X138135771Y-81176190D02*
X138183390Y-81080952D01*
X138183390Y-81080952D02*
X138231009Y-81033333D01*
X138231009Y-81033333D02*
X138326247Y-80985714D01*
X138326247Y-80985714D02*
X138564342Y-80985714D01*
X138564342Y-80985714D02*
X138659580Y-81033333D01*
X138659580Y-81033333D02*
X138707200Y-81080952D01*
X138707200Y-81080952D02*
X138754819Y-81176190D01*
X138754819Y-81176190D02*
X138754819Y-81461904D01*
X138754819Y-81461904D02*
X138707200Y-81557142D01*
X138707200Y-81557142D02*
X138659580Y-81604761D01*
X137850057Y-80604761D02*
X137802438Y-80557142D01*
X137802438Y-80557142D02*
X137754819Y-80461904D01*
X137754819Y-80461904D02*
X137754819Y-80223809D01*
X137754819Y-80223809D02*
X137802438Y-80128571D01*
X137802438Y-80128571D02*
X137850057Y-80080952D01*
X137850057Y-80080952D02*
X137945295Y-80033333D01*
X137945295Y-80033333D02*
X138040533Y-80033333D01*
X138040533Y-80033333D02*
X138183390Y-80080952D01*
X138183390Y-80080952D02*
X138754819Y-80652380D01*
X138754819Y-80652380D02*
X138754819Y-80033333D01*
X138850057Y-79842857D02*
X138850057Y-79080952D01*
X138754819Y-78842856D02*
X137754819Y-78842856D01*
X137754819Y-78842856D02*
X137754819Y-78604761D01*
X137754819Y-78604761D02*
X137802438Y-78461904D01*
X137802438Y-78461904D02*
X137897676Y-78366666D01*
X137897676Y-78366666D02*
X137992914Y-78319047D01*
X137992914Y-78319047D02*
X138183390Y-78271428D01*
X138183390Y-78271428D02*
X138326247Y-78271428D01*
X138326247Y-78271428D02*
X138516723Y-78319047D01*
X138516723Y-78319047D02*
X138611961Y-78366666D01*
X138611961Y-78366666D02*
X138707200Y-78461904D01*
X138707200Y-78461904D02*
X138754819Y-78604761D01*
X138754819Y-78604761D02*
X138754819Y-78842856D01*
X138707200Y-77461904D02*
X138754819Y-77557142D01*
X138754819Y-77557142D02*
X138754819Y-77747618D01*
X138754819Y-77747618D02*
X138707200Y-77842856D01*
X138707200Y-77842856D02*
X138611961Y-77890475D01*
X138611961Y-77890475D02*
X138231009Y-77890475D01*
X138231009Y-77890475D02*
X138135771Y-77842856D01*
X138135771Y-77842856D02*
X138088152Y-77747618D01*
X138088152Y-77747618D02*
X138088152Y-77557142D01*
X138088152Y-77557142D02*
X138135771Y-77461904D01*
X138135771Y-77461904D02*
X138231009Y-77414285D01*
X138231009Y-77414285D02*
X138326247Y-77414285D01*
X138326247Y-77414285D02*
X138421485Y-77890475D01*
X138088152Y-77080951D02*
X138754819Y-76842856D01*
X138754819Y-76842856D02*
X138088152Y-76604761D01*
X138754819Y-76223808D02*
X137754819Y-76223808D01*
X138754819Y-75652380D02*
X138183390Y-76080951D01*
X137754819Y-75652380D02*
X138326247Y-76223808D01*
X138754819Y-75223808D02*
X138088152Y-75223808D01*
X137754819Y-75223808D02*
X137802438Y-75271427D01*
X137802438Y-75271427D02*
X137850057Y-75223808D01*
X137850057Y-75223808D02*
X137802438Y-75176189D01*
X137802438Y-75176189D02*
X137754819Y-75223808D01*
X137754819Y-75223808D02*
X137850057Y-75223808D01*
X138088152Y-74890475D02*
X138088152Y-74509523D01*
X137754819Y-74747618D02*
X138611961Y-74747618D01*
X138611961Y-74747618D02*
X138707200Y-74699999D01*
X138707200Y-74699999D02*
X138754819Y-74604761D01*
X138754819Y-74604761D02*
X138754819Y-74509523D01*
X138850057Y-74414285D02*
X138850057Y-73652380D01*
X137754819Y-73557141D02*
X138754819Y-73223808D01*
X138754819Y-73223808D02*
X137754819Y-72890475D01*
X138754819Y-72033332D02*
X138754819Y-72604760D01*
X138754819Y-72319046D02*
X137754819Y-72319046D01*
X137754819Y-72319046D02*
X137897676Y-72414284D01*
X137897676Y-72414284D02*
X137992914Y-72509522D01*
X137992914Y-72509522D02*
X138040533Y-72604760D01*
X138850057Y-71842856D02*
X138850057Y-71080951D01*
X138754819Y-70842855D02*
X137754819Y-70842855D01*
X137754819Y-70842855D02*
X137754819Y-70604760D01*
X137754819Y-70604760D02*
X137802438Y-70461903D01*
X137802438Y-70461903D02*
X137897676Y-70366665D01*
X137897676Y-70366665D02*
X137992914Y-70319046D01*
X137992914Y-70319046D02*
X138183390Y-70271427D01*
X138183390Y-70271427D02*
X138326247Y-70271427D01*
X138326247Y-70271427D02*
X138516723Y-70319046D01*
X138516723Y-70319046D02*
X138611961Y-70366665D01*
X138611961Y-70366665D02*
X138707200Y-70461903D01*
X138707200Y-70461903D02*
X138754819Y-70604760D01*
X138754819Y-70604760D02*
X138754819Y-70842855D01*
X137754819Y-69652379D02*
X137754819Y-69461903D01*
X137754819Y-69461903D02*
X137802438Y-69366665D01*
X137802438Y-69366665D02*
X137897676Y-69271427D01*
X137897676Y-69271427D02*
X138088152Y-69223808D01*
X138088152Y-69223808D02*
X138421485Y-69223808D01*
X138421485Y-69223808D02*
X138611961Y-69271427D01*
X138611961Y-69271427D02*
X138707200Y-69366665D01*
X138707200Y-69366665D02*
X138754819Y-69461903D01*
X138754819Y-69461903D02*
X138754819Y-69652379D01*
X138754819Y-69652379D02*
X138707200Y-69747617D01*
X138707200Y-69747617D02*
X138611961Y-69842855D01*
X138611961Y-69842855D02*
X138421485Y-69890474D01*
X138421485Y-69890474D02*
X138088152Y-69890474D01*
X138088152Y-69890474D02*
X137897676Y-69842855D01*
X137897676Y-69842855D02*
X137802438Y-69747617D01*
X137802438Y-69747617D02*
X137754819Y-69652379D01*
X138754819Y-68795236D02*
X137754819Y-68795236D01*
X137754819Y-68461903D02*
X137754819Y-67890475D01*
X138754819Y-68176189D02*
X137754819Y-68176189D01*
X153669104Y-117842856D02*
X153669104Y-117366666D01*
X153954819Y-117938094D02*
X152954819Y-117604761D01*
X152954819Y-117604761D02*
X153954819Y-117271428D01*
X153954819Y-116890475D02*
X153954819Y-116699999D01*
X153954819Y-116699999D02*
X153907200Y-116604761D01*
X153907200Y-116604761D02*
X153859580Y-116557142D01*
X153859580Y-116557142D02*
X153716723Y-116461904D01*
X153716723Y-116461904D02*
X153526247Y-116414285D01*
X153526247Y-116414285D02*
X153145295Y-116414285D01*
X153145295Y-116414285D02*
X153050057Y-116461904D01*
X153050057Y-116461904D02*
X153002438Y-116509523D01*
X153002438Y-116509523D02*
X152954819Y-116604761D01*
X152954819Y-116604761D02*
X152954819Y-116795237D01*
X152954819Y-116795237D02*
X153002438Y-116890475D01*
X153002438Y-116890475D02*
X153050057Y-116938094D01*
X153050057Y-116938094D02*
X153145295Y-116985713D01*
X153145295Y-116985713D02*
X153383390Y-116985713D01*
X153383390Y-116985713D02*
X153478628Y-116938094D01*
X153478628Y-116938094D02*
X153526247Y-116890475D01*
X153526247Y-116890475D02*
X153573866Y-116795237D01*
X153573866Y-116795237D02*
X153573866Y-116604761D01*
X153573866Y-116604761D02*
X153526247Y-116509523D01*
X153526247Y-116509523D02*
X153478628Y-116461904D01*
X153478628Y-116461904D02*
X153383390Y-116414285D01*
X152954819Y-115795237D02*
X152954819Y-115699999D01*
X152954819Y-115699999D02*
X153002438Y-115604761D01*
X153002438Y-115604761D02*
X153050057Y-115557142D01*
X153050057Y-115557142D02*
X153145295Y-115509523D01*
X153145295Y-115509523D02*
X153335771Y-115461904D01*
X153335771Y-115461904D02*
X153573866Y-115461904D01*
X153573866Y-115461904D02*
X153764342Y-115509523D01*
X153764342Y-115509523D02*
X153859580Y-115557142D01*
X153859580Y-115557142D02*
X153907200Y-115604761D01*
X153907200Y-115604761D02*
X153954819Y-115699999D01*
X153954819Y-115699999D02*
X153954819Y-115795237D01*
X153954819Y-115795237D02*
X153907200Y-115890475D01*
X153907200Y-115890475D02*
X153859580Y-115938094D01*
X153859580Y-115938094D02*
X153764342Y-115985713D01*
X153764342Y-115985713D02*
X153573866Y-116033332D01*
X153573866Y-116033332D02*
X153335771Y-116033332D01*
X153335771Y-116033332D02*
X153145295Y-115985713D01*
X153145295Y-115985713D02*
X153050057Y-115938094D01*
X153050057Y-115938094D02*
X153002438Y-115890475D01*
X153002438Y-115890475D02*
X152954819Y-115795237D01*
X152954819Y-114557142D02*
X152954819Y-115033332D01*
X152954819Y-115033332D02*
X153431009Y-115080951D01*
X153431009Y-115080951D02*
X153383390Y-115033332D01*
X153383390Y-115033332D02*
X153335771Y-114938094D01*
X153335771Y-114938094D02*
X153335771Y-114699999D01*
X153335771Y-114699999D02*
X153383390Y-114604761D01*
X153383390Y-114604761D02*
X153431009Y-114557142D01*
X153431009Y-114557142D02*
X153526247Y-114509523D01*
X153526247Y-114509523D02*
X153764342Y-114509523D01*
X153764342Y-114509523D02*
X153859580Y-114557142D01*
X153859580Y-114557142D02*
X153907200Y-114604761D01*
X153907200Y-114604761D02*
X153954819Y-114699999D01*
X153954819Y-114699999D02*
X153954819Y-114938094D01*
X153954819Y-114938094D02*
X153907200Y-115033332D01*
X153907200Y-115033332D02*
X153859580Y-115080951D01*
X152954819Y-113890475D02*
X152954819Y-113795237D01*
X152954819Y-113795237D02*
X153002438Y-113699999D01*
X153002438Y-113699999D02*
X153050057Y-113652380D01*
X153050057Y-113652380D02*
X153145295Y-113604761D01*
X153145295Y-113604761D02*
X153335771Y-113557142D01*
X153335771Y-113557142D02*
X153573866Y-113557142D01*
X153573866Y-113557142D02*
X153764342Y-113604761D01*
X153764342Y-113604761D02*
X153859580Y-113652380D01*
X153859580Y-113652380D02*
X153907200Y-113699999D01*
X153907200Y-113699999D02*
X153954819Y-113795237D01*
X153954819Y-113795237D02*
X153954819Y-113890475D01*
X153954819Y-113890475D02*
X153907200Y-113985713D01*
X153907200Y-113985713D02*
X153859580Y-114033332D01*
X153859580Y-114033332D02*
X153764342Y-114080951D01*
X153764342Y-114080951D02*
X153573866Y-114128570D01*
X153573866Y-114128570D02*
X153335771Y-114128570D01*
X153335771Y-114128570D02*
X153145295Y-114080951D01*
X153145295Y-114080951D02*
X153050057Y-114033332D01*
X153050057Y-114033332D02*
X153002438Y-113985713D01*
X153002438Y-113985713D02*
X152954819Y-113890475D01*
X148054819Y-116047619D02*
X147578628Y-116380952D01*
X148054819Y-116619047D02*
X147054819Y-116619047D01*
X147054819Y-116619047D02*
X147054819Y-116238095D01*
X147054819Y-116238095D02*
X147102438Y-116142857D01*
X147102438Y-116142857D02*
X147150057Y-116095238D01*
X147150057Y-116095238D02*
X147245295Y-116047619D01*
X147245295Y-116047619D02*
X147388152Y-116047619D01*
X147388152Y-116047619D02*
X147483390Y-116095238D01*
X147483390Y-116095238D02*
X147531009Y-116142857D01*
X147531009Y-116142857D02*
X147578628Y-116238095D01*
X147578628Y-116238095D02*
X147578628Y-116619047D01*
X148054819Y-115095238D02*
X148054819Y-115666666D01*
X148054819Y-115380952D02*
X147054819Y-115380952D01*
X147054819Y-115380952D02*
X147197676Y-115476190D01*
X147197676Y-115476190D02*
X147292914Y-115571428D01*
X147292914Y-115571428D02*
X147340533Y-115666666D01*
X147054819Y-114523809D02*
X147292914Y-114523809D01*
X147197676Y-114761904D02*
X147292914Y-114523809D01*
X147292914Y-114523809D02*
X147197676Y-114285714D01*
X147483390Y-114666666D02*
X147292914Y-114523809D01*
X147292914Y-114523809D02*
X147483390Y-114380952D01*
X110452380Y-86954819D02*
X109880952Y-86954819D01*
X110166666Y-86954819D02*
X110166666Y-85954819D01*
X110166666Y-85954819D02*
X110071428Y-86097676D01*
X110071428Y-86097676D02*
X109976190Y-86192914D01*
X109976190Y-86192914D02*
X109880952Y-86240533D01*
X111071428Y-85954819D02*
X111166666Y-85954819D01*
X111166666Y-85954819D02*
X111261904Y-86002438D01*
X111261904Y-86002438D02*
X111309523Y-86050057D01*
X111309523Y-86050057D02*
X111357142Y-86145295D01*
X111357142Y-86145295D02*
X111404761Y-86335771D01*
X111404761Y-86335771D02*
X111404761Y-86573866D01*
X111404761Y-86573866D02*
X111357142Y-86764342D01*
X111357142Y-86764342D02*
X111309523Y-86859580D01*
X111309523Y-86859580D02*
X111261904Y-86907200D01*
X111261904Y-86907200D02*
X111166666Y-86954819D01*
X111166666Y-86954819D02*
X111071428Y-86954819D01*
X111071428Y-86954819D02*
X110976190Y-86907200D01*
X110976190Y-86907200D02*
X110928571Y-86859580D01*
X110928571Y-86859580D02*
X110880952Y-86764342D01*
X110880952Y-86764342D02*
X110833333Y-86573866D01*
X110833333Y-86573866D02*
X110833333Y-86335771D01*
X110833333Y-86335771D02*
X110880952Y-86145295D01*
X110880952Y-86145295D02*
X110928571Y-86050057D01*
X110928571Y-86050057D02*
X110976190Y-86002438D01*
X110976190Y-86002438D02*
X111071428Y-85954819D01*
X112023809Y-85954819D02*
X112119047Y-85954819D01*
X112119047Y-85954819D02*
X112214285Y-86002438D01*
X112214285Y-86002438D02*
X112261904Y-86050057D01*
X112261904Y-86050057D02*
X112309523Y-86145295D01*
X112309523Y-86145295D02*
X112357142Y-86335771D01*
X112357142Y-86335771D02*
X112357142Y-86573866D01*
X112357142Y-86573866D02*
X112309523Y-86764342D01*
X112309523Y-86764342D02*
X112261904Y-86859580D01*
X112261904Y-86859580D02*
X112214285Y-86907200D01*
X112214285Y-86907200D02*
X112119047Y-86954819D01*
X112119047Y-86954819D02*
X112023809Y-86954819D01*
X112023809Y-86954819D02*
X111928571Y-86907200D01*
X111928571Y-86907200D02*
X111880952Y-86859580D01*
X111880952Y-86859580D02*
X111833333Y-86764342D01*
X111833333Y-86764342D02*
X111785714Y-86573866D01*
X111785714Y-86573866D02*
X111785714Y-86335771D01*
X111785714Y-86335771D02*
X111833333Y-86145295D01*
X111833333Y-86145295D02*
X111880952Y-86050057D01*
X111880952Y-86050057D02*
X111928571Y-86002438D01*
X111928571Y-86002438D02*
X112023809Y-85954819D01*
X112785714Y-86288152D02*
X112785714Y-86954819D01*
X112785714Y-86383390D02*
X112833333Y-86335771D01*
X112833333Y-86335771D02*
X112928571Y-86288152D01*
X112928571Y-86288152D02*
X113071428Y-86288152D01*
X113071428Y-86288152D02*
X113166666Y-86335771D01*
X113166666Y-86335771D02*
X113214285Y-86431009D01*
X113214285Y-86431009D02*
X113214285Y-86954819D01*
X114023809Y-86431009D02*
X113690476Y-86431009D01*
X113690476Y-86954819D02*
X113690476Y-85954819D01*
X113690476Y-85954819D02*
X114166666Y-85954819D01*
X111833333Y-84359580D02*
X111785714Y-84407200D01*
X111785714Y-84407200D02*
X111642857Y-84454819D01*
X111642857Y-84454819D02*
X111547619Y-84454819D01*
X111547619Y-84454819D02*
X111404762Y-84407200D01*
X111404762Y-84407200D02*
X111309524Y-84311961D01*
X111309524Y-84311961D02*
X111261905Y-84216723D01*
X111261905Y-84216723D02*
X111214286Y-84026247D01*
X111214286Y-84026247D02*
X111214286Y-83883390D01*
X111214286Y-83883390D02*
X111261905Y-83692914D01*
X111261905Y-83692914D02*
X111309524Y-83597676D01*
X111309524Y-83597676D02*
X111404762Y-83502438D01*
X111404762Y-83502438D02*
X111547619Y-83454819D01*
X111547619Y-83454819D02*
X111642857Y-83454819D01*
X111642857Y-83454819D02*
X111785714Y-83502438D01*
X111785714Y-83502438D02*
X111833333Y-83550057D01*
X112214286Y-83550057D02*
X112261905Y-83502438D01*
X112261905Y-83502438D02*
X112357143Y-83454819D01*
X112357143Y-83454819D02*
X112595238Y-83454819D01*
X112595238Y-83454819D02*
X112690476Y-83502438D01*
X112690476Y-83502438D02*
X112738095Y-83550057D01*
X112738095Y-83550057D02*
X112785714Y-83645295D01*
X112785714Y-83645295D02*
X112785714Y-83740533D01*
X112785714Y-83740533D02*
X112738095Y-83883390D01*
X112738095Y-83883390D02*
X112166667Y-84454819D01*
X112166667Y-84454819D02*
X112785714Y-84454819D01*
X124857142Y-90538152D02*
X124857142Y-91204819D01*
X124619047Y-90157200D02*
X124380952Y-90871485D01*
X124380952Y-90871485D02*
X124999999Y-90871485D01*
X125285714Y-90204819D02*
X125952380Y-90204819D01*
X125952380Y-90204819D02*
X125523809Y-91204819D01*
X126523809Y-90204819D02*
X126619047Y-90204819D01*
X126619047Y-90204819D02*
X126714285Y-90252438D01*
X126714285Y-90252438D02*
X126761904Y-90300057D01*
X126761904Y-90300057D02*
X126809523Y-90395295D01*
X126809523Y-90395295D02*
X126857142Y-90585771D01*
X126857142Y-90585771D02*
X126857142Y-90823866D01*
X126857142Y-90823866D02*
X126809523Y-91014342D01*
X126809523Y-91014342D02*
X126761904Y-91109580D01*
X126761904Y-91109580D02*
X126714285Y-91157200D01*
X126714285Y-91157200D02*
X126619047Y-91204819D01*
X126619047Y-91204819D02*
X126523809Y-91204819D01*
X126523809Y-91204819D02*
X126428571Y-91157200D01*
X126428571Y-91157200D02*
X126380952Y-91109580D01*
X126380952Y-91109580D02*
X126333333Y-91014342D01*
X126333333Y-91014342D02*
X126285714Y-90823866D01*
X126285714Y-90823866D02*
X126285714Y-90585771D01*
X126285714Y-90585771D02*
X126333333Y-90395295D01*
X126333333Y-90395295D02*
X126380952Y-90300057D01*
X126380952Y-90300057D02*
X126428571Y-90252438D01*
X126428571Y-90252438D02*
X126523809Y-90204819D01*
X127714285Y-90538152D02*
X127714285Y-91204819D01*
X127285714Y-90538152D02*
X127285714Y-91061961D01*
X127285714Y-91061961D02*
X127333333Y-91157200D01*
X127333333Y-91157200D02*
X127428571Y-91204819D01*
X127428571Y-91204819D02*
X127571428Y-91204819D01*
X127571428Y-91204819D02*
X127666666Y-91157200D01*
X127666666Y-91157200D02*
X127714285Y-91109580D01*
X128523809Y-90681009D02*
X128190476Y-90681009D01*
X128190476Y-91204819D02*
X128190476Y-90204819D01*
X128190476Y-90204819D02*
X128666666Y-90204819D01*
X126333333Y-96359580D02*
X126285714Y-96407200D01*
X126285714Y-96407200D02*
X126142857Y-96454819D01*
X126142857Y-96454819D02*
X126047619Y-96454819D01*
X126047619Y-96454819D02*
X125904762Y-96407200D01*
X125904762Y-96407200D02*
X125809524Y-96311961D01*
X125809524Y-96311961D02*
X125761905Y-96216723D01*
X125761905Y-96216723D02*
X125714286Y-96026247D01*
X125714286Y-96026247D02*
X125714286Y-95883390D01*
X125714286Y-95883390D02*
X125761905Y-95692914D01*
X125761905Y-95692914D02*
X125809524Y-95597676D01*
X125809524Y-95597676D02*
X125904762Y-95502438D01*
X125904762Y-95502438D02*
X126047619Y-95454819D01*
X126047619Y-95454819D02*
X126142857Y-95454819D01*
X126142857Y-95454819D02*
X126285714Y-95502438D01*
X126285714Y-95502438D02*
X126333333Y-95550057D01*
X127238095Y-95454819D02*
X126761905Y-95454819D01*
X126761905Y-95454819D02*
X126714286Y-95931009D01*
X126714286Y-95931009D02*
X126761905Y-95883390D01*
X126761905Y-95883390D02*
X126857143Y-95835771D01*
X126857143Y-95835771D02*
X127095238Y-95835771D01*
X127095238Y-95835771D02*
X127190476Y-95883390D01*
X127190476Y-95883390D02*
X127238095Y-95931009D01*
X127238095Y-95931009D02*
X127285714Y-96026247D01*
X127285714Y-96026247D02*
X127285714Y-96264342D01*
X127285714Y-96264342D02*
X127238095Y-96359580D01*
X127238095Y-96359580D02*
X127190476Y-96407200D01*
X127190476Y-96407200D02*
X127095238Y-96454819D01*
X127095238Y-96454819D02*
X126857143Y-96454819D01*
X126857143Y-96454819D02*
X126761905Y-96407200D01*
X126761905Y-96407200D02*
X126714286Y-96359580D01*
X115984819Y-114642857D02*
X115984819Y-115214285D01*
X115984819Y-114928571D02*
X114984819Y-114928571D01*
X114984819Y-114928571D02*
X115127676Y-115023809D01*
X115127676Y-115023809D02*
X115222914Y-115119047D01*
X115222914Y-115119047D02*
X115270533Y-115214285D01*
X115984819Y-114214285D02*
X114984819Y-114214285D01*
X114984819Y-114214285D02*
X115984819Y-113642857D01*
X115984819Y-113642857D02*
X114984819Y-113642857D01*
X114984819Y-112690476D02*
X114984819Y-113166666D01*
X114984819Y-113166666D02*
X115461009Y-113214285D01*
X115461009Y-113214285D02*
X115413390Y-113166666D01*
X115413390Y-113166666D02*
X115365771Y-113071428D01*
X115365771Y-113071428D02*
X115365771Y-112833333D01*
X115365771Y-112833333D02*
X115413390Y-112738095D01*
X115413390Y-112738095D02*
X115461009Y-112690476D01*
X115461009Y-112690476D02*
X115556247Y-112642857D01*
X115556247Y-112642857D02*
X115794342Y-112642857D01*
X115794342Y-112642857D02*
X115889580Y-112690476D01*
X115889580Y-112690476D02*
X115937200Y-112738095D01*
X115937200Y-112738095D02*
X115984819Y-112833333D01*
X115984819Y-112833333D02*
X115984819Y-113071428D01*
X115984819Y-113071428D02*
X115937200Y-113166666D01*
X115937200Y-113166666D02*
X115889580Y-113214285D01*
X115413390Y-112071428D02*
X115365771Y-112166666D01*
X115365771Y-112166666D02*
X115318152Y-112214285D01*
X115318152Y-112214285D02*
X115222914Y-112261904D01*
X115222914Y-112261904D02*
X115175295Y-112261904D01*
X115175295Y-112261904D02*
X115080057Y-112214285D01*
X115080057Y-112214285D02*
X115032438Y-112166666D01*
X115032438Y-112166666D02*
X114984819Y-112071428D01*
X114984819Y-112071428D02*
X114984819Y-111880952D01*
X114984819Y-111880952D02*
X115032438Y-111785714D01*
X115032438Y-111785714D02*
X115080057Y-111738095D01*
X115080057Y-111738095D02*
X115175295Y-111690476D01*
X115175295Y-111690476D02*
X115222914Y-111690476D01*
X115222914Y-111690476D02*
X115318152Y-111738095D01*
X115318152Y-111738095D02*
X115365771Y-111785714D01*
X115365771Y-111785714D02*
X115413390Y-111880952D01*
X115413390Y-111880952D02*
X115413390Y-112071428D01*
X115413390Y-112071428D02*
X115461009Y-112166666D01*
X115461009Y-112166666D02*
X115508628Y-112214285D01*
X115508628Y-112214285D02*
X115603866Y-112261904D01*
X115603866Y-112261904D02*
X115794342Y-112261904D01*
X115794342Y-112261904D02*
X115889580Y-112214285D01*
X115889580Y-112214285D02*
X115937200Y-112166666D01*
X115937200Y-112166666D02*
X115984819Y-112071428D01*
X115984819Y-112071428D02*
X115984819Y-111880952D01*
X115984819Y-111880952D02*
X115937200Y-111785714D01*
X115937200Y-111785714D02*
X115889580Y-111738095D01*
X115889580Y-111738095D02*
X115794342Y-111690476D01*
X115794342Y-111690476D02*
X115603866Y-111690476D01*
X115603866Y-111690476D02*
X115508628Y-111738095D01*
X115508628Y-111738095D02*
X115461009Y-111785714D01*
X115461009Y-111785714D02*
X115413390Y-111880952D01*
X115984819Y-110738095D02*
X115984819Y-111309523D01*
X115984819Y-111023809D02*
X114984819Y-111023809D01*
X114984819Y-111023809D02*
X115127676Y-111119047D01*
X115127676Y-111119047D02*
X115222914Y-111214285D01*
X115222914Y-111214285D02*
X115270533Y-111309523D01*
X115984819Y-110261904D02*
X115984819Y-110071428D01*
X115984819Y-110071428D02*
X115937200Y-109976190D01*
X115937200Y-109976190D02*
X115889580Y-109928571D01*
X115889580Y-109928571D02*
X115746723Y-109833333D01*
X115746723Y-109833333D02*
X115556247Y-109785714D01*
X115556247Y-109785714D02*
X115175295Y-109785714D01*
X115175295Y-109785714D02*
X115080057Y-109833333D01*
X115080057Y-109833333D02*
X115032438Y-109880952D01*
X115032438Y-109880952D02*
X114984819Y-109976190D01*
X114984819Y-109976190D02*
X114984819Y-110166666D01*
X114984819Y-110166666D02*
X115032438Y-110261904D01*
X115032438Y-110261904D02*
X115080057Y-110309523D01*
X115080057Y-110309523D02*
X115175295Y-110357142D01*
X115175295Y-110357142D02*
X115413390Y-110357142D01*
X115413390Y-110357142D02*
X115508628Y-110309523D01*
X115508628Y-110309523D02*
X115556247Y-110261904D01*
X115556247Y-110261904D02*
X115603866Y-110166666D01*
X115603866Y-110166666D02*
X115603866Y-109976190D01*
X115603866Y-109976190D02*
X115556247Y-109880952D01*
X115556247Y-109880952D02*
X115508628Y-109833333D01*
X115508628Y-109833333D02*
X115413390Y-109785714D01*
X118454819Y-113628094D02*
X117454819Y-113628094D01*
X117454819Y-113628094D02*
X117454819Y-113389999D01*
X117454819Y-113389999D02*
X117502438Y-113247142D01*
X117502438Y-113247142D02*
X117597676Y-113151904D01*
X117597676Y-113151904D02*
X117692914Y-113104285D01*
X117692914Y-113104285D02*
X117883390Y-113056666D01*
X117883390Y-113056666D02*
X118026247Y-113056666D01*
X118026247Y-113056666D02*
X118216723Y-113104285D01*
X118216723Y-113104285D02*
X118311961Y-113151904D01*
X118311961Y-113151904D02*
X118407200Y-113247142D01*
X118407200Y-113247142D02*
X118454819Y-113389999D01*
X118454819Y-113389999D02*
X118454819Y-113628094D01*
X117550057Y-112675713D02*
X117502438Y-112628094D01*
X117502438Y-112628094D02*
X117454819Y-112532856D01*
X117454819Y-112532856D02*
X117454819Y-112294761D01*
X117454819Y-112294761D02*
X117502438Y-112199523D01*
X117502438Y-112199523D02*
X117550057Y-112151904D01*
X117550057Y-112151904D02*
X117645295Y-112104285D01*
X117645295Y-112104285D02*
X117740533Y-112104285D01*
X117740533Y-112104285D02*
X117883390Y-112151904D01*
X117883390Y-112151904D02*
X118454819Y-112723332D01*
X118454819Y-112723332D02*
X118454819Y-112104285D01*
X120554819Y-108951904D02*
X119554819Y-108951904D01*
X120554819Y-108380476D02*
X119983390Y-108809047D01*
X119554819Y-108380476D02*
X120126247Y-108951904D01*
X139229523Y-71324819D02*
X138658095Y-71324819D01*
X138943809Y-71324819D02*
X138943809Y-70324819D01*
X138943809Y-70324819D02*
X138848571Y-70467676D01*
X138848571Y-70467676D02*
X138753333Y-70562914D01*
X138753333Y-70562914D02*
X138658095Y-70610533D01*
X139848571Y-70324819D02*
X139943809Y-70324819D01*
X139943809Y-70324819D02*
X140039047Y-70372438D01*
X140039047Y-70372438D02*
X140086666Y-70420057D01*
X140086666Y-70420057D02*
X140134285Y-70515295D01*
X140134285Y-70515295D02*
X140181904Y-70705771D01*
X140181904Y-70705771D02*
X140181904Y-70943866D01*
X140181904Y-70943866D02*
X140134285Y-71134342D01*
X140134285Y-71134342D02*
X140086666Y-71229580D01*
X140086666Y-71229580D02*
X140039047Y-71277200D01*
X140039047Y-71277200D02*
X139943809Y-71324819D01*
X139943809Y-71324819D02*
X139848571Y-71324819D01*
X139848571Y-71324819D02*
X139753333Y-71277200D01*
X139753333Y-71277200D02*
X139705714Y-71229580D01*
X139705714Y-71229580D02*
X139658095Y-71134342D01*
X139658095Y-71134342D02*
X139610476Y-70943866D01*
X139610476Y-70943866D02*
X139610476Y-70705771D01*
X139610476Y-70705771D02*
X139658095Y-70515295D01*
X139658095Y-70515295D02*
X139705714Y-70420057D01*
X139705714Y-70420057D02*
X139753333Y-70372438D01*
X139753333Y-70372438D02*
X139848571Y-70324819D01*
X140610476Y-71324819D02*
X140610476Y-70324819D01*
X141181904Y-71324819D02*
X140753333Y-70753390D01*
X141181904Y-70324819D02*
X140610476Y-70896247D01*
X139753333Y-68954819D02*
X139420000Y-68478628D01*
X139181905Y-68954819D02*
X139181905Y-67954819D01*
X139181905Y-67954819D02*
X139562857Y-67954819D01*
X139562857Y-67954819D02*
X139658095Y-68002438D01*
X139658095Y-68002438D02*
X139705714Y-68050057D01*
X139705714Y-68050057D02*
X139753333Y-68145295D01*
X139753333Y-68145295D02*
X139753333Y-68288152D01*
X139753333Y-68288152D02*
X139705714Y-68383390D01*
X139705714Y-68383390D02*
X139658095Y-68431009D01*
X139658095Y-68431009D02*
X139562857Y-68478628D01*
X139562857Y-68478628D02*
X139181905Y-68478628D01*
X140134286Y-68050057D02*
X140181905Y-68002438D01*
X140181905Y-68002438D02*
X140277143Y-67954819D01*
X140277143Y-67954819D02*
X140515238Y-67954819D01*
X140515238Y-67954819D02*
X140610476Y-68002438D01*
X140610476Y-68002438D02*
X140658095Y-68050057D01*
X140658095Y-68050057D02*
X140705714Y-68145295D01*
X140705714Y-68145295D02*
X140705714Y-68240533D01*
X140705714Y-68240533D02*
X140658095Y-68383390D01*
X140658095Y-68383390D02*
X140086667Y-68954819D01*
X140086667Y-68954819D02*
X140705714Y-68954819D01*
X135880952Y-105754819D02*
X135880952Y-104754819D01*
X135880952Y-104754819D02*
X136119047Y-104754819D01*
X136119047Y-104754819D02*
X136261904Y-104802438D01*
X136261904Y-104802438D02*
X136357142Y-104897676D01*
X136357142Y-104897676D02*
X136404761Y-104992914D01*
X136404761Y-104992914D02*
X136452380Y-105183390D01*
X136452380Y-105183390D02*
X136452380Y-105326247D01*
X136452380Y-105326247D02*
X136404761Y-105516723D01*
X136404761Y-105516723D02*
X136357142Y-105611961D01*
X136357142Y-105611961D02*
X136261904Y-105707200D01*
X136261904Y-105707200D02*
X136119047Y-105754819D01*
X136119047Y-105754819D02*
X135880952Y-105754819D01*
X136880952Y-105754819D02*
X136880952Y-104754819D01*
X136880952Y-105231009D02*
X137452380Y-105231009D01*
X137452380Y-105754819D02*
X137452380Y-104754819D01*
X137785714Y-104754819D02*
X138357142Y-104754819D01*
X138071428Y-105754819D02*
X138071428Y-104754819D01*
X139214285Y-105754819D02*
X138642857Y-105754819D01*
X138928571Y-105754819D02*
X138928571Y-104754819D01*
X138928571Y-104754819D02*
X138833333Y-104897676D01*
X138833333Y-104897676D02*
X138738095Y-104992914D01*
X138738095Y-104992914D02*
X138642857Y-105040533D01*
X140166666Y-105754819D02*
X139595238Y-105754819D01*
X139880952Y-105754819D02*
X139880952Y-104754819D01*
X139880952Y-104754819D02*
X139785714Y-104897676D01*
X139785714Y-104897676D02*
X139690476Y-104992914D01*
X139690476Y-104992914D02*
X139595238Y-105040533D01*
X136857143Y-97264819D02*
X136857143Y-98074342D01*
X136857143Y-98074342D02*
X136904762Y-98169580D01*
X136904762Y-98169580D02*
X136952381Y-98217200D01*
X136952381Y-98217200D02*
X137047619Y-98264819D01*
X137047619Y-98264819D02*
X137238095Y-98264819D01*
X137238095Y-98264819D02*
X137333333Y-98217200D01*
X137333333Y-98217200D02*
X137380952Y-98169580D01*
X137380952Y-98169580D02*
X137428571Y-98074342D01*
X137428571Y-98074342D02*
X137428571Y-97264819D01*
X137857143Y-97360057D02*
X137904762Y-97312438D01*
X137904762Y-97312438D02*
X138000000Y-97264819D01*
X138000000Y-97264819D02*
X138238095Y-97264819D01*
X138238095Y-97264819D02*
X138333333Y-97312438D01*
X138333333Y-97312438D02*
X138380952Y-97360057D01*
X138380952Y-97360057D02*
X138428571Y-97455295D01*
X138428571Y-97455295D02*
X138428571Y-97550533D01*
X138428571Y-97550533D02*
X138380952Y-97693390D01*
X138380952Y-97693390D02*
X137809524Y-98264819D01*
X137809524Y-98264819D02*
X138428571Y-98264819D01*
X139000000Y-97264819D02*
X139000000Y-97502914D01*
X138761905Y-97407676D02*
X139000000Y-97502914D01*
X139000000Y-97502914D02*
X139238095Y-97407676D01*
X138857143Y-97693390D02*
X139000000Y-97502914D01*
X139000000Y-97502914D02*
X139142857Y-97693390D01*
X143999999Y-111941009D02*
X144333332Y-111941009D01*
X144476189Y-112464819D02*
X143999999Y-112464819D01*
X143999999Y-112464819D02*
X143999999Y-111464819D01*
X143999999Y-111464819D02*
X144476189Y-111464819D01*
X144809523Y-112464819D02*
X145333332Y-111798152D01*
X144809523Y-111798152D02*
X145333332Y-112464819D01*
X145714285Y-111798152D02*
X145714285Y-112798152D01*
X145714285Y-111845771D02*
X145809523Y-111798152D01*
X145809523Y-111798152D02*
X145999999Y-111798152D01*
X145999999Y-111798152D02*
X146095237Y-111845771D01*
X146095237Y-111845771D02*
X146142856Y-111893390D01*
X146142856Y-111893390D02*
X146190475Y-111988628D01*
X146190475Y-111988628D02*
X146190475Y-112274342D01*
X146190475Y-112274342D02*
X146142856Y-112369580D01*
X146142856Y-112369580D02*
X146095237Y-112417200D01*
X146095237Y-112417200D02*
X145999999Y-112464819D01*
X145999999Y-112464819D02*
X145809523Y-112464819D01*
X145809523Y-112464819D02*
X145714285Y-112417200D01*
X147047618Y-112464819D02*
X147047618Y-111941009D01*
X147047618Y-111941009D02*
X146999999Y-111845771D01*
X146999999Y-111845771D02*
X146904761Y-111798152D01*
X146904761Y-111798152D02*
X146714285Y-111798152D01*
X146714285Y-111798152D02*
X146619047Y-111845771D01*
X147047618Y-112417200D02*
X146952380Y-112464819D01*
X146952380Y-112464819D02*
X146714285Y-112464819D01*
X146714285Y-112464819D02*
X146619047Y-112417200D01*
X146619047Y-112417200D02*
X146571428Y-112321961D01*
X146571428Y-112321961D02*
X146571428Y-112226723D01*
X146571428Y-112226723D02*
X146619047Y-112131485D01*
X146619047Y-112131485D02*
X146714285Y-112083866D01*
X146714285Y-112083866D02*
X146952380Y-112083866D01*
X146952380Y-112083866D02*
X147047618Y-112036247D01*
X147523809Y-111798152D02*
X147523809Y-112464819D01*
X147523809Y-111893390D02*
X147571428Y-111845771D01*
X147571428Y-111845771D02*
X147666666Y-111798152D01*
X147666666Y-111798152D02*
X147809523Y-111798152D01*
X147809523Y-111798152D02*
X147904761Y-111845771D01*
X147904761Y-111845771D02*
X147952380Y-111941009D01*
X147952380Y-111941009D02*
X147952380Y-112464819D01*
X148380952Y-112417200D02*
X148476190Y-112464819D01*
X148476190Y-112464819D02*
X148666666Y-112464819D01*
X148666666Y-112464819D02*
X148761904Y-112417200D01*
X148761904Y-112417200D02*
X148809523Y-112321961D01*
X148809523Y-112321961D02*
X148809523Y-112274342D01*
X148809523Y-112274342D02*
X148761904Y-112179104D01*
X148761904Y-112179104D02*
X148666666Y-112131485D01*
X148666666Y-112131485D02*
X148523809Y-112131485D01*
X148523809Y-112131485D02*
X148428571Y-112083866D01*
X148428571Y-112083866D02*
X148380952Y-111988628D01*
X148380952Y-111988628D02*
X148380952Y-111941009D01*
X148380952Y-111941009D02*
X148428571Y-111845771D01*
X148428571Y-111845771D02*
X148523809Y-111798152D01*
X148523809Y-111798152D02*
X148666666Y-111798152D01*
X148666666Y-111798152D02*
X148761904Y-111845771D01*
X149238095Y-112464819D02*
X149238095Y-111798152D01*
X149238095Y-111464819D02*
X149190476Y-111512438D01*
X149190476Y-111512438D02*
X149238095Y-111560057D01*
X149238095Y-111560057D02*
X149285714Y-111512438D01*
X149285714Y-111512438D02*
X149238095Y-111464819D01*
X149238095Y-111464819D02*
X149238095Y-111560057D01*
X149857142Y-112464819D02*
X149761904Y-112417200D01*
X149761904Y-112417200D02*
X149714285Y-112369580D01*
X149714285Y-112369580D02*
X149666666Y-112274342D01*
X149666666Y-112274342D02*
X149666666Y-111988628D01*
X149666666Y-111988628D02*
X149714285Y-111893390D01*
X149714285Y-111893390D02*
X149761904Y-111845771D01*
X149761904Y-111845771D02*
X149857142Y-111798152D01*
X149857142Y-111798152D02*
X149999999Y-111798152D01*
X149999999Y-111798152D02*
X150095237Y-111845771D01*
X150095237Y-111845771D02*
X150142856Y-111893390D01*
X150142856Y-111893390D02*
X150190475Y-111988628D01*
X150190475Y-111988628D02*
X150190475Y-112274342D01*
X150190475Y-112274342D02*
X150142856Y-112369580D01*
X150142856Y-112369580D02*
X150095237Y-112417200D01*
X150095237Y-112417200D02*
X149999999Y-112464819D01*
X149999999Y-112464819D02*
X149857142Y-112464819D01*
X150619047Y-111798152D02*
X150619047Y-112464819D01*
X150619047Y-111893390D02*
X150666666Y-111845771D01*
X150666666Y-111845771D02*
X150761904Y-111798152D01*
X150761904Y-111798152D02*
X150904761Y-111798152D01*
X150904761Y-111798152D02*
X150999999Y-111845771D01*
X150999999Y-111845771D02*
X151047618Y-111941009D01*
X151047618Y-111941009D02*
X151047618Y-112464819D01*
X152285714Y-112464819D02*
X152285714Y-111464819D01*
X152285714Y-111941009D02*
X152857142Y-111941009D01*
X152857142Y-112464819D02*
X152857142Y-111464819D01*
X153714285Y-112417200D02*
X153619047Y-112464819D01*
X153619047Y-112464819D02*
X153428571Y-112464819D01*
X153428571Y-112464819D02*
X153333333Y-112417200D01*
X153333333Y-112417200D02*
X153285714Y-112321961D01*
X153285714Y-112321961D02*
X153285714Y-111941009D01*
X153285714Y-111941009D02*
X153333333Y-111845771D01*
X153333333Y-111845771D02*
X153428571Y-111798152D01*
X153428571Y-111798152D02*
X153619047Y-111798152D01*
X153619047Y-111798152D02*
X153714285Y-111845771D01*
X153714285Y-111845771D02*
X153761904Y-111941009D01*
X153761904Y-111941009D02*
X153761904Y-112036247D01*
X153761904Y-112036247D02*
X153285714Y-112131485D01*
X154619047Y-112464819D02*
X154619047Y-111941009D01*
X154619047Y-111941009D02*
X154571428Y-111845771D01*
X154571428Y-111845771D02*
X154476190Y-111798152D01*
X154476190Y-111798152D02*
X154285714Y-111798152D01*
X154285714Y-111798152D02*
X154190476Y-111845771D01*
X154619047Y-112417200D02*
X154523809Y-112464819D01*
X154523809Y-112464819D02*
X154285714Y-112464819D01*
X154285714Y-112464819D02*
X154190476Y-112417200D01*
X154190476Y-112417200D02*
X154142857Y-112321961D01*
X154142857Y-112321961D02*
X154142857Y-112226723D01*
X154142857Y-112226723D02*
X154190476Y-112131485D01*
X154190476Y-112131485D02*
X154285714Y-112083866D01*
X154285714Y-112083866D02*
X154523809Y-112083866D01*
X154523809Y-112083866D02*
X154619047Y-112036247D01*
X155523809Y-112464819D02*
X155523809Y-111464819D01*
X155523809Y-112417200D02*
X155428571Y-112464819D01*
X155428571Y-112464819D02*
X155238095Y-112464819D01*
X155238095Y-112464819D02*
X155142857Y-112417200D01*
X155142857Y-112417200D02*
X155095238Y-112369580D01*
X155095238Y-112369580D02*
X155047619Y-112274342D01*
X155047619Y-112274342D02*
X155047619Y-111988628D01*
X155047619Y-111988628D02*
X155095238Y-111893390D01*
X155095238Y-111893390D02*
X155142857Y-111845771D01*
X155142857Y-111845771D02*
X155238095Y-111798152D01*
X155238095Y-111798152D02*
X155428571Y-111798152D01*
X155428571Y-111798152D02*
X155523809Y-111845771D01*
X156380952Y-112417200D02*
X156285714Y-112464819D01*
X156285714Y-112464819D02*
X156095238Y-112464819D01*
X156095238Y-112464819D02*
X156000000Y-112417200D01*
X156000000Y-112417200D02*
X155952381Y-112321961D01*
X155952381Y-112321961D02*
X155952381Y-111941009D01*
X155952381Y-111941009D02*
X156000000Y-111845771D01*
X156000000Y-111845771D02*
X156095238Y-111798152D01*
X156095238Y-111798152D02*
X156285714Y-111798152D01*
X156285714Y-111798152D02*
X156380952Y-111845771D01*
X156380952Y-111845771D02*
X156428571Y-111941009D01*
X156428571Y-111941009D02*
X156428571Y-112036247D01*
X156428571Y-112036247D02*
X155952381Y-112131485D01*
X156857143Y-112464819D02*
X156857143Y-111798152D01*
X156857143Y-111988628D02*
X156904762Y-111893390D01*
X156904762Y-111893390D02*
X156952381Y-111845771D01*
X156952381Y-111845771D02*
X157047619Y-111798152D01*
X157047619Y-111798152D02*
X157142857Y-111798152D01*
X149954819Y-102334285D02*
X150669104Y-102334285D01*
X150669104Y-102334285D02*
X150811961Y-102381904D01*
X150811961Y-102381904D02*
X150907200Y-102477142D01*
X150907200Y-102477142D02*
X150954819Y-102619999D01*
X150954819Y-102619999D02*
X150954819Y-102715237D01*
X150288152Y-101429523D02*
X150954819Y-101429523D01*
X149907200Y-101667618D02*
X150621485Y-101905713D01*
X150621485Y-101905713D02*
X150621485Y-101286666D01*
X149954819Y-100762856D02*
X150192914Y-100762856D01*
X150097676Y-101000951D02*
X150192914Y-100762856D01*
X150192914Y-100762856D02*
X150097676Y-100524761D01*
X150383390Y-100905713D02*
X150192914Y-100762856D01*
X150192914Y-100762856D02*
X150383390Y-100619999D01*
X101061904Y-105997319D02*
X101061904Y-104997319D01*
X101061904Y-104997319D02*
X101442856Y-104997319D01*
X101442856Y-104997319D02*
X101538094Y-105044938D01*
X101538094Y-105044938D02*
X101585713Y-105092557D01*
X101585713Y-105092557D02*
X101633332Y-105187795D01*
X101633332Y-105187795D02*
X101633332Y-105330652D01*
X101633332Y-105330652D02*
X101585713Y-105425890D01*
X101585713Y-105425890D02*
X101538094Y-105473509D01*
X101538094Y-105473509D02*
X101442856Y-105521128D01*
X101442856Y-105521128D02*
X101061904Y-105521128D01*
X102204761Y-105997319D02*
X102109523Y-105949700D01*
X102109523Y-105949700D02*
X102061904Y-105902080D01*
X102061904Y-105902080D02*
X102014285Y-105806842D01*
X102014285Y-105806842D02*
X102014285Y-105521128D01*
X102014285Y-105521128D02*
X102061904Y-105425890D01*
X102061904Y-105425890D02*
X102109523Y-105378271D01*
X102109523Y-105378271D02*
X102204761Y-105330652D01*
X102204761Y-105330652D02*
X102347618Y-105330652D01*
X102347618Y-105330652D02*
X102442856Y-105378271D01*
X102442856Y-105378271D02*
X102490475Y-105425890D01*
X102490475Y-105425890D02*
X102538094Y-105521128D01*
X102538094Y-105521128D02*
X102538094Y-105806842D01*
X102538094Y-105806842D02*
X102490475Y-105902080D01*
X102490475Y-105902080D02*
X102442856Y-105949700D01*
X102442856Y-105949700D02*
X102347618Y-105997319D01*
X102347618Y-105997319D02*
X102204761Y-105997319D01*
X102871428Y-105330652D02*
X103061904Y-105997319D01*
X103061904Y-105997319D02*
X103252380Y-105521128D01*
X103252380Y-105521128D02*
X103442856Y-105997319D01*
X103442856Y-105997319D02*
X103633332Y-105330652D01*
X104395237Y-105949700D02*
X104299999Y-105997319D01*
X104299999Y-105997319D02*
X104109523Y-105997319D01*
X104109523Y-105997319D02*
X104014285Y-105949700D01*
X104014285Y-105949700D02*
X103966666Y-105854461D01*
X103966666Y-105854461D02*
X103966666Y-105473509D01*
X103966666Y-105473509D02*
X104014285Y-105378271D01*
X104014285Y-105378271D02*
X104109523Y-105330652D01*
X104109523Y-105330652D02*
X104299999Y-105330652D01*
X104299999Y-105330652D02*
X104395237Y-105378271D01*
X104395237Y-105378271D02*
X104442856Y-105473509D01*
X104442856Y-105473509D02*
X104442856Y-105568747D01*
X104442856Y-105568747D02*
X103966666Y-105663985D01*
X104871428Y-105997319D02*
X104871428Y-105330652D01*
X104871428Y-105521128D02*
X104919047Y-105425890D01*
X104919047Y-105425890D02*
X104966666Y-105378271D01*
X104966666Y-105378271D02*
X105061904Y-105330652D01*
X105061904Y-105330652D02*
X105157142Y-105330652D01*
X106252381Y-105997319D02*
X106252381Y-104997319D01*
X106728571Y-105330652D02*
X106728571Y-105997319D01*
X106728571Y-105425890D02*
X106776190Y-105378271D01*
X106776190Y-105378271D02*
X106871428Y-105330652D01*
X106871428Y-105330652D02*
X107014285Y-105330652D01*
X107014285Y-105330652D02*
X107109523Y-105378271D01*
X107109523Y-105378271D02*
X107157142Y-105473509D01*
X107157142Y-105473509D02*
X107157142Y-105997319D01*
X107633333Y-105330652D02*
X107633333Y-106330652D01*
X107633333Y-105378271D02*
X107728571Y-105330652D01*
X107728571Y-105330652D02*
X107919047Y-105330652D01*
X107919047Y-105330652D02*
X108014285Y-105378271D01*
X108014285Y-105378271D02*
X108061904Y-105425890D01*
X108061904Y-105425890D02*
X108109523Y-105521128D01*
X108109523Y-105521128D02*
X108109523Y-105806842D01*
X108109523Y-105806842D02*
X108061904Y-105902080D01*
X108061904Y-105902080D02*
X108014285Y-105949700D01*
X108014285Y-105949700D02*
X107919047Y-105997319D01*
X107919047Y-105997319D02*
X107728571Y-105997319D01*
X107728571Y-105997319D02*
X107633333Y-105949700D01*
X108966666Y-105330652D02*
X108966666Y-105997319D01*
X108538095Y-105330652D02*
X108538095Y-105854461D01*
X108538095Y-105854461D02*
X108585714Y-105949700D01*
X108585714Y-105949700D02*
X108680952Y-105997319D01*
X108680952Y-105997319D02*
X108823809Y-105997319D01*
X108823809Y-105997319D02*
X108919047Y-105949700D01*
X108919047Y-105949700D02*
X108966666Y-105902080D01*
X109300000Y-105330652D02*
X109680952Y-105330652D01*
X109442857Y-104997319D02*
X109442857Y-105854461D01*
X109442857Y-105854461D02*
X109490476Y-105949700D01*
X109490476Y-105949700D02*
X109585714Y-105997319D01*
X109585714Y-105997319D02*
X109680952Y-105997319D01*
X108166666Y-107547319D02*
X108166666Y-108261604D01*
X108166666Y-108261604D02*
X108119047Y-108404461D01*
X108119047Y-108404461D02*
X108023809Y-108499700D01*
X108023809Y-108499700D02*
X107880952Y-108547319D01*
X107880952Y-108547319D02*
X107785714Y-108547319D01*
X108547619Y-107547319D02*
X109166666Y-107547319D01*
X109166666Y-107547319D02*
X108833333Y-107928271D01*
X108833333Y-107928271D02*
X108976190Y-107928271D01*
X108976190Y-107928271D02*
X109071428Y-107975890D01*
X109071428Y-107975890D02*
X109119047Y-108023509D01*
X109119047Y-108023509D02*
X109166666Y-108118747D01*
X109166666Y-108118747D02*
X109166666Y-108356842D01*
X109166666Y-108356842D02*
X109119047Y-108452080D01*
X109119047Y-108452080D02*
X109071428Y-108499700D01*
X109071428Y-108499700D02*
X108976190Y-108547319D01*
X108976190Y-108547319D02*
X108690476Y-108547319D01*
X108690476Y-108547319D02*
X108595238Y-108499700D01*
X108595238Y-108499700D02*
X108547619Y-108452080D01*
X139705714Y-82084819D02*
X139134286Y-82084819D01*
X139420000Y-82084819D02*
X139420000Y-81084819D01*
X139420000Y-81084819D02*
X139324762Y-81227676D01*
X139324762Y-81227676D02*
X139229524Y-81322914D01*
X139229524Y-81322914D02*
X139134286Y-81370533D01*
X140134286Y-82084819D02*
X140134286Y-81084819D01*
X140705714Y-82084819D02*
X140277143Y-81513390D01*
X140705714Y-81084819D02*
X140134286Y-81656247D01*
X139753333Y-84454819D02*
X139420000Y-83978628D01*
X139181905Y-84454819D02*
X139181905Y-83454819D01*
X139181905Y-83454819D02*
X139562857Y-83454819D01*
X139562857Y-83454819D02*
X139658095Y-83502438D01*
X139658095Y-83502438D02*
X139705714Y-83550057D01*
X139705714Y-83550057D02*
X139753333Y-83645295D01*
X139753333Y-83645295D02*
X139753333Y-83788152D01*
X139753333Y-83788152D02*
X139705714Y-83883390D01*
X139705714Y-83883390D02*
X139658095Y-83931009D01*
X139658095Y-83931009D02*
X139562857Y-83978628D01*
X139562857Y-83978628D02*
X139181905Y-83978628D01*
X140086667Y-83454819D02*
X140705714Y-83454819D01*
X140705714Y-83454819D02*
X140372381Y-83835771D01*
X140372381Y-83835771D02*
X140515238Y-83835771D01*
X140515238Y-83835771D02*
X140610476Y-83883390D01*
X140610476Y-83883390D02*
X140658095Y-83931009D01*
X140658095Y-83931009D02*
X140705714Y-84026247D01*
X140705714Y-84026247D02*
X140705714Y-84264342D01*
X140705714Y-84264342D02*
X140658095Y-84359580D01*
X140658095Y-84359580D02*
X140610476Y-84407200D01*
X140610476Y-84407200D02*
X140515238Y-84454819D01*
X140515238Y-84454819D02*
X140229524Y-84454819D01*
X140229524Y-84454819D02*
X140134286Y-84407200D01*
X140134286Y-84407200D02*
X140086667Y-84359580D01*
X119952380Y-86954819D02*
X119380952Y-86954819D01*
X119666666Y-86954819D02*
X119666666Y-85954819D01*
X119666666Y-85954819D02*
X119571428Y-86097676D01*
X119571428Y-86097676D02*
X119476190Y-86192914D01*
X119476190Y-86192914D02*
X119380952Y-86240533D01*
X120571428Y-85954819D02*
X120666666Y-85954819D01*
X120666666Y-85954819D02*
X120761904Y-86002438D01*
X120761904Y-86002438D02*
X120809523Y-86050057D01*
X120809523Y-86050057D02*
X120857142Y-86145295D01*
X120857142Y-86145295D02*
X120904761Y-86335771D01*
X120904761Y-86335771D02*
X120904761Y-86573866D01*
X120904761Y-86573866D02*
X120857142Y-86764342D01*
X120857142Y-86764342D02*
X120809523Y-86859580D01*
X120809523Y-86859580D02*
X120761904Y-86907200D01*
X120761904Y-86907200D02*
X120666666Y-86954819D01*
X120666666Y-86954819D02*
X120571428Y-86954819D01*
X120571428Y-86954819D02*
X120476190Y-86907200D01*
X120476190Y-86907200D02*
X120428571Y-86859580D01*
X120428571Y-86859580D02*
X120380952Y-86764342D01*
X120380952Y-86764342D02*
X120333333Y-86573866D01*
X120333333Y-86573866D02*
X120333333Y-86335771D01*
X120333333Y-86335771D02*
X120380952Y-86145295D01*
X120380952Y-86145295D02*
X120428571Y-86050057D01*
X120428571Y-86050057D02*
X120476190Y-86002438D01*
X120476190Y-86002438D02*
X120571428Y-85954819D01*
X121523809Y-85954819D02*
X121619047Y-85954819D01*
X121619047Y-85954819D02*
X121714285Y-86002438D01*
X121714285Y-86002438D02*
X121761904Y-86050057D01*
X121761904Y-86050057D02*
X121809523Y-86145295D01*
X121809523Y-86145295D02*
X121857142Y-86335771D01*
X121857142Y-86335771D02*
X121857142Y-86573866D01*
X121857142Y-86573866D02*
X121809523Y-86764342D01*
X121809523Y-86764342D02*
X121761904Y-86859580D01*
X121761904Y-86859580D02*
X121714285Y-86907200D01*
X121714285Y-86907200D02*
X121619047Y-86954819D01*
X121619047Y-86954819D02*
X121523809Y-86954819D01*
X121523809Y-86954819D02*
X121428571Y-86907200D01*
X121428571Y-86907200D02*
X121380952Y-86859580D01*
X121380952Y-86859580D02*
X121333333Y-86764342D01*
X121333333Y-86764342D02*
X121285714Y-86573866D01*
X121285714Y-86573866D02*
X121285714Y-86335771D01*
X121285714Y-86335771D02*
X121333333Y-86145295D01*
X121333333Y-86145295D02*
X121380952Y-86050057D01*
X121380952Y-86050057D02*
X121428571Y-86002438D01*
X121428571Y-86002438D02*
X121523809Y-85954819D01*
X122285714Y-86288152D02*
X122285714Y-86954819D01*
X122285714Y-86383390D02*
X122333333Y-86335771D01*
X122333333Y-86335771D02*
X122428571Y-86288152D01*
X122428571Y-86288152D02*
X122571428Y-86288152D01*
X122571428Y-86288152D02*
X122666666Y-86335771D01*
X122666666Y-86335771D02*
X122714285Y-86431009D01*
X122714285Y-86431009D02*
X122714285Y-86954819D01*
X123523809Y-86431009D02*
X123190476Y-86431009D01*
X123190476Y-86954819D02*
X123190476Y-85954819D01*
X123190476Y-85954819D02*
X123666666Y-85954819D01*
X121333333Y-84359580D02*
X121285714Y-84407200D01*
X121285714Y-84407200D02*
X121142857Y-84454819D01*
X121142857Y-84454819D02*
X121047619Y-84454819D01*
X121047619Y-84454819D02*
X120904762Y-84407200D01*
X120904762Y-84407200D02*
X120809524Y-84311961D01*
X120809524Y-84311961D02*
X120761905Y-84216723D01*
X120761905Y-84216723D02*
X120714286Y-84026247D01*
X120714286Y-84026247D02*
X120714286Y-83883390D01*
X120714286Y-83883390D02*
X120761905Y-83692914D01*
X120761905Y-83692914D02*
X120809524Y-83597676D01*
X120809524Y-83597676D02*
X120904762Y-83502438D01*
X120904762Y-83502438D02*
X121047619Y-83454819D01*
X121047619Y-83454819D02*
X121142857Y-83454819D01*
X121142857Y-83454819D02*
X121285714Y-83502438D01*
X121285714Y-83502438D02*
X121333333Y-83550057D01*
X122285714Y-84454819D02*
X121714286Y-84454819D01*
X122000000Y-84454819D02*
X122000000Y-83454819D01*
X122000000Y-83454819D02*
X121904762Y-83597676D01*
X121904762Y-83597676D02*
X121809524Y-83692914D01*
X121809524Y-83692914D02*
X121714286Y-83740533D01*
X131034819Y-101240476D02*
X131034819Y-101811904D01*
X131034819Y-101526190D02*
X130034819Y-101526190D01*
X130034819Y-101526190D02*
X130177676Y-101621428D01*
X130177676Y-101621428D02*
X130272914Y-101716666D01*
X130272914Y-101716666D02*
X130320533Y-101811904D01*
X130034819Y-100621428D02*
X130034819Y-100526190D01*
X130034819Y-100526190D02*
X130082438Y-100430952D01*
X130082438Y-100430952D02*
X130130057Y-100383333D01*
X130130057Y-100383333D02*
X130225295Y-100335714D01*
X130225295Y-100335714D02*
X130415771Y-100288095D01*
X130415771Y-100288095D02*
X130653866Y-100288095D01*
X130653866Y-100288095D02*
X130844342Y-100335714D01*
X130844342Y-100335714D02*
X130939580Y-100383333D01*
X130939580Y-100383333D02*
X130987200Y-100430952D01*
X130987200Y-100430952D02*
X131034819Y-100526190D01*
X131034819Y-100526190D02*
X131034819Y-100621428D01*
X131034819Y-100621428D02*
X130987200Y-100716666D01*
X130987200Y-100716666D02*
X130939580Y-100764285D01*
X130939580Y-100764285D02*
X130844342Y-100811904D01*
X130844342Y-100811904D02*
X130653866Y-100859523D01*
X130653866Y-100859523D02*
X130415771Y-100859523D01*
X130415771Y-100859523D02*
X130225295Y-100811904D01*
X130225295Y-100811904D02*
X130130057Y-100764285D01*
X130130057Y-100764285D02*
X130082438Y-100716666D01*
X130082438Y-100716666D02*
X130034819Y-100621428D01*
X131034819Y-99859523D02*
X130034819Y-99859523D01*
X131034819Y-99288095D02*
X130463390Y-99716666D01*
X130034819Y-99288095D02*
X130606247Y-99859523D01*
X134874819Y-101097619D02*
X134398628Y-101430952D01*
X134874819Y-101669047D02*
X133874819Y-101669047D01*
X133874819Y-101669047D02*
X133874819Y-101288095D01*
X133874819Y-101288095D02*
X133922438Y-101192857D01*
X133922438Y-101192857D02*
X133970057Y-101145238D01*
X133970057Y-101145238D02*
X134065295Y-101097619D01*
X134065295Y-101097619D02*
X134208152Y-101097619D01*
X134208152Y-101097619D02*
X134303390Y-101145238D01*
X134303390Y-101145238D02*
X134351009Y-101192857D01*
X134351009Y-101192857D02*
X134398628Y-101288095D01*
X134398628Y-101288095D02*
X134398628Y-101669047D01*
X134208152Y-100240476D02*
X134874819Y-100240476D01*
X133827200Y-100478571D02*
X134541485Y-100716666D01*
X134541485Y-100716666D02*
X134541485Y-100097619D01*
X133874819Y-99573809D02*
X134112914Y-99573809D01*
X134017676Y-99811904D02*
X134112914Y-99573809D01*
X134112914Y-99573809D02*
X134017676Y-99335714D01*
X134303390Y-99716666D02*
X134112914Y-99573809D01*
X134112914Y-99573809D02*
X134303390Y-99430952D01*
D11*
%TO.C,C3\u002A*%
X113616395Y-94912500D02*
X114116395Y-94912500D01*
X113866395Y-94662500D02*
X113866395Y-95162500D01*
X118250000Y-96000000D02*
G75*
G02*
X113250000Y-96000000I-2500000J0D01*
G01*
X113250000Y-96000000D02*
G75*
G02*
X118250000Y-96000000I2500000J0D01*
G01*
%TO.C,J6\u002A*%
X97750000Y-92500000D02*
X97750000Y-102500000D01*
X97750000Y-102500000D02*
X105250000Y-102500000D01*
X104050000Y-102450000D02*
X104050000Y-92550000D01*
X105250000Y-92500000D02*
X97750000Y-92500000D01*
X105250000Y-102500000D02*
X105250000Y-92500000D01*
%TO.C,D1\u002A*%
X114495000Y-102333810D02*
X114495000Y-104666190D01*
X114495000Y-102333810D02*
G75*
G02*
X114494445Y-104665476I1500000J-1166190D01*
G01*
X117495000Y-103500000D02*
G75*
G02*
X114495000Y-103500000I-1500000J0D01*
G01*
X114495000Y-103500000D02*
G75*
G02*
X117495000Y-103500000I1500000J0D01*
G01*
%TO.C,C4*%
X109500000Y-67250000D02*
X109500000Y-69750000D01*
X109500000Y-69750000D02*
X114500000Y-69750000D01*
X114500000Y-67250000D02*
X109500000Y-67250000D01*
X114500000Y-69750000D02*
X114500000Y-67250000D01*
%TO.C,R1\u002A*%
X148450000Y-116800000D02*
X148450000Y-114200000D01*
X148700000Y-114600000D02*
X149300000Y-114600000D01*
X148700000Y-116400000D02*
X148700000Y-114600000D01*
X149300000Y-116100000D02*
X149300000Y-114600000D01*
X149900000Y-114900000D02*
X149900000Y-116100000D01*
X149900000Y-116100000D02*
X149300000Y-116100000D01*
X150000000Y-114900000D02*
X149900000Y-114900000D01*
X150500000Y-114900000D02*
X150000000Y-114900000D01*
X150500000Y-116100000D02*
X150500000Y-114900000D01*
X151100000Y-114900000D02*
X151100000Y-116100000D01*
X151100000Y-116100000D02*
X150500000Y-116100000D01*
X151700000Y-114900000D02*
X151100000Y-114900000D01*
X151700000Y-116400000D02*
X151700000Y-114900000D01*
X151700000Y-116400000D02*
X152300000Y-116400000D01*
X152300000Y-116400000D02*
X152300000Y-114600000D01*
X152550000Y-114200000D02*
X152550000Y-116800000D01*
X148450000Y-114200000D02*
G75*
G02*
X152521419Y-114155989I2050000J-1300000D01*
G01*
X152550000Y-116800000D02*
G75*
G02*
X148478581Y-116844011I-2050000J1300000D01*
G01*
%TO.C,C2*%
X109500000Y-82750000D02*
X109500000Y-85250000D01*
X109500000Y-85250000D02*
X114500000Y-85250000D01*
X114500000Y-82750000D02*
X109500000Y-82750000D01*
X114500000Y-85250000D02*
X114500000Y-82750000D01*
%TO.C,C5*%
X129526759Y-98147500D02*
X129526759Y-97347500D01*
X129926759Y-97747500D02*
X129126759Y-97747500D01*
X130500000Y-96000000D02*
G75*
G02*
X122500000Y-96000000I-4000000J0D01*
G01*
X122500000Y-96000000D02*
G75*
G02*
X130500000Y-96000000I4000000J0D01*
G01*
%TO.C,D2*%
X116650000Y-109900000D02*
X116650000Y-115100000D01*
X116650000Y-115100000D02*
X119350000Y-115100000D01*
X118000000Y-108690000D02*
X118000000Y-109900000D01*
X118000000Y-116310000D02*
X118000000Y-115100000D01*
X119350000Y-109900000D02*
X116650000Y-109900000D01*
X119350000Y-110580000D02*
X116650000Y-110580000D01*
X119350000Y-110680000D02*
X116650000Y-110680000D01*
X119350000Y-110780000D02*
X116650000Y-110780000D01*
X119350000Y-115100000D02*
X119350000Y-109900000D01*
%TO.C,R2*%
X134840000Y-68500000D02*
X136770000Y-68500000D01*
X136770000Y-67250000D02*
X136770000Y-69750000D01*
X136770000Y-69750000D02*
X143070000Y-69750000D01*
X143070000Y-67250000D02*
X136770000Y-67250000D01*
X143070000Y-69750000D02*
X143070000Y-67250000D01*
X145000000Y-68500000D02*
X143070000Y-68500000D01*
%TO.C,U2\u002A*%
X135250000Y-92810000D02*
X135250000Y-103810000D01*
X135250000Y-92810000D02*
X136250000Y-91810000D01*
X136250000Y-91810000D02*
X140750000Y-91810000D01*
X140750000Y-91810000D02*
X140750000Y-103810000D01*
X140750000Y-103810000D02*
X135250000Y-103810000D01*
%TO.C,J4\u002A*%
X149230000Y-92730000D02*
X151135000Y-92730000D01*
X149230000Y-110510000D02*
X149230000Y-92730000D01*
X151135000Y-92730000D02*
X151770000Y-93365000D01*
X151770000Y-93365000D02*
X151770000Y-110510000D01*
X151770000Y-110510000D02*
X149230000Y-110510000D01*
%TO.C,J3*%
X97800000Y-106542500D02*
X97800000Y-115542500D01*
X97800000Y-115542500D02*
X112300000Y-115542500D01*
X101300000Y-106542500D02*
X101300000Y-115542500D01*
X111496787Y-106537075D02*
X112300000Y-107292500D01*
X111500000Y-106542500D02*
X97800000Y-106542500D01*
X112300000Y-115542500D02*
X112300000Y-107292500D01*
%TO.C,R3*%
X134840000Y-84000000D02*
X136770000Y-84000000D01*
X136770000Y-82750000D02*
X136770000Y-85250000D01*
X136770000Y-85250000D02*
X143070000Y-85250000D01*
X143070000Y-82750000D02*
X136770000Y-82750000D01*
X143070000Y-85250000D02*
X143070000Y-82750000D01*
X145000000Y-84000000D02*
X143070000Y-84000000D01*
%TO.C,C1*%
X119000000Y-82750000D02*
X119000000Y-85250000D01*
X119000000Y-85250000D02*
X124000000Y-85250000D01*
X124000000Y-82750000D02*
X119000000Y-82750000D01*
X124000000Y-85250000D02*
X124000000Y-82750000D01*
%TO.C,R4\u002A*%
X132500000Y-99280000D02*
X132500000Y-101820000D01*
X133300000Y-99280000D02*
G75*
G02*
X131700000Y-99280000I-800000J0D01*
G01*
X131700000Y-99280000D02*
G75*
G02*
X133300000Y-99280000I800000J0D01*
G01*
%TD*%
M02*
