%TF.GenerationSoftware,KiCad,Pcbnew,8.0.7-unknown-202501031821~9d36205ced~ubuntu20.04.1*%
%TF.CreationDate,2025-01-13T23:31:32-03:00*%
%TF.ProjectId,Wise-Shield-32,57697365-2d53-4686-9965-6c642d33322e,rev?*%
%TF.SameCoordinates,Original*%
%TF.FileFunction,Copper,L1,Top*%
%TF.FilePolarity,Positive*%
%FSLAX46Y46*%
G04 Gerber Fmt 4.6, Leading zero omitted, Abs format (unit mm)*
G04 Created by KiCad (PCBNEW 8.0.7-unknown-202501031821~9d36205ced~ubuntu20.04.1) date 2025-01-13 23:31:32*
%MOMM*%
%LPD*%
G01*
G04 APERTURE LIST*
G04 Aperture macros list*
%AMRoundRect*
0 Rectangle with rounded corners*
0 $1 Rounding radius*
0 $2 $3 $4 $5 $6 $7 $8 $9 X,Y pos of 4 corners*
0 Add a 4 corners polygon primitive as box body*
4,1,4,$2,$3,$4,$5,$6,$7,$8,$9,$2,$3,0*
0 Add four circle primitives for the rounded corners*
1,1,$1+$1,$2,$3*
1,1,$1+$1,$4,$5*
1,1,$1+$1,$6,$7*
1,1,$1+$1,$8,$9*
0 Add four rect primitives between the rounded corners*
20,1,$1+$1,$2,$3,$4,$5,0*
20,1,$1+$1,$4,$5,$6,$7,0*
20,1,$1+$1,$6,$7,$8,$9,0*
20,1,$1+$1,$8,$9,$2,$3,0*%
G04 Aperture macros list end*
%TA.AperFunction,ComponentPad*%
%ADD10C,1.400000*%
%TD*%
%TA.AperFunction,ComponentPad*%
%ADD11R,1.600000X1.600000*%
%TD*%
%TA.AperFunction,ComponentPad*%
%ADD12C,1.600000*%
%TD*%
%TA.AperFunction,ComponentPad*%
%ADD13R,3.000000X3.000000*%
%TD*%
%TA.AperFunction,ComponentPad*%
%ADD14C,3.000000*%
%TD*%
%TA.AperFunction,ComponentPad*%
%ADD15R,1.800000X1.800000*%
%TD*%
%TA.AperFunction,ComponentPad*%
%ADD16C,1.800000*%
%TD*%
%TA.AperFunction,ComponentPad*%
%ADD17R,1.524000X1.524000*%
%TD*%
%TA.AperFunction,ComponentPad*%
%ADD18C,1.524000*%
%TD*%
%TA.AperFunction,ComponentPad*%
%ADD19R,3.200000X3.200000*%
%TD*%
%TA.AperFunction,ComponentPad*%
%ADD20O,3.200000X3.200000*%
%TD*%
%TA.AperFunction,ComponentPad*%
%ADD21O,1.600000X1.600000*%
%TD*%
%TA.AperFunction,ComponentPad*%
%ADD22R,1.500000X1.500000*%
%TD*%
%TA.AperFunction,ComponentPad*%
%ADD23C,1.500000*%
%TD*%
%TA.AperFunction,ComponentPad*%
%ADD24R,1.700000X1.700000*%
%TD*%
%TA.AperFunction,ComponentPad*%
%ADD25O,1.700000X1.700000*%
%TD*%
%TA.AperFunction,ComponentPad*%
%ADD26R,3.500000X3.500000*%
%TD*%
%TA.AperFunction,ComponentPad*%
%ADD27RoundRect,0.750000X-0.750000X-1.000000X0.750000X-1.000000X0.750000X1.000000X-0.750000X1.000000X0*%
%TD*%
%TA.AperFunction,ComponentPad*%
%ADD28RoundRect,0.875000X-0.875000X-0.875000X0.875000X-0.875000X0.875000X0.875000X-0.875000X0.875000X0*%
%TD*%
%TA.AperFunction,ViaPad*%
%ADD29C,0.762000*%
%TD*%
%TA.AperFunction,Conductor*%
%ADD30C,1.270000*%
%TD*%
%TA.AperFunction,Conductor*%
%ADD31C,0.254000*%
%TD*%
G04 APERTURE END LIST*
D10*
%TO.P,JP3,1,A*%
%TO.N,+5VA*%
X124750000Y-103500000D03*
%TO.P,JP3,2,B*%
%TO.N,+5VD*%
X127290000Y-103500000D03*
%TD*%
D11*
%TO.P,C3,1*%
%TO.N,+3.3V*%
X120500000Y-96000000D03*
D12*
%TO.P,C3,2*%
%TO.N,GNDREF*%
X123000000Y-96000000D03*
%TD*%
D13*
%TO.P,J6,1,Pin_1*%
%TO.N,+5VA*%
X101500000Y-100040000D03*
D14*
%TO.P,J6,2,Pin_2*%
%TO.N,GNDREF*%
X101500000Y-94960000D03*
%TD*%
D15*
%TO.P,D1,1,K*%
%TO.N,GNDREF*%
X128460000Y-96000000D03*
D16*
%TO.P,D1,2,A*%
%TO.N,Net-(D1-A)*%
X131000000Y-96000000D03*
%TD*%
D12*
%TO.P,C4,1*%
%TO.N,+5VD*%
X111500000Y-68000000D03*
%TO.P,C4,2*%
%TO.N,GNDREF*%
X116500000Y-68000000D03*
%TD*%
D14*
%TO.P,J5,1,Pin_1*%
%TO.N,+5VA*%
X136120000Y-109000000D03*
%TO.P,J5,2,Pin_2*%
%TO.N,GNDREF*%
X128500000Y-109000000D03*
%TD*%
D17*
%TO.P,U1,1,EN*%
%TO.N,unconnected-(U1-EN-Pad1)*%
X147000000Y-63500000D03*
D18*
%TO.P,U1,2,SENSOR_VP*%
%TO.N,unconnected-(U1-SENSOR_VP-Pad2)*%
X144460000Y-63500000D03*
%TO.P,U1,3,SENSOR_VN*%
%TO.N,unconnected-(U1-SENSOR_VN-Pad3)*%
X141920000Y-63500000D03*
%TO.P,U1,4,IO34*%
%TO.N,IO34*%
X139380000Y-63500000D03*
%TO.P,U1,5,IO35*%
%TO.N,IO35*%
X136840000Y-63500000D03*
%TO.P,U1,6,IO32*%
%TO.N,IO32*%
X134300000Y-63500000D03*
%TO.P,U1,7,IO33*%
%TO.N,IO33*%
X131760000Y-63500000D03*
%TO.P,U1,8,IO25*%
%TO.N,IO25*%
X129220000Y-63500000D03*
%TO.P,U1,9,IO26*%
%TO.N,IO26*%
X126680000Y-63500000D03*
%TO.P,U1,10,IO27*%
%TO.N,IO27*%
X124140000Y-63500000D03*
%TO.P,U1,11,IO14*%
%TO.N,IO14*%
X121600000Y-63500000D03*
%TO.P,U1,12,IO12*%
%TO.N,IO12*%
X119060000Y-63500000D03*
%TO.P,U1,13,IO13*%
%TO.N,IO13*%
X116520000Y-63500000D03*
%TO.P,U1,14,GND*%
%TO.N,GNDREF*%
X113980000Y-63500000D03*
%TO.P,U1,15,VIN*%
%TO.N,+5VD*%
X111440000Y-63500000D03*
%TO.P,U1,16,3V3*%
%TO.N,+3.3V*%
X111440000Y-88900000D03*
%TO.P,U1,17,GND*%
%TO.N,GNDREF*%
X113980000Y-88900000D03*
%TO.P,U1,18,IO15*%
%TO.N,IO15*%
X116520000Y-88900000D03*
%TO.P,U1,19,IO2*%
%TO.N,IO02*%
X119060000Y-88900000D03*
%TO.P,U1,20,IO4*%
%TO.N,IO04*%
X121600000Y-88900000D03*
%TO.P,U1,21,IO16*%
%TO.N,IO16*%
X124140000Y-88900000D03*
%TO.P,U1,22,IO17*%
%TO.N,IO17*%
X126680000Y-88900000D03*
%TO.P,U1,23,IO5*%
%TO.N,IO05*%
X129220000Y-88900000D03*
%TO.P,U1,24,IO18*%
%TO.N,IO18*%
X131760000Y-88900000D03*
%TO.P,U1,25,IO19*%
%TO.N,IO19*%
X134300000Y-88900000D03*
%TO.P,U1,26,IO21*%
%TO.N,SDA*%
X136840000Y-88900000D03*
%TO.P,U1,27,RXD0/IO3*%
%TO.N,unconnected-(U1-RXD0{slash}IO3-Pad27)*%
X139380000Y-88900000D03*
%TO.P,U1,28,TXD0/IO1*%
%TO.N,unconnected-(U1-TXD0{slash}IO1-Pad28)*%
X141920000Y-88900000D03*
%TO.P,U1,29,IO22*%
%TO.N,SCL*%
X144460000Y-88900000D03*
%TO.P,U1,30,IO23*%
%TO.N,IO23*%
X147000000Y-88900000D03*
%TD*%
D12*
%TO.P,R1,1*%
%TO.N,+3.3V*%
X152000000Y-115000000D03*
%TO.P,R1,2*%
%TO.N,IO35*%
X152000000Y-112000000D03*
%TD*%
%TO.P,C2,1*%
%TO.N,+3.3V*%
X111500000Y-84500000D03*
%TO.P,C2,2*%
%TO.N,GNDREF*%
X116500000Y-84500000D03*
%TD*%
D11*
%TO.P,C5,1*%
%TO.N,+5VD*%
X110000000Y-96000000D03*
D12*
%TO.P,C5,2*%
%TO.N,GNDREF*%
X115000000Y-96000000D03*
%TD*%
D19*
%TO.P,D2,1,K*%
%TO.N,+5VD*%
X118500000Y-117000000D03*
D20*
%TO.P,D2,2,A*%
%TO.N,+5VA*%
X118500000Y-104300000D03*
%TD*%
D12*
%TO.P,R2,1*%
%TO.N,IO35*%
X133920000Y-68000000D03*
D21*
%TO.P,R2,2*%
%TO.N,GNDREF*%
X144080000Y-68000000D03*
%TD*%
D22*
%TO.P,U2,1,VDD*%
%TO.N,+3.3V*%
X145000000Y-114120000D03*
D23*
%TO.P,U2,2,DATA*%
%TO.N,IO33*%
X145000000Y-111580000D03*
%TO.P,U2,3,NC*%
%TO.N,unconnected-(U2-NC-Pad3)*%
X145000000Y-109040000D03*
%TO.P,U2,4,GND*%
%TO.N,GNDREF*%
X145000000Y-106500000D03*
%TD*%
D24*
%TO.P,J4,1,Pin_1*%
%TO.N,+3.3V*%
X152000000Y-92960000D03*
D25*
%TO.P,J4,2,Pin_2*%
%TO.N,SCL*%
X152000000Y-95500000D03*
%TO.P,J4,3,Pin_3*%
%TO.N,SDA*%
X152000000Y-98040000D03*
%TO.P,J4,4,Pin_4*%
%TO.N,IO02*%
X152000000Y-100580000D03*
%TO.P,J4,5,Pin_5*%
%TO.N,IO32*%
X152000000Y-103120000D03*
%TO.P,J4,6,Pin_6*%
%TO.N,IO34*%
X152000000Y-105660000D03*
%TO.P,J4,7,Pin_7*%
%TO.N,GNDREF*%
X152000000Y-108200000D03*
%TD*%
D26*
%TO.P,J3,1*%
%TO.N,+5VA*%
X111500000Y-111042500D03*
D27*
%TO.P,J3,2*%
%TO.N,GNDREF*%
X105500000Y-111042500D03*
D28*
%TO.P,J3,3*%
X108500000Y-115742500D03*
%TD*%
D12*
%TO.P,R3,1*%
%TO.N,IO02*%
X144080000Y-84500000D03*
D21*
%TO.P,R3,2*%
%TO.N,Net-(D1-A)*%
X133920000Y-84500000D03*
%TD*%
D12*
%TO.P,C1,1*%
%TO.N,+3.3V*%
X119000000Y-84500000D03*
%TO.P,C1,2*%
%TO.N,GNDREF*%
X124000000Y-84500000D03*
%TD*%
D25*
%TO.P,J1,A,A*%
%TO.N,IO23*%
X125880000Y-77500000D03*
%TO.P,J1,B,B*%
%TO.N,IO19*%
X125880000Y-74960000D03*
%TO.P,J1,B1,B1*%
%TO.N,IO27*%
X133500000Y-77500000D03*
%TO.P,J1,B2,B2*%
%TO.N,IO13*%
X128420000Y-77500000D03*
%TO.P,J1,C,C*%
%TO.N,IO05*%
X123340000Y-77500000D03*
%TO.P,J1,CLK,CLK*%
%TO.N,IO16*%
X120800000Y-77500000D03*
%TO.P,J1,D,D*%
%TO.N,IO17*%
X123340000Y-74960000D03*
%TO.P,J1,E,E*%
%TO.N,Net-(JP2-A)*%
X128420000Y-74960000D03*
%TO.P,J1,G/E,GND*%
%TO.N,Net-(JP2-B)*%
X118260000Y-74960000D03*
%TO.P,J1,G1,G1*%
%TO.N,IO26*%
X136040000Y-74960000D03*
%TO.P,J1,G2,G2*%
%TO.N,IO12*%
X130960000Y-74960000D03*
%TO.P,J1,GND,GND*%
%TO.N,GNDREF*%
X133500000Y-74960000D03*
%TO.P,J1,LAT,LAT*%
%TO.N,IO04*%
X120800000Y-74960000D03*
%TO.P,J1,OE,OE*%
%TO.N,IO15*%
X118260000Y-77500000D03*
D24*
%TO.P,J1,R1,R1*%
%TO.N,IO25*%
X136040000Y-77500000D03*
D25*
%TO.P,J1,R2,R2*%
%TO.N,IO14*%
X130960000Y-77500000D03*
%TD*%
D29*
%TO.N,IO35*%
X138121800Y-68863600D03*
%TO.N,Net-(JP2-B)*%
X127579400Y-81523900D03*
%TO.N,+3.3V*%
X154032100Y-99310100D03*
%TD*%
D30*
%TO.N,+5VA*%
X118500000Y-104300000D02*
X123950000Y-104300000D01*
X123950000Y-104300000D02*
X124750000Y-103500000D01*
X126042500Y-111042500D02*
X127000000Y-112000000D01*
X111500000Y-111042500D02*
X126042500Y-111042500D01*
X127000000Y-112000000D02*
X133120000Y-112000000D01*
X133120000Y-112000000D02*
X136120000Y-109000000D01*
X114457500Y-111042500D02*
X118500000Y-107000000D01*
X111500000Y-111042500D02*
X114457500Y-111042500D01*
X118500000Y-107000000D02*
X118500000Y-104300000D01*
X101500000Y-100040000D02*
X114240000Y-100040000D01*
X114240000Y-100040000D02*
X118500000Y-104300000D01*
D31*
%TO.N,IO23*%
X147000000Y-85719200D02*
X147000000Y-88900000D01*
X140013500Y-78732700D02*
X147000000Y-85719200D01*
X127883000Y-78732700D02*
X140013500Y-78732700D01*
X127112700Y-77962400D02*
X127883000Y-78732700D01*
X127112700Y-77500000D02*
X127112700Y-77962400D01*
X125880000Y-77500000D02*
X127112700Y-77500000D01*
%TO.N,IO12*%
X129727300Y-74167300D02*
X119060000Y-63500000D01*
X129727300Y-74960000D02*
X129727300Y-74167300D01*
X130960000Y-74960000D02*
X129727300Y-74960000D01*
%TO.N,IO13*%
X127187300Y-74167300D02*
X116520000Y-63500000D01*
X127187300Y-75497000D02*
X127187300Y-74167300D01*
X127957600Y-76267300D02*
X127187300Y-75497000D01*
X128420000Y-76267300D02*
X127957600Y-76267300D01*
X128420000Y-77500000D02*
X128420000Y-76267300D01*
%TO.N,IO35*%
X133920000Y-66420000D02*
X136840000Y-63500000D01*
X133920000Y-68000000D02*
X133920000Y-66420000D01*
X137258200Y-68000000D02*
X138121800Y-68863600D01*
X133920000Y-68000000D02*
X137258200Y-68000000D01*
%TO.N,Net-(JP2-B)*%
X123036500Y-81523900D02*
X127579400Y-81523900D01*
X119492700Y-77980100D02*
X123036500Y-81523900D01*
X119492700Y-76963000D02*
X119492700Y-77980100D01*
X118722400Y-76192700D02*
X119492700Y-76963000D01*
X118260000Y-76192700D02*
X118722400Y-76192700D01*
X118260000Y-74960000D02*
X118260000Y-76192700D01*
%TO.N,IO02*%
X120498700Y-87461300D02*
X119060000Y-88900000D01*
X141118700Y-87461300D02*
X120498700Y-87461300D01*
X144080000Y-84500000D02*
X141118700Y-87461300D01*
%TO.N,SDA*%
X145980000Y-98040000D02*
X136840000Y-88900000D01*
X152000000Y-98040000D02*
X145980000Y-98040000D01*
%TO.N,SCL*%
X150767300Y-95207300D02*
X144460000Y-88900000D01*
X150767300Y-95500000D02*
X150767300Y-95207300D01*
X152000000Y-95500000D02*
X150767300Y-95500000D01*
%TO.N,+5VD*%
X120972700Y-97182700D02*
X127290000Y-103500000D01*
X112365400Y-97182700D02*
X120972700Y-97182700D01*
X111182700Y-96000000D02*
X112365400Y-97182700D01*
X110000000Y-96000000D02*
X111182700Y-96000000D01*
%TO.N,GNDREF*%
X133500000Y-74960000D02*
X134732700Y-74960000D01*
X145000000Y-106936500D02*
X145000000Y-106500000D01*
X146263500Y-108200000D02*
X145000000Y-106936500D01*
X152000000Y-108200000D02*
X146263500Y-108200000D01*
X130563500Y-106936500D02*
X128500000Y-109000000D01*
X145000000Y-106936500D02*
X130563500Y-106936500D01*
X128460000Y-96000000D02*
X123000000Y-96000000D01*
X115000000Y-96000000D02*
X115000000Y-94817300D01*
X101642700Y-94817300D02*
X115000000Y-94817300D01*
X101500000Y-94960000D02*
X101642700Y-94817300D01*
X121817300Y-94817300D02*
X123000000Y-96000000D01*
X115000000Y-94817300D02*
X121817300Y-94817300D01*
X122814700Y-85685300D02*
X124000000Y-84500000D01*
X117685300Y-85685300D02*
X122814700Y-85685300D01*
X116500000Y-84500000D02*
X117685300Y-85685300D01*
X115174700Y-62305300D02*
X113980000Y-63500000D01*
X137284300Y-62305300D02*
X115174700Y-62305300D01*
X138110000Y-63131000D02*
X137284300Y-62305300D01*
X138110000Y-64879600D02*
X138110000Y-63131000D01*
X141230400Y-68000000D02*
X138110000Y-64879600D01*
X134732700Y-74497700D02*
X141230400Y-68000000D01*
X134732700Y-74960000D02*
X134732700Y-74497700D01*
X141230400Y-68000000D02*
X144080000Y-68000000D01*
%TO.N,+3.3V*%
X151120000Y-114120000D02*
X152000000Y-115000000D01*
X145000000Y-114120000D02*
X151120000Y-114120000D01*
X120500000Y-96000000D02*
X121682700Y-96000000D01*
X124623200Y-99310100D02*
X154032100Y-99310100D01*
X121682700Y-96369600D02*
X124623200Y-99310100D01*
X121682700Y-96000000D02*
X121682700Y-96369600D01*
X117788600Y-83288600D02*
X119000000Y-84500000D01*
X112711400Y-83288600D02*
X117788600Y-83288600D01*
X111500000Y-84500000D02*
X112711400Y-83288600D01*
%TD*%
M02*
