%TF.GenerationSoftware,KiCad,Pcbnew,8.0.7-unknown-202501031821~9d36205ced~ubuntu20.04.1*%
%TF.CreationDate,2025-01-13T23:31:32-03:00*%
%TF.ProjectId,Wise-Shield-32,57697365-2d53-4686-9965-6c642d33322e,rev?*%
%TF.SameCoordinates,Original*%
%TF.FileFunction,Legend,Top*%
%TF.FilePolarity,Positive*%
%FSLAX46Y46*%
G04 Gerber Fmt 4.6, Leading zero omitted, Abs format (unit mm)*
G04 Created by KiCad (PCBNEW 8.0.7-unknown-202501031821~9d36205ced~ubuntu20.04.1) date 2025-01-13 23:31:32*
%MOMM*%
%LPD*%
G01*
G04 APERTURE LIST*
%ADD10C,0.150000*%
%ADD11C,0.125000*%
%ADD12C,0.120000*%
%ADD13C,1.000000*%
%ADD14C,0.800000*%
%ADD15C,3.000000*%
G04 APERTURE END LIST*
D10*
X125216666Y-100954819D02*
X125216666Y-101669104D01*
X125216666Y-101669104D02*
X125169047Y-101811961D01*
X125169047Y-101811961D02*
X125073809Y-101907200D01*
X125073809Y-101907200D02*
X124930952Y-101954819D01*
X124930952Y-101954819D02*
X124835714Y-101954819D01*
X125692857Y-101954819D02*
X125692857Y-100954819D01*
X125692857Y-100954819D02*
X126073809Y-100954819D01*
X126073809Y-100954819D02*
X126169047Y-101002438D01*
X126169047Y-101002438D02*
X126216666Y-101050057D01*
X126216666Y-101050057D02*
X126264285Y-101145295D01*
X126264285Y-101145295D02*
X126264285Y-101288152D01*
X126264285Y-101288152D02*
X126216666Y-101383390D01*
X126216666Y-101383390D02*
X126169047Y-101431009D01*
X126169047Y-101431009D02*
X126073809Y-101478628D01*
X126073809Y-101478628D02*
X125692857Y-101478628D01*
X126597619Y-100954819D02*
X127216666Y-100954819D01*
X127216666Y-100954819D02*
X126883333Y-101335771D01*
X126883333Y-101335771D02*
X127026190Y-101335771D01*
X127026190Y-101335771D02*
X127121428Y-101383390D01*
X127121428Y-101383390D02*
X127169047Y-101431009D01*
X127169047Y-101431009D02*
X127216666Y-101526247D01*
X127216666Y-101526247D02*
X127216666Y-101764342D01*
X127216666Y-101764342D02*
X127169047Y-101859580D01*
X127169047Y-101859580D02*
X127121428Y-101907200D01*
X127121428Y-101907200D02*
X127026190Y-101954819D01*
X127026190Y-101954819D02*
X126740476Y-101954819D01*
X126740476Y-101954819D02*
X126645238Y-101907200D01*
X126645238Y-101907200D02*
X126597619Y-101859580D01*
X121583333Y-92609580D02*
X121535714Y-92657200D01*
X121535714Y-92657200D02*
X121392857Y-92704819D01*
X121392857Y-92704819D02*
X121297619Y-92704819D01*
X121297619Y-92704819D02*
X121154762Y-92657200D01*
X121154762Y-92657200D02*
X121059524Y-92561961D01*
X121059524Y-92561961D02*
X121011905Y-92466723D01*
X121011905Y-92466723D02*
X120964286Y-92276247D01*
X120964286Y-92276247D02*
X120964286Y-92133390D01*
X120964286Y-92133390D02*
X121011905Y-91942914D01*
X121011905Y-91942914D02*
X121059524Y-91847676D01*
X121059524Y-91847676D02*
X121154762Y-91752438D01*
X121154762Y-91752438D02*
X121297619Y-91704819D01*
X121297619Y-91704819D02*
X121392857Y-91704819D01*
X121392857Y-91704819D02*
X121535714Y-91752438D01*
X121535714Y-91752438D02*
X121583333Y-91800057D01*
X121916667Y-91704819D02*
X122535714Y-91704819D01*
X122535714Y-91704819D02*
X122202381Y-92085771D01*
X122202381Y-92085771D02*
X122345238Y-92085771D01*
X122345238Y-92085771D02*
X122440476Y-92133390D01*
X122440476Y-92133390D02*
X122488095Y-92181009D01*
X122488095Y-92181009D02*
X122535714Y-92276247D01*
X122535714Y-92276247D02*
X122535714Y-92514342D01*
X122535714Y-92514342D02*
X122488095Y-92609580D01*
X122488095Y-92609580D02*
X122440476Y-92657200D01*
X122440476Y-92657200D02*
X122345238Y-92704819D01*
X122345238Y-92704819D02*
X122059524Y-92704819D01*
X122059524Y-92704819D02*
X121964286Y-92657200D01*
X121964286Y-92657200D02*
X121916667Y-92609580D01*
X98454819Y-97833333D02*
X99169104Y-97833333D01*
X99169104Y-97833333D02*
X99311961Y-97880952D01*
X99311961Y-97880952D02*
X99407200Y-97976190D01*
X99407200Y-97976190D02*
X99454819Y-98119047D01*
X99454819Y-98119047D02*
X99454819Y-98214285D01*
X98454819Y-96928571D02*
X98454819Y-97119047D01*
X98454819Y-97119047D02*
X98502438Y-97214285D01*
X98502438Y-97214285D02*
X98550057Y-97261904D01*
X98550057Y-97261904D02*
X98692914Y-97357142D01*
X98692914Y-97357142D02*
X98883390Y-97404761D01*
X98883390Y-97404761D02*
X99264342Y-97404761D01*
X99264342Y-97404761D02*
X99359580Y-97357142D01*
X99359580Y-97357142D02*
X99407200Y-97309523D01*
X99407200Y-97309523D02*
X99454819Y-97214285D01*
X99454819Y-97214285D02*
X99454819Y-97023809D01*
X99454819Y-97023809D02*
X99407200Y-96928571D01*
X99407200Y-96928571D02*
X99359580Y-96880952D01*
X99359580Y-96880952D02*
X99264342Y-96833333D01*
X99264342Y-96833333D02*
X99026247Y-96833333D01*
X99026247Y-96833333D02*
X98931009Y-96880952D01*
X98931009Y-96880952D02*
X98883390Y-96928571D01*
X98883390Y-96928571D02*
X98835771Y-97023809D01*
X98835771Y-97023809D02*
X98835771Y-97214285D01*
X98835771Y-97214285D02*
X98883390Y-97309523D01*
X98883390Y-97309523D02*
X98931009Y-97357142D01*
X98931009Y-97357142D02*
X99026247Y-97404761D01*
X128991905Y-93494819D02*
X128991905Y-92494819D01*
X128991905Y-92494819D02*
X129230000Y-92494819D01*
X129230000Y-92494819D02*
X129372857Y-92542438D01*
X129372857Y-92542438D02*
X129468095Y-92637676D01*
X129468095Y-92637676D02*
X129515714Y-92732914D01*
X129515714Y-92732914D02*
X129563333Y-92923390D01*
X129563333Y-92923390D02*
X129563333Y-93066247D01*
X129563333Y-93066247D02*
X129515714Y-93256723D01*
X129515714Y-93256723D02*
X129468095Y-93351961D01*
X129468095Y-93351961D02*
X129372857Y-93447200D01*
X129372857Y-93447200D02*
X129230000Y-93494819D01*
X129230000Y-93494819D02*
X128991905Y-93494819D01*
X130515714Y-93494819D02*
X129944286Y-93494819D01*
X130230000Y-93494819D02*
X130230000Y-92494819D01*
X130230000Y-92494819D02*
X130134762Y-92637676D01*
X130134762Y-92637676D02*
X130039524Y-92732914D01*
X130039524Y-92732914D02*
X129944286Y-92780533D01*
X113833333Y-65859580D02*
X113785714Y-65907200D01*
X113785714Y-65907200D02*
X113642857Y-65954819D01*
X113642857Y-65954819D02*
X113547619Y-65954819D01*
X113547619Y-65954819D02*
X113404762Y-65907200D01*
X113404762Y-65907200D02*
X113309524Y-65811961D01*
X113309524Y-65811961D02*
X113261905Y-65716723D01*
X113261905Y-65716723D02*
X113214286Y-65526247D01*
X113214286Y-65526247D02*
X113214286Y-65383390D01*
X113214286Y-65383390D02*
X113261905Y-65192914D01*
X113261905Y-65192914D02*
X113309524Y-65097676D01*
X113309524Y-65097676D02*
X113404762Y-65002438D01*
X113404762Y-65002438D02*
X113547619Y-64954819D01*
X113547619Y-64954819D02*
X113642857Y-64954819D01*
X113642857Y-64954819D02*
X113785714Y-65002438D01*
X113785714Y-65002438D02*
X113833333Y-65050057D01*
X114690476Y-65288152D02*
X114690476Y-65954819D01*
X114452381Y-64907200D02*
X114214286Y-65621485D01*
X114214286Y-65621485D02*
X114833333Y-65621485D01*
D11*
X132981071Y-113200000D02*
X133409642Y-113200000D01*
X133409642Y-113200000D02*
X133495357Y-113228571D01*
X133495357Y-113228571D02*
X133552500Y-113285714D01*
X133552500Y-113285714D02*
X133581071Y-113371428D01*
X133581071Y-113371428D02*
X133581071Y-113428571D01*
X132981071Y-112628571D02*
X132981071Y-112914285D01*
X132981071Y-112914285D02*
X133266785Y-112942857D01*
X133266785Y-112942857D02*
X133238214Y-112914285D01*
X133238214Y-112914285D02*
X133209642Y-112857143D01*
X133209642Y-112857143D02*
X133209642Y-112714285D01*
X133209642Y-112714285D02*
X133238214Y-112657143D01*
X133238214Y-112657143D02*
X133266785Y-112628571D01*
X133266785Y-112628571D02*
X133323928Y-112600000D01*
X133323928Y-112600000D02*
X133466785Y-112600000D01*
X133466785Y-112600000D02*
X133523928Y-112628571D01*
X133523928Y-112628571D02*
X133552500Y-112657143D01*
X133552500Y-112657143D02*
X133581071Y-112714285D01*
X133581071Y-112714285D02*
X133581071Y-112857143D01*
X133581071Y-112857143D02*
X133552500Y-112914285D01*
X133552500Y-112914285D02*
X133523928Y-112942857D01*
X134471429Y-105771071D02*
X134471429Y-105171071D01*
X134471429Y-105171071D02*
X134614286Y-105171071D01*
X134614286Y-105171071D02*
X134700000Y-105199642D01*
X134700000Y-105199642D02*
X134757143Y-105256785D01*
X134757143Y-105256785D02*
X134785714Y-105313928D01*
X134785714Y-105313928D02*
X134814286Y-105428214D01*
X134814286Y-105428214D02*
X134814286Y-105513928D01*
X134814286Y-105513928D02*
X134785714Y-105628214D01*
X134785714Y-105628214D02*
X134757143Y-105685357D01*
X134757143Y-105685357D02*
X134700000Y-105742500D01*
X134700000Y-105742500D02*
X134614286Y-105771071D01*
X134614286Y-105771071D02*
X134471429Y-105771071D01*
X135071429Y-105771071D02*
X135071429Y-105371071D01*
X135071429Y-105171071D02*
X135042857Y-105199642D01*
X135042857Y-105199642D02*
X135071429Y-105228214D01*
X135071429Y-105228214D02*
X135100000Y-105199642D01*
X135100000Y-105199642D02*
X135071429Y-105171071D01*
X135071429Y-105171071D02*
X135071429Y-105228214D01*
X135328571Y-105742500D02*
X135385714Y-105771071D01*
X135385714Y-105771071D02*
X135500000Y-105771071D01*
X135500000Y-105771071D02*
X135557143Y-105742500D01*
X135557143Y-105742500D02*
X135585714Y-105685357D01*
X135585714Y-105685357D02*
X135585714Y-105656785D01*
X135585714Y-105656785D02*
X135557143Y-105599642D01*
X135557143Y-105599642D02*
X135500000Y-105571071D01*
X135500000Y-105571071D02*
X135414286Y-105571071D01*
X135414286Y-105571071D02*
X135357143Y-105542500D01*
X135357143Y-105542500D02*
X135328571Y-105485357D01*
X135328571Y-105485357D02*
X135328571Y-105456785D01*
X135328571Y-105456785D02*
X135357143Y-105399642D01*
X135357143Y-105399642D02*
X135414286Y-105371071D01*
X135414286Y-105371071D02*
X135500000Y-105371071D01*
X135500000Y-105371071D02*
X135557143Y-105399642D01*
X135842857Y-105371071D02*
X135842857Y-105971071D01*
X135842857Y-105399642D02*
X135900000Y-105371071D01*
X135900000Y-105371071D02*
X136014285Y-105371071D01*
X136014285Y-105371071D02*
X136071428Y-105399642D01*
X136071428Y-105399642D02*
X136100000Y-105428214D01*
X136100000Y-105428214D02*
X136128571Y-105485357D01*
X136128571Y-105485357D02*
X136128571Y-105656785D01*
X136128571Y-105656785D02*
X136100000Y-105713928D01*
X136100000Y-105713928D02*
X136071428Y-105742500D01*
X136071428Y-105742500D02*
X136014285Y-105771071D01*
X136014285Y-105771071D02*
X135900000Y-105771071D01*
X135900000Y-105771071D02*
X135842857Y-105742500D01*
X136471428Y-105771071D02*
X136414285Y-105742500D01*
X136414285Y-105742500D02*
X136385714Y-105685357D01*
X136385714Y-105685357D02*
X136385714Y-105171071D01*
X136957143Y-105771071D02*
X136957143Y-105456785D01*
X136957143Y-105456785D02*
X136928571Y-105399642D01*
X136928571Y-105399642D02*
X136871428Y-105371071D01*
X136871428Y-105371071D02*
X136757143Y-105371071D01*
X136757143Y-105371071D02*
X136700000Y-105399642D01*
X136957143Y-105742500D02*
X136900000Y-105771071D01*
X136900000Y-105771071D02*
X136757143Y-105771071D01*
X136757143Y-105771071D02*
X136700000Y-105742500D01*
X136700000Y-105742500D02*
X136671428Y-105685357D01*
X136671428Y-105685357D02*
X136671428Y-105628214D01*
X136671428Y-105628214D02*
X136700000Y-105571071D01*
X136700000Y-105571071D02*
X136757143Y-105542500D01*
X136757143Y-105542500D02*
X136900000Y-105542500D01*
X136900000Y-105542500D02*
X136957143Y-105513928D01*
X137185714Y-105371071D02*
X137328571Y-105771071D01*
X137471428Y-105371071D02*
X137328571Y-105771071D01*
X137328571Y-105771071D02*
X137271428Y-105913928D01*
X137271428Y-105913928D02*
X137242857Y-105942500D01*
X137242857Y-105942500D02*
X137185714Y-105971071D01*
X138157143Y-105771071D02*
X138157143Y-105171071D01*
X138157143Y-105171071D02*
X138385714Y-105171071D01*
X138385714Y-105171071D02*
X138442857Y-105199642D01*
X138442857Y-105199642D02*
X138471428Y-105228214D01*
X138471428Y-105228214D02*
X138500000Y-105285357D01*
X138500000Y-105285357D02*
X138500000Y-105371071D01*
X138500000Y-105371071D02*
X138471428Y-105428214D01*
X138471428Y-105428214D02*
X138442857Y-105456785D01*
X138442857Y-105456785D02*
X138385714Y-105485357D01*
X138385714Y-105485357D02*
X138157143Y-105485357D01*
X138842857Y-105771071D02*
X138785714Y-105742500D01*
X138785714Y-105742500D02*
X138757143Y-105713928D01*
X138757143Y-105713928D02*
X138728571Y-105656785D01*
X138728571Y-105656785D02*
X138728571Y-105485357D01*
X138728571Y-105485357D02*
X138757143Y-105428214D01*
X138757143Y-105428214D02*
X138785714Y-105399642D01*
X138785714Y-105399642D02*
X138842857Y-105371071D01*
X138842857Y-105371071D02*
X138928571Y-105371071D01*
X138928571Y-105371071D02*
X138985714Y-105399642D01*
X138985714Y-105399642D02*
X139014286Y-105428214D01*
X139014286Y-105428214D02*
X139042857Y-105485357D01*
X139042857Y-105485357D02*
X139042857Y-105656785D01*
X139042857Y-105656785D02*
X139014286Y-105713928D01*
X139014286Y-105713928D02*
X138985714Y-105742500D01*
X138985714Y-105742500D02*
X138928571Y-105771071D01*
X138928571Y-105771071D02*
X138842857Y-105771071D01*
X139242857Y-105371071D02*
X139357143Y-105771071D01*
X139357143Y-105771071D02*
X139471428Y-105485357D01*
X139471428Y-105485357D02*
X139585714Y-105771071D01*
X139585714Y-105771071D02*
X139700000Y-105371071D01*
X140157142Y-105742500D02*
X140099999Y-105771071D01*
X140099999Y-105771071D02*
X139985714Y-105771071D01*
X139985714Y-105771071D02*
X139928571Y-105742500D01*
X139928571Y-105742500D02*
X139899999Y-105685357D01*
X139899999Y-105685357D02*
X139899999Y-105456785D01*
X139899999Y-105456785D02*
X139928571Y-105399642D01*
X139928571Y-105399642D02*
X139985714Y-105371071D01*
X139985714Y-105371071D02*
X140099999Y-105371071D01*
X140099999Y-105371071D02*
X140157142Y-105399642D01*
X140157142Y-105399642D02*
X140185714Y-105456785D01*
X140185714Y-105456785D02*
X140185714Y-105513928D01*
X140185714Y-105513928D02*
X139899999Y-105571071D01*
X140442857Y-105771071D02*
X140442857Y-105371071D01*
X140442857Y-105485357D02*
X140471428Y-105428214D01*
X140471428Y-105428214D02*
X140500000Y-105399642D01*
X140500000Y-105399642D02*
X140557142Y-105371071D01*
X140557142Y-105371071D02*
X140614285Y-105371071D01*
D10*
X135984819Y-76961904D02*
X136794342Y-76961904D01*
X136794342Y-76961904D02*
X136889580Y-76914285D01*
X136889580Y-76914285D02*
X136937200Y-76866666D01*
X136937200Y-76866666D02*
X136984819Y-76771428D01*
X136984819Y-76771428D02*
X136984819Y-76580952D01*
X136984819Y-76580952D02*
X136937200Y-76485714D01*
X136937200Y-76485714D02*
X136889580Y-76438095D01*
X136889580Y-76438095D02*
X136794342Y-76390476D01*
X136794342Y-76390476D02*
X135984819Y-76390476D01*
X136984819Y-75390476D02*
X136984819Y-75961904D01*
X136984819Y-75676190D02*
X135984819Y-75676190D01*
X135984819Y-75676190D02*
X136127676Y-75771428D01*
X136127676Y-75771428D02*
X136222914Y-75866666D01*
X136222914Y-75866666D02*
X136270533Y-75961904D01*
X107251009Y-84939047D02*
X107298628Y-84796190D01*
X107298628Y-84796190D02*
X107346247Y-84748571D01*
X107346247Y-84748571D02*
X107441485Y-84700952D01*
X107441485Y-84700952D02*
X107584342Y-84700952D01*
X107584342Y-84700952D02*
X107679580Y-84748571D01*
X107679580Y-84748571D02*
X107727200Y-84796190D01*
X107727200Y-84796190D02*
X107774819Y-84891428D01*
X107774819Y-84891428D02*
X107774819Y-85272380D01*
X107774819Y-85272380D02*
X106774819Y-85272380D01*
X106774819Y-85272380D02*
X106774819Y-84939047D01*
X106774819Y-84939047D02*
X106822438Y-84843809D01*
X106822438Y-84843809D02*
X106870057Y-84796190D01*
X106870057Y-84796190D02*
X106965295Y-84748571D01*
X106965295Y-84748571D02*
X107060533Y-84748571D01*
X107060533Y-84748571D02*
X107155771Y-84796190D01*
X107155771Y-84796190D02*
X107203390Y-84843809D01*
X107203390Y-84843809D02*
X107251009Y-84939047D01*
X107251009Y-84939047D02*
X107251009Y-85272380D01*
X107774819Y-84129523D02*
X107727200Y-84224761D01*
X107727200Y-84224761D02*
X107679580Y-84272380D01*
X107679580Y-84272380D02*
X107584342Y-84319999D01*
X107584342Y-84319999D02*
X107298628Y-84319999D01*
X107298628Y-84319999D02*
X107203390Y-84272380D01*
X107203390Y-84272380D02*
X107155771Y-84224761D01*
X107155771Y-84224761D02*
X107108152Y-84129523D01*
X107108152Y-84129523D02*
X107108152Y-83986666D01*
X107108152Y-83986666D02*
X107155771Y-83891428D01*
X107155771Y-83891428D02*
X107203390Y-83843809D01*
X107203390Y-83843809D02*
X107298628Y-83796190D01*
X107298628Y-83796190D02*
X107584342Y-83796190D01*
X107584342Y-83796190D02*
X107679580Y-83843809D01*
X107679580Y-83843809D02*
X107727200Y-83891428D01*
X107727200Y-83891428D02*
X107774819Y-83986666D01*
X107774819Y-83986666D02*
X107774819Y-84129523D01*
X107774819Y-83224761D02*
X107727200Y-83319999D01*
X107727200Y-83319999D02*
X107679580Y-83367618D01*
X107679580Y-83367618D02*
X107584342Y-83415237D01*
X107584342Y-83415237D02*
X107298628Y-83415237D01*
X107298628Y-83415237D02*
X107203390Y-83367618D01*
X107203390Y-83367618D02*
X107155771Y-83319999D01*
X107155771Y-83319999D02*
X107108152Y-83224761D01*
X107108152Y-83224761D02*
X107108152Y-83081904D01*
X107108152Y-83081904D02*
X107155771Y-82986666D01*
X107155771Y-82986666D02*
X107203390Y-82939047D01*
X107203390Y-82939047D02*
X107298628Y-82891428D01*
X107298628Y-82891428D02*
X107584342Y-82891428D01*
X107584342Y-82891428D02*
X107679580Y-82939047D01*
X107679580Y-82939047D02*
X107727200Y-82986666D01*
X107727200Y-82986666D02*
X107774819Y-83081904D01*
X107774819Y-83081904D02*
X107774819Y-83224761D01*
X107108152Y-82605713D02*
X107108152Y-82224761D01*
X106774819Y-82462856D02*
X107631961Y-82462856D01*
X107631961Y-82462856D02*
X107727200Y-82415237D01*
X107727200Y-82415237D02*
X107774819Y-82319999D01*
X107774819Y-82319999D02*
X107774819Y-82224761D01*
X102964819Y-77461904D02*
X103774342Y-77461904D01*
X103774342Y-77461904D02*
X103869580Y-77414285D01*
X103869580Y-77414285D02*
X103917200Y-77366666D01*
X103917200Y-77366666D02*
X103964819Y-77271428D01*
X103964819Y-77271428D02*
X103964819Y-77080952D01*
X103964819Y-77080952D02*
X103917200Y-76985714D01*
X103917200Y-76985714D02*
X103869580Y-76938095D01*
X103869580Y-76938095D02*
X103774342Y-76890476D01*
X103774342Y-76890476D02*
X102964819Y-76890476D01*
X103917200Y-76461904D02*
X103964819Y-76319047D01*
X103964819Y-76319047D02*
X103964819Y-76080952D01*
X103964819Y-76080952D02*
X103917200Y-75985714D01*
X103917200Y-75985714D02*
X103869580Y-75938095D01*
X103869580Y-75938095D02*
X103774342Y-75890476D01*
X103774342Y-75890476D02*
X103679104Y-75890476D01*
X103679104Y-75890476D02*
X103583866Y-75938095D01*
X103583866Y-75938095D02*
X103536247Y-75985714D01*
X103536247Y-75985714D02*
X103488628Y-76080952D01*
X103488628Y-76080952D02*
X103441009Y-76271428D01*
X103441009Y-76271428D02*
X103393390Y-76366666D01*
X103393390Y-76366666D02*
X103345771Y-76414285D01*
X103345771Y-76414285D02*
X103250533Y-76461904D01*
X103250533Y-76461904D02*
X103155295Y-76461904D01*
X103155295Y-76461904D02*
X103060057Y-76414285D01*
X103060057Y-76414285D02*
X103012438Y-76366666D01*
X103012438Y-76366666D02*
X102964819Y-76271428D01*
X102964819Y-76271428D02*
X102964819Y-76033333D01*
X102964819Y-76033333D02*
X103012438Y-75890476D01*
X103441009Y-75128571D02*
X103488628Y-74985714D01*
X103488628Y-74985714D02*
X103536247Y-74938095D01*
X103536247Y-74938095D02*
X103631485Y-74890476D01*
X103631485Y-74890476D02*
X103774342Y-74890476D01*
X103774342Y-74890476D02*
X103869580Y-74938095D01*
X103869580Y-74938095D02*
X103917200Y-74985714D01*
X103917200Y-74985714D02*
X103964819Y-75080952D01*
X103964819Y-75080952D02*
X103964819Y-75461904D01*
X103964819Y-75461904D02*
X102964819Y-75461904D01*
X102964819Y-75461904D02*
X102964819Y-75128571D01*
X102964819Y-75128571D02*
X103012438Y-75033333D01*
X103012438Y-75033333D02*
X103060057Y-74985714D01*
X103060057Y-74985714D02*
X103155295Y-74938095D01*
X103155295Y-74938095D02*
X103250533Y-74938095D01*
X103250533Y-74938095D02*
X103345771Y-74985714D01*
X103345771Y-74985714D02*
X103393390Y-75033333D01*
X103393390Y-75033333D02*
X103441009Y-75128571D01*
X103441009Y-75128571D02*
X103441009Y-75461904D01*
X107251009Y-70841904D02*
X107251009Y-70508571D01*
X107774819Y-70365714D02*
X107774819Y-70841904D01*
X107774819Y-70841904D02*
X106774819Y-70841904D01*
X106774819Y-70841904D02*
X106774819Y-70365714D01*
X107108152Y-69937142D02*
X107774819Y-69937142D01*
X107203390Y-69937142D02*
X107155771Y-69889523D01*
X107155771Y-69889523D02*
X107108152Y-69794285D01*
X107108152Y-69794285D02*
X107108152Y-69651428D01*
X107108152Y-69651428D02*
X107155771Y-69556190D01*
X107155771Y-69556190D02*
X107251009Y-69508571D01*
X107251009Y-69508571D02*
X107774819Y-69508571D01*
X107774819Y-68603809D02*
X107251009Y-68603809D01*
X107251009Y-68603809D02*
X107155771Y-68651428D01*
X107155771Y-68651428D02*
X107108152Y-68746666D01*
X107108152Y-68746666D02*
X107108152Y-68937142D01*
X107108152Y-68937142D02*
X107155771Y-69032380D01*
X107727200Y-68603809D02*
X107774819Y-68699047D01*
X107774819Y-68699047D02*
X107774819Y-68937142D01*
X107774819Y-68937142D02*
X107727200Y-69032380D01*
X107727200Y-69032380D02*
X107631961Y-69079999D01*
X107631961Y-69079999D02*
X107536723Y-69079999D01*
X107536723Y-69079999D02*
X107441485Y-69032380D01*
X107441485Y-69032380D02*
X107393866Y-68937142D01*
X107393866Y-68937142D02*
X107393866Y-68699047D01*
X107393866Y-68699047D02*
X107346247Y-68603809D01*
X107774819Y-68127618D02*
X106774819Y-68127618D01*
X107155771Y-68127618D02*
X107108152Y-68032380D01*
X107108152Y-68032380D02*
X107108152Y-67841904D01*
X107108152Y-67841904D02*
X107155771Y-67746666D01*
X107155771Y-67746666D02*
X107203390Y-67699047D01*
X107203390Y-67699047D02*
X107298628Y-67651428D01*
X107298628Y-67651428D02*
X107584342Y-67651428D01*
X107584342Y-67651428D02*
X107679580Y-67699047D01*
X107679580Y-67699047D02*
X107727200Y-67746666D01*
X107727200Y-67746666D02*
X107774819Y-67841904D01*
X107774819Y-67841904D02*
X107774819Y-68032380D01*
X107774819Y-68032380D02*
X107727200Y-68127618D01*
X107774819Y-67079999D02*
X107727200Y-67175237D01*
X107727200Y-67175237D02*
X107631961Y-67222856D01*
X107631961Y-67222856D02*
X106774819Y-67222856D01*
X107727200Y-66318094D02*
X107774819Y-66413332D01*
X107774819Y-66413332D02*
X107774819Y-66603808D01*
X107774819Y-66603808D02*
X107727200Y-66699046D01*
X107727200Y-66699046D02*
X107631961Y-66746665D01*
X107631961Y-66746665D02*
X107251009Y-66746665D01*
X107251009Y-66746665D02*
X107155771Y-66699046D01*
X107155771Y-66699046D02*
X107108152Y-66603808D01*
X107108152Y-66603808D02*
X107108152Y-66413332D01*
X107108152Y-66413332D02*
X107155771Y-66318094D01*
X107155771Y-66318094D02*
X107251009Y-66270475D01*
X107251009Y-66270475D02*
X107346247Y-66270475D01*
X107346247Y-66270475D02*
X107441485Y-66746665D01*
X149554819Y-113666666D02*
X149078628Y-113999999D01*
X149554819Y-114238094D02*
X148554819Y-114238094D01*
X148554819Y-114238094D02*
X148554819Y-113857142D01*
X148554819Y-113857142D02*
X148602438Y-113761904D01*
X148602438Y-113761904D02*
X148650057Y-113714285D01*
X148650057Y-113714285D02*
X148745295Y-113666666D01*
X148745295Y-113666666D02*
X148888152Y-113666666D01*
X148888152Y-113666666D02*
X148983390Y-113714285D01*
X148983390Y-113714285D02*
X149031009Y-113761904D01*
X149031009Y-113761904D02*
X149078628Y-113857142D01*
X149078628Y-113857142D02*
X149078628Y-114238094D01*
X149554819Y-112714285D02*
X149554819Y-113285713D01*
X149554819Y-112999999D02*
X148554819Y-112999999D01*
X148554819Y-112999999D02*
X148697676Y-113095237D01*
X148697676Y-113095237D02*
X148792914Y-113190475D01*
X148792914Y-113190475D02*
X148840533Y-113285713D01*
X113833333Y-82359580D02*
X113785714Y-82407200D01*
X113785714Y-82407200D02*
X113642857Y-82454819D01*
X113642857Y-82454819D02*
X113547619Y-82454819D01*
X113547619Y-82454819D02*
X113404762Y-82407200D01*
X113404762Y-82407200D02*
X113309524Y-82311961D01*
X113309524Y-82311961D02*
X113261905Y-82216723D01*
X113261905Y-82216723D02*
X113214286Y-82026247D01*
X113214286Y-82026247D02*
X113214286Y-81883390D01*
X113214286Y-81883390D02*
X113261905Y-81692914D01*
X113261905Y-81692914D02*
X113309524Y-81597676D01*
X113309524Y-81597676D02*
X113404762Y-81502438D01*
X113404762Y-81502438D02*
X113547619Y-81454819D01*
X113547619Y-81454819D02*
X113642857Y-81454819D01*
X113642857Y-81454819D02*
X113785714Y-81502438D01*
X113785714Y-81502438D02*
X113833333Y-81550057D01*
X114214286Y-81550057D02*
X114261905Y-81502438D01*
X114261905Y-81502438D02*
X114357143Y-81454819D01*
X114357143Y-81454819D02*
X114595238Y-81454819D01*
X114595238Y-81454819D02*
X114690476Y-81502438D01*
X114690476Y-81502438D02*
X114738095Y-81550057D01*
X114738095Y-81550057D02*
X114785714Y-81645295D01*
X114785714Y-81645295D02*
X114785714Y-81740533D01*
X114785714Y-81740533D02*
X114738095Y-81883390D01*
X114738095Y-81883390D02*
X114166667Y-82454819D01*
X114166667Y-82454819D02*
X114785714Y-82454819D01*
X112333333Y-91109580D02*
X112285714Y-91157200D01*
X112285714Y-91157200D02*
X112142857Y-91204819D01*
X112142857Y-91204819D02*
X112047619Y-91204819D01*
X112047619Y-91204819D02*
X111904762Y-91157200D01*
X111904762Y-91157200D02*
X111809524Y-91061961D01*
X111809524Y-91061961D02*
X111761905Y-90966723D01*
X111761905Y-90966723D02*
X111714286Y-90776247D01*
X111714286Y-90776247D02*
X111714286Y-90633390D01*
X111714286Y-90633390D02*
X111761905Y-90442914D01*
X111761905Y-90442914D02*
X111809524Y-90347676D01*
X111809524Y-90347676D02*
X111904762Y-90252438D01*
X111904762Y-90252438D02*
X112047619Y-90204819D01*
X112047619Y-90204819D02*
X112142857Y-90204819D01*
X112142857Y-90204819D02*
X112285714Y-90252438D01*
X112285714Y-90252438D02*
X112333333Y-90300057D01*
X113238095Y-90204819D02*
X112761905Y-90204819D01*
X112761905Y-90204819D02*
X112714286Y-90681009D01*
X112714286Y-90681009D02*
X112761905Y-90633390D01*
X112761905Y-90633390D02*
X112857143Y-90585771D01*
X112857143Y-90585771D02*
X113095238Y-90585771D01*
X113095238Y-90585771D02*
X113190476Y-90633390D01*
X113190476Y-90633390D02*
X113238095Y-90681009D01*
X113238095Y-90681009D02*
X113285714Y-90776247D01*
X113285714Y-90776247D02*
X113285714Y-91014342D01*
X113285714Y-91014342D02*
X113238095Y-91109580D01*
X113238095Y-91109580D02*
X113190476Y-91157200D01*
X113190476Y-91157200D02*
X113095238Y-91204819D01*
X113095238Y-91204819D02*
X112857143Y-91204819D01*
X112857143Y-91204819D02*
X112761905Y-91157200D01*
X112761905Y-91157200D02*
X112714286Y-91109580D01*
X115234819Y-111388094D02*
X114234819Y-111388094D01*
X114234819Y-111388094D02*
X114234819Y-111149999D01*
X114234819Y-111149999D02*
X114282438Y-111007142D01*
X114282438Y-111007142D02*
X114377676Y-110911904D01*
X114377676Y-110911904D02*
X114472914Y-110864285D01*
X114472914Y-110864285D02*
X114663390Y-110816666D01*
X114663390Y-110816666D02*
X114806247Y-110816666D01*
X114806247Y-110816666D02*
X114996723Y-110864285D01*
X114996723Y-110864285D02*
X115091961Y-110911904D01*
X115091961Y-110911904D02*
X115187200Y-111007142D01*
X115187200Y-111007142D02*
X115234819Y-111149999D01*
X115234819Y-111149999D02*
X115234819Y-111388094D01*
X114330057Y-110435713D02*
X114282438Y-110388094D01*
X114282438Y-110388094D02*
X114234819Y-110292856D01*
X114234819Y-110292856D02*
X114234819Y-110054761D01*
X114234819Y-110054761D02*
X114282438Y-109959523D01*
X114282438Y-109959523D02*
X114330057Y-109911904D01*
X114330057Y-109911904D02*
X114425295Y-109864285D01*
X114425295Y-109864285D02*
X114520533Y-109864285D01*
X114520533Y-109864285D02*
X114663390Y-109911904D01*
X114663390Y-109911904D02*
X115234819Y-110483332D01*
X115234819Y-110483332D02*
X115234819Y-109864285D01*
X116354819Y-117261904D02*
X115354819Y-117261904D01*
X116354819Y-116690476D02*
X115783390Y-117119047D01*
X115354819Y-116690476D02*
X115926247Y-117261904D01*
X138833333Y-66084819D02*
X138500000Y-65608628D01*
X138261905Y-66084819D02*
X138261905Y-65084819D01*
X138261905Y-65084819D02*
X138642857Y-65084819D01*
X138642857Y-65084819D02*
X138738095Y-65132438D01*
X138738095Y-65132438D02*
X138785714Y-65180057D01*
X138785714Y-65180057D02*
X138833333Y-65275295D01*
X138833333Y-65275295D02*
X138833333Y-65418152D01*
X138833333Y-65418152D02*
X138785714Y-65513390D01*
X138785714Y-65513390D02*
X138738095Y-65561009D01*
X138738095Y-65561009D02*
X138642857Y-65608628D01*
X138642857Y-65608628D02*
X138261905Y-65608628D01*
X139214286Y-65180057D02*
X139261905Y-65132438D01*
X139261905Y-65132438D02*
X139357143Y-65084819D01*
X139357143Y-65084819D02*
X139595238Y-65084819D01*
X139595238Y-65084819D02*
X139690476Y-65132438D01*
X139690476Y-65132438D02*
X139738095Y-65180057D01*
X139738095Y-65180057D02*
X139785714Y-65275295D01*
X139785714Y-65275295D02*
X139785714Y-65370533D01*
X139785714Y-65370533D02*
X139738095Y-65513390D01*
X139738095Y-65513390D02*
X139166667Y-66084819D01*
X139166667Y-66084819D02*
X139785714Y-66084819D01*
X145238095Y-117074819D02*
X145238095Y-117884342D01*
X145238095Y-117884342D02*
X145285714Y-117979580D01*
X145285714Y-117979580D02*
X145333333Y-118027200D01*
X145333333Y-118027200D02*
X145428571Y-118074819D01*
X145428571Y-118074819D02*
X145619047Y-118074819D01*
X145619047Y-118074819D02*
X145714285Y-118027200D01*
X145714285Y-118027200D02*
X145761904Y-117979580D01*
X145761904Y-117979580D02*
X145809523Y-117884342D01*
X145809523Y-117884342D02*
X145809523Y-117074819D01*
X146238095Y-117170057D02*
X146285714Y-117122438D01*
X146285714Y-117122438D02*
X146380952Y-117074819D01*
X146380952Y-117074819D02*
X146619047Y-117074819D01*
X146619047Y-117074819D02*
X146714285Y-117122438D01*
X146714285Y-117122438D02*
X146761904Y-117170057D01*
X146761904Y-117170057D02*
X146809523Y-117265295D01*
X146809523Y-117265295D02*
X146809523Y-117360533D01*
X146809523Y-117360533D02*
X146761904Y-117503390D01*
X146761904Y-117503390D02*
X146190476Y-118074819D01*
X146190476Y-118074819D02*
X146809523Y-118074819D01*
X151666666Y-90084819D02*
X151666666Y-90799104D01*
X151666666Y-90799104D02*
X151619047Y-90941961D01*
X151619047Y-90941961D02*
X151523809Y-91037200D01*
X151523809Y-91037200D02*
X151380952Y-91084819D01*
X151380952Y-91084819D02*
X151285714Y-91084819D01*
X152571428Y-90418152D02*
X152571428Y-91084819D01*
X152333333Y-90037200D02*
X152095238Y-90751485D01*
X152095238Y-90751485D02*
X152714285Y-90751485D01*
X102716666Y-116247319D02*
X102716666Y-116961604D01*
X102716666Y-116961604D02*
X102669047Y-117104461D01*
X102669047Y-117104461D02*
X102573809Y-117199700D01*
X102573809Y-117199700D02*
X102430952Y-117247319D01*
X102430952Y-117247319D02*
X102335714Y-117247319D01*
X103097619Y-116247319D02*
X103716666Y-116247319D01*
X103716666Y-116247319D02*
X103383333Y-116628271D01*
X103383333Y-116628271D02*
X103526190Y-116628271D01*
X103526190Y-116628271D02*
X103621428Y-116675890D01*
X103621428Y-116675890D02*
X103669047Y-116723509D01*
X103669047Y-116723509D02*
X103716666Y-116818747D01*
X103716666Y-116818747D02*
X103716666Y-117056842D01*
X103716666Y-117056842D02*
X103669047Y-117152080D01*
X103669047Y-117152080D02*
X103621428Y-117199700D01*
X103621428Y-117199700D02*
X103526190Y-117247319D01*
X103526190Y-117247319D02*
X103240476Y-117247319D01*
X103240476Y-117247319D02*
X103145238Y-117199700D01*
X103145238Y-117199700D02*
X103097619Y-117152080D01*
X138833333Y-87324819D02*
X138500000Y-86848628D01*
X138261905Y-87324819D02*
X138261905Y-86324819D01*
X138261905Y-86324819D02*
X138642857Y-86324819D01*
X138642857Y-86324819D02*
X138738095Y-86372438D01*
X138738095Y-86372438D02*
X138785714Y-86420057D01*
X138785714Y-86420057D02*
X138833333Y-86515295D01*
X138833333Y-86515295D02*
X138833333Y-86658152D01*
X138833333Y-86658152D02*
X138785714Y-86753390D01*
X138785714Y-86753390D02*
X138738095Y-86801009D01*
X138738095Y-86801009D02*
X138642857Y-86848628D01*
X138642857Y-86848628D02*
X138261905Y-86848628D01*
X139166667Y-86324819D02*
X139785714Y-86324819D01*
X139785714Y-86324819D02*
X139452381Y-86705771D01*
X139452381Y-86705771D02*
X139595238Y-86705771D01*
X139595238Y-86705771D02*
X139690476Y-86753390D01*
X139690476Y-86753390D02*
X139738095Y-86801009D01*
X139738095Y-86801009D02*
X139785714Y-86896247D01*
X139785714Y-86896247D02*
X139785714Y-87134342D01*
X139785714Y-87134342D02*
X139738095Y-87229580D01*
X139738095Y-87229580D02*
X139690476Y-87277200D01*
X139690476Y-87277200D02*
X139595238Y-87324819D01*
X139595238Y-87324819D02*
X139309524Y-87324819D01*
X139309524Y-87324819D02*
X139214286Y-87277200D01*
X139214286Y-87277200D02*
X139166667Y-87229580D01*
X121333333Y-82359580D02*
X121285714Y-82407200D01*
X121285714Y-82407200D02*
X121142857Y-82454819D01*
X121142857Y-82454819D02*
X121047619Y-82454819D01*
X121047619Y-82454819D02*
X120904762Y-82407200D01*
X120904762Y-82407200D02*
X120809524Y-82311961D01*
X120809524Y-82311961D02*
X120761905Y-82216723D01*
X120761905Y-82216723D02*
X120714286Y-82026247D01*
X120714286Y-82026247D02*
X120714286Y-81883390D01*
X120714286Y-81883390D02*
X120761905Y-81692914D01*
X120761905Y-81692914D02*
X120809524Y-81597676D01*
X120809524Y-81597676D02*
X120904762Y-81502438D01*
X120904762Y-81502438D02*
X121047619Y-81454819D01*
X121047619Y-81454819D02*
X121142857Y-81454819D01*
X121142857Y-81454819D02*
X121285714Y-81502438D01*
X121285714Y-81502438D02*
X121333333Y-81550057D01*
X122285714Y-82454819D02*
X121714286Y-82454819D01*
X122000000Y-82454819D02*
X122000000Y-81454819D01*
X122000000Y-81454819D02*
X121904762Y-81597676D01*
X121904762Y-81597676D02*
X121809524Y-81692914D01*
X121809524Y-81692914D02*
X121714286Y-81740533D01*
%TO.C,JP3*%
X123720000Y-103100000D02*
X124220000Y-102600000D01*
X123720000Y-103900000D02*
X123720000Y-103100000D01*
X124220000Y-102600000D02*
X127820000Y-102600000D01*
X124220000Y-104400000D02*
X123720000Y-103900000D01*
X127820000Y-102600000D02*
X128320000Y-103100000D01*
X127820000Y-104400000D02*
X124220000Y-104400000D01*
X128320000Y-103100000D02*
X128320000Y-103900000D01*
X128320000Y-103900000D02*
X127820000Y-104400000D01*
D12*
%TO.C,C3*%
X118945225Y-94525000D02*
X119445225Y-94525000D01*
X119195225Y-94275000D02*
X119195225Y-94775000D01*
X121750000Y-93420000D02*
X121750000Y-98580000D01*
X121790000Y-93420000D02*
X121790000Y-98580000D01*
X121830000Y-93421000D02*
X121830000Y-98579000D01*
X121870000Y-93422000D02*
X121870000Y-98578000D01*
X121910000Y-93424000D02*
X121910000Y-98576000D01*
X121950000Y-93427000D02*
X121950000Y-98573000D01*
X121990000Y-93431000D02*
X121990000Y-94960000D01*
X121990000Y-97040000D02*
X121990000Y-98569000D01*
X122030000Y-93435000D02*
X122030000Y-94960000D01*
X122030000Y-97040000D02*
X122030000Y-98565000D01*
X122070000Y-93439000D02*
X122070000Y-94960000D01*
X122070000Y-97040000D02*
X122070000Y-98561000D01*
X122110000Y-93444000D02*
X122110000Y-94960000D01*
X122110000Y-97040000D02*
X122110000Y-98556000D01*
X122150000Y-93450000D02*
X122150000Y-94960000D01*
X122150000Y-97040000D02*
X122150000Y-98550000D01*
X122190000Y-93457000D02*
X122190000Y-94960000D01*
X122190000Y-97040000D02*
X122190000Y-98543000D01*
X122230000Y-93464000D02*
X122230000Y-94960000D01*
X122230000Y-97040000D02*
X122230000Y-98536000D01*
X122270000Y-93472000D02*
X122270000Y-94960000D01*
X122270000Y-97040000D02*
X122270000Y-98528000D01*
X122310000Y-93480000D02*
X122310000Y-94960000D01*
X122310000Y-97040000D02*
X122310000Y-98520000D01*
X122350000Y-93489000D02*
X122350000Y-94960000D01*
X122350000Y-97040000D02*
X122350000Y-98511000D01*
X122390000Y-93499000D02*
X122390000Y-94960000D01*
X122390000Y-97040000D02*
X122390000Y-98501000D01*
X122430000Y-93509000D02*
X122430000Y-94960000D01*
X122430000Y-97040000D02*
X122430000Y-98491000D01*
X122471000Y-93520000D02*
X122471000Y-94960000D01*
X122471000Y-97040000D02*
X122471000Y-98480000D01*
X122511000Y-93532000D02*
X122511000Y-94960000D01*
X122511000Y-97040000D02*
X122511000Y-98468000D01*
X122551000Y-93545000D02*
X122551000Y-94960000D01*
X122551000Y-97040000D02*
X122551000Y-98455000D01*
X122591000Y-93558000D02*
X122591000Y-94960000D01*
X122591000Y-97040000D02*
X122591000Y-98442000D01*
X122631000Y-93572000D02*
X122631000Y-94960000D01*
X122631000Y-97040000D02*
X122631000Y-98428000D01*
X122671000Y-93586000D02*
X122671000Y-94960000D01*
X122671000Y-97040000D02*
X122671000Y-98414000D01*
X122711000Y-93602000D02*
X122711000Y-94960000D01*
X122711000Y-97040000D02*
X122711000Y-98398000D01*
X122751000Y-93618000D02*
X122751000Y-94960000D01*
X122751000Y-97040000D02*
X122751000Y-98382000D01*
X122791000Y-93635000D02*
X122791000Y-94960000D01*
X122791000Y-97040000D02*
X122791000Y-98365000D01*
X122831000Y-93652000D02*
X122831000Y-94960000D01*
X122831000Y-97040000D02*
X122831000Y-98348000D01*
X122871000Y-93671000D02*
X122871000Y-94960000D01*
X122871000Y-97040000D02*
X122871000Y-98329000D01*
X122911000Y-93690000D02*
X122911000Y-94960000D01*
X122911000Y-97040000D02*
X122911000Y-98310000D01*
X122951000Y-93710000D02*
X122951000Y-94960000D01*
X122951000Y-97040000D02*
X122951000Y-98290000D01*
X122991000Y-93732000D02*
X122991000Y-94960000D01*
X122991000Y-97040000D02*
X122991000Y-98268000D01*
X123031000Y-93753000D02*
X123031000Y-94960000D01*
X123031000Y-97040000D02*
X123031000Y-98247000D01*
X123071000Y-93776000D02*
X123071000Y-94960000D01*
X123071000Y-97040000D02*
X123071000Y-98224000D01*
X123111000Y-93800000D02*
X123111000Y-94960000D01*
X123111000Y-97040000D02*
X123111000Y-98200000D01*
X123151000Y-93825000D02*
X123151000Y-94960000D01*
X123151000Y-97040000D02*
X123151000Y-98175000D01*
X123191000Y-93851000D02*
X123191000Y-94960000D01*
X123191000Y-97040000D02*
X123191000Y-98149000D01*
X123231000Y-93878000D02*
X123231000Y-94960000D01*
X123231000Y-97040000D02*
X123231000Y-98122000D01*
X123271000Y-93905000D02*
X123271000Y-94960000D01*
X123271000Y-97040000D02*
X123271000Y-98095000D01*
X123311000Y-93935000D02*
X123311000Y-94960000D01*
X123311000Y-97040000D02*
X123311000Y-98065000D01*
X123351000Y-93965000D02*
X123351000Y-94960000D01*
X123351000Y-97040000D02*
X123351000Y-98035000D01*
X123391000Y-93996000D02*
X123391000Y-94960000D01*
X123391000Y-97040000D02*
X123391000Y-98004000D01*
X123431000Y-94029000D02*
X123431000Y-94960000D01*
X123431000Y-97040000D02*
X123431000Y-97971000D01*
X123471000Y-94063000D02*
X123471000Y-94960000D01*
X123471000Y-97040000D02*
X123471000Y-97937000D01*
X123511000Y-94099000D02*
X123511000Y-94960000D01*
X123511000Y-97040000D02*
X123511000Y-97901000D01*
X123551000Y-94136000D02*
X123551000Y-94960000D01*
X123551000Y-97040000D02*
X123551000Y-97864000D01*
X123591000Y-94174000D02*
X123591000Y-94960000D01*
X123591000Y-97040000D02*
X123591000Y-97826000D01*
X123631000Y-94215000D02*
X123631000Y-94960000D01*
X123631000Y-97040000D02*
X123631000Y-97785000D01*
X123671000Y-94257000D02*
X123671000Y-94960000D01*
X123671000Y-97040000D02*
X123671000Y-97743000D01*
X123711000Y-94301000D02*
X123711000Y-94960000D01*
X123711000Y-97040000D02*
X123711000Y-97699000D01*
X123751000Y-94347000D02*
X123751000Y-94960000D01*
X123751000Y-97040000D02*
X123751000Y-97653000D01*
X123791000Y-94395000D02*
X123791000Y-94960000D01*
X123791000Y-97040000D02*
X123791000Y-97605000D01*
X123831000Y-94446000D02*
X123831000Y-94960000D01*
X123831000Y-97040000D02*
X123831000Y-97554000D01*
X123871000Y-94500000D02*
X123871000Y-94960000D01*
X123871000Y-97040000D02*
X123871000Y-97500000D01*
X123911000Y-94557000D02*
X123911000Y-94960000D01*
X123911000Y-97040000D02*
X123911000Y-97443000D01*
X123951000Y-94617000D02*
X123951000Y-94960000D01*
X123951000Y-97040000D02*
X123951000Y-97383000D01*
X123991000Y-94681000D02*
X123991000Y-94960000D01*
X123991000Y-97040000D02*
X123991000Y-97319000D01*
X124031000Y-94749000D02*
X124031000Y-94960000D01*
X124031000Y-97040000D02*
X124031000Y-97251000D01*
X124071000Y-94822000D02*
X124071000Y-97178000D01*
X124111000Y-94902000D02*
X124111000Y-97098000D01*
X124151000Y-94989000D02*
X124151000Y-97011000D01*
X124191000Y-95085000D02*
X124191000Y-96915000D01*
X124231000Y-95195000D02*
X124231000Y-96805000D01*
X124271000Y-95323000D02*
X124271000Y-96677000D01*
X124311000Y-95482000D02*
X124311000Y-96518000D01*
X124351000Y-95716000D02*
X124351000Y-96284000D01*
X124370000Y-96000000D02*
G75*
G02*
X119130000Y-96000000I-2620000J0D01*
G01*
X119130000Y-96000000D02*
G75*
G02*
X124370000Y-96000000I2620000J0D01*
G01*
%TO.C,J6*%
X97690000Y-92420000D02*
X97690000Y-102580000D01*
X97690000Y-102580000D02*
X105310000Y-102580000D01*
X104040000Y-92420000D02*
X104040000Y-102580000D01*
X105310000Y-92420000D02*
X97690000Y-92420000D01*
X105310000Y-102580000D02*
X105310000Y-92420000D01*
%TO.C,D1*%
X128170000Y-94764000D02*
X128170000Y-94920000D01*
X128170000Y-97080000D02*
X128170000Y-97236000D01*
X128170000Y-94764484D02*
G75*
G02*
X131402335Y-94921392I1560000J-1235516D01*
G01*
X128689039Y-94920000D02*
G75*
G02*
X130771130Y-94920163I1040961J-1080000D01*
G01*
X130771130Y-97079837D02*
G75*
G02*
X128689039Y-97080000I-1041130J1079837D01*
G01*
X131402335Y-97078608D02*
G75*
G02*
X128170000Y-97235516I-1672335J1078608D01*
G01*
%TO.C,C4*%
X111380000Y-66630000D02*
X111380000Y-66945000D01*
X111380000Y-66630000D02*
X116620000Y-66630000D01*
X111380000Y-69055000D02*
X111380000Y-69370000D01*
X111380000Y-69370000D02*
X116620000Y-69370000D01*
X116620000Y-66630000D02*
X116620000Y-66945000D01*
X116620000Y-69055000D02*
X116620000Y-69370000D01*
D11*
%TO.C,J5*%
X124690000Y-107000000D02*
X132310000Y-107000000D01*
X124690000Y-119000000D02*
X124690000Y-107000000D01*
X132310000Y-108000000D02*
X132310000Y-118000000D01*
X132310000Y-119000000D02*
X124690000Y-119000000D01*
X132310000Y-119000000D02*
X139930000Y-119000000D01*
X139930000Y-107000000D02*
X132310000Y-107000000D01*
X139930000Y-119000000D02*
X139930000Y-107000000D01*
D12*
%TO.C,U1*%
X101540000Y-64200000D02*
X101540000Y-88200000D01*
X102240000Y-67310000D02*
X106050000Y-67310000D01*
X102240000Y-69850000D02*
X102240000Y-67310000D01*
X102240000Y-82550000D02*
X106050000Y-82550000D01*
X102240000Y-85090000D02*
X102240000Y-82550000D01*
X103540000Y-90200000D02*
X151040000Y-90200000D01*
X106050000Y-67310000D02*
X106050000Y-69850000D01*
X106050000Y-69850000D02*
X102240000Y-69850000D01*
X106050000Y-82550000D02*
X106050000Y-85090000D01*
X106050000Y-85090000D02*
X102240000Y-85090000D01*
X107540000Y-72200000D02*
X101540000Y-72200000D01*
X107540000Y-72200000D02*
X107540000Y-80200000D01*
X107540000Y-80200000D02*
X101540000Y-80200000D01*
X128040000Y-68700000D02*
X146040000Y-68700000D01*
X128040000Y-83700000D02*
X128040000Y-68700000D01*
X146040000Y-68700000D02*
X146040000Y-83700000D01*
X146040000Y-83700000D02*
X128040000Y-83700000D01*
X146690000Y-67310000D02*
X151770000Y-67310000D01*
X146690000Y-85090000D02*
X146690000Y-67310000D01*
X147452000Y-68580000D02*
X151008000Y-68580000D01*
X148976000Y-71120000D02*
X148976000Y-73660000D01*
X148976000Y-73660000D02*
X151008000Y-73660000D01*
X148976000Y-76200000D02*
X148976000Y-78740000D01*
X148976000Y-78740000D02*
X151008000Y-78740000D01*
X151008000Y-68580000D02*
X151008000Y-71120000D01*
X151008000Y-71120000D02*
X148976000Y-71120000D01*
X151008000Y-73660000D02*
X151008000Y-76200000D01*
X151008000Y-76200000D02*
X148976000Y-76200000D01*
X151008000Y-78740000D02*
X151008000Y-83820000D01*
X151008000Y-81280000D02*
X147452000Y-81280000D01*
X151008000Y-83820000D02*
X147452000Y-83820000D01*
X151040000Y-62200000D02*
X103540000Y-62200000D01*
X151770000Y-67310000D02*
X151770000Y-85090000D01*
X151770000Y-85090000D02*
X146690000Y-85090000D01*
X153040000Y-64200000D02*
X153040000Y-88200000D01*
X101540000Y-64200000D02*
G75*
G02*
X103540000Y-62200000I1999999J1D01*
G01*
X103540000Y-90200000D02*
G75*
G02*
X101540000Y-88200000I0J2000000D01*
G01*
X151040000Y-62200000D02*
G75*
G02*
X153040000Y-64200000I1J-1999999D01*
G01*
X153040000Y-88200000D02*
G75*
G02*
X151040000Y-90200000I-2000000J0D01*
G01*
X105040000Y-64500000D02*
G75*
G02*
X102040000Y-64500000I-1500000J0D01*
G01*
X102040000Y-64500000D02*
G75*
G02*
X105040000Y-64500000I1500000J0D01*
G01*
X105040000Y-87900000D02*
G75*
G02*
X102040000Y-87900000I-1500000J0D01*
G01*
X102040000Y-87900000D02*
G75*
G02*
X105040000Y-87900000I1500000J0D01*
G01*
D13*
X104445000Y-68580000D02*
G75*
G02*
X103845000Y-68580000I-300000J0D01*
G01*
X103845000Y-68580000D02*
G75*
G02*
X104445000Y-68580000I300000J0D01*
G01*
X104445000Y-83820000D02*
G75*
G02*
X103845000Y-83820000I-300000J0D01*
G01*
X103845000Y-83820000D02*
G75*
G02*
X104445000Y-83820000I300000J0D01*
G01*
D14*
X130580000Y-71120000D02*
G75*
G02*
X129780000Y-71120000I-400000J0D01*
G01*
X129780000Y-71120000D02*
G75*
G02*
X130580000Y-71120000I400000J0D01*
G01*
D12*
X152540000Y-64500000D02*
G75*
G02*
X149540000Y-64500000I-1500000J0D01*
G01*
X149540000Y-64500000D02*
G75*
G02*
X152540000Y-64500000I1500000J0D01*
G01*
X152540000Y-87900000D02*
G75*
G02*
X149540000Y-87900000I-1500000J0D01*
G01*
X149540000Y-87900000D02*
G75*
G02*
X152540000Y-87900000I1500000J0D01*
G01*
%TO.C,R1*%
X149900000Y-114900000D02*
X149900000Y-112100000D01*
X154100000Y-114900000D02*
X154100000Y-112100000D01*
X149900000Y-112100000D02*
G75*
G02*
X154109242Y-112113963I2100000J-1400000D01*
G01*
X154100000Y-114900000D02*
G75*
G02*
X149890758Y-114886037I-2100000J1400000D01*
G01*
%TO.C,C2*%
X111380000Y-83130000D02*
X111380000Y-83445000D01*
X111380000Y-83130000D02*
X116620000Y-83130000D01*
X111380000Y-85555000D02*
X111380000Y-85870000D01*
X111380000Y-85870000D02*
X116620000Y-85870000D01*
X116620000Y-83130000D02*
X116620000Y-83445000D01*
X116620000Y-85555000D02*
X116620000Y-85870000D01*
%TO.C,C5*%
X108090302Y-93685000D02*
X108890302Y-93685000D01*
X108490302Y-93285000D02*
X108490302Y-94085000D01*
X112500000Y-91920000D02*
X112500000Y-100080000D01*
X112540000Y-91920000D02*
X112540000Y-100080000D01*
X112580000Y-91920000D02*
X112580000Y-100080000D01*
X112620000Y-91921000D02*
X112620000Y-100079000D01*
X112660000Y-91923000D02*
X112660000Y-100077000D01*
X112700000Y-91924000D02*
X112700000Y-100076000D01*
X112740000Y-91926000D02*
X112740000Y-100074000D01*
X112780000Y-91929000D02*
X112780000Y-100071000D01*
X112820000Y-91932000D02*
X112820000Y-100068000D01*
X112860000Y-91935000D02*
X112860000Y-100065000D01*
X112900000Y-91939000D02*
X112900000Y-100061000D01*
X112940000Y-91943000D02*
X112940000Y-100057000D01*
X112980000Y-91948000D02*
X112980000Y-100052000D01*
X113020000Y-91952000D02*
X113020000Y-100048000D01*
X113060000Y-91958000D02*
X113060000Y-100042000D01*
X113100000Y-91963000D02*
X113100000Y-100037000D01*
X113140000Y-91970000D02*
X113140000Y-100030000D01*
X113180000Y-91976000D02*
X113180000Y-100024000D01*
X113221000Y-91983000D02*
X113221000Y-100017000D01*
X113261000Y-91990000D02*
X113261000Y-100010000D01*
X113301000Y-91998000D02*
X113301000Y-100002000D01*
X113341000Y-92006000D02*
X113341000Y-99994000D01*
X113381000Y-92015000D02*
X113381000Y-99985000D01*
X113421000Y-92024000D02*
X113421000Y-99976000D01*
X113461000Y-92033000D02*
X113461000Y-99967000D01*
X113501000Y-92043000D02*
X113501000Y-99957000D01*
X113541000Y-92053000D02*
X113541000Y-99947000D01*
X113581000Y-92064000D02*
X113581000Y-99936000D01*
X113621000Y-92075000D02*
X113621000Y-99925000D01*
X113661000Y-92086000D02*
X113661000Y-99914000D01*
X113701000Y-92098000D02*
X113701000Y-99902000D01*
X113741000Y-92111000D02*
X113741000Y-99889000D01*
X113781000Y-92123000D02*
X113781000Y-99877000D01*
X113821000Y-92137000D02*
X113821000Y-99863000D01*
X113861000Y-92150000D02*
X113861000Y-99850000D01*
X113901000Y-92165000D02*
X113901000Y-99835000D01*
X113941000Y-92179000D02*
X113941000Y-99821000D01*
X113981000Y-92195000D02*
X113981000Y-94960000D01*
X113981000Y-97040000D02*
X113981000Y-99805000D01*
X114021000Y-92210000D02*
X114021000Y-94960000D01*
X114021000Y-97040000D02*
X114021000Y-99790000D01*
X114061000Y-92226000D02*
X114061000Y-94960000D01*
X114061000Y-97040000D02*
X114061000Y-99774000D01*
X114101000Y-92243000D02*
X114101000Y-94960000D01*
X114101000Y-97040000D02*
X114101000Y-99757000D01*
X114141000Y-92260000D02*
X114141000Y-94960000D01*
X114141000Y-97040000D02*
X114141000Y-99740000D01*
X114181000Y-92278000D02*
X114181000Y-94960000D01*
X114181000Y-97040000D02*
X114181000Y-99722000D01*
X114221000Y-92296000D02*
X114221000Y-94960000D01*
X114221000Y-97040000D02*
X114221000Y-99704000D01*
X114261000Y-92314000D02*
X114261000Y-94960000D01*
X114261000Y-97040000D02*
X114261000Y-99686000D01*
X114301000Y-92334000D02*
X114301000Y-94960000D01*
X114301000Y-97040000D02*
X114301000Y-99666000D01*
X114341000Y-92353000D02*
X114341000Y-94960000D01*
X114341000Y-97040000D02*
X114341000Y-99647000D01*
X114381000Y-92373000D02*
X114381000Y-94960000D01*
X114381000Y-97040000D02*
X114381000Y-99627000D01*
X114421000Y-92394000D02*
X114421000Y-94960000D01*
X114421000Y-97040000D02*
X114421000Y-99606000D01*
X114461000Y-92416000D02*
X114461000Y-94960000D01*
X114461000Y-97040000D02*
X114461000Y-99584000D01*
X114501000Y-92438000D02*
X114501000Y-94960000D01*
X114501000Y-97040000D02*
X114501000Y-99562000D01*
X114541000Y-92460000D02*
X114541000Y-94960000D01*
X114541000Y-97040000D02*
X114541000Y-99540000D01*
X114581000Y-92483000D02*
X114581000Y-94960000D01*
X114581000Y-97040000D02*
X114581000Y-99517000D01*
X114621000Y-92507000D02*
X114621000Y-94960000D01*
X114621000Y-97040000D02*
X114621000Y-99493000D01*
X114661000Y-92531000D02*
X114661000Y-94960000D01*
X114661000Y-97040000D02*
X114661000Y-99469000D01*
X114701000Y-92556000D02*
X114701000Y-94960000D01*
X114701000Y-97040000D02*
X114701000Y-99444000D01*
X114741000Y-92582000D02*
X114741000Y-94960000D01*
X114741000Y-97040000D02*
X114741000Y-99418000D01*
X114781000Y-92608000D02*
X114781000Y-94960000D01*
X114781000Y-97040000D02*
X114781000Y-99392000D01*
X114821000Y-92635000D02*
X114821000Y-94960000D01*
X114821000Y-97040000D02*
X114821000Y-99365000D01*
X114861000Y-92662000D02*
X114861000Y-94960000D01*
X114861000Y-97040000D02*
X114861000Y-99338000D01*
X114901000Y-92691000D02*
X114901000Y-94960000D01*
X114901000Y-97040000D02*
X114901000Y-99309000D01*
X114941000Y-92720000D02*
X114941000Y-94960000D01*
X114941000Y-97040000D02*
X114941000Y-99280000D01*
X114981000Y-92750000D02*
X114981000Y-94960000D01*
X114981000Y-97040000D02*
X114981000Y-99250000D01*
X115021000Y-92780000D02*
X115021000Y-94960000D01*
X115021000Y-97040000D02*
X115021000Y-99220000D01*
X115061000Y-92811000D02*
X115061000Y-94960000D01*
X115061000Y-97040000D02*
X115061000Y-99189000D01*
X115101000Y-92844000D02*
X115101000Y-94960000D01*
X115101000Y-97040000D02*
X115101000Y-99156000D01*
X115141000Y-92876000D02*
X115141000Y-94960000D01*
X115141000Y-97040000D02*
X115141000Y-99124000D01*
X115181000Y-92910000D02*
X115181000Y-94960000D01*
X115181000Y-97040000D02*
X115181000Y-99090000D01*
X115221000Y-92945000D02*
X115221000Y-94960000D01*
X115221000Y-97040000D02*
X115221000Y-99055000D01*
X115261000Y-92981000D02*
X115261000Y-94960000D01*
X115261000Y-97040000D02*
X115261000Y-99019000D01*
X115301000Y-93017000D02*
X115301000Y-94960000D01*
X115301000Y-97040000D02*
X115301000Y-98983000D01*
X115341000Y-93055000D02*
X115341000Y-94960000D01*
X115341000Y-97040000D02*
X115341000Y-98945000D01*
X115381000Y-93093000D02*
X115381000Y-94960000D01*
X115381000Y-97040000D02*
X115381000Y-98907000D01*
X115421000Y-93133000D02*
X115421000Y-94960000D01*
X115421000Y-97040000D02*
X115421000Y-98867000D01*
X115461000Y-93174000D02*
X115461000Y-94960000D01*
X115461000Y-97040000D02*
X115461000Y-98826000D01*
X115501000Y-93216000D02*
X115501000Y-94960000D01*
X115501000Y-97040000D02*
X115501000Y-98784000D01*
X115541000Y-93259000D02*
X115541000Y-94960000D01*
X115541000Y-97040000D02*
X115541000Y-98741000D01*
X115581000Y-93303000D02*
X115581000Y-94960000D01*
X115581000Y-97040000D02*
X115581000Y-98697000D01*
X115621000Y-93349000D02*
X115621000Y-94960000D01*
X115621000Y-97040000D02*
X115621000Y-98651000D01*
X115661000Y-93396000D02*
X115661000Y-94960000D01*
X115661000Y-97040000D02*
X115661000Y-98604000D01*
X115701000Y-93444000D02*
X115701000Y-94960000D01*
X115701000Y-97040000D02*
X115701000Y-98556000D01*
X115741000Y-93495000D02*
X115741000Y-94960000D01*
X115741000Y-97040000D02*
X115741000Y-98505000D01*
X115781000Y-93546000D02*
X115781000Y-94960000D01*
X115781000Y-97040000D02*
X115781000Y-98454000D01*
X115821000Y-93600000D02*
X115821000Y-94960000D01*
X115821000Y-97040000D02*
X115821000Y-98400000D01*
X115861000Y-93655000D02*
X115861000Y-94960000D01*
X115861000Y-97040000D02*
X115861000Y-98345000D01*
X115901000Y-93713000D02*
X115901000Y-94960000D01*
X115901000Y-97040000D02*
X115901000Y-98287000D01*
X115941000Y-93772000D02*
X115941000Y-94960000D01*
X115941000Y-97040000D02*
X115941000Y-98228000D01*
X115981000Y-93834000D02*
X115981000Y-94960000D01*
X115981000Y-97040000D02*
X115981000Y-98166000D01*
X116021000Y-93898000D02*
X116021000Y-94960000D01*
X116021000Y-97040000D02*
X116021000Y-98102000D01*
X116061000Y-93966000D02*
X116061000Y-98034000D01*
X116101000Y-94036000D02*
X116101000Y-97964000D01*
X116141000Y-94110000D02*
X116141000Y-97890000D01*
X116181000Y-94187000D02*
X116181000Y-97813000D01*
X116221000Y-94269000D02*
X116221000Y-97731000D01*
X116261000Y-94355000D02*
X116261000Y-97645000D01*
X116301000Y-94448000D02*
X116301000Y-97552000D01*
X116341000Y-94547000D02*
X116341000Y-97453000D01*
X116381000Y-94654000D02*
X116381000Y-97346000D01*
X116421000Y-94771000D02*
X116421000Y-97229000D01*
X116461000Y-94902000D02*
X116461000Y-97098000D01*
X116501000Y-95052000D02*
X116501000Y-96948000D01*
X116541000Y-95232000D02*
X116541000Y-96768000D01*
X116581000Y-95467000D02*
X116581000Y-96533000D01*
X116620000Y-96000000D02*
G75*
G02*
X108380000Y-96000000I-4120000J0D01*
G01*
X108380000Y-96000000D02*
G75*
G02*
X116620000Y-96000000I4120000J0D01*
G01*
%TO.C,D2*%
X115780000Y-105780000D02*
X116660000Y-105780000D01*
X115780000Y-113855000D02*
X121220000Y-113855000D01*
X115780000Y-113975000D02*
X121220000Y-113975000D01*
X115780000Y-114095000D02*
X121220000Y-114095000D01*
X115780000Y-115520000D02*
X115780000Y-105780000D01*
X116660000Y-115520000D02*
X115780000Y-115520000D01*
X120340000Y-115520000D02*
X121220000Y-115520000D01*
X121220000Y-105780000D02*
X120340000Y-105780000D01*
X121220000Y-115520000D02*
X121220000Y-105780000D01*
%TO.C,R2*%
X134960000Y-68000000D02*
X135730000Y-68000000D01*
X135730000Y-66630000D02*
X135730000Y-69370000D01*
X135730000Y-69370000D02*
X142270000Y-69370000D01*
X142270000Y-66630000D02*
X135730000Y-66630000D01*
X142270000Y-69370000D02*
X142270000Y-66630000D01*
X143040000Y-68000000D02*
X142270000Y-68000000D01*
%TO.C,U2*%
X142120000Y-104180000D02*
X147880000Y-104180000D01*
X142120000Y-116440000D02*
X142120000Y-104180000D01*
X147870000Y-116440000D02*
X142130000Y-116440000D01*
X147880000Y-104180000D02*
X147880000Y-116430000D01*
X148160000Y-116720000D02*
X146550000Y-116720000D01*
X148160000Y-116720000D02*
X148160000Y-114720000D01*
%TO.C,J4*%
X150670000Y-91630000D02*
X152000000Y-91630000D01*
X150670000Y-92960000D02*
X150670000Y-91630000D01*
X150670000Y-94230000D02*
X150670000Y-109530000D01*
X150670000Y-94230000D02*
X153330000Y-94230000D01*
X150670000Y-109530000D02*
X153330000Y-109530000D01*
X153330000Y-94230000D02*
X153330000Y-109530000D01*
%TO.C,J3*%
X97700000Y-106442500D02*
X112400000Y-106442500D01*
X97700000Y-115642500D02*
X97700000Y-106442500D01*
X106500000Y-115642500D02*
X97700000Y-115642500D01*
X111550000Y-106242500D02*
X112600000Y-106242500D01*
X112400000Y-106442500D02*
X112400000Y-109042500D01*
X112400000Y-112942500D02*
X112400000Y-115642500D01*
X112400000Y-115642500D02*
X110500000Y-115642500D01*
X112600000Y-107292500D02*
X112600000Y-106242500D01*
%TO.C,R3*%
X134960000Y-84500000D02*
X135730000Y-84500000D01*
X135730000Y-83130000D02*
X135730000Y-85870000D01*
X135730000Y-85870000D02*
X142270000Y-85870000D01*
X142270000Y-83130000D02*
X135730000Y-83130000D01*
X142270000Y-85870000D02*
X142270000Y-83130000D01*
X143040000Y-84500000D02*
X142270000Y-84500000D01*
%TO.C,C1*%
X118880000Y-83130000D02*
X118880000Y-83445000D01*
X118880000Y-83130000D02*
X124120000Y-83130000D01*
X118880000Y-85555000D02*
X118880000Y-85870000D01*
X118880000Y-85870000D02*
X124120000Y-85870000D01*
X124120000Y-83130000D02*
X124120000Y-83445000D01*
X124120000Y-85555000D02*
X124120000Y-85870000D01*
%TD*%
D15*
%TO.C,J5*%
X136120000Y-109000000D03*
X128500000Y-109000000D03*
%TD*%
M02*
