%TF.GenerationSoftware,KiCad,Pcbnew,8.0.7-unknown-202501031821~9d36205ced~ubuntu20.04.1*%
%TF.CreationDate,2025-02-02T17:39:59-03:00*%
%TF.ProjectId,Wise-Shield-32,57697365-2d53-4686-9965-6c642d33322e,1*%
%TF.SameCoordinates,Original*%
%TF.FileFunction,Legend,Bot*%
%TF.FilePolarity,Positive*%
%FSLAX46Y46*%
G04 Gerber Fmt 4.6, Leading zero omitted, Abs format (unit mm)*
G04 Created by KiCad (PCBNEW 8.0.7-unknown-202501031821~9d36205ced~ubuntu20.04.1) date 2025-02-02 17:39:59*
%MOMM*%
%LPD*%
G01*
G04 APERTURE LIST*
%ADD10C,0.500000*%
%ADD11C,0.000000*%
%ADD12C,0.757107*%
%ADD13C,0.200000*%
%ADD14C,0.100000*%
%ADD15C,0.150000*%
%ADD16C,0.120000*%
G04 APERTURE END LIST*
D10*
X107000000Y-67500000D02*
G75*
G02*
X108000000Y-66500000I1000000J0D01*
G01*
X142500000Y-80500000D02*
G75*
G02*
X141500000Y-81500000I-1000000J0D01*
G01*
X146500000Y-86000000D02*
X108000000Y-86000000D01*
X100000000Y-86000000D02*
X99000000Y-86000000D01*
D11*
G36*
X127500000Y-66941665D02*
G01*
X127499998Y-66941665D01*
X127499998Y-66941662D01*
X127500000Y-66941662D01*
X127500000Y-66941665D01*
G37*
D10*
X156500000Y-113000000D02*
G75*
G02*
X155500000Y-114000000I-1000000J0D01*
G01*
X142000000Y-114000000D02*
G75*
G02*
X141000000Y-113000000I0J1000000D01*
G01*
X153500000Y-93000000D02*
G75*
G02*
X154500000Y-92000000I1000000J0D01*
G01*
X146500000Y-66500000D02*
G75*
G02*
X147500000Y-67500000I0J-1000000D01*
G01*
X108000000Y-66500000D02*
X123500000Y-66500000D01*
X156500000Y-85000000D02*
G75*
G02*
X155500000Y-86000000I-1000000J0D01*
G01*
D11*
G36*
X152616663Y-88161331D02*
G01*
X152976496Y-88161331D01*
X152976496Y-89918163D01*
X152616663Y-89918163D01*
X152616663Y-90637833D01*
X152277998Y-90637833D01*
X152277998Y-90976501D01*
X151558333Y-90976501D01*
X151558333Y-91336334D01*
X149801501Y-91336334D01*
X149801501Y-90976501D01*
X149102999Y-90976501D01*
X149102999Y-90637836D01*
X148743166Y-90637836D01*
X148743166Y-89918167D01*
X149441668Y-89918167D01*
X149441668Y-89579498D01*
X150500000Y-89579498D01*
X150500000Y-89219665D01*
X151219666Y-89219665D01*
X151219666Y-88859833D01*
X150500000Y-88859833D01*
X150500000Y-88500000D01*
X149441668Y-88500000D01*
X149441668Y-88161335D01*
X148743166Y-88161335D01*
X148743166Y-87441669D01*
X150859833Y-87441669D01*
X150859833Y-87801502D01*
X151219666Y-87801502D01*
X151219666Y-87441669D01*
X150859833Y-87441669D01*
X148743166Y-87441669D01*
X148743166Y-87441666D01*
X149102999Y-87441666D01*
X149102999Y-87102997D01*
X149801501Y-87102997D01*
X149801501Y-86743164D01*
X151558333Y-86743164D01*
X151558333Y-87102997D01*
X152277998Y-87102997D01*
X152277998Y-87441662D01*
X152616663Y-87441662D01*
X152616663Y-87801502D01*
X152616663Y-88161331D01*
G37*
D10*
X154500000Y-86000000D02*
G75*
G02*
X153500000Y-85000000I0J1000000D01*
G01*
X147500000Y-85000000D02*
G75*
G02*
X146500000Y-86000000I-1000000J0D01*
G01*
X153500000Y-67500000D02*
G75*
G02*
X154500000Y-66500000I1000000J0D01*
G01*
X98000000Y-116500000D02*
X98000000Y-93000000D01*
X113000000Y-81500000D02*
G75*
G02*
X112000000Y-80500000I0J1000000D01*
G01*
X154500000Y-66500000D02*
X155500000Y-66500000D01*
X99000000Y-66500000D02*
X100000000Y-66500000D01*
D11*
G36*
X140026829Y-115589832D02*
G01*
X139709328Y-115589832D01*
X139709328Y-115293499D01*
X140026829Y-115293499D01*
X140026829Y-115589832D01*
G37*
D12*
X108878553Y-63500000D02*
G75*
G02*
X108121447Y-63500000I-378553J0D01*
G01*
X108121447Y-63500000D02*
G75*
G02*
X108878553Y-63500000I378553J0D01*
G01*
D10*
X146500000Y-92000000D02*
G75*
G02*
X147500000Y-93000000I0J-1000000D01*
G01*
X136000000Y-119500000D02*
G75*
G02*
X135000000Y-118500000I0J1000000D01*
G01*
D11*
G36*
X104142999Y-62192837D02*
G01*
X105307165Y-62192837D01*
X105307165Y-62573830D01*
X104905001Y-62573830D01*
X104905001Y-62954826D01*
X105307165Y-62954826D01*
X105307165Y-62573833D01*
X105688166Y-62573833D01*
X105688166Y-62954830D01*
X106069166Y-62954830D01*
X106069166Y-64500000D01*
X105688166Y-64500000D01*
X105688166Y-65262001D01*
X105307165Y-65262001D01*
X105307165Y-65664169D01*
X104905001Y-65664169D01*
X104905001Y-66045166D01*
X104142999Y-66045166D01*
X104142999Y-66426163D01*
X103761999Y-66426163D01*
X103762001Y-66235664D01*
X103762001Y-66045166D01*
X103000000Y-66045166D01*
X103000000Y-65664169D01*
X102597832Y-65664169D01*
X102597832Y-65664165D01*
X102597832Y-65262001D01*
X102216832Y-65262001D01*
X102216832Y-65261997D01*
X103381001Y-65261997D01*
X103381001Y-65664165D01*
X103762001Y-65664165D01*
X103762001Y-65261997D01*
X104524000Y-65261997D01*
X104524000Y-65664165D01*
X104905001Y-65664165D01*
X104905001Y-65261997D01*
X104524000Y-65261997D01*
X103762001Y-65261997D01*
X103381001Y-65261997D01*
X102216832Y-65261997D01*
X102216832Y-64880997D01*
X102216832Y-64500000D01*
X102597832Y-64500000D01*
X102597832Y-64880997D01*
X103000000Y-64880997D01*
X103000000Y-64500000D01*
X103761999Y-64500000D01*
X103761999Y-64880997D01*
X104142999Y-64880997D01*
X104142999Y-64500000D01*
X103761999Y-64500000D01*
X103000000Y-64500000D01*
X102597832Y-64500000D01*
X102216832Y-64500000D01*
X101835831Y-64500000D01*
X101835831Y-64499996D01*
X101835831Y-64118999D01*
X104905001Y-64118999D01*
X104905001Y-64499996D01*
X105307165Y-64499996D01*
X105307165Y-64118999D01*
X104905001Y-64118999D01*
X101835831Y-64118999D01*
X101835831Y-64118996D01*
X101835831Y-63737999D01*
X103000000Y-63737999D01*
X103000000Y-64118996D01*
X103381001Y-64118996D01*
X103381001Y-63737999D01*
X104142999Y-63737999D01*
X104142999Y-64118996D01*
X104524000Y-64118996D01*
X104524000Y-63737999D01*
X104142999Y-63737999D01*
X103381001Y-63737999D01*
X103000000Y-63737999D01*
X101835831Y-63737999D01*
X101835831Y-63737995D01*
X101835831Y-63356998D01*
X102216833Y-63356998D01*
X102216833Y-63737995D01*
X102597834Y-63737995D01*
X102597834Y-63356998D01*
X105307165Y-63356998D01*
X105307165Y-63737995D01*
X105688166Y-63737995D01*
X105688166Y-63356998D01*
X105307165Y-63356998D01*
X102597834Y-63356998D01*
X102216833Y-63356998D01*
X101835831Y-63356998D01*
X101835831Y-63356995D01*
X101835831Y-62954830D01*
X102216832Y-62954830D01*
X102216832Y-62573833D01*
X102597832Y-62573833D01*
X102597832Y-62954826D01*
X103000000Y-62954826D01*
X103000000Y-63356995D01*
X103762001Y-63356995D01*
X103762001Y-62954826D01*
X104142999Y-62954826D01*
X104142999Y-63356995D01*
X104905001Y-63356995D01*
X104905001Y-62954826D01*
X104142999Y-62954826D01*
X103762001Y-62954826D01*
X103000000Y-62954826D01*
X103000000Y-62573830D01*
X102597832Y-62573830D01*
X102597832Y-62192837D01*
X103761999Y-62192837D01*
X103761999Y-61811840D01*
X104142999Y-61811840D01*
X104142999Y-62192837D01*
G37*
D10*
X107000000Y-85000000D02*
X107000000Y-67500000D01*
D12*
X99878553Y-89000000D02*
G75*
G02*
X99121447Y-89000000I-378553J0D01*
G01*
X99121447Y-89000000D02*
G75*
G02*
X99878553Y-89000000I378553J0D01*
G01*
D13*
X123125000Y-108400000D02*
X121875000Y-107700000D01*
X123125000Y-114200000D02*
X125375000Y-111800000D01*
X124375000Y-107700000D02*
X124375000Y-111800000D01*
D12*
X145378553Y-79000000D02*
G75*
G02*
X144621447Y-79000000I-378553J0D01*
G01*
X144621447Y-79000000D02*
G75*
G02*
X145378553Y-79000000I378553J0D01*
G01*
D10*
X134000000Y-92000000D02*
G75*
G02*
X135000000Y-93000000I0J-1000000D01*
G01*
X99000000Y-86000000D02*
G75*
G02*
X98000000Y-85000000I0J1000000D01*
G01*
X101000000Y-85000000D02*
G75*
G02*
X100000000Y-86000000I-1000000J0D01*
G01*
X112000000Y-80500000D02*
X112000000Y-72000000D01*
X146500000Y-114000000D02*
X142000000Y-114000000D01*
D11*
G36*
X151227664Y-70676830D02*
G01*
X151820330Y-70676830D01*
X151820330Y-70994328D01*
X152116664Y-70994328D01*
X152116664Y-71290661D01*
X152434161Y-71290661D01*
X152434161Y-71883328D01*
X152730494Y-71883328D01*
X152730494Y-74317497D01*
X152434161Y-74317497D01*
X152434161Y-74613830D01*
X151820326Y-74613830D01*
X151820326Y-74317497D01*
X151523993Y-74317497D01*
X151523993Y-74000000D01*
X151227660Y-74000000D01*
X151227660Y-74317497D01*
X150910163Y-74317497D01*
X150910163Y-74613830D01*
X150317497Y-74613830D01*
X150317497Y-74317497D01*
X150000000Y-74317497D01*
X150000000Y-74000000D01*
X149703666Y-74000000D01*
X149703666Y-74317497D01*
X149407333Y-74317497D01*
X149407333Y-74613830D01*
X148793501Y-74613830D01*
X148793506Y-74465663D01*
X148793506Y-74317497D01*
X148497173Y-74317497D01*
X148497173Y-72497166D01*
X149111005Y-72497166D01*
X149407337Y-72497166D01*
X149407339Y-72348999D01*
X149407339Y-72200832D01*
X150000004Y-72200832D01*
X150000004Y-72497166D01*
X150317501Y-72497166D01*
X150910174Y-72497166D01*
X151227671Y-72497166D01*
X151227671Y-72200832D01*
X151820338Y-72200832D01*
X151820338Y-72497166D01*
X152116671Y-72497166D01*
X152116671Y-71587002D01*
X151820338Y-71587002D01*
X151820338Y-71290669D01*
X151227671Y-71290669D01*
X151227671Y-71587002D01*
X150910174Y-71587002D01*
X150910174Y-72497166D01*
X150317501Y-72497166D01*
X150317501Y-71587002D01*
X150000004Y-71587002D01*
X150000004Y-71290669D01*
X149407337Y-71290669D01*
X149407337Y-71587002D01*
X149111005Y-71587002D01*
X149111005Y-72497166D01*
X148497173Y-72497166D01*
X148497173Y-71883328D01*
X148793506Y-71883328D01*
X148793506Y-71587002D01*
X148793506Y-71290661D01*
X149111007Y-71290661D01*
X149111007Y-70994328D01*
X149407339Y-70994328D01*
X149407339Y-70676830D01*
X150000004Y-70676830D01*
X150000004Y-70380497D01*
X151227664Y-70380497D01*
X151227664Y-70676830D01*
G37*
D14*
X136250000Y-73250000D02*
X135500000Y-72000000D01*
X137000000Y-72000000D01*
X136250000Y-73250000D01*
G36*
X136250000Y-73250000D02*
G01*
X135500000Y-72000000D01*
X137000000Y-72000000D01*
X136250000Y-73250000D01*
G37*
D10*
X141500000Y-71000000D02*
G75*
G02*
X142500000Y-72000000I0J-1000000D01*
G01*
D13*
X125375000Y-111800000D02*
X124375000Y-111800000D01*
D10*
X112000000Y-72000000D02*
G75*
G02*
X113000000Y-71000000I1000000J0D01*
G01*
D11*
G36*
X129616669Y-66581833D02*
G01*
X128918169Y-66581833D01*
X128918169Y-67301502D01*
X128558336Y-67301502D01*
X128558336Y-67640167D01*
X128198503Y-67640167D01*
X128198503Y-68000000D01*
X128918173Y-68000000D01*
X128918173Y-68359832D01*
X129256840Y-68359832D01*
X129256840Y-69756836D01*
X128918173Y-69756836D01*
X128918173Y-70116668D01*
X127500004Y-70116668D01*
X127500000Y-69936752D01*
X127500000Y-69756836D01*
X127140167Y-69756836D01*
X127140167Y-69418167D01*
X127140167Y-69058334D01*
X127499996Y-69058334D01*
X127499996Y-69418167D01*
X127859831Y-69418167D01*
X127859831Y-69756836D01*
X128198499Y-69756836D01*
X128198499Y-69418167D01*
X127859831Y-69418167D01*
X127859831Y-69058334D01*
X127499996Y-69058334D01*
X127140167Y-69058334D01*
X127140167Y-68359832D01*
X126801500Y-68359832D01*
X126801500Y-69418163D01*
X125743168Y-69418163D01*
X125743168Y-69058334D01*
X125743168Y-69058330D01*
X125383331Y-69058330D01*
X125383331Y-68698501D01*
X125383331Y-68359832D01*
X125743168Y-68359832D01*
X125743168Y-68698501D01*
X126081834Y-68698501D01*
X126081834Y-69058334D01*
X126441667Y-69058334D01*
X126441667Y-68698501D01*
X126081834Y-68698501D01*
X126081834Y-68359832D01*
X125743168Y-68359832D01*
X125383331Y-68359832D01*
X125383331Y-67640163D01*
X125743168Y-67640163D01*
X125743168Y-67301498D01*
X127140165Y-67301498D01*
X127140165Y-67640159D01*
X127499998Y-67640159D01*
X127499998Y-67999992D01*
X127140165Y-67999992D01*
X127140165Y-68359825D01*
X127499998Y-68359825D01*
X127500000Y-68179916D01*
X127500000Y-68000000D01*
X127859834Y-68000000D01*
X127859834Y-67640167D01*
X128198499Y-67640167D01*
X128198499Y-67301498D01*
X128558332Y-67301498D01*
X128558332Y-66581829D01*
X128198499Y-66581829D01*
X128198499Y-66243164D01*
X128918169Y-66243164D01*
X128918169Y-65883331D01*
X129616669Y-65883331D01*
X129616669Y-66581833D01*
G37*
D10*
X147500000Y-67500000D02*
X147500000Y-85000000D01*
D12*
X104378553Y-84000000D02*
G75*
G02*
X103621447Y-84000000I-378553J0D01*
G01*
X103621447Y-84000000D02*
G75*
G02*
X104378553Y-84000000I378553J0D01*
G01*
X109878553Y-73500000D02*
G75*
G02*
X109121447Y-73500000I-378553J0D01*
G01*
X109121447Y-73500000D02*
G75*
G02*
X109878553Y-73500000I378553J0D01*
G01*
X129878553Y-84000000D02*
G75*
G02*
X129121447Y-84000000I-378553J0D01*
G01*
X129121447Y-84000000D02*
G75*
G02*
X129878553Y-84000000I378553J0D01*
G01*
D10*
X153500000Y-119500000D02*
X136000000Y-119500000D01*
X98000000Y-67500000D02*
G75*
G02*
X99000000Y-66500000I1000000J0D01*
G01*
D12*
X104378553Y-79000000D02*
G75*
G02*
X103621447Y-79000000I-378553J0D01*
G01*
X103621447Y-79000000D02*
G75*
G02*
X104378553Y-79000000I378553J0D01*
G01*
D13*
X121875000Y-107700000D02*
X121875000Y-111800000D01*
D10*
X101000000Y-67500000D02*
X101000000Y-85000000D01*
D11*
G36*
X127499998Y-67301494D02*
G01*
X127140167Y-67301494D01*
X127140167Y-66941665D01*
X127499998Y-66941665D01*
X127499998Y-67301494D01*
G37*
D13*
X123125000Y-114200000D02*
X120875000Y-111800000D01*
D12*
X140378553Y-84000000D02*
G75*
G02*
X139621447Y-84000000I-378553J0D01*
G01*
X139621447Y-84000000D02*
G75*
G02*
X140378553Y-84000000I378553J0D01*
G01*
D13*
X124375000Y-107700000D02*
X123125000Y-108400000D01*
D10*
X154500000Y-114000000D02*
G75*
G02*
X153500000Y-113000000I0J1000000D01*
G01*
X154500000Y-92000000D02*
X155500000Y-92000000D01*
X98000000Y-85000000D02*
X98000000Y-67500000D01*
X153500000Y-85000000D02*
X153500000Y-67500000D01*
X155500000Y-114000000D02*
X154500000Y-114000000D01*
D12*
X120878553Y-68500000D02*
G75*
G02*
X120121447Y-68500000I-378553J0D01*
G01*
X120121447Y-68500000D02*
G75*
G02*
X120878553Y-68500000I378553J0D01*
G01*
D10*
X141000000Y-113000000D02*
X141000000Y-93000000D01*
X155500000Y-66500000D02*
G75*
G02*
X156500000Y-67500000I0J-1000000D01*
G01*
X155500000Y-92000000D02*
G75*
G02*
X156500000Y-93000000I0J-1000000D01*
G01*
X156500000Y-67500000D02*
X156500000Y-85000000D01*
X156500000Y-93000000D02*
X156500000Y-113000000D01*
D12*
X145378553Y-73500000D02*
G75*
G02*
X144621447Y-73500000I-378553J0D01*
G01*
X144621447Y-73500000D02*
G75*
G02*
X145378553Y-73500000I378553J0D01*
G01*
D10*
X147500000Y-93000000D02*
X147500000Y-113000000D01*
X142000000Y-92000000D02*
X146500000Y-92000000D01*
X141500000Y-81500000D02*
X113000000Y-81500000D01*
D12*
X109878553Y-79000000D02*
G75*
G02*
X109121447Y-79000000I-378553J0D01*
G01*
X109121447Y-79000000D02*
G75*
G02*
X109878553Y-79000000I378553J0D01*
G01*
D10*
X142500000Y-72000000D02*
X142500000Y-80500000D01*
X147500000Y-113000000D02*
G75*
G02*
X146500000Y-114000000I-1000000J0D01*
G01*
D11*
G36*
X138820328Y-114679668D02*
G01*
X139412995Y-114679668D01*
X139412995Y-114997166D01*
X139709328Y-114997166D01*
X139709328Y-115293499D01*
X139116660Y-115293499D01*
X139116660Y-115589832D01*
X138820328Y-115589832D01*
X138820328Y-116499996D01*
X139116660Y-116499996D01*
X139116660Y-116796329D01*
X139709328Y-116796329D01*
X139709328Y-116499996D01*
X139412995Y-116499996D01*
X139412995Y-115886162D01*
X140323162Y-115886162D01*
X140323162Y-118320331D01*
X140026831Y-118320331D01*
X140026831Y-118468498D01*
X140026825Y-118616668D01*
X139412991Y-118616668D01*
X139412991Y-118320335D01*
X139116660Y-118320335D01*
X139116660Y-118002838D01*
X138820328Y-118002838D01*
X138820328Y-118320335D01*
X138502827Y-118320335D01*
X138502827Y-118616668D01*
X137910159Y-118616668D01*
X137910159Y-118320335D01*
X137592657Y-118320335D01*
X137592657Y-118002838D01*
X137296326Y-118002838D01*
X137296326Y-118320335D01*
X136999995Y-118320335D01*
X136999995Y-118616668D01*
X136386160Y-118616668D01*
X136386160Y-118320335D01*
X136089829Y-118320335D01*
X136089829Y-116500000D01*
X137000000Y-116500000D01*
X137296332Y-116500000D01*
X137296332Y-116796337D01*
X137910164Y-116796337D01*
X137910164Y-116500003D01*
X137592663Y-116500003D01*
X137592663Y-115886169D01*
X138206498Y-115886169D01*
X138206498Y-115589836D01*
X137910164Y-115589836D01*
X137910164Y-115293503D01*
X137296332Y-115293503D01*
X137296332Y-115589836D01*
X137000000Y-115589836D01*
X137000000Y-116500000D01*
X136089829Y-116500000D01*
X136089829Y-115886165D01*
X136386160Y-115886165D01*
X136386160Y-115589836D01*
X136386160Y-115293499D01*
X136703661Y-115293499D01*
X136703661Y-114997166D01*
X136999995Y-114997166D01*
X136999995Y-114679668D01*
X137592661Y-114679668D01*
X137592661Y-114383335D01*
X138820328Y-114383335D01*
X138820328Y-114679668D01*
G37*
D10*
X134000000Y-92000000D02*
X99000000Y-92000000D01*
X155500000Y-86000000D02*
X154500000Y-86000000D01*
X141000000Y-93000000D02*
G75*
G02*
X142000000Y-92000000I1000000J0D01*
G01*
X135000000Y-93000000D02*
X135000000Y-118500000D01*
D11*
G36*
X106116665Y-87065832D02*
G01*
X106709332Y-87065832D01*
X106709332Y-87383333D01*
X107005665Y-87383333D01*
X107005665Y-87679667D01*
X107323162Y-87679667D01*
X107323162Y-88272333D01*
X107619496Y-88272333D01*
X107619496Y-90706501D01*
X107323162Y-90706501D01*
X107323162Y-91002834D01*
X106709328Y-91002834D01*
X106709328Y-90706501D01*
X106412995Y-90706501D01*
X106412995Y-90389004D01*
X106116663Y-90389004D01*
X106116663Y-90706501D01*
X105799162Y-90706501D01*
X105799162Y-91002834D01*
X105206494Y-91002834D01*
X105206494Y-90706501D01*
X104888993Y-90706501D01*
X104888993Y-90389004D01*
X104592661Y-90389004D01*
X104592661Y-90706501D01*
X104296328Y-90706501D01*
X104296328Y-91002834D01*
X103682495Y-91002834D01*
X103682497Y-90854667D01*
X103682497Y-90706501D01*
X103386166Y-90706501D01*
X103386166Y-90092667D01*
X103386166Y-89796333D01*
X103386166Y-89500000D01*
X104000000Y-89500000D01*
X104000000Y-89796333D01*
X104296332Y-89796333D01*
X104296332Y-90092667D01*
X104592665Y-90092667D01*
X104592665Y-89796333D01*
X104888997Y-89796333D01*
X104888997Y-89500000D01*
X105206498Y-89500000D01*
X105206498Y-89796333D01*
X105502829Y-89796333D01*
X105502829Y-90092667D01*
X105799162Y-90092667D01*
X105799162Y-89796333D01*
X106116663Y-89796333D01*
X106116663Y-89500000D01*
X106412995Y-89500000D01*
X106412995Y-89796333D01*
X106709328Y-89796333D01*
X106709328Y-90092667D01*
X107005661Y-90092667D01*
X107005661Y-89796333D01*
X107323159Y-89796333D01*
X107323159Y-89500000D01*
X107005661Y-89500000D01*
X107005661Y-89796333D01*
X106709328Y-89796333D01*
X106709328Y-89500000D01*
X106412995Y-89500000D01*
X106412995Y-89182503D01*
X106116663Y-89182503D01*
X106116663Y-89500000D01*
X105799162Y-89500000D01*
X105799162Y-89796333D01*
X105502829Y-89796333D01*
X105502829Y-89500000D01*
X105206498Y-89500000D01*
X105206498Y-89182503D01*
X104888997Y-89182503D01*
X104888997Y-89500000D01*
X104592665Y-89500000D01*
X104592665Y-89796333D01*
X104296332Y-89796333D01*
X104296332Y-89500000D01*
X104000000Y-89500000D01*
X103386166Y-89500000D01*
X103386166Y-88589832D01*
X103386166Y-88272333D01*
X103682497Y-88272333D01*
X103682497Y-87976000D01*
X104592665Y-87976000D01*
X104592665Y-88589832D01*
X105206498Y-88589832D01*
X105206498Y-87976000D01*
X105799166Y-87976000D01*
X105799166Y-88589832D01*
X106412999Y-88589832D01*
X106412999Y-87976000D01*
X105799166Y-87976000D01*
X105206498Y-87976000D01*
X104592665Y-87976000D01*
X103682497Y-87976000D01*
X103682497Y-87679667D01*
X103999998Y-87679667D01*
X103999998Y-87383333D01*
X104296330Y-87383333D01*
X104296330Y-87065832D01*
X104888998Y-87065832D01*
X104888998Y-86769501D01*
X106116665Y-86769501D01*
X106116665Y-87065832D01*
G37*
D12*
X144878553Y-117000000D02*
G75*
G02*
X144121447Y-117000000I-378553J0D01*
G01*
X144121447Y-117000000D02*
G75*
G02*
X144878553Y-117000000I378553J0D01*
G01*
D11*
G36*
X127140167Y-67301498D02*
G01*
X127140165Y-67301498D01*
X127140165Y-67301494D01*
X127140167Y-67301494D01*
X127140167Y-67301498D01*
G37*
D10*
X108000000Y-86000000D02*
G75*
G02*
X107000000Y-85000000I0J1000000D01*
G01*
D13*
X120875000Y-111800000D02*
X121875000Y-111800000D01*
D10*
X153500000Y-113000000D02*
X153500000Y-93000000D01*
D11*
G36*
X128198499Y-66941662D02*
G01*
X127500000Y-66941662D01*
X127500000Y-66581833D01*
X128198499Y-66581833D01*
X128198499Y-66941662D01*
G37*
D10*
X98000000Y-93000000D02*
G75*
G02*
X99000000Y-92000000I1000000J0D01*
G01*
X100000000Y-66500000D02*
G75*
G02*
X101000000Y-67500000I0J-1000000D01*
G01*
D12*
X104378553Y-73500000D02*
G75*
G02*
X103621447Y-73500000I-378553J0D01*
G01*
X103621447Y-73500000D02*
G75*
G02*
X104378553Y-73500000I378553J0D01*
G01*
D10*
X131500000Y-66500000D02*
X146500000Y-66500000D01*
D12*
X132378553Y-68500000D02*
G75*
G02*
X131621447Y-68500000I-378553J0D01*
G01*
X131621447Y-68500000D02*
G75*
G02*
X132378553Y-68500000I378553J0D01*
G01*
X140378553Y-68500000D02*
G75*
G02*
X139621447Y-68500000I-378553J0D01*
G01*
X139621447Y-68500000D02*
G75*
G02*
X140378553Y-68500000I378553J0D01*
G01*
D10*
X113000000Y-71000000D02*
X141500000Y-71000000D01*
D12*
X104378553Y-68500000D02*
G75*
G02*
X103621447Y-68500000I-378553J0D01*
G01*
X103621447Y-68500000D02*
G75*
G02*
X104378553Y-68500000I378553J0D01*
G01*
D13*
X99091695Y-77436339D02*
X99282171Y-77436339D01*
X99205980Y-77245863D02*
X99282171Y-77436339D01*
X99282171Y-77436339D02*
X99205980Y-77626816D01*
X99434552Y-77322054D02*
X99282171Y-77436339D01*
X99282171Y-77436339D02*
X99434552Y-77550625D01*
X99091695Y-78045863D02*
X99282171Y-78045863D01*
X99205980Y-77855387D02*
X99282171Y-78045863D01*
X99282171Y-78045863D02*
X99205980Y-78236340D01*
X99434552Y-77931578D02*
X99282171Y-78045863D01*
X99282171Y-78045863D02*
X99434552Y-78160149D01*
G36*
X111332990Y-118978641D02*
G01*
X111348137Y-118993788D01*
X111368418Y-119034348D01*
X111368418Y-119215707D01*
X111348138Y-119256266D01*
X111332989Y-119271415D01*
X111292430Y-119291695D01*
X111187465Y-119291695D01*
X111187465Y-118958361D01*
X111292430Y-118958361D01*
X111332990Y-118978641D01*
G37*
G36*
X102723463Y-118978641D02*
G01*
X102738610Y-118993788D01*
X102758891Y-119034348D01*
X102758891Y-119215707D01*
X102738611Y-119256266D01*
X102723462Y-119271415D01*
X102682903Y-119291695D01*
X102577938Y-119291695D01*
X102577938Y-118958361D01*
X102682903Y-118958361D01*
X102723463Y-118978641D01*
G37*
G36*
X103965307Y-119199563D02*
G01*
X103977939Y-119224826D01*
X103977939Y-119253801D01*
X103965307Y-119279064D01*
X103940046Y-119291695D01*
X103796986Y-119291695D01*
X103796986Y-119186933D01*
X103940046Y-119186933D01*
X103965307Y-119199563D01*
G37*
G36*
X104666321Y-118978641D02*
G01*
X104681468Y-118993788D01*
X104701749Y-119034348D01*
X104701749Y-119215707D01*
X104681469Y-119256266D01*
X104666320Y-119271415D01*
X104625761Y-119291695D01*
X104558689Y-119291695D01*
X104518127Y-119271414D01*
X104502981Y-119256268D01*
X104482701Y-119215707D01*
X104482701Y-119034349D01*
X104502981Y-118993788D01*
X104518127Y-118978641D01*
X104558690Y-118958361D01*
X104625761Y-118958361D01*
X104666321Y-118978641D01*
G37*
G36*
X105387463Y-119291695D02*
G01*
X105282499Y-119291695D01*
X105241937Y-119271414D01*
X105226791Y-119256268D01*
X105206511Y-119215707D01*
X105206511Y-119034349D01*
X105226791Y-118993788D01*
X105241937Y-118978641D01*
X105282500Y-118958361D01*
X105387463Y-118958361D01*
X105387463Y-119291695D01*
G37*
G36*
X109999656Y-118978641D02*
G01*
X110014803Y-118993788D01*
X110035084Y-119034348D01*
X110035084Y-119215707D01*
X110014804Y-119256266D01*
X109999655Y-119271415D01*
X109959096Y-119291695D01*
X109892024Y-119291695D01*
X109851462Y-119271414D01*
X109836316Y-119256268D01*
X109816036Y-119215707D01*
X109816036Y-119034349D01*
X109836316Y-118993788D01*
X109851462Y-118978641D01*
X109892025Y-118958361D01*
X109959096Y-118958361D01*
X109999656Y-118978641D01*
G37*
G36*
X113831977Y-119199563D02*
G01*
X113844609Y-119224826D01*
X113844609Y-119253801D01*
X113831977Y-119279064D01*
X113806716Y-119291695D01*
X113663656Y-119291695D01*
X113663656Y-119186933D01*
X113806716Y-119186933D01*
X113831977Y-119199563D01*
G37*
G36*
X116193883Y-118970992D02*
G01*
X116206514Y-118996253D01*
X116206514Y-119003047D01*
X116040489Y-118969843D01*
X116063455Y-118958361D01*
X116168621Y-118958361D01*
X116193883Y-118970992D01*
G37*
G36*
X120399659Y-118978641D02*
G01*
X120414806Y-118993788D01*
X120435087Y-119034348D01*
X120435087Y-119215707D01*
X120414807Y-119256266D01*
X120399658Y-119271415D01*
X120359099Y-119291695D01*
X120254134Y-119291695D01*
X120254134Y-118958361D01*
X120359099Y-118958361D01*
X120399659Y-118978641D01*
G37*
G36*
X121108170Y-118970992D02*
G01*
X121120801Y-118996253D01*
X121120801Y-119003047D01*
X120954776Y-118969843D01*
X120977742Y-118958361D01*
X121082908Y-118958361D01*
X121108170Y-118970992D01*
G37*
G36*
X123393884Y-119199563D02*
G01*
X123406516Y-119224826D01*
X123406516Y-119253801D01*
X123393884Y-119279064D01*
X123368623Y-119291695D01*
X123225563Y-119291695D01*
X123225563Y-119186933D01*
X123368623Y-119186933D01*
X123393884Y-119199563D01*
G37*
G36*
X125412933Y-118970992D02*
G01*
X125425564Y-118996253D01*
X125425564Y-119003047D01*
X125259539Y-118969843D01*
X125282505Y-118958361D01*
X125387671Y-118958361D01*
X125412933Y-118970992D01*
G37*
G36*
X126593885Y-118970992D02*
G01*
X126606516Y-118996253D01*
X126606516Y-119003047D01*
X126440491Y-118969843D01*
X126463457Y-118958361D01*
X126568623Y-118958361D01*
X126593885Y-118970992D01*
G37*
G36*
X130113946Y-118978641D02*
G01*
X130129093Y-118993788D01*
X130149374Y-119034348D01*
X130149374Y-119215707D01*
X130129094Y-119256266D01*
X130113945Y-119271415D01*
X130073386Y-119291695D01*
X130006314Y-119291695D01*
X129965752Y-119271414D01*
X129950606Y-119256268D01*
X129930326Y-119215707D01*
X129930326Y-119034349D01*
X129950606Y-118993788D01*
X129965752Y-118978641D01*
X130006315Y-118958361D01*
X130073386Y-118958361D01*
X130113946Y-118978641D01*
G37*
G36*
X132460552Y-118970992D02*
G01*
X132473183Y-118996253D01*
X132473183Y-119003047D01*
X132307158Y-118969843D01*
X132330124Y-118958361D01*
X132435290Y-118958361D01*
X132460552Y-118970992D01*
G37*
G36*
X133877945Y-119858361D02*
G01*
X101860811Y-119858361D01*
X101860811Y-119334091D01*
X101960811Y-119334091D01*
X101960811Y-119373109D01*
X101966240Y-119386215D01*
X101975743Y-119409158D01*
X101975747Y-119409162D01*
X101988179Y-119424311D01*
X102026274Y-119462405D01*
X102041427Y-119474842D01*
X102050430Y-119478571D01*
X102077476Y-119489774D01*
X102116493Y-119489774D01*
X102116494Y-119489774D01*
X102137343Y-119481138D01*
X102152541Y-119474843D01*
X102167695Y-119462407D01*
X102205791Y-119424312D01*
X102218227Y-119409159D01*
X102222716Y-119398322D01*
X102233160Y-119373109D01*
X102233160Y-119334091D01*
X102222716Y-119308878D01*
X102218229Y-119298044D01*
X102218228Y-119298043D01*
X102205792Y-119282889D01*
X102167696Y-119244793D01*
X102152542Y-119232357D01*
X102152541Y-119232356D01*
X102126276Y-119221477D01*
X102116494Y-119217425D01*
X102077476Y-119217425D01*
X102041428Y-119232357D01*
X102041426Y-119232358D01*
X102026273Y-119244794D01*
X101988178Y-119282890D01*
X101975742Y-119298044D01*
X101971255Y-119308878D01*
X101960811Y-119334091D01*
X101860811Y-119334091D01*
X101860811Y-118591695D01*
X102377938Y-118591695D01*
X102377938Y-119391695D01*
X102379859Y-119411204D01*
X102394791Y-119447252D01*
X102422381Y-119474842D01*
X102458429Y-119489774D01*
X102497447Y-119489774D01*
X102514027Y-119482905D01*
X102527717Y-119488144D01*
X102531299Y-119488398D01*
X102534620Y-119489774D01*
X102554129Y-119491695D01*
X102706510Y-119491695D01*
X102726019Y-119489774D01*
X102729339Y-119488398D01*
X102732923Y-119488144D01*
X102751231Y-119481138D01*
X102827421Y-119443043D01*
X102835817Y-119437757D01*
X102838258Y-119436747D01*
X102841003Y-119434493D01*
X102844012Y-119432600D01*
X102845743Y-119430603D01*
X102853412Y-119424310D01*
X102891506Y-119386214D01*
X102897798Y-119378546D01*
X102899794Y-119376816D01*
X102901686Y-119373809D01*
X102903943Y-119371060D01*
X102904954Y-119368617D01*
X102910237Y-119360226D01*
X102948333Y-119284037D01*
X102955340Y-119265728D01*
X102955594Y-119262142D01*
X102956970Y-119258823D01*
X102958891Y-119239314D01*
X102958891Y-119010742D01*
X102956970Y-118991233D01*
X102955594Y-118987913D01*
X102955340Y-118984328D01*
X102948333Y-118966019D01*
X102910237Y-118889830D01*
X102904953Y-118881437D01*
X102903942Y-118878994D01*
X102901685Y-118876244D01*
X102899794Y-118873240D01*
X102897799Y-118871510D01*
X102891505Y-118863841D01*
X102866517Y-118838852D01*
X102989383Y-118838852D01*
X102989383Y-118877870D01*
X103004315Y-118913918D01*
X103031905Y-118941508D01*
X103067953Y-118956440D01*
X103087462Y-118958361D01*
X103140046Y-118958361D01*
X103180605Y-118978641D01*
X103195752Y-118993787D01*
X103216033Y-119034349D01*
X103216033Y-119391695D01*
X103217954Y-119411204D01*
X103232886Y-119447252D01*
X103260476Y-119474842D01*
X103296524Y-119489774D01*
X103335542Y-119489774D01*
X103371590Y-119474842D01*
X103399180Y-119447252D01*
X103414112Y-119411204D01*
X103416033Y-119391695D01*
X103416033Y-118972647D01*
X103596986Y-118972647D01*
X103596986Y-119391695D01*
X103598907Y-119411204D01*
X103613839Y-119447252D01*
X103641429Y-119474842D01*
X103677477Y-119489774D01*
X103716495Y-119489774D01*
X103733075Y-119482905D01*
X103746765Y-119488144D01*
X103750347Y-119488398D01*
X103753668Y-119489774D01*
X103773177Y-119491695D01*
X103963653Y-119491695D01*
X103983162Y-119489774D01*
X103986482Y-119488398D01*
X103990066Y-119488144D01*
X104008374Y-119481138D01*
X104084564Y-119443043D01*
X104087827Y-119440988D01*
X104089366Y-119440476D01*
X104091281Y-119438814D01*
X104101155Y-119432600D01*
X104109370Y-119423127D01*
X104118843Y-119414912D01*
X104125056Y-119405039D01*
X104126719Y-119403123D01*
X104127232Y-119401583D01*
X104129285Y-119398322D01*
X104167381Y-119322131D01*
X104174388Y-119303823D01*
X104174642Y-119300237D01*
X104176018Y-119296918D01*
X104177939Y-119277409D01*
X104177939Y-119201219D01*
X104176018Y-119181710D01*
X104174642Y-119178390D01*
X104174388Y-119174805D01*
X104167381Y-119156497D01*
X104129285Y-119080306D01*
X104127232Y-119077044D01*
X104126719Y-119075505D01*
X104125056Y-119073588D01*
X104118843Y-119063716D01*
X104109370Y-119055500D01*
X104101155Y-119046028D01*
X104091281Y-119039813D01*
X104089366Y-119038152D01*
X104087827Y-119037639D01*
X104084564Y-119035585D01*
X104034878Y-119010742D01*
X104282701Y-119010742D01*
X104282701Y-119239314D01*
X104284622Y-119258823D01*
X104285997Y-119262143D01*
X104286252Y-119265727D01*
X104293258Y-119284035D01*
X104331353Y-119360225D01*
X104336637Y-119368621D01*
X104337648Y-119371060D01*
X104339901Y-119373805D01*
X104341796Y-119376816D01*
X104343792Y-119378547D01*
X104350084Y-119386214D01*
X104388179Y-119424310D01*
X104395850Y-119430606D01*
X104397580Y-119432600D01*
X104400585Y-119434491D01*
X104403332Y-119436746D01*
X104405772Y-119437756D01*
X104414170Y-119443043D01*
X104490361Y-119481138D01*
X104508670Y-119488144D01*
X104512252Y-119488398D01*
X104515573Y-119489774D01*
X104535082Y-119491695D01*
X104649368Y-119491695D01*
X104668877Y-119489774D01*
X104672197Y-119488398D01*
X104675781Y-119488144D01*
X104694089Y-119481138D01*
X104770279Y-119443043D01*
X104778675Y-119437757D01*
X104781116Y-119436747D01*
X104783861Y-119434493D01*
X104786870Y-119432600D01*
X104788601Y-119430603D01*
X104796270Y-119424310D01*
X104834364Y-119386214D01*
X104840656Y-119378546D01*
X104842652Y-119376816D01*
X104844544Y-119373809D01*
X104846801Y-119371060D01*
X104847812Y-119368617D01*
X104853095Y-119360226D01*
X104891191Y-119284037D01*
X104898198Y-119265728D01*
X104898452Y-119262142D01*
X104899828Y-119258823D01*
X104901749Y-119239314D01*
X104901749Y-119010742D01*
X105006511Y-119010742D01*
X105006511Y-119239314D01*
X105008432Y-119258823D01*
X105009807Y-119262143D01*
X105010062Y-119265727D01*
X105017068Y-119284035D01*
X105055163Y-119360225D01*
X105060447Y-119368621D01*
X105061458Y-119371060D01*
X105063711Y-119373805D01*
X105065606Y-119376816D01*
X105067602Y-119378547D01*
X105073894Y-119386214D01*
X105111989Y-119424310D01*
X105119660Y-119430606D01*
X105121390Y-119432600D01*
X105124395Y-119434491D01*
X105127142Y-119436746D01*
X105129582Y-119437756D01*
X105137980Y-119443043D01*
X105214171Y-119481138D01*
X105232480Y-119488144D01*
X105236062Y-119488398D01*
X105239383Y-119489774D01*
X105258892Y-119491695D01*
X105411273Y-119491695D01*
X105430782Y-119489774D01*
X105434102Y-119488398D01*
X105437686Y-119488144D01*
X105451373Y-119482906D01*
X105467954Y-119489774D01*
X105506972Y-119489774D01*
X105543020Y-119474842D01*
X105570610Y-119447252D01*
X105585542Y-119411204D01*
X105587463Y-119391695D01*
X105587463Y-119239314D01*
X106339844Y-119239314D01*
X106339844Y-119277409D01*
X106341765Y-119296918D01*
X106343140Y-119300238D01*
X106343395Y-119303822D01*
X106350402Y-119322131D01*
X106388497Y-119398322D01*
X106390551Y-119401586D01*
X106391064Y-119403123D01*
X106392723Y-119405037D01*
X106398940Y-119414912D01*
X106408412Y-119423127D01*
X106416628Y-119432600D01*
X106426501Y-119438814D01*
X106428417Y-119440476D01*
X106429955Y-119440988D01*
X106433219Y-119443043D01*
X106509409Y-119481138D01*
X106527717Y-119488144D01*
X106531300Y-119488398D01*
X106534621Y-119489774D01*
X106554130Y-119491695D01*
X106706511Y-119491695D01*
X106726020Y-119489774D01*
X106729340Y-119488398D01*
X106732923Y-119488144D01*
X106751232Y-119481138D01*
X106827423Y-119443043D01*
X106844013Y-119432600D01*
X106869578Y-119403124D01*
X106881917Y-119366108D01*
X106879151Y-119327188D01*
X106861702Y-119292289D01*
X106832226Y-119266724D01*
X106795210Y-119254385D01*
X106756290Y-119257151D01*
X106737981Y-119264157D01*
X106682904Y-119291695D01*
X106577737Y-119291695D01*
X106552474Y-119279063D01*
X106542123Y-119258361D01*
X106552474Y-119237659D01*
X106577737Y-119225028D01*
X106668416Y-119225028D01*
X106687925Y-119223107D01*
X106691245Y-119221731D01*
X106694829Y-119221477D01*
X106713137Y-119214471D01*
X106789327Y-119176376D01*
X106792590Y-119174321D01*
X106794129Y-119173809D01*
X106796044Y-119172147D01*
X106805918Y-119165933D01*
X106814133Y-119156460D01*
X106823606Y-119148245D01*
X106829819Y-119138372D01*
X106831482Y-119136456D01*
X106831995Y-119134916D01*
X106834048Y-119131655D01*
X106872144Y-119055464D01*
X106879151Y-119037156D01*
X106879405Y-119033570D01*
X106880781Y-119030251D01*
X106882702Y-119010742D01*
X106882702Y-118972647D01*
X106880781Y-118953138D01*
X106879405Y-118949818D01*
X106879151Y-118946233D01*
X106872144Y-118927924D01*
X106834048Y-118851735D01*
X106831994Y-118848473D01*
X106831482Y-118846935D01*
X106829820Y-118845019D01*
X106823605Y-118835145D01*
X106814131Y-118826928D01*
X106805918Y-118817458D01*
X106796047Y-118811244D01*
X106794128Y-118809580D01*
X106792586Y-118809066D01*
X106789328Y-118807015D01*
X106713138Y-118768919D01*
X106694830Y-118761912D01*
X106691244Y-118761657D01*
X106687925Y-118760282D01*
X106668416Y-118758361D01*
X106554130Y-118758361D01*
X106534621Y-118760282D01*
X106531301Y-118761657D01*
X106527716Y-118761912D01*
X106509407Y-118768919D01*
X106433218Y-118807015D01*
X106416628Y-118817458D01*
X106391063Y-118846935D01*
X106378725Y-118883951D01*
X106381491Y-118922871D01*
X106398941Y-118957769D01*
X106428418Y-118983334D01*
X106465434Y-118995672D01*
X106504354Y-118992906D01*
X106522662Y-118985899D01*
X106577737Y-118958361D01*
X106644809Y-118958361D01*
X106670071Y-118970992D01*
X106680422Y-118991694D01*
X106670070Y-119012397D01*
X106644809Y-119025028D01*
X106554130Y-119025028D01*
X106534621Y-119026949D01*
X106531300Y-119028324D01*
X106527717Y-119028579D01*
X106509409Y-119035585D01*
X106433219Y-119073680D01*
X106429955Y-119075734D01*
X106428417Y-119076247D01*
X106426501Y-119077908D01*
X106416628Y-119084123D01*
X106408412Y-119093595D01*
X106398940Y-119101811D01*
X106392723Y-119111685D01*
X106391064Y-119113600D01*
X106390551Y-119115136D01*
X106388497Y-119118401D01*
X106350402Y-119194592D01*
X106343395Y-119212901D01*
X106343140Y-119216484D01*
X106341765Y-119219805D01*
X106339844Y-119239314D01*
X105587463Y-119239314D01*
X105587463Y-118610281D01*
X106989384Y-118610281D01*
X106989384Y-118649299D01*
X107004316Y-118685347D01*
X107016752Y-118700501D01*
X107054847Y-118738595D01*
X107070000Y-118751032D01*
X107084932Y-118757216D01*
X107099190Y-118763123D01*
X107070001Y-118775214D01*
X107042411Y-118802804D01*
X107027479Y-118838852D01*
X107025558Y-118858361D01*
X107025558Y-119391695D01*
X107027479Y-119411204D01*
X107042411Y-119447252D01*
X107070001Y-119474842D01*
X107106049Y-119489774D01*
X107145067Y-119489774D01*
X107181115Y-119474842D01*
X107208705Y-119447252D01*
X107223637Y-119411204D01*
X107225558Y-119391695D01*
X107225558Y-118972647D01*
X107406511Y-118972647D01*
X107406511Y-119391695D01*
X107408432Y-119411204D01*
X107423364Y-119447252D01*
X107450954Y-119474842D01*
X107487002Y-119489774D01*
X107526020Y-119489774D01*
X107562068Y-119474842D01*
X107589658Y-119447252D01*
X107604590Y-119411204D01*
X107606511Y-119391695D01*
X107606511Y-118996254D01*
X107619141Y-118970992D01*
X107644405Y-118958361D01*
X107711476Y-118958361D01*
X107749368Y-118977307D01*
X107749368Y-119391695D01*
X107751289Y-119411204D01*
X107766221Y-119447252D01*
X107793811Y-119474842D01*
X107829859Y-119489774D01*
X107868877Y-119489774D01*
X107904925Y-119474842D01*
X107932515Y-119447252D01*
X107947447Y-119411204D01*
X107949368Y-119391695D01*
X107949368Y-118838852D01*
X108017956Y-118838852D01*
X108017956Y-118877870D01*
X108032888Y-118913918D01*
X108060478Y-118941508D01*
X108096526Y-118956440D01*
X108116035Y-118958361D01*
X108206511Y-118958361D01*
X108206511Y-119253802D01*
X108193880Y-119279064D01*
X108168619Y-119291695D01*
X108116035Y-119291695D01*
X108096526Y-119293616D01*
X108060478Y-119308548D01*
X108032888Y-119336138D01*
X108017956Y-119372186D01*
X108017956Y-119411204D01*
X108032888Y-119447252D01*
X108060478Y-119474842D01*
X108096526Y-119489774D01*
X108116035Y-119491695D01*
X108192226Y-119491695D01*
X108211735Y-119489774D01*
X108215055Y-119488398D01*
X108218639Y-119488144D01*
X108236947Y-119481138D01*
X108313137Y-119443043D01*
X108316399Y-119440989D01*
X108317940Y-119440476D01*
X108319857Y-119438812D01*
X108329728Y-119432600D01*
X108337944Y-119423125D01*
X108347416Y-119414911D01*
X108353629Y-119405039D01*
X108355292Y-119403123D01*
X108355805Y-119401584D01*
X108357859Y-119398321D01*
X108395954Y-119322130D01*
X108402960Y-119303821D01*
X108403214Y-119300238D01*
X108404590Y-119296918D01*
X108406511Y-119277409D01*
X108406511Y-118958361D01*
X108420797Y-118958361D01*
X108440306Y-118956440D01*
X108476354Y-118941508D01*
X108503944Y-118913918D01*
X108518876Y-118877870D01*
X108518876Y-118838852D01*
X108503944Y-118802804D01*
X108476354Y-118775214D01*
X108440306Y-118760282D01*
X108420797Y-118758361D01*
X108406511Y-118758361D01*
X108406511Y-118591695D01*
X108404590Y-118572186D01*
X109084623Y-118572186D01*
X109084623Y-118611204D01*
X109099555Y-118647252D01*
X109127145Y-118674842D01*
X109163193Y-118689774D01*
X109182702Y-118691695D01*
X109235286Y-118691695D01*
X109260547Y-118704325D01*
X109273178Y-118729587D01*
X109273178Y-118758361D01*
X109182702Y-118758361D01*
X109163193Y-118760282D01*
X109127145Y-118775214D01*
X109099555Y-118802804D01*
X109084623Y-118838852D01*
X109084623Y-118877870D01*
X109099555Y-118913918D01*
X109127145Y-118941508D01*
X109163193Y-118956440D01*
X109182702Y-118958361D01*
X109273178Y-118958361D01*
X109273178Y-119391695D01*
X109275099Y-119411204D01*
X109290031Y-119447252D01*
X109317621Y-119474842D01*
X109353669Y-119489774D01*
X109392687Y-119489774D01*
X109428735Y-119474842D01*
X109456325Y-119447252D01*
X109471257Y-119411204D01*
X109473178Y-119391695D01*
X109473178Y-119010742D01*
X109616036Y-119010742D01*
X109616036Y-119239314D01*
X109617957Y-119258823D01*
X109619332Y-119262143D01*
X109619587Y-119265727D01*
X109626593Y-119284035D01*
X109664688Y-119360225D01*
X109669972Y-119368621D01*
X109670983Y-119371060D01*
X109673236Y-119373805D01*
X109675131Y-119376816D01*
X109677127Y-119378547D01*
X109683419Y-119386214D01*
X109721514Y-119424310D01*
X109729185Y-119430606D01*
X109730915Y-119432600D01*
X109733920Y-119434491D01*
X109736667Y-119436746D01*
X109739107Y-119437756D01*
X109747505Y-119443043D01*
X109823696Y-119481138D01*
X109842005Y-119488144D01*
X109845587Y-119488398D01*
X109848908Y-119489774D01*
X109868417Y-119491695D01*
X109982703Y-119491695D01*
X110002212Y-119489774D01*
X110005532Y-119488398D01*
X110009116Y-119488144D01*
X110027424Y-119481138D01*
X110103614Y-119443043D01*
X110112010Y-119437757D01*
X110114451Y-119436747D01*
X110117196Y-119434493D01*
X110120205Y-119432600D01*
X110121936Y-119430603D01*
X110129605Y-119424310D01*
X110167699Y-119386214D01*
X110173991Y-119378546D01*
X110175987Y-119376816D01*
X110177879Y-119373809D01*
X110180136Y-119371060D01*
X110181147Y-119368617D01*
X110186430Y-119360226D01*
X110224526Y-119284037D01*
X110231533Y-119265728D01*
X110231787Y-119262142D01*
X110233163Y-119258823D01*
X110235084Y-119239314D01*
X110235084Y-119010742D01*
X110233163Y-118991233D01*
X110231787Y-118987913D01*
X110231533Y-118984328D01*
X110224526Y-118966019D01*
X110186430Y-118889830D01*
X110181146Y-118881437D01*
X110180135Y-118878994D01*
X110177878Y-118876244D01*
X110175987Y-118873240D01*
X110173992Y-118871510D01*
X110167698Y-118863841D01*
X110162218Y-118858361D01*
X110987465Y-118858361D01*
X110987465Y-119505980D01*
X110989386Y-119525489D01*
X110990761Y-119528809D01*
X110991016Y-119532392D01*
X110998022Y-119550701D01*
X111036117Y-119626892D01*
X111041401Y-119635287D01*
X111042413Y-119637729D01*
X111044668Y-119640477D01*
X111046560Y-119643482D01*
X111048553Y-119645211D01*
X111054850Y-119652883D01*
X111092946Y-119690977D01*
X111100610Y-119697267D01*
X111102344Y-119699266D01*
X111105355Y-119701161D01*
X111108100Y-119703414D01*
X111110538Y-119704424D01*
X111118935Y-119709709D01*
X111195125Y-119747804D01*
X111213433Y-119754810D01*
X111217016Y-119755064D01*
X111220337Y-119756440D01*
X111239846Y-119758361D01*
X111354132Y-119758361D01*
X111373641Y-119756440D01*
X111376961Y-119755064D01*
X111380545Y-119754810D01*
X111398853Y-119747804D01*
X111475043Y-119709709D01*
X111491634Y-119699266D01*
X111517198Y-119669789D01*
X111529537Y-119632773D01*
X111526771Y-119593853D01*
X111509322Y-119558954D01*
X111479845Y-119533390D01*
X111442829Y-119521051D01*
X111403909Y-119523817D01*
X111385601Y-119530823D01*
X111330525Y-119558361D01*
X111263453Y-119558361D01*
X111222892Y-119538080D01*
X111207744Y-119522933D01*
X111192126Y-119491695D01*
X111316037Y-119491695D01*
X111335546Y-119489774D01*
X111338866Y-119488398D01*
X111342450Y-119488144D01*
X111360758Y-119481138D01*
X111436948Y-119443043D01*
X111445344Y-119437757D01*
X111447785Y-119436747D01*
X111450530Y-119434493D01*
X111453539Y-119432600D01*
X111455270Y-119430603D01*
X111462939Y-119424310D01*
X111501033Y-119386214D01*
X111507325Y-119378546D01*
X111509321Y-119376816D01*
X111511213Y-119373809D01*
X111513470Y-119371060D01*
X111514481Y-119368617D01*
X111519764Y-119360226D01*
X111557860Y-119284037D01*
X111564867Y-119265728D01*
X111565121Y-119262142D01*
X111566497Y-119258823D01*
X111568418Y-119239314D01*
X111568418Y-119010742D01*
X111566497Y-118991233D01*
X111565121Y-118987913D01*
X111564867Y-118984328D01*
X111560397Y-118972647D01*
X111711275Y-118972647D01*
X111711275Y-119391695D01*
X111713196Y-119411204D01*
X111728128Y-119447252D01*
X111755718Y-119474842D01*
X111791766Y-119489774D01*
X111830784Y-119489774D01*
X111866832Y-119474842D01*
X111894422Y-119447252D01*
X111909354Y-119411204D01*
X111911275Y-119391695D01*
X111911275Y-118996254D01*
X111923905Y-118970992D01*
X111949169Y-118958361D01*
X112016240Y-118958361D01*
X112054132Y-118977307D01*
X112054132Y-119391695D01*
X112056053Y-119411204D01*
X112070985Y-119447252D01*
X112098575Y-119474842D01*
X112134623Y-119489774D01*
X112173641Y-119489774D01*
X112209689Y-119474842D01*
X112237279Y-119447252D01*
X112252211Y-119411204D01*
X112254132Y-119391695D01*
X112254132Y-118858361D01*
X112252211Y-118838852D01*
X112237279Y-118802804D01*
X112209689Y-118775214D01*
X112173641Y-118760282D01*
X112134623Y-118760282D01*
X112098575Y-118775214D01*
X112098102Y-118775686D01*
X112084569Y-118768919D01*
X112066261Y-118761912D01*
X112062675Y-118761657D01*
X112059356Y-118760282D01*
X112039847Y-118758361D01*
X111925561Y-118758361D01*
X111906052Y-118760282D01*
X111902732Y-118761657D01*
X111899147Y-118761912D01*
X111880839Y-118768919D01*
X111804648Y-118807015D01*
X111801386Y-118809067D01*
X111799847Y-118809581D01*
X111797930Y-118811243D01*
X111788058Y-118817457D01*
X111779842Y-118826929D01*
X111770370Y-118835145D01*
X111764155Y-118845018D01*
X111762494Y-118846934D01*
X111761981Y-118848472D01*
X111759927Y-118851736D01*
X111721832Y-118927926D01*
X111714826Y-118946234D01*
X111714571Y-118949817D01*
X111713196Y-118953138D01*
X111711275Y-118972647D01*
X111560397Y-118972647D01*
X111557860Y-118966019D01*
X111519764Y-118889830D01*
X111514480Y-118881437D01*
X111513469Y-118878994D01*
X111511212Y-118876244D01*
X111509321Y-118873240D01*
X111507326Y-118871510D01*
X111501032Y-118863841D01*
X111462938Y-118825746D01*
X111455268Y-118819451D01*
X111453539Y-118817458D01*
X111450532Y-118815565D01*
X111447784Y-118813310D01*
X111445343Y-118812298D01*
X111436949Y-118807015D01*
X111360759Y-118768919D01*
X111342451Y-118761912D01*
X111338865Y-118761657D01*
X111335546Y-118760282D01*
X111316037Y-118758361D01*
X111163656Y-118758361D01*
X111144147Y-118760282D01*
X111140827Y-118761657D01*
X111137242Y-118761912D01*
X111123555Y-118767150D01*
X111106974Y-118760282D01*
X111067956Y-118760282D01*
X111031908Y-118775214D01*
X111004318Y-118802804D01*
X110989386Y-118838852D01*
X110987465Y-118858361D01*
X110162218Y-118858361D01*
X110129604Y-118825746D01*
X110121934Y-118819451D01*
X110120205Y-118817458D01*
X110117198Y-118815565D01*
X110114450Y-118813310D01*
X110112009Y-118812298D01*
X110103615Y-118807015D01*
X110027425Y-118768919D01*
X110009117Y-118761912D01*
X110005531Y-118761657D01*
X110002212Y-118760282D01*
X109982703Y-118758361D01*
X109868417Y-118758361D01*
X109848908Y-118760282D01*
X109845588Y-118761657D01*
X109842003Y-118761912D01*
X109823695Y-118768919D01*
X109747504Y-118807015D01*
X109739108Y-118812299D01*
X109736668Y-118813310D01*
X109733922Y-118815563D01*
X109730914Y-118817457D01*
X109729181Y-118819454D01*
X109721515Y-118825747D01*
X109683420Y-118863841D01*
X109677128Y-118871507D01*
X109675131Y-118873240D01*
X109673235Y-118876251D01*
X109670984Y-118878995D01*
X109669974Y-118881432D01*
X109664688Y-118889831D01*
X109626593Y-118966021D01*
X109619587Y-118984329D01*
X109619332Y-118987912D01*
X109617957Y-118991233D01*
X109616036Y-119010742D01*
X109473178Y-119010742D01*
X109473178Y-118958361D01*
X109487464Y-118958361D01*
X109506973Y-118956440D01*
X109543021Y-118941508D01*
X109570611Y-118913918D01*
X109585543Y-118877870D01*
X109585543Y-118838852D01*
X109570611Y-118802804D01*
X109543021Y-118775214D01*
X109506973Y-118760282D01*
X109487464Y-118758361D01*
X109473178Y-118758361D01*
X109473178Y-118705980D01*
X109471257Y-118686471D01*
X109469881Y-118683150D01*
X109469627Y-118679567D01*
X109462621Y-118661259D01*
X109437132Y-118610281D01*
X112398910Y-118610281D01*
X112398910Y-118649299D01*
X112413842Y-118685347D01*
X112426278Y-118700501D01*
X112464373Y-118738595D01*
X112479526Y-118751032D01*
X112494458Y-118757216D01*
X112508716Y-118763123D01*
X112479527Y-118775214D01*
X112451937Y-118802804D01*
X112437005Y-118838852D01*
X112435084Y-118858361D01*
X112435084Y-119391695D01*
X112437005Y-119411204D01*
X112451937Y-119447252D01*
X112479527Y-119474842D01*
X112515575Y-119489774D01*
X112554593Y-119489774D01*
X112590641Y-119474842D01*
X112618231Y-119447252D01*
X112633163Y-119411204D01*
X112635084Y-119391695D01*
X112635084Y-119386252D01*
X112778089Y-119386252D01*
X112783607Y-119424878D01*
X112803486Y-119458453D01*
X112834701Y-119481864D01*
X112872498Y-119491547D01*
X112911124Y-119486029D01*
X112944699Y-119466150D01*
X112957941Y-119451695D01*
X113082703Y-119285346D01*
X113082703Y-119391695D01*
X113084624Y-119411204D01*
X113099556Y-119447252D01*
X113127146Y-119474842D01*
X113163194Y-119489774D01*
X113202212Y-119489774D01*
X113238260Y-119474842D01*
X113265850Y-119447252D01*
X113280782Y-119411204D01*
X113282703Y-119391695D01*
X113282703Y-118972647D01*
X113463656Y-118972647D01*
X113463656Y-119391695D01*
X113465577Y-119411204D01*
X113480509Y-119447252D01*
X113508099Y-119474842D01*
X113544147Y-119489774D01*
X113583165Y-119489774D01*
X113599745Y-119482905D01*
X113613435Y-119488144D01*
X113617017Y-119488398D01*
X113620338Y-119489774D01*
X113639847Y-119491695D01*
X113830323Y-119491695D01*
X113849832Y-119489774D01*
X113853152Y-119488398D01*
X113856736Y-119488144D01*
X113875044Y-119481138D01*
X113951234Y-119443043D01*
X113954497Y-119440988D01*
X113956036Y-119440476D01*
X113957951Y-119438814D01*
X113967825Y-119432600D01*
X113976040Y-119423127D01*
X113985513Y-119414912D01*
X113991726Y-119405039D01*
X113993389Y-119403123D01*
X113993902Y-119401583D01*
X113995955Y-119398322D01*
X114034051Y-119322131D01*
X114041058Y-119303823D01*
X114041312Y-119300237D01*
X114042688Y-119296918D01*
X114044609Y-119277409D01*
X114044609Y-119201219D01*
X114042688Y-119181710D01*
X114041312Y-119178390D01*
X114041058Y-119174805D01*
X114034051Y-119156497D01*
X113995955Y-119080306D01*
X113993902Y-119077044D01*
X113993389Y-119075505D01*
X113991726Y-119073588D01*
X113985513Y-119063716D01*
X113976040Y-119055500D01*
X113967825Y-119046028D01*
X113957951Y-119039813D01*
X113956036Y-119038152D01*
X113954497Y-119037639D01*
X113951234Y-119035585D01*
X113875044Y-118997490D01*
X113856736Y-118990484D01*
X113853152Y-118990229D01*
X113849832Y-118988854D01*
X113830323Y-118986933D01*
X113668317Y-118986933D01*
X113676286Y-118970992D01*
X113701550Y-118958361D01*
X113806716Y-118958361D01*
X113861790Y-118985899D01*
X113880099Y-118992906D01*
X113919019Y-118995672D01*
X113956035Y-118983333D01*
X113968357Y-118972647D01*
X114187466Y-118972647D01*
X114187466Y-119391695D01*
X114189387Y-119411204D01*
X114204319Y-119447252D01*
X114231909Y-119474842D01*
X114267957Y-119489774D01*
X114306975Y-119489774D01*
X114343023Y-119474842D01*
X114370613Y-119447252D01*
X114385545Y-119411204D01*
X114387466Y-119391695D01*
X114387466Y-118996254D01*
X114400096Y-118970992D01*
X114425360Y-118958361D01*
X114492431Y-118958361D01*
X114517691Y-118970991D01*
X114530323Y-118996254D01*
X114530323Y-119391695D01*
X114532244Y-119411204D01*
X114547176Y-119447252D01*
X114574766Y-119474842D01*
X114610814Y-119489774D01*
X114649832Y-119489774D01*
X114685880Y-119474842D01*
X114713470Y-119447252D01*
X114728402Y-119411204D01*
X114730323Y-119391695D01*
X114730323Y-118996254D01*
X114742953Y-118970992D01*
X114768217Y-118958361D01*
X114835288Y-118958361D01*
X114873180Y-118977307D01*
X114873180Y-119391695D01*
X114875101Y-119411204D01*
X114890033Y-119447252D01*
X114917623Y-119474842D01*
X114953671Y-119489774D01*
X114992689Y-119489774D01*
X115028737Y-119474842D01*
X115056327Y-119447252D01*
X115071259Y-119411204D01*
X115073180Y-119391695D01*
X115073180Y-118972647D01*
X115825561Y-118972647D01*
X115825561Y-119048838D01*
X115827482Y-119068347D01*
X115831231Y-119077399D01*
X115833133Y-119087010D01*
X115838624Y-119095247D01*
X115842414Y-119104395D01*
X115849342Y-119111323D01*
X115854777Y-119119475D01*
X115863002Y-119124983D01*
X115870004Y-119131985D01*
X115879055Y-119135734D01*
X115887196Y-119141186D01*
X115905950Y-119146896D01*
X115906049Y-119146915D01*
X115906052Y-119146917D01*
X115906055Y-119146917D01*
X116206514Y-119207008D01*
X116206514Y-119253801D01*
X116193882Y-119279064D01*
X116168621Y-119291695D01*
X116063454Y-119291695D01*
X116008377Y-119264157D01*
X115990068Y-119257151D01*
X115951148Y-119254385D01*
X115914132Y-119266724D01*
X115884656Y-119292289D01*
X115867207Y-119327188D01*
X115864441Y-119366108D01*
X115876780Y-119403124D01*
X115902345Y-119432600D01*
X115918935Y-119443043D01*
X115995126Y-119481138D01*
X116013435Y-119488144D01*
X116017017Y-119488398D01*
X116020338Y-119489774D01*
X116039847Y-119491695D01*
X116192228Y-119491695D01*
X116211737Y-119489774D01*
X116215057Y-119488398D01*
X116218641Y-119488144D01*
X116236949Y-119481138D01*
X116313139Y-119443043D01*
X116316402Y-119440988D01*
X116317941Y-119440476D01*
X116319856Y-119438814D01*
X116329730Y-119432600D01*
X116337945Y-119423127D01*
X116347418Y-119414912D01*
X116353631Y-119405039D01*
X116355294Y-119403123D01*
X116355807Y-119401583D01*
X116357860Y-119398322D01*
X116395956Y-119322131D01*
X116402963Y-119303823D01*
X116403217Y-119300237D01*
X116404593Y-119296918D01*
X116406514Y-119277409D01*
X116406514Y-118972647D01*
X116549371Y-118972647D01*
X116549371Y-119391695D01*
X116551292Y-119411204D01*
X116566224Y-119447252D01*
X116593814Y-119474842D01*
X116629862Y-119489774D01*
X116668880Y-119489774D01*
X116704928Y-119474842D01*
X116732518Y-119447252D01*
X116747450Y-119411204D01*
X116749371Y-119391695D01*
X116749371Y-118996254D01*
X116762001Y-118970992D01*
X116787265Y-118958361D01*
X116854336Y-118958361D01*
X116892228Y-118977307D01*
X116892228Y-119391695D01*
X116894149Y-119411204D01*
X116909081Y-119447252D01*
X116936671Y-119474842D01*
X116972719Y-119489774D01*
X117011737Y-119489774D01*
X117047785Y-119474842D01*
X117075375Y-119447252D01*
X117090307Y-119411204D01*
X117092228Y-119391695D01*
X117092228Y-118838852D01*
X117160816Y-118838852D01*
X117160816Y-118877870D01*
X117175748Y-118913918D01*
X117203338Y-118941508D01*
X117239386Y-118956440D01*
X117258895Y-118958361D01*
X117349371Y-118958361D01*
X117349371Y-119253802D01*
X117336740Y-119279064D01*
X117311479Y-119291695D01*
X117258895Y-119291695D01*
X117239386Y-119293616D01*
X117203338Y-119308548D01*
X117175748Y-119336138D01*
X117160816Y-119372186D01*
X117160816Y-119411204D01*
X117175748Y-119447252D01*
X117203338Y-119474842D01*
X117239386Y-119489774D01*
X117258895Y-119491695D01*
X117335086Y-119491695D01*
X117354595Y-119489774D01*
X117357915Y-119488398D01*
X117361499Y-119488144D01*
X117379807Y-119481138D01*
X117455997Y-119443043D01*
X117459259Y-119440989D01*
X117460800Y-119440476D01*
X117462717Y-119438812D01*
X117472588Y-119432600D01*
X117480804Y-119423125D01*
X117490276Y-119414911D01*
X117496489Y-119405039D01*
X117498152Y-119403123D01*
X117498665Y-119401584D01*
X117500719Y-119398321D01*
X117538814Y-119322130D01*
X117545820Y-119303821D01*
X117546074Y-119300238D01*
X117547450Y-119296918D01*
X117549371Y-119277409D01*
X117549371Y-118972647D01*
X118339848Y-118972647D01*
X118339848Y-119391695D01*
X118341769Y-119411204D01*
X118356701Y-119447252D01*
X118384291Y-119474842D01*
X118420339Y-119489774D01*
X118459357Y-119489774D01*
X118495405Y-119474842D01*
X118522995Y-119447252D01*
X118537927Y-119411204D01*
X118539848Y-119391695D01*
X118539848Y-118996254D01*
X118552478Y-118970992D01*
X118577742Y-118958361D01*
X118644813Y-118958361D01*
X118682705Y-118977307D01*
X118682705Y-119391695D01*
X118684626Y-119411204D01*
X118699558Y-119447252D01*
X118727148Y-119474842D01*
X118763196Y-119489774D01*
X118802214Y-119489774D01*
X118838262Y-119474842D01*
X118865852Y-119447252D01*
X118880784Y-119411204D01*
X118882705Y-119391695D01*
X118882705Y-118858361D01*
X118880784Y-118838852D01*
X118865852Y-118802804D01*
X118838262Y-118775214D01*
X118802214Y-118760282D01*
X118763196Y-118760282D01*
X118727148Y-118775214D01*
X118726675Y-118775686D01*
X118713142Y-118768919D01*
X118694834Y-118761912D01*
X118691248Y-118761657D01*
X118687929Y-118760282D01*
X118668420Y-118758361D01*
X118554134Y-118758361D01*
X118534625Y-118760282D01*
X118531305Y-118761657D01*
X118527720Y-118761912D01*
X118509412Y-118768919D01*
X118433221Y-118807015D01*
X118429959Y-118809067D01*
X118428420Y-118809581D01*
X118426503Y-118811243D01*
X118416631Y-118817457D01*
X118408415Y-118826929D01*
X118398943Y-118835145D01*
X118392728Y-118845018D01*
X118391067Y-118846934D01*
X118390554Y-118848472D01*
X118388500Y-118851736D01*
X118350405Y-118927926D01*
X118343399Y-118946234D01*
X118343144Y-118949817D01*
X118341769Y-118953138D01*
X118339848Y-118972647D01*
X117549371Y-118972647D01*
X117549371Y-118958361D01*
X117563657Y-118958361D01*
X117583166Y-118956440D01*
X117619214Y-118941508D01*
X117646804Y-118913918D01*
X117661736Y-118877870D01*
X117661736Y-118838852D01*
X117646804Y-118802804D01*
X117619214Y-118775214D01*
X117583166Y-118760282D01*
X117563657Y-118758361D01*
X117549371Y-118758361D01*
X117549371Y-118610281D01*
X119027483Y-118610281D01*
X119027483Y-118649299D01*
X119042415Y-118685347D01*
X119054851Y-118700501D01*
X119092946Y-118738595D01*
X119108099Y-118751032D01*
X119123031Y-118757216D01*
X119137289Y-118763123D01*
X119108100Y-118775214D01*
X119080510Y-118802804D01*
X119065578Y-118838852D01*
X119063657Y-118858361D01*
X119063657Y-119391695D01*
X119065578Y-119411204D01*
X119080510Y-119447252D01*
X119108100Y-119474842D01*
X119144148Y-119489774D01*
X119183166Y-119489774D01*
X119219214Y-119474842D01*
X119246804Y-119447252D01*
X119261736Y-119411204D01*
X119263657Y-119391695D01*
X119263657Y-118858361D01*
X119261736Y-118838852D01*
X119246804Y-118802804D01*
X119219214Y-118775214D01*
X119190024Y-118763123D01*
X119201521Y-118758361D01*
X119219213Y-118751033D01*
X119234367Y-118738597D01*
X119272463Y-118700502D01*
X119284899Y-118685349D01*
X119284899Y-118685347D01*
X119284901Y-118685346D01*
X119299832Y-118649298D01*
X119299831Y-118629790D01*
X119299832Y-118610282D01*
X119292133Y-118591695D01*
X120054134Y-118591695D01*
X120054134Y-119391695D01*
X120056055Y-119411204D01*
X120070987Y-119447252D01*
X120098577Y-119474842D01*
X120134625Y-119489774D01*
X120173643Y-119489774D01*
X120190223Y-119482905D01*
X120203913Y-119488144D01*
X120207495Y-119488398D01*
X120210816Y-119489774D01*
X120230325Y-119491695D01*
X120382706Y-119491695D01*
X120402215Y-119489774D01*
X120405535Y-119488398D01*
X120409119Y-119488144D01*
X120427427Y-119481138D01*
X120503617Y-119443043D01*
X120512013Y-119437757D01*
X120514454Y-119436747D01*
X120517199Y-119434493D01*
X120520208Y-119432600D01*
X120521939Y-119430603D01*
X120529608Y-119424310D01*
X120567702Y-119386214D01*
X120573994Y-119378546D01*
X120575990Y-119376816D01*
X120577882Y-119373809D01*
X120580139Y-119371060D01*
X120581150Y-119368617D01*
X120586433Y-119360226D01*
X120624529Y-119284037D01*
X120631536Y-119265728D01*
X120631790Y-119262142D01*
X120633166Y-119258823D01*
X120635087Y-119239314D01*
X120635087Y-119010742D01*
X120633166Y-118991233D01*
X120631790Y-118987913D01*
X120631536Y-118984328D01*
X120627066Y-118972647D01*
X120739848Y-118972647D01*
X120739848Y-119048838D01*
X120741769Y-119068347D01*
X120745518Y-119077399D01*
X120747420Y-119087010D01*
X120752911Y-119095247D01*
X120756701Y-119104395D01*
X120763629Y-119111323D01*
X120769064Y-119119475D01*
X120777289Y-119124983D01*
X120784291Y-119131985D01*
X120793342Y-119135734D01*
X120801483Y-119141186D01*
X120820237Y-119146896D01*
X120820336Y-119146915D01*
X120820339Y-119146917D01*
X120820342Y-119146917D01*
X121120801Y-119207008D01*
X121120801Y-119253801D01*
X121108169Y-119279064D01*
X121082908Y-119291695D01*
X120977741Y-119291695D01*
X120922664Y-119264157D01*
X120904355Y-119257151D01*
X120865435Y-119254385D01*
X120828419Y-119266724D01*
X120798943Y-119292289D01*
X120781494Y-119327188D01*
X120778728Y-119366108D01*
X120791067Y-119403124D01*
X120816632Y-119432600D01*
X120833222Y-119443043D01*
X120909413Y-119481138D01*
X120927722Y-119488144D01*
X120931304Y-119488398D01*
X120934625Y-119489774D01*
X120954134Y-119491695D01*
X121106515Y-119491695D01*
X121126024Y-119489774D01*
X121129344Y-119488398D01*
X121132928Y-119488144D01*
X121151236Y-119481138D01*
X121227426Y-119443043D01*
X121230689Y-119440988D01*
X121232228Y-119440476D01*
X121234143Y-119438814D01*
X121244017Y-119432600D01*
X121252232Y-119423127D01*
X121261705Y-119414912D01*
X121267918Y-119405039D01*
X121269581Y-119403123D01*
X121270094Y-119401583D01*
X121272147Y-119398322D01*
X121310243Y-119322131D01*
X121317250Y-119303823D01*
X121317504Y-119300237D01*
X121318880Y-119296918D01*
X121320801Y-119277409D01*
X121320801Y-118972647D01*
X121463658Y-118972647D01*
X121463658Y-119391695D01*
X121465579Y-119411204D01*
X121480511Y-119447252D01*
X121508101Y-119474842D01*
X121544149Y-119489774D01*
X121583167Y-119489774D01*
X121619215Y-119474842D01*
X121646805Y-119447252D01*
X121661737Y-119411204D01*
X121663658Y-119391695D01*
X121663658Y-118996254D01*
X121676288Y-118970992D01*
X121701552Y-118958361D01*
X121768623Y-118958361D01*
X121793883Y-118970991D01*
X121806515Y-118996254D01*
X121806515Y-119391695D01*
X121808436Y-119411204D01*
X121823368Y-119447252D01*
X121850958Y-119474842D01*
X121887006Y-119489774D01*
X121926024Y-119489774D01*
X121962072Y-119474842D01*
X121989662Y-119447252D01*
X122004594Y-119411204D01*
X122006515Y-119391695D01*
X122006515Y-118996254D01*
X122019145Y-118970992D01*
X122044409Y-118958361D01*
X122111480Y-118958361D01*
X122149372Y-118977307D01*
X122149372Y-119391695D01*
X122151293Y-119411204D01*
X122166225Y-119447252D01*
X122193815Y-119474842D01*
X122229863Y-119489774D01*
X122268881Y-119489774D01*
X122304929Y-119474842D01*
X122332519Y-119447252D01*
X122347451Y-119411204D01*
X122349372Y-119391695D01*
X122349372Y-118858361D01*
X122347451Y-118838852D01*
X122417960Y-118838852D01*
X122417960Y-118877870D01*
X122432892Y-118913918D01*
X122460482Y-118941508D01*
X122496530Y-118956440D01*
X122516039Y-118958361D01*
X122568623Y-118958361D01*
X122609182Y-118978641D01*
X122624329Y-118993787D01*
X122644610Y-119034349D01*
X122644610Y-119391695D01*
X122646531Y-119411204D01*
X122661463Y-119447252D01*
X122689053Y-119474842D01*
X122725101Y-119489774D01*
X122764119Y-119489774D01*
X122800167Y-119474842D01*
X122827757Y-119447252D01*
X122842689Y-119411204D01*
X122844610Y-119391695D01*
X122844610Y-118972647D01*
X123025563Y-118972647D01*
X123025563Y-119391695D01*
X123027484Y-119411204D01*
X123042416Y-119447252D01*
X123070006Y-119474842D01*
X123106054Y-119489774D01*
X123145072Y-119489774D01*
X123161652Y-119482905D01*
X123175342Y-119488144D01*
X123178924Y-119488398D01*
X123182245Y-119489774D01*
X123201754Y-119491695D01*
X123392230Y-119491695D01*
X123411739Y-119489774D01*
X123415059Y-119488398D01*
X123418643Y-119488144D01*
X123436951Y-119481138D01*
X123513141Y-119443043D01*
X123516404Y-119440988D01*
X123517943Y-119440476D01*
X123519858Y-119438814D01*
X123529732Y-119432600D01*
X123537947Y-119423127D01*
X123547420Y-119414912D01*
X123553633Y-119405039D01*
X123555296Y-119403123D01*
X123555809Y-119401583D01*
X123557862Y-119398322D01*
X123595958Y-119322131D01*
X123602965Y-119303823D01*
X123603219Y-119300237D01*
X123604595Y-119296918D01*
X123606516Y-119277409D01*
X123606516Y-119201219D01*
X123604595Y-119181710D01*
X123603219Y-119178390D01*
X123602965Y-119174805D01*
X123595958Y-119156497D01*
X123557862Y-119080306D01*
X123555809Y-119077044D01*
X123555296Y-119075505D01*
X123553633Y-119073588D01*
X123547420Y-119063716D01*
X123537947Y-119055500D01*
X123529732Y-119046028D01*
X123519858Y-119039813D01*
X123517943Y-119038152D01*
X123516404Y-119037639D01*
X123513141Y-119035585D01*
X123436951Y-118997490D01*
X123418643Y-118990484D01*
X123415059Y-118990229D01*
X123411739Y-118988854D01*
X123392230Y-118986933D01*
X123230224Y-118986933D01*
X123238193Y-118970992D01*
X123263457Y-118958361D01*
X123368623Y-118958361D01*
X123423697Y-118985899D01*
X123442006Y-118992906D01*
X123480926Y-118995672D01*
X123517942Y-118983333D01*
X123530264Y-118972647D01*
X123749373Y-118972647D01*
X123749373Y-119391695D01*
X123751294Y-119411204D01*
X123766226Y-119447252D01*
X123793816Y-119474842D01*
X123829864Y-119489774D01*
X123868882Y-119489774D01*
X123904930Y-119474842D01*
X123932520Y-119447252D01*
X123947452Y-119411204D01*
X123949373Y-119391695D01*
X123949373Y-118996254D01*
X123962003Y-118970992D01*
X123987267Y-118958361D01*
X124054338Y-118958361D01*
X124092230Y-118977307D01*
X124092230Y-119391695D01*
X124094151Y-119411204D01*
X124109083Y-119447252D01*
X124136673Y-119474842D01*
X124172721Y-119489774D01*
X124211739Y-119489774D01*
X124247787Y-119474842D01*
X124275377Y-119447252D01*
X124290309Y-119411204D01*
X124292230Y-119391695D01*
X124292230Y-118972647D01*
X125044611Y-118972647D01*
X125044611Y-119048838D01*
X125046532Y-119068347D01*
X125050281Y-119077399D01*
X125052183Y-119087010D01*
X125057674Y-119095247D01*
X125061464Y-119104395D01*
X125068392Y-119111323D01*
X125073827Y-119119475D01*
X125082052Y-119124983D01*
X125089054Y-119131985D01*
X125098105Y-119135734D01*
X125106246Y-119141186D01*
X125125000Y-119146896D01*
X125125099Y-119146915D01*
X125125102Y-119146917D01*
X125125105Y-119146917D01*
X125425564Y-119207008D01*
X125425564Y-119253801D01*
X125412932Y-119279064D01*
X125387671Y-119291695D01*
X125282504Y-119291695D01*
X125227427Y-119264157D01*
X125209118Y-119257151D01*
X125170198Y-119254385D01*
X125133182Y-119266724D01*
X125103706Y-119292289D01*
X125086257Y-119327188D01*
X125083491Y-119366108D01*
X125095830Y-119403124D01*
X125121395Y-119432600D01*
X125137985Y-119443043D01*
X125214176Y-119481138D01*
X125232485Y-119488144D01*
X125236067Y-119488398D01*
X125239388Y-119489774D01*
X125258897Y-119491695D01*
X125411278Y-119491695D01*
X125430787Y-119489774D01*
X125434107Y-119488398D01*
X125437691Y-119488144D01*
X125455999Y-119481138D01*
X125532189Y-119443043D01*
X125535452Y-119440988D01*
X125536991Y-119440476D01*
X125538906Y-119438814D01*
X125548780Y-119432600D01*
X125556995Y-119423127D01*
X125566468Y-119414912D01*
X125572681Y-119405039D01*
X125574344Y-119403123D01*
X125574857Y-119401583D01*
X125576910Y-119398322D01*
X125615006Y-119322131D01*
X125622013Y-119303823D01*
X125622267Y-119300237D01*
X125623643Y-119296918D01*
X125625564Y-119277409D01*
X125625564Y-118972647D01*
X125623643Y-118953138D01*
X125622267Y-118949818D01*
X125622013Y-118946233D01*
X125615006Y-118927924D01*
X125576910Y-118851735D01*
X125574856Y-118848473D01*
X125574344Y-118846935D01*
X125572682Y-118845019D01*
X125568800Y-118838852D01*
X125656056Y-118838852D01*
X125656056Y-118877870D01*
X125670988Y-118913918D01*
X125698578Y-118941508D01*
X125734626Y-118956440D01*
X125754135Y-118958361D01*
X125806719Y-118958361D01*
X125847278Y-118978641D01*
X125862425Y-118993787D01*
X125882706Y-119034349D01*
X125882706Y-119391695D01*
X125884627Y-119411204D01*
X125899559Y-119447252D01*
X125927149Y-119474842D01*
X125963197Y-119489774D01*
X126002215Y-119489774D01*
X126038263Y-119474842D01*
X126065853Y-119447252D01*
X126080785Y-119411204D01*
X126082706Y-119391695D01*
X126082706Y-118972647D01*
X126225563Y-118972647D01*
X126225563Y-119048838D01*
X126227484Y-119068347D01*
X126231233Y-119077399D01*
X126233135Y-119087010D01*
X126238626Y-119095247D01*
X126242416Y-119104395D01*
X126249344Y-119111323D01*
X126254779Y-119119475D01*
X126263004Y-119124983D01*
X126270006Y-119131985D01*
X126279057Y-119135734D01*
X126287198Y-119141186D01*
X126305952Y-119146896D01*
X126306051Y-119146915D01*
X126306054Y-119146917D01*
X126306057Y-119146917D01*
X126606516Y-119207008D01*
X126606516Y-119253801D01*
X126593884Y-119279064D01*
X126568623Y-119291695D01*
X126463456Y-119291695D01*
X126408379Y-119264157D01*
X126390070Y-119257151D01*
X126351150Y-119254385D01*
X126314134Y-119266724D01*
X126284658Y-119292289D01*
X126267209Y-119327188D01*
X126264443Y-119366108D01*
X126276782Y-119403124D01*
X126302347Y-119432600D01*
X126318937Y-119443043D01*
X126395128Y-119481138D01*
X126413437Y-119488144D01*
X126417019Y-119488398D01*
X126420340Y-119489774D01*
X126439849Y-119491695D01*
X126592230Y-119491695D01*
X126611739Y-119489774D01*
X126615059Y-119488398D01*
X126618643Y-119488144D01*
X126636951Y-119481138D01*
X126713141Y-119443043D01*
X126716404Y-119440988D01*
X126717943Y-119440476D01*
X126719858Y-119438814D01*
X126729732Y-119432600D01*
X126737947Y-119423127D01*
X126747420Y-119414912D01*
X126753633Y-119405039D01*
X126755296Y-119403123D01*
X126755809Y-119401583D01*
X126757862Y-119398322D01*
X126795958Y-119322131D01*
X126802965Y-119303823D01*
X126803219Y-119300237D01*
X126804595Y-119296918D01*
X126806516Y-119277409D01*
X126806516Y-118972647D01*
X126804595Y-118953138D01*
X126803219Y-118949818D01*
X126802965Y-118946233D01*
X126795958Y-118927924D01*
X126765268Y-118866547D01*
X126873517Y-118866547D01*
X126877030Y-118885833D01*
X127029411Y-119419167D01*
X127036617Y-119437398D01*
X127040587Y-119442399D01*
X127043100Y-119448262D01*
X127052611Y-119457544D01*
X127060878Y-119467957D01*
X127066455Y-119471055D01*
X127071024Y-119475514D01*
X127083368Y-119480452D01*
X127094986Y-119486906D01*
X127101324Y-119487634D01*
X127107251Y-119490005D01*
X127120542Y-119489842D01*
X127133749Y-119491360D01*
X127139888Y-119489605D01*
X127146266Y-119489528D01*
X127158476Y-119484295D01*
X127171266Y-119480641D01*
X127176267Y-119476670D01*
X127182130Y-119474158D01*
X127191412Y-119464646D01*
X127201825Y-119456380D01*
X127204923Y-119450802D01*
X127209382Y-119446234D01*
X127218411Y-119428834D01*
X127277944Y-119280001D01*
X127337477Y-119428834D01*
X127346506Y-119446234D01*
X127350964Y-119450802D01*
X127354063Y-119456380D01*
X127364472Y-119464644D01*
X127373758Y-119474159D01*
X127379623Y-119476672D01*
X127384622Y-119480641D01*
X127397404Y-119484293D01*
X127409622Y-119489529D01*
X127416002Y-119489606D01*
X127422139Y-119491360D01*
X127435343Y-119489842D01*
X127448637Y-119490005D01*
X127454563Y-119487634D01*
X127460902Y-119486906D01*
X127472519Y-119480452D01*
X127484864Y-119475514D01*
X127489432Y-119471055D01*
X127495010Y-119467957D01*
X127503276Y-119457544D01*
X127512788Y-119448262D01*
X127515300Y-119442398D01*
X127519271Y-119437398D01*
X127526477Y-119419167D01*
X127577864Y-119239314D01*
X128358896Y-119239314D01*
X128358896Y-119277409D01*
X128360817Y-119296918D01*
X128362192Y-119300238D01*
X128362447Y-119303822D01*
X128369454Y-119322131D01*
X128407549Y-119398322D01*
X128409603Y-119401586D01*
X128410116Y-119403123D01*
X128411775Y-119405037D01*
X128417992Y-119414912D01*
X128427464Y-119423127D01*
X128435680Y-119432600D01*
X128445553Y-119438814D01*
X128447469Y-119440476D01*
X128449007Y-119440988D01*
X128452271Y-119443043D01*
X128528461Y-119481138D01*
X128546769Y-119488144D01*
X128550352Y-119488398D01*
X128553673Y-119489774D01*
X128573182Y-119491695D01*
X128725563Y-119491695D01*
X128745072Y-119489774D01*
X128748392Y-119488398D01*
X128751975Y-119488144D01*
X128770284Y-119481138D01*
X128846475Y-119443043D01*
X128863065Y-119432600D01*
X128888630Y-119403124D01*
X128900969Y-119366108D01*
X128898203Y-119327188D01*
X128880754Y-119292289D01*
X128851278Y-119266724D01*
X128814262Y-119254385D01*
X128775342Y-119257151D01*
X128757033Y-119264157D01*
X128701956Y-119291695D01*
X128596789Y-119291695D01*
X128571526Y-119279063D01*
X128561175Y-119258361D01*
X128571526Y-119237659D01*
X128596789Y-119225028D01*
X128687468Y-119225028D01*
X128706977Y-119223107D01*
X128710297Y-119221731D01*
X128713881Y-119221477D01*
X128732189Y-119214471D01*
X128808379Y-119176376D01*
X128811642Y-119174321D01*
X128813181Y-119173809D01*
X128815096Y-119172147D01*
X128824970Y-119165933D01*
X128833185Y-119156460D01*
X128842658Y-119148245D01*
X128848871Y-119138372D01*
X128850534Y-119136456D01*
X128851047Y-119134916D01*
X128853100Y-119131655D01*
X128891196Y-119055464D01*
X128898203Y-119037156D01*
X128898457Y-119033570D01*
X128899833Y-119030251D01*
X128901754Y-119010742D01*
X128901754Y-118972647D01*
X129044611Y-118972647D01*
X129044611Y-119391695D01*
X129046532Y-119411204D01*
X129061464Y-119447252D01*
X129089054Y-119474842D01*
X129125102Y-119489774D01*
X129164120Y-119489774D01*
X129200168Y-119474842D01*
X129227758Y-119447252D01*
X129242690Y-119411204D01*
X129244611Y-119391695D01*
X129244611Y-118996254D01*
X129257241Y-118970992D01*
X129282505Y-118958361D01*
X129349576Y-118958361D01*
X129387468Y-118977307D01*
X129387468Y-119391695D01*
X129389389Y-119411204D01*
X129404321Y-119447252D01*
X129431911Y-119474842D01*
X129467959Y-119489774D01*
X129506977Y-119489774D01*
X129543025Y-119474842D01*
X129570615Y-119447252D01*
X129585547Y-119411204D01*
X129587468Y-119391695D01*
X129587468Y-119010742D01*
X129730326Y-119010742D01*
X129730326Y-119239314D01*
X129732247Y-119258823D01*
X129733622Y-119262143D01*
X129733877Y-119265727D01*
X129740883Y-119284035D01*
X129778978Y-119360225D01*
X129784262Y-119368621D01*
X129785273Y-119371060D01*
X129787526Y-119373805D01*
X129789421Y-119376816D01*
X129791417Y-119378547D01*
X129797709Y-119386214D01*
X129835804Y-119424310D01*
X129843475Y-119430606D01*
X129845205Y-119432600D01*
X129848210Y-119434491D01*
X129850957Y-119436746D01*
X129853397Y-119437756D01*
X129861795Y-119443043D01*
X129937986Y-119481138D01*
X129956295Y-119488144D01*
X129959877Y-119488398D01*
X129963198Y-119489774D01*
X129982707Y-119491695D01*
X130096993Y-119491695D01*
X130116502Y-119489774D01*
X130119822Y-119488398D01*
X130123406Y-119488144D01*
X130141714Y-119481138D01*
X130217904Y-119443043D01*
X130226300Y-119437757D01*
X130228741Y-119436747D01*
X130231486Y-119434493D01*
X130234495Y-119432600D01*
X130236226Y-119430603D01*
X130243895Y-119424310D01*
X130281989Y-119386214D01*
X130288281Y-119378546D01*
X130290277Y-119376816D01*
X130292169Y-119373809D01*
X130294426Y-119371060D01*
X130295437Y-119368617D01*
X130300720Y-119360226D01*
X130338816Y-119284037D01*
X130345823Y-119265728D01*
X130346077Y-119262142D01*
X130347453Y-119258823D01*
X130349374Y-119239314D01*
X130349374Y-119010742D01*
X130347453Y-118991233D01*
X130346077Y-118987913D01*
X130345823Y-118984328D01*
X130338816Y-118966019D01*
X130300720Y-118889830D01*
X130295436Y-118881437D01*
X130294425Y-118878994D01*
X130292168Y-118876244D01*
X130290277Y-118873240D01*
X130288282Y-118871510D01*
X130281988Y-118863841D01*
X130257000Y-118838852D01*
X130379866Y-118838852D01*
X130379866Y-118877870D01*
X130394798Y-118913918D01*
X130422388Y-118941508D01*
X130458436Y-118956440D01*
X130477945Y-118958361D01*
X130530529Y-118958361D01*
X130571088Y-118978641D01*
X130586235Y-118993787D01*
X130606516Y-119034349D01*
X130606516Y-119391695D01*
X130608437Y-119411204D01*
X130623369Y-119447252D01*
X130650959Y-119474842D01*
X130687007Y-119489774D01*
X130726025Y-119489774D01*
X130762073Y-119474842D01*
X130789663Y-119447252D01*
X130804595Y-119411204D01*
X130806516Y-119391695D01*
X130806516Y-118858361D01*
X130804595Y-118838852D01*
X130875104Y-118838852D01*
X130875104Y-118877870D01*
X130890036Y-118913918D01*
X130917626Y-118941508D01*
X130953674Y-118956440D01*
X130973183Y-118958361D01*
X131063659Y-118958361D01*
X131063659Y-119253802D01*
X131051028Y-119279064D01*
X131025767Y-119291695D01*
X130973183Y-119291695D01*
X130953674Y-119293616D01*
X130917626Y-119308548D01*
X130890036Y-119336138D01*
X130875104Y-119372186D01*
X130875104Y-119411204D01*
X130890036Y-119447252D01*
X130917626Y-119474842D01*
X130953674Y-119489774D01*
X130973183Y-119491695D01*
X131049374Y-119491695D01*
X131068883Y-119489774D01*
X131072203Y-119488398D01*
X131075787Y-119488144D01*
X131094095Y-119481138D01*
X131170285Y-119443043D01*
X131173547Y-119440989D01*
X131175088Y-119440476D01*
X131177005Y-119438812D01*
X131186876Y-119432600D01*
X131195092Y-119423125D01*
X131204564Y-119414911D01*
X131210777Y-119405039D01*
X131212440Y-119403123D01*
X131212953Y-119401584D01*
X131215007Y-119398321D01*
X131253102Y-119322130D01*
X131260108Y-119303821D01*
X131260362Y-119300238D01*
X131261738Y-119296918D01*
X131263659Y-119277409D01*
X131263659Y-118958361D01*
X131277945Y-118958361D01*
X131297454Y-118956440D01*
X131333502Y-118941508D01*
X131361092Y-118913918D01*
X131373506Y-118883950D01*
X131407301Y-118883950D01*
X131410067Y-118922870D01*
X131427516Y-118957769D01*
X131456993Y-118983333D01*
X131494009Y-118995672D01*
X131532929Y-118992906D01*
X131551238Y-118985899D01*
X131606315Y-118958361D01*
X131711481Y-118958361D01*
X131752041Y-118978641D01*
X131767188Y-118993788D01*
X131787469Y-119034348D01*
X131787469Y-119215707D01*
X131767189Y-119256266D01*
X131752040Y-119271415D01*
X131711481Y-119291695D01*
X131606314Y-119291695D01*
X131551237Y-119264157D01*
X131532928Y-119257151D01*
X131494008Y-119254385D01*
X131456992Y-119266724D01*
X131427516Y-119292289D01*
X131410067Y-119327188D01*
X131407301Y-119366108D01*
X131419640Y-119403124D01*
X131445205Y-119432600D01*
X131461795Y-119443043D01*
X131537986Y-119481138D01*
X131556295Y-119488144D01*
X131559877Y-119488398D01*
X131563198Y-119489774D01*
X131582707Y-119491695D01*
X131735088Y-119491695D01*
X131754597Y-119489774D01*
X131757917Y-119488398D01*
X131761501Y-119488144D01*
X131779809Y-119481138D01*
X131855999Y-119443043D01*
X131864395Y-119437757D01*
X131866836Y-119436747D01*
X131869581Y-119434493D01*
X131872590Y-119432600D01*
X131874321Y-119430603D01*
X131881990Y-119424310D01*
X131920084Y-119386214D01*
X131926376Y-119378546D01*
X131928372Y-119376816D01*
X131930264Y-119373809D01*
X131932521Y-119371060D01*
X131933532Y-119368617D01*
X131938815Y-119360226D01*
X131976911Y-119284037D01*
X131983918Y-119265728D01*
X131984172Y-119262142D01*
X131985548Y-119258823D01*
X131987469Y-119239314D01*
X131987469Y-119010742D01*
X131985548Y-118991233D01*
X131984172Y-118987913D01*
X131983918Y-118984328D01*
X131979448Y-118972647D01*
X132092230Y-118972647D01*
X132092230Y-119048838D01*
X132094151Y-119068347D01*
X132097900Y-119077399D01*
X132099802Y-119087010D01*
X132105293Y-119095247D01*
X132109083Y-119104395D01*
X132116011Y-119111323D01*
X132121446Y-119119475D01*
X132129671Y-119124983D01*
X132136673Y-119131985D01*
X132145724Y-119135734D01*
X132153865Y-119141186D01*
X132172619Y-119146896D01*
X132172718Y-119146915D01*
X132172721Y-119146917D01*
X132172724Y-119146917D01*
X132473183Y-119207008D01*
X132473183Y-119253801D01*
X132460551Y-119279064D01*
X132435290Y-119291695D01*
X132330123Y-119291695D01*
X132275046Y-119264157D01*
X132256737Y-119257151D01*
X132217817Y-119254385D01*
X132180801Y-119266724D01*
X132151325Y-119292289D01*
X132133876Y-119327188D01*
X132131110Y-119366108D01*
X132143449Y-119403124D01*
X132169014Y-119432600D01*
X132185604Y-119443043D01*
X132261795Y-119481138D01*
X132280104Y-119488144D01*
X132283686Y-119488398D01*
X132287007Y-119489774D01*
X132306516Y-119491695D01*
X132458897Y-119491695D01*
X132478406Y-119489774D01*
X132481726Y-119488398D01*
X132485310Y-119488144D01*
X132503618Y-119481138D01*
X132579808Y-119443043D01*
X132583071Y-119440988D01*
X132584610Y-119440476D01*
X132586525Y-119438814D01*
X132596399Y-119432600D01*
X132604614Y-119423127D01*
X132614087Y-119414912D01*
X132620300Y-119405039D01*
X132621963Y-119403123D01*
X132622476Y-119401583D01*
X132624529Y-119398322D01*
X132634096Y-119379188D01*
X132740635Y-119379188D01*
X132743401Y-119418108D01*
X132760850Y-119453007D01*
X132790327Y-119478571D01*
X132827343Y-119490910D01*
X132866263Y-119488144D01*
X132884571Y-119481138D01*
X132960761Y-119443043D01*
X132964023Y-119440989D01*
X132965564Y-119440476D01*
X132967481Y-119438812D01*
X132977352Y-119432600D01*
X132985568Y-119423125D01*
X132995040Y-119414911D01*
X133001253Y-119405039D01*
X133002916Y-119403123D01*
X133003429Y-119401584D01*
X133005483Y-119398321D01*
X133043578Y-119322130D01*
X133050584Y-119303821D01*
X133050838Y-119300238D01*
X133052214Y-119296918D01*
X133054135Y-119277409D01*
X133054135Y-118591695D01*
X133052214Y-118572186D01*
X133198914Y-118572186D01*
X133198914Y-118611204D01*
X133213846Y-118647252D01*
X133241436Y-118674842D01*
X133277484Y-118689774D01*
X133296993Y-118691695D01*
X133577945Y-118691695D01*
X133577945Y-118872647D01*
X133411279Y-118872647D01*
X133391770Y-118874568D01*
X133355722Y-118889500D01*
X133328132Y-118917090D01*
X133313200Y-118953138D01*
X133313200Y-118992156D01*
X133328132Y-119028204D01*
X133355722Y-119055794D01*
X133391770Y-119070726D01*
X133411279Y-119072647D01*
X133577945Y-119072647D01*
X133577945Y-119291695D01*
X133296993Y-119291695D01*
X133277484Y-119293616D01*
X133241436Y-119308548D01*
X133213846Y-119336138D01*
X133198914Y-119372186D01*
X133198914Y-119411204D01*
X133213846Y-119447252D01*
X133241436Y-119474842D01*
X133277484Y-119489774D01*
X133296993Y-119491695D01*
X133677945Y-119491695D01*
X133697454Y-119489774D01*
X133733502Y-119474842D01*
X133761092Y-119447252D01*
X133776024Y-119411204D01*
X133776024Y-119411203D01*
X133777945Y-119391695D01*
X133777945Y-118591695D01*
X133776024Y-118572186D01*
X133761092Y-118536138D01*
X133733502Y-118508548D01*
X133697454Y-118493616D01*
X133677945Y-118491695D01*
X133296993Y-118491695D01*
X133277484Y-118493616D01*
X133241436Y-118508548D01*
X133213846Y-118536138D01*
X133198914Y-118572186D01*
X133052214Y-118572186D01*
X133037282Y-118536138D01*
X133009692Y-118508548D01*
X132973644Y-118493616D01*
X132934626Y-118493616D01*
X132898578Y-118508548D01*
X132870988Y-118536138D01*
X132856056Y-118572186D01*
X132854135Y-118591695D01*
X132854135Y-119253802D01*
X132841504Y-119279064D01*
X132795129Y-119302252D01*
X132778538Y-119312695D01*
X132752974Y-119342172D01*
X132740635Y-119379188D01*
X132634096Y-119379188D01*
X132662625Y-119322131D01*
X132669632Y-119303823D01*
X132669886Y-119300237D01*
X132671262Y-119296918D01*
X132673183Y-119277409D01*
X132673183Y-118972647D01*
X132671262Y-118953138D01*
X132669886Y-118949818D01*
X132669632Y-118946233D01*
X132662625Y-118927924D01*
X132624529Y-118851735D01*
X132622475Y-118848473D01*
X132621963Y-118846935D01*
X132620301Y-118845019D01*
X132614086Y-118835145D01*
X132604612Y-118826928D01*
X132596399Y-118817458D01*
X132586528Y-118811244D01*
X132584609Y-118809580D01*
X132583067Y-118809066D01*
X132579809Y-118807015D01*
X132503619Y-118768919D01*
X132485311Y-118761912D01*
X132481725Y-118761657D01*
X132478406Y-118760282D01*
X132458897Y-118758361D01*
X132306516Y-118758361D01*
X132287007Y-118760282D01*
X132283687Y-118761657D01*
X132280102Y-118761912D01*
X132261794Y-118768919D01*
X132185603Y-118807015D01*
X132182341Y-118809067D01*
X132180802Y-118809581D01*
X132178885Y-118811243D01*
X132169013Y-118817457D01*
X132160797Y-118826929D01*
X132151325Y-118835145D01*
X132145110Y-118845018D01*
X132143449Y-118846934D01*
X132142936Y-118848472D01*
X132140882Y-118851736D01*
X132102787Y-118927926D01*
X132095781Y-118946234D01*
X132095526Y-118949817D01*
X132094151Y-118953138D01*
X132092230Y-118972647D01*
X131979448Y-118972647D01*
X131976911Y-118966019D01*
X131938815Y-118889830D01*
X131933531Y-118881437D01*
X131932520Y-118878994D01*
X131930263Y-118876244D01*
X131928372Y-118873240D01*
X131926377Y-118871510D01*
X131920083Y-118863841D01*
X131881989Y-118825746D01*
X131874319Y-118819451D01*
X131872590Y-118817458D01*
X131869583Y-118815565D01*
X131866835Y-118813310D01*
X131864394Y-118812298D01*
X131856000Y-118807015D01*
X131779810Y-118768919D01*
X131761502Y-118761912D01*
X131757916Y-118761657D01*
X131754597Y-118760282D01*
X131735088Y-118758361D01*
X131582707Y-118758361D01*
X131563198Y-118760282D01*
X131559878Y-118761657D01*
X131556293Y-118761912D01*
X131537985Y-118768919D01*
X131461794Y-118807015D01*
X131445204Y-118817457D01*
X131419640Y-118846934D01*
X131407301Y-118883950D01*
X131373506Y-118883950D01*
X131376024Y-118877870D01*
X131376024Y-118838852D01*
X131361092Y-118802804D01*
X131333502Y-118775214D01*
X131297454Y-118760282D01*
X131277945Y-118758361D01*
X131263659Y-118758361D01*
X131263659Y-118591695D01*
X131261738Y-118572186D01*
X131246806Y-118536138D01*
X131219216Y-118508548D01*
X131183168Y-118493616D01*
X131144150Y-118493616D01*
X131108102Y-118508548D01*
X131080512Y-118536138D01*
X131065580Y-118572186D01*
X131063659Y-118591695D01*
X131063659Y-118758361D01*
X130973183Y-118758361D01*
X130953674Y-118760282D01*
X130917626Y-118775214D01*
X130890036Y-118802804D01*
X130875104Y-118838852D01*
X130804595Y-118838852D01*
X130789663Y-118802804D01*
X130762073Y-118775214D01*
X130726025Y-118760282D01*
X130687007Y-118760282D01*
X130650959Y-118775214D01*
X130637788Y-118788384D01*
X130598857Y-118768919D01*
X130580548Y-118761912D01*
X130576964Y-118761657D01*
X130573644Y-118760282D01*
X130554135Y-118758361D01*
X130477945Y-118758361D01*
X130458436Y-118760282D01*
X130422388Y-118775214D01*
X130394798Y-118802804D01*
X130379866Y-118838852D01*
X130257000Y-118838852D01*
X130243894Y-118825746D01*
X130236224Y-118819451D01*
X130234495Y-118817458D01*
X130231488Y-118815565D01*
X130228740Y-118813310D01*
X130226299Y-118812298D01*
X130217905Y-118807015D01*
X130141715Y-118768919D01*
X130123407Y-118761912D01*
X130119821Y-118761657D01*
X130116502Y-118760282D01*
X130096993Y-118758361D01*
X129982707Y-118758361D01*
X129963198Y-118760282D01*
X129959878Y-118761657D01*
X129956293Y-118761912D01*
X129937985Y-118768919D01*
X129861794Y-118807015D01*
X129853398Y-118812299D01*
X129850958Y-118813310D01*
X129848212Y-118815563D01*
X129845204Y-118817457D01*
X129843471Y-118819454D01*
X129835805Y-118825747D01*
X129797710Y-118863841D01*
X129791418Y-118871507D01*
X129789421Y-118873240D01*
X129787525Y-118876251D01*
X129785274Y-118878995D01*
X129784264Y-118881432D01*
X129778978Y-118889831D01*
X129740883Y-118966021D01*
X129733877Y-118984329D01*
X129733622Y-118987912D01*
X129732247Y-118991233D01*
X129730326Y-119010742D01*
X129587468Y-119010742D01*
X129587468Y-118858361D01*
X129585547Y-118838852D01*
X129570615Y-118802804D01*
X129543025Y-118775214D01*
X129506977Y-118760282D01*
X129467959Y-118760282D01*
X129431911Y-118775214D01*
X129431438Y-118775686D01*
X129417905Y-118768919D01*
X129399597Y-118761912D01*
X129396011Y-118761657D01*
X129392692Y-118760282D01*
X129373183Y-118758361D01*
X129258897Y-118758361D01*
X129239388Y-118760282D01*
X129236068Y-118761657D01*
X129232483Y-118761912D01*
X129214175Y-118768919D01*
X129137984Y-118807015D01*
X129134722Y-118809067D01*
X129133183Y-118809581D01*
X129131266Y-118811243D01*
X129121394Y-118817457D01*
X129113178Y-118826929D01*
X129103706Y-118835145D01*
X129097491Y-118845018D01*
X129095830Y-118846934D01*
X129095317Y-118848472D01*
X129093263Y-118851736D01*
X129055168Y-118927926D01*
X129048162Y-118946234D01*
X129047907Y-118949817D01*
X129046532Y-118953138D01*
X129044611Y-118972647D01*
X128901754Y-118972647D01*
X128899833Y-118953138D01*
X128898457Y-118949818D01*
X128898203Y-118946233D01*
X128891196Y-118927924D01*
X128853100Y-118851735D01*
X128851046Y-118848473D01*
X128850534Y-118846935D01*
X128848872Y-118845019D01*
X128842657Y-118835145D01*
X128833183Y-118826928D01*
X128824970Y-118817458D01*
X128815099Y-118811244D01*
X128813180Y-118809580D01*
X128811638Y-118809066D01*
X128808380Y-118807015D01*
X128732190Y-118768919D01*
X128713882Y-118761912D01*
X128710296Y-118761657D01*
X128706977Y-118760282D01*
X128687468Y-118758361D01*
X128573182Y-118758361D01*
X128553673Y-118760282D01*
X128550353Y-118761657D01*
X128546768Y-118761912D01*
X128528459Y-118768919D01*
X128452270Y-118807015D01*
X128435680Y-118817458D01*
X128410115Y-118846935D01*
X128397777Y-118883951D01*
X128400543Y-118922871D01*
X128417993Y-118957769D01*
X128447470Y-118983334D01*
X128484486Y-118995672D01*
X128523406Y-118992906D01*
X128541714Y-118985899D01*
X128596789Y-118958361D01*
X128663861Y-118958361D01*
X128689123Y-118970992D01*
X128699474Y-118991694D01*
X128689122Y-119012397D01*
X128663861Y-119025028D01*
X128573182Y-119025028D01*
X128553673Y-119026949D01*
X128550352Y-119028324D01*
X128546769Y-119028579D01*
X128528461Y-119035585D01*
X128452271Y-119073680D01*
X128449007Y-119075734D01*
X128447469Y-119076247D01*
X128445553Y-119077908D01*
X128435680Y-119084123D01*
X128427464Y-119093595D01*
X128417992Y-119101811D01*
X128411775Y-119111685D01*
X128410116Y-119113600D01*
X128409603Y-119115136D01*
X128407549Y-119118401D01*
X128369454Y-119194592D01*
X128362447Y-119212901D01*
X128362192Y-119216484D01*
X128360817Y-119219805D01*
X128358896Y-119239314D01*
X127577864Y-119239314D01*
X127678858Y-118885833D01*
X127682371Y-118866547D01*
X127677917Y-118827784D01*
X127658968Y-118793676D01*
X127628409Y-118769415D01*
X127590892Y-118758696D01*
X127552129Y-118763150D01*
X127518021Y-118782099D01*
X127493760Y-118812658D01*
X127486554Y-118830889D01*
X127414534Y-119082958D01*
X127370792Y-118973603D01*
X127361763Y-118956203D01*
X127360894Y-118955313D01*
X127360407Y-118954175D01*
X127347301Y-118941384D01*
X127334511Y-118928279D01*
X127333372Y-118927791D01*
X127332483Y-118926923D01*
X127315434Y-118920103D01*
X127298647Y-118912909D01*
X127297410Y-118912893D01*
X127296256Y-118912432D01*
X127277924Y-118912655D01*
X127259632Y-118912432D01*
X127258479Y-118912892D01*
X127257241Y-118912908D01*
X127240418Y-118920117D01*
X127223405Y-118926923D01*
X127222517Y-118927789D01*
X127221377Y-118928278D01*
X127208575Y-118941395D01*
X127195481Y-118954175D01*
X127194993Y-118955313D01*
X127194125Y-118956203D01*
X127185096Y-118973603D01*
X127141353Y-119082958D01*
X127069334Y-118830889D01*
X127062128Y-118812658D01*
X127037867Y-118782099D01*
X127003759Y-118763150D01*
X126964996Y-118758696D01*
X126927479Y-118769415D01*
X126896920Y-118793676D01*
X126877971Y-118827784D01*
X126873517Y-118866547D01*
X126765268Y-118866547D01*
X126757862Y-118851735D01*
X126755808Y-118848473D01*
X126755296Y-118846935D01*
X126753634Y-118845019D01*
X126747419Y-118835145D01*
X126737945Y-118826928D01*
X126729732Y-118817458D01*
X126719861Y-118811244D01*
X126717942Y-118809580D01*
X126716400Y-118809066D01*
X126713142Y-118807015D01*
X126636952Y-118768919D01*
X126618644Y-118761912D01*
X126615058Y-118761657D01*
X126611739Y-118760282D01*
X126592230Y-118758361D01*
X126439849Y-118758361D01*
X126420340Y-118760282D01*
X126417020Y-118761657D01*
X126413435Y-118761912D01*
X126395127Y-118768919D01*
X126318936Y-118807015D01*
X126315674Y-118809067D01*
X126314135Y-118809581D01*
X126312218Y-118811243D01*
X126302346Y-118817457D01*
X126294130Y-118826929D01*
X126284658Y-118835145D01*
X126278443Y-118845018D01*
X126276782Y-118846934D01*
X126276269Y-118848472D01*
X126274215Y-118851736D01*
X126236120Y-118927926D01*
X126229114Y-118946234D01*
X126228859Y-118949817D01*
X126227484Y-118953138D01*
X126225563Y-118972647D01*
X126082706Y-118972647D01*
X126082706Y-118858361D01*
X126080785Y-118838852D01*
X126065853Y-118802804D01*
X126038263Y-118775214D01*
X126002215Y-118760282D01*
X125963197Y-118760282D01*
X125927149Y-118775214D01*
X125913978Y-118788384D01*
X125875047Y-118768919D01*
X125856738Y-118761912D01*
X125853154Y-118761657D01*
X125849834Y-118760282D01*
X125830325Y-118758361D01*
X125754135Y-118758361D01*
X125734626Y-118760282D01*
X125698578Y-118775214D01*
X125670988Y-118802804D01*
X125656056Y-118838852D01*
X125568800Y-118838852D01*
X125566467Y-118835145D01*
X125556993Y-118826928D01*
X125548780Y-118817458D01*
X125538909Y-118811244D01*
X125536990Y-118809580D01*
X125535448Y-118809066D01*
X125532190Y-118807015D01*
X125456000Y-118768919D01*
X125437692Y-118761912D01*
X125434106Y-118761657D01*
X125430787Y-118760282D01*
X125411278Y-118758361D01*
X125258897Y-118758361D01*
X125239388Y-118760282D01*
X125236068Y-118761657D01*
X125232483Y-118761912D01*
X125214175Y-118768919D01*
X125137984Y-118807015D01*
X125134722Y-118809067D01*
X125133183Y-118809581D01*
X125131266Y-118811243D01*
X125121394Y-118817457D01*
X125113178Y-118826929D01*
X125103706Y-118835145D01*
X125097491Y-118845018D01*
X125095830Y-118846934D01*
X125095317Y-118848472D01*
X125093263Y-118851736D01*
X125055168Y-118927926D01*
X125048162Y-118946234D01*
X125047907Y-118949817D01*
X125046532Y-118953138D01*
X125044611Y-118972647D01*
X124292230Y-118972647D01*
X124292230Y-118591695D01*
X124290309Y-118572186D01*
X124275377Y-118536138D01*
X124247787Y-118508548D01*
X124211739Y-118493616D01*
X124172721Y-118493616D01*
X124136673Y-118508548D01*
X124109083Y-118536138D01*
X124094151Y-118572186D01*
X124092230Y-118591695D01*
X124092230Y-118759767D01*
X124077945Y-118758361D01*
X123963659Y-118758361D01*
X123944150Y-118760282D01*
X123940830Y-118761657D01*
X123937245Y-118761912D01*
X123918937Y-118768919D01*
X123842746Y-118807015D01*
X123839484Y-118809067D01*
X123837945Y-118809581D01*
X123836028Y-118811243D01*
X123826156Y-118817457D01*
X123817940Y-118826929D01*
X123808468Y-118835145D01*
X123802253Y-118845018D01*
X123800592Y-118846934D01*
X123800079Y-118848472D01*
X123798025Y-118851736D01*
X123759930Y-118927926D01*
X123752924Y-118946234D01*
X123752669Y-118949817D01*
X123751294Y-118953138D01*
X123749373Y-118972647D01*
X123530264Y-118972647D01*
X123547419Y-118957769D01*
X123564869Y-118922871D01*
X123567635Y-118883951D01*
X123555296Y-118846935D01*
X123529732Y-118817458D01*
X123513142Y-118807015D01*
X123436952Y-118768919D01*
X123418644Y-118761912D01*
X123415058Y-118761657D01*
X123411739Y-118760282D01*
X123392230Y-118758361D01*
X123239849Y-118758361D01*
X123220340Y-118760282D01*
X123217020Y-118761657D01*
X123213435Y-118761912D01*
X123195127Y-118768919D01*
X123118936Y-118807015D01*
X123115674Y-118809067D01*
X123114135Y-118809581D01*
X123112218Y-118811243D01*
X123102346Y-118817457D01*
X123094130Y-118826929D01*
X123084658Y-118835145D01*
X123078443Y-118845018D01*
X123076782Y-118846934D01*
X123076269Y-118848472D01*
X123074215Y-118851736D01*
X123036120Y-118927926D01*
X123029114Y-118946234D01*
X123028859Y-118949817D01*
X123027484Y-118953138D01*
X123025563Y-118972647D01*
X122844610Y-118972647D01*
X122844610Y-118858361D01*
X122842689Y-118838852D01*
X122827757Y-118802804D01*
X122800167Y-118775214D01*
X122764119Y-118760282D01*
X122725101Y-118760282D01*
X122689053Y-118775214D01*
X122675882Y-118788384D01*
X122636951Y-118768919D01*
X122618642Y-118761912D01*
X122615058Y-118761657D01*
X122611738Y-118760282D01*
X122592229Y-118758361D01*
X122516039Y-118758361D01*
X122496530Y-118760282D01*
X122460482Y-118775214D01*
X122432892Y-118802804D01*
X122417960Y-118838852D01*
X122347451Y-118838852D01*
X122332519Y-118802804D01*
X122304929Y-118775214D01*
X122268881Y-118760282D01*
X122229863Y-118760282D01*
X122193815Y-118775214D01*
X122193342Y-118775686D01*
X122179809Y-118768919D01*
X122161501Y-118761912D01*
X122157915Y-118761657D01*
X122154596Y-118760282D01*
X122135087Y-118758361D01*
X122020801Y-118758361D01*
X122001292Y-118760282D01*
X121997972Y-118761657D01*
X121994387Y-118761912D01*
X121976079Y-118768919D01*
X121906515Y-118803700D01*
X121836951Y-118768919D01*
X121818642Y-118761912D01*
X121815058Y-118761657D01*
X121811738Y-118760282D01*
X121792229Y-118758361D01*
X121677944Y-118758361D01*
X121658435Y-118760282D01*
X121655115Y-118761657D01*
X121651530Y-118761912D01*
X121633222Y-118768919D01*
X121557031Y-118807015D01*
X121553769Y-118809067D01*
X121552230Y-118809581D01*
X121550313Y-118811243D01*
X121540441Y-118817457D01*
X121532225Y-118826929D01*
X121522753Y-118835145D01*
X121516538Y-118845018D01*
X121514877Y-118846934D01*
X121514364Y-118848472D01*
X121512310Y-118851736D01*
X121474215Y-118927926D01*
X121467209Y-118946234D01*
X121466954Y-118949817D01*
X121465579Y-118953138D01*
X121463658Y-118972647D01*
X121320801Y-118972647D01*
X121318880Y-118953138D01*
X121317504Y-118949818D01*
X121317250Y-118946233D01*
X121310243Y-118927924D01*
X121272147Y-118851735D01*
X121270093Y-118848473D01*
X121269581Y-118846935D01*
X121267919Y-118845019D01*
X121261704Y-118835145D01*
X121252230Y-118826928D01*
X121244017Y-118817458D01*
X121234146Y-118811244D01*
X121232227Y-118809580D01*
X121230685Y-118809066D01*
X121227427Y-118807015D01*
X121151237Y-118768919D01*
X121132929Y-118761912D01*
X121129343Y-118761657D01*
X121126024Y-118760282D01*
X121106515Y-118758361D01*
X120954134Y-118758361D01*
X120934625Y-118760282D01*
X120931305Y-118761657D01*
X120927720Y-118761912D01*
X120909412Y-118768919D01*
X120833221Y-118807015D01*
X120829959Y-118809067D01*
X120828420Y-118809581D01*
X120826503Y-118811243D01*
X120816631Y-118817457D01*
X120808415Y-118826929D01*
X120798943Y-118835145D01*
X120792728Y-118845018D01*
X120791067Y-118846934D01*
X120790554Y-118848472D01*
X120788500Y-118851736D01*
X120750405Y-118927926D01*
X120743399Y-118946234D01*
X120743144Y-118949817D01*
X120741769Y-118953138D01*
X120739848Y-118972647D01*
X120627066Y-118972647D01*
X120624529Y-118966019D01*
X120586433Y-118889830D01*
X120581149Y-118881437D01*
X120580138Y-118878994D01*
X120577881Y-118876244D01*
X120575990Y-118873240D01*
X120573995Y-118871510D01*
X120567701Y-118863841D01*
X120529607Y-118825746D01*
X120521937Y-118819451D01*
X120520208Y-118817458D01*
X120517201Y-118815565D01*
X120514453Y-118813310D01*
X120512012Y-118812298D01*
X120503618Y-118807015D01*
X120427428Y-118768919D01*
X120409120Y-118761912D01*
X120405534Y-118761657D01*
X120402215Y-118760282D01*
X120382706Y-118758361D01*
X120254134Y-118758361D01*
X120254134Y-118591695D01*
X120252213Y-118572186D01*
X120237281Y-118536138D01*
X120209691Y-118508548D01*
X120173643Y-118493616D01*
X120134625Y-118493616D01*
X120098577Y-118508548D01*
X120070987Y-118536138D01*
X120056055Y-118572186D01*
X120054134Y-118591695D01*
X119292133Y-118591695D01*
X119284901Y-118574234D01*
X119284899Y-118574232D01*
X119284899Y-118574231D01*
X119272463Y-118559078D01*
X119234367Y-118520983D01*
X119219213Y-118508547D01*
X119198097Y-118499800D01*
X119183166Y-118493616D01*
X119144148Y-118493616D01*
X119123299Y-118502252D01*
X119117102Y-118504819D01*
X119108099Y-118508548D01*
X119092946Y-118520985D01*
X119054851Y-118559079D01*
X119042417Y-118574231D01*
X119042415Y-118574233D01*
X119027483Y-118610281D01*
X117549371Y-118610281D01*
X117549371Y-118591695D01*
X117547450Y-118572186D01*
X117532518Y-118536138D01*
X117504928Y-118508548D01*
X117468880Y-118493616D01*
X117429862Y-118493616D01*
X117393814Y-118508548D01*
X117366224Y-118536138D01*
X117351292Y-118572186D01*
X117349371Y-118591695D01*
X117349371Y-118758361D01*
X117258895Y-118758361D01*
X117239386Y-118760282D01*
X117203338Y-118775214D01*
X117175748Y-118802804D01*
X117160816Y-118838852D01*
X117092228Y-118838852D01*
X117092228Y-118591695D01*
X117090307Y-118572186D01*
X117075375Y-118536138D01*
X117047785Y-118508548D01*
X117011737Y-118493616D01*
X116972719Y-118493616D01*
X116936671Y-118508548D01*
X116909081Y-118536138D01*
X116894149Y-118572186D01*
X116892228Y-118591695D01*
X116892228Y-118759767D01*
X116877943Y-118758361D01*
X116763657Y-118758361D01*
X116744148Y-118760282D01*
X116740828Y-118761657D01*
X116737243Y-118761912D01*
X116718935Y-118768919D01*
X116642744Y-118807015D01*
X116639482Y-118809067D01*
X116637943Y-118809581D01*
X116636026Y-118811243D01*
X116626154Y-118817457D01*
X116617938Y-118826929D01*
X116608466Y-118835145D01*
X116602251Y-118845018D01*
X116600590Y-118846934D01*
X116600077Y-118848472D01*
X116598023Y-118851736D01*
X116559928Y-118927926D01*
X116552922Y-118946234D01*
X116552667Y-118949817D01*
X116551292Y-118953138D01*
X116549371Y-118972647D01*
X116406514Y-118972647D01*
X116404593Y-118953138D01*
X116403217Y-118949818D01*
X116402963Y-118946233D01*
X116395956Y-118927924D01*
X116357860Y-118851735D01*
X116355806Y-118848473D01*
X116355294Y-118846935D01*
X116353632Y-118845019D01*
X116347417Y-118835145D01*
X116337943Y-118826928D01*
X116329730Y-118817458D01*
X116319859Y-118811244D01*
X116317940Y-118809580D01*
X116316398Y-118809066D01*
X116313140Y-118807015D01*
X116236950Y-118768919D01*
X116218642Y-118761912D01*
X116215056Y-118761657D01*
X116211737Y-118760282D01*
X116192228Y-118758361D01*
X116039847Y-118758361D01*
X116020338Y-118760282D01*
X116017018Y-118761657D01*
X116013433Y-118761912D01*
X115995125Y-118768919D01*
X115918934Y-118807015D01*
X115915672Y-118809067D01*
X115914133Y-118809581D01*
X115912216Y-118811243D01*
X115902344Y-118817457D01*
X115894128Y-118826929D01*
X115884656Y-118835145D01*
X115878441Y-118845018D01*
X115876780Y-118846934D01*
X115876267Y-118848472D01*
X115874213Y-118851736D01*
X115836118Y-118927926D01*
X115829112Y-118946234D01*
X115828857Y-118949817D01*
X115827482Y-118953138D01*
X115825561Y-118972647D01*
X115073180Y-118972647D01*
X115073180Y-118858361D01*
X115071259Y-118838852D01*
X115056327Y-118802804D01*
X115028737Y-118775214D01*
X114992689Y-118760282D01*
X114953671Y-118760282D01*
X114917623Y-118775214D01*
X114917150Y-118775686D01*
X114903617Y-118768919D01*
X114885309Y-118761912D01*
X114881723Y-118761657D01*
X114878404Y-118760282D01*
X114858895Y-118758361D01*
X114744609Y-118758361D01*
X114725100Y-118760282D01*
X114721780Y-118761657D01*
X114718195Y-118761912D01*
X114699887Y-118768919D01*
X114630323Y-118803700D01*
X114560759Y-118768919D01*
X114542450Y-118761912D01*
X114538866Y-118761657D01*
X114535546Y-118760282D01*
X114516037Y-118758361D01*
X114401752Y-118758361D01*
X114382243Y-118760282D01*
X114378923Y-118761657D01*
X114375338Y-118761912D01*
X114357030Y-118768919D01*
X114280839Y-118807015D01*
X114277577Y-118809067D01*
X114276038Y-118809581D01*
X114274121Y-118811243D01*
X114264249Y-118817457D01*
X114256033Y-118826929D01*
X114246561Y-118835145D01*
X114240346Y-118845018D01*
X114238685Y-118846934D01*
X114238172Y-118848472D01*
X114236118Y-118851736D01*
X114198023Y-118927926D01*
X114191017Y-118946234D01*
X114190762Y-118949817D01*
X114189387Y-118953138D01*
X114187466Y-118972647D01*
X113968357Y-118972647D01*
X113985512Y-118957769D01*
X114002962Y-118922871D01*
X114005728Y-118883951D01*
X113993389Y-118846935D01*
X113967825Y-118817458D01*
X113951235Y-118807015D01*
X113875045Y-118768919D01*
X113856737Y-118761912D01*
X113853151Y-118761657D01*
X113849832Y-118760282D01*
X113830323Y-118758361D01*
X113677942Y-118758361D01*
X113658433Y-118760282D01*
X113655113Y-118761657D01*
X113651528Y-118761912D01*
X113633220Y-118768919D01*
X113557029Y-118807015D01*
X113553767Y-118809067D01*
X113552228Y-118809581D01*
X113550311Y-118811243D01*
X113540439Y-118817457D01*
X113532223Y-118826929D01*
X113522751Y-118835145D01*
X113516536Y-118845018D01*
X113514875Y-118846934D01*
X113514362Y-118848472D01*
X113512308Y-118851736D01*
X113474213Y-118927926D01*
X113467207Y-118946234D01*
X113466952Y-118949817D01*
X113465577Y-118953138D01*
X113463656Y-118972647D01*
X113282703Y-118972647D01*
X113282703Y-118591695D01*
X113280782Y-118572186D01*
X113265850Y-118536138D01*
X113238260Y-118508548D01*
X113202212Y-118493616D01*
X113163194Y-118493616D01*
X113127146Y-118508548D01*
X113099556Y-118536138D01*
X113084624Y-118572186D01*
X113082703Y-118591695D01*
X113082703Y-118921701D01*
X112948652Y-118787650D01*
X112933498Y-118775214D01*
X112897450Y-118760282D01*
X112858432Y-118760282D01*
X112822384Y-118775214D01*
X112794794Y-118802804D01*
X112779862Y-118838852D01*
X112779862Y-118877870D01*
X112794794Y-118913918D01*
X112807230Y-118929072D01*
X112974475Y-119096316D01*
X112797941Y-119331695D01*
X112787772Y-119348455D01*
X112778089Y-119386252D01*
X112635084Y-119386252D01*
X112635084Y-118858361D01*
X112633163Y-118838852D01*
X112618231Y-118802804D01*
X112590641Y-118775214D01*
X112561451Y-118763123D01*
X112572948Y-118758361D01*
X112590640Y-118751033D01*
X112605794Y-118738597D01*
X112643890Y-118700502D01*
X112656326Y-118685349D01*
X112656326Y-118685347D01*
X112656328Y-118685346D01*
X112671259Y-118649298D01*
X112671258Y-118629790D01*
X112671259Y-118610282D01*
X112656328Y-118574234D01*
X112656326Y-118574232D01*
X112656326Y-118574231D01*
X112643890Y-118559078D01*
X112605794Y-118520983D01*
X112590640Y-118508547D01*
X112569524Y-118499800D01*
X112554593Y-118493616D01*
X112515575Y-118493616D01*
X112494726Y-118502252D01*
X112488529Y-118504819D01*
X112479526Y-118508548D01*
X112464373Y-118520985D01*
X112426278Y-118559079D01*
X112413844Y-118574231D01*
X112413842Y-118574233D01*
X112398910Y-118610281D01*
X109437132Y-118610281D01*
X109424526Y-118585069D01*
X109422471Y-118581805D01*
X109421959Y-118580267D01*
X109420297Y-118578351D01*
X109414083Y-118568478D01*
X109404610Y-118560262D01*
X109396395Y-118550790D01*
X109386521Y-118544575D01*
X109384606Y-118542914D01*
X109383067Y-118542401D01*
X109379804Y-118540347D01*
X109303614Y-118502252D01*
X109285306Y-118495246D01*
X109281722Y-118494991D01*
X109278402Y-118493616D01*
X109258893Y-118491695D01*
X109182702Y-118491695D01*
X109163193Y-118493616D01*
X109127145Y-118508548D01*
X109099555Y-118536138D01*
X109084623Y-118572186D01*
X108404590Y-118572186D01*
X108389658Y-118536138D01*
X108362068Y-118508548D01*
X108326020Y-118493616D01*
X108287002Y-118493616D01*
X108250954Y-118508548D01*
X108223364Y-118536138D01*
X108208432Y-118572186D01*
X108206511Y-118591695D01*
X108206511Y-118758361D01*
X108116035Y-118758361D01*
X108096526Y-118760282D01*
X108060478Y-118775214D01*
X108032888Y-118802804D01*
X108017956Y-118838852D01*
X107949368Y-118838852D01*
X107949368Y-118591695D01*
X107947447Y-118572186D01*
X107932515Y-118536138D01*
X107904925Y-118508548D01*
X107868877Y-118493616D01*
X107829859Y-118493616D01*
X107793811Y-118508548D01*
X107766221Y-118536138D01*
X107751289Y-118572186D01*
X107749368Y-118591695D01*
X107749368Y-118759767D01*
X107735083Y-118758361D01*
X107620797Y-118758361D01*
X107601288Y-118760282D01*
X107597968Y-118761657D01*
X107594383Y-118761912D01*
X107576075Y-118768919D01*
X107499884Y-118807015D01*
X107496622Y-118809067D01*
X107495083Y-118809581D01*
X107493166Y-118811243D01*
X107483294Y-118817457D01*
X107475078Y-118826929D01*
X107465606Y-118835145D01*
X107459391Y-118845018D01*
X107457730Y-118846934D01*
X107457217Y-118848472D01*
X107455163Y-118851736D01*
X107417068Y-118927926D01*
X107410062Y-118946234D01*
X107409807Y-118949817D01*
X107408432Y-118953138D01*
X107406511Y-118972647D01*
X107225558Y-118972647D01*
X107225558Y-118858361D01*
X107223637Y-118838852D01*
X107208705Y-118802804D01*
X107181115Y-118775214D01*
X107151925Y-118763123D01*
X107163422Y-118758361D01*
X107181114Y-118751033D01*
X107196268Y-118738597D01*
X107234364Y-118700502D01*
X107246800Y-118685349D01*
X107246800Y-118685347D01*
X107246802Y-118685346D01*
X107261733Y-118649298D01*
X107261732Y-118629790D01*
X107261733Y-118610282D01*
X107246802Y-118574234D01*
X107246800Y-118574232D01*
X107246800Y-118574231D01*
X107234364Y-118559078D01*
X107196268Y-118520983D01*
X107181114Y-118508547D01*
X107159998Y-118499800D01*
X107145067Y-118493616D01*
X107106049Y-118493616D01*
X107085200Y-118502252D01*
X107079003Y-118504819D01*
X107070000Y-118508548D01*
X107054847Y-118520985D01*
X107016752Y-118559079D01*
X107004318Y-118574231D01*
X107004316Y-118574233D01*
X106989384Y-118610281D01*
X105587463Y-118610281D01*
X105587463Y-118591695D01*
X105585542Y-118572186D01*
X105570610Y-118536138D01*
X105543020Y-118508548D01*
X105506972Y-118493616D01*
X105467954Y-118493616D01*
X105431906Y-118508548D01*
X105404316Y-118536138D01*
X105389384Y-118572186D01*
X105387463Y-118591695D01*
X105387463Y-118758361D01*
X105258892Y-118758361D01*
X105239383Y-118760282D01*
X105236063Y-118761657D01*
X105232478Y-118761912D01*
X105214170Y-118768919D01*
X105137979Y-118807015D01*
X105129583Y-118812299D01*
X105127143Y-118813310D01*
X105124397Y-118815563D01*
X105121389Y-118817457D01*
X105119656Y-118819454D01*
X105111990Y-118825747D01*
X105073895Y-118863841D01*
X105067603Y-118871507D01*
X105065606Y-118873240D01*
X105063710Y-118876251D01*
X105061459Y-118878995D01*
X105060449Y-118881432D01*
X105055163Y-118889831D01*
X105017068Y-118966021D01*
X105010062Y-118984329D01*
X105009807Y-118987912D01*
X105008432Y-118991233D01*
X105006511Y-119010742D01*
X104901749Y-119010742D01*
X104899828Y-118991233D01*
X104898452Y-118987913D01*
X104898198Y-118984328D01*
X104891191Y-118966019D01*
X104853095Y-118889830D01*
X104847811Y-118881437D01*
X104846800Y-118878994D01*
X104844543Y-118876244D01*
X104842652Y-118873240D01*
X104840657Y-118871510D01*
X104834363Y-118863841D01*
X104796269Y-118825746D01*
X104788599Y-118819451D01*
X104786870Y-118817458D01*
X104783863Y-118815565D01*
X104781115Y-118813310D01*
X104778674Y-118812298D01*
X104770280Y-118807015D01*
X104694090Y-118768919D01*
X104675782Y-118761912D01*
X104672196Y-118761657D01*
X104668877Y-118760282D01*
X104649368Y-118758361D01*
X104535082Y-118758361D01*
X104515573Y-118760282D01*
X104512253Y-118761657D01*
X104508668Y-118761912D01*
X104490360Y-118768919D01*
X104414169Y-118807015D01*
X104405773Y-118812299D01*
X104403333Y-118813310D01*
X104400587Y-118815563D01*
X104397579Y-118817457D01*
X104395846Y-118819454D01*
X104388180Y-118825747D01*
X104350085Y-118863841D01*
X104343793Y-118871507D01*
X104341796Y-118873240D01*
X104339900Y-118876251D01*
X104337649Y-118878995D01*
X104336639Y-118881432D01*
X104331353Y-118889831D01*
X104293258Y-118966021D01*
X104286252Y-118984329D01*
X104285997Y-118987912D01*
X104284622Y-118991233D01*
X104282701Y-119010742D01*
X104034878Y-119010742D01*
X104008374Y-118997490D01*
X103990066Y-118990484D01*
X103986482Y-118990229D01*
X103983162Y-118988854D01*
X103963653Y-118986933D01*
X103801647Y-118986933D01*
X103809616Y-118970992D01*
X103834880Y-118958361D01*
X103940046Y-118958361D01*
X103995120Y-118985899D01*
X104013429Y-118992906D01*
X104052349Y-118995672D01*
X104089365Y-118983333D01*
X104118842Y-118957769D01*
X104136292Y-118922871D01*
X104139058Y-118883951D01*
X104126719Y-118846935D01*
X104101155Y-118817458D01*
X104084565Y-118807015D01*
X104008375Y-118768919D01*
X103990067Y-118761912D01*
X103986481Y-118761657D01*
X103983162Y-118760282D01*
X103963653Y-118758361D01*
X103811272Y-118758361D01*
X103791763Y-118760282D01*
X103788443Y-118761657D01*
X103784858Y-118761912D01*
X103766550Y-118768919D01*
X103690359Y-118807015D01*
X103687097Y-118809067D01*
X103685558Y-118809581D01*
X103683641Y-118811243D01*
X103673769Y-118817457D01*
X103665553Y-118826929D01*
X103656081Y-118835145D01*
X103649866Y-118845018D01*
X103648205Y-118846934D01*
X103647692Y-118848472D01*
X103645638Y-118851736D01*
X103607543Y-118927926D01*
X103600537Y-118946234D01*
X103600282Y-118949817D01*
X103598907Y-118953138D01*
X103596986Y-118972647D01*
X103416033Y-118972647D01*
X103416033Y-118858361D01*
X103414112Y-118838852D01*
X103399180Y-118802804D01*
X103371590Y-118775214D01*
X103335542Y-118760282D01*
X103296524Y-118760282D01*
X103260476Y-118775214D01*
X103247305Y-118788384D01*
X103208374Y-118768919D01*
X103190065Y-118761912D01*
X103186481Y-118761657D01*
X103183161Y-118760282D01*
X103163652Y-118758361D01*
X103087462Y-118758361D01*
X103067953Y-118760282D01*
X103031905Y-118775214D01*
X103004315Y-118802804D01*
X102989383Y-118838852D01*
X102866517Y-118838852D01*
X102853411Y-118825746D01*
X102845741Y-118819451D01*
X102844012Y-118817458D01*
X102841005Y-118815565D01*
X102838257Y-118813310D01*
X102835816Y-118812298D01*
X102827422Y-118807015D01*
X102751232Y-118768919D01*
X102732924Y-118761912D01*
X102729338Y-118761657D01*
X102726019Y-118760282D01*
X102706510Y-118758361D01*
X102577938Y-118758361D01*
X102577938Y-118591695D01*
X102576017Y-118572186D01*
X102561085Y-118536138D01*
X102533495Y-118508548D01*
X102497447Y-118493616D01*
X102458429Y-118493616D01*
X102422381Y-118508548D01*
X102394791Y-118536138D01*
X102379859Y-118572186D01*
X102377938Y-118591695D01*
X101860811Y-118591695D01*
X101860811Y-118391695D01*
X133877945Y-118391695D01*
X133877945Y-119858361D01*
G37*
X111726818Y-102537387D02*
X111726818Y-102775482D01*
X111964913Y-102680244D02*
X111726818Y-102775482D01*
X111726818Y-102775482D02*
X111488723Y-102680244D01*
X111869675Y-102965958D02*
X111726818Y-102775482D01*
X111726818Y-102775482D02*
X111583961Y-102965958D01*
X110964913Y-102537387D02*
X110964913Y-102775482D01*
X111203008Y-102680244D02*
X110964913Y-102775482D01*
X110964913Y-102775482D02*
X110726818Y-102680244D01*
X111107770Y-102965958D02*
X110964913Y-102775482D01*
X110964913Y-102775482D02*
X110822056Y-102965958D01*
X110155389Y-102537387D02*
X109964913Y-102537387D01*
X109964913Y-102537387D02*
X109869675Y-102585006D01*
X109869675Y-102585006D02*
X109774437Y-102680244D01*
X109774437Y-102680244D02*
X109726818Y-102870720D01*
X109726818Y-102870720D02*
X109726818Y-103204053D01*
X109726818Y-103204053D02*
X109774437Y-103394529D01*
X109774437Y-103394529D02*
X109869675Y-103489768D01*
X109869675Y-103489768D02*
X109964913Y-103537387D01*
X109964913Y-103537387D02*
X110155389Y-103537387D01*
X110155389Y-103537387D02*
X110250627Y-103489768D01*
X110250627Y-103489768D02*
X110345865Y-103394529D01*
X110345865Y-103394529D02*
X110393484Y-103204053D01*
X110393484Y-103204053D02*
X110393484Y-102870720D01*
X110393484Y-102870720D02*
X110345865Y-102680244D01*
X110345865Y-102680244D02*
X110250627Y-102585006D01*
X110250627Y-102585006D02*
X110155389Y-102537387D01*
X109298246Y-102870720D02*
X109298246Y-103537387D01*
X109298246Y-102965958D02*
X109250627Y-102918339D01*
X109250627Y-102918339D02*
X109155389Y-102870720D01*
X109155389Y-102870720D02*
X109012532Y-102870720D01*
X109012532Y-102870720D02*
X108917294Y-102918339D01*
X108917294Y-102918339D02*
X108869675Y-103013577D01*
X108869675Y-103013577D02*
X108869675Y-103537387D01*
X108250627Y-103537387D02*
X108345865Y-103489768D01*
X108345865Y-103489768D02*
X108393484Y-103394529D01*
X108393484Y-103394529D02*
X108393484Y-102537387D01*
X107964912Y-102870720D02*
X107726817Y-103537387D01*
X107488722Y-102870720D02*
X107726817Y-103537387D01*
X107726817Y-103537387D02*
X107822055Y-103775482D01*
X107822055Y-103775482D02*
X107869674Y-103823101D01*
X107869674Y-103823101D02*
X107964912Y-103870720D01*
X105917293Y-102870720D02*
X105917293Y-103537387D01*
X106345864Y-102870720D02*
X106345864Y-103394529D01*
X106345864Y-103394529D02*
X106298245Y-103489768D01*
X106298245Y-103489768D02*
X106203007Y-103537387D01*
X106203007Y-103537387D02*
X106060150Y-103537387D01*
X106060150Y-103537387D02*
X105964912Y-103489768D01*
X105964912Y-103489768D02*
X105917293Y-103442148D01*
X105488721Y-103489768D02*
X105393483Y-103537387D01*
X105393483Y-103537387D02*
X105203007Y-103537387D01*
X105203007Y-103537387D02*
X105107769Y-103489768D01*
X105107769Y-103489768D02*
X105060150Y-103394529D01*
X105060150Y-103394529D02*
X105060150Y-103346910D01*
X105060150Y-103346910D02*
X105107769Y-103251672D01*
X105107769Y-103251672D02*
X105203007Y-103204053D01*
X105203007Y-103204053D02*
X105345864Y-103204053D01*
X105345864Y-103204053D02*
X105441102Y-103156434D01*
X105441102Y-103156434D02*
X105488721Y-103061196D01*
X105488721Y-103061196D02*
X105488721Y-103013577D01*
X105488721Y-103013577D02*
X105441102Y-102918339D01*
X105441102Y-102918339D02*
X105345864Y-102870720D01*
X105345864Y-102870720D02*
X105203007Y-102870720D01*
X105203007Y-102870720D02*
X105107769Y-102918339D01*
X104250626Y-103489768D02*
X104345864Y-103537387D01*
X104345864Y-103537387D02*
X104536340Y-103537387D01*
X104536340Y-103537387D02*
X104631578Y-103489768D01*
X104631578Y-103489768D02*
X104679197Y-103394529D01*
X104679197Y-103394529D02*
X104679197Y-103013577D01*
X104679197Y-103013577D02*
X104631578Y-102918339D01*
X104631578Y-102918339D02*
X104536340Y-102870720D01*
X104536340Y-102870720D02*
X104345864Y-102870720D01*
X104345864Y-102870720D02*
X104250626Y-102918339D01*
X104250626Y-102918339D02*
X104203007Y-103013577D01*
X104203007Y-103013577D02*
X104203007Y-103108815D01*
X104203007Y-103108815D02*
X104679197Y-103204053D01*
X103345864Y-103537387D02*
X103345864Y-102537387D01*
X103345864Y-103489768D02*
X103441102Y-103537387D01*
X103441102Y-103537387D02*
X103631578Y-103537387D01*
X103631578Y-103537387D02*
X103726816Y-103489768D01*
X103726816Y-103489768D02*
X103774435Y-103442148D01*
X103774435Y-103442148D02*
X103822054Y-103346910D01*
X103822054Y-103346910D02*
X103822054Y-103061196D01*
X103822054Y-103061196D02*
X103774435Y-102965958D01*
X103774435Y-102965958D02*
X103726816Y-102918339D01*
X103726816Y-102918339D02*
X103631578Y-102870720D01*
X103631578Y-102870720D02*
X103441102Y-102870720D01*
X103441102Y-102870720D02*
X103345864Y-102918339D01*
X102203006Y-102870720D02*
X102012530Y-103537387D01*
X102012530Y-103537387D02*
X101822054Y-103061196D01*
X101822054Y-103061196D02*
X101631578Y-103537387D01*
X101631578Y-103537387D02*
X101441102Y-102870720D01*
X101060149Y-103537387D02*
X101060149Y-102537387D01*
X100631578Y-103537387D02*
X100631578Y-103013577D01*
X100631578Y-103013577D02*
X100679197Y-102918339D01*
X100679197Y-102918339D02*
X100774435Y-102870720D01*
X100774435Y-102870720D02*
X100917292Y-102870720D01*
X100917292Y-102870720D02*
X101012530Y-102918339D01*
X101012530Y-102918339D02*
X101060149Y-102965958D01*
X99774435Y-103489768D02*
X99869673Y-103537387D01*
X99869673Y-103537387D02*
X100060149Y-103537387D01*
X100060149Y-103537387D02*
X100155387Y-103489768D01*
X100155387Y-103489768D02*
X100203006Y-103394529D01*
X100203006Y-103394529D02*
X100203006Y-103013577D01*
X100203006Y-103013577D02*
X100155387Y-102918339D01*
X100155387Y-102918339D02*
X100060149Y-102870720D01*
X100060149Y-102870720D02*
X99869673Y-102870720D01*
X99869673Y-102870720D02*
X99774435Y-102918339D01*
X99774435Y-102918339D02*
X99726816Y-103013577D01*
X99726816Y-103013577D02*
X99726816Y-103108815D01*
X99726816Y-103108815D02*
X100203006Y-103204053D01*
X99298244Y-102870720D02*
X99298244Y-103537387D01*
X99298244Y-102965958D02*
X99250625Y-102918339D01*
X99250625Y-102918339D02*
X99155387Y-102870720D01*
X99155387Y-102870720D02*
X99012530Y-102870720D01*
X99012530Y-102870720D02*
X98917292Y-102918339D01*
X98917292Y-102918339D02*
X98869673Y-103013577D01*
X98869673Y-103013577D02*
X98869673Y-103537387D01*
X108203007Y-104480664D02*
X107822055Y-104480664D01*
X108060150Y-104147331D02*
X108060150Y-105004473D01*
X108060150Y-105004473D02*
X108012531Y-105099712D01*
X108012531Y-105099712D02*
X107917293Y-105147331D01*
X107917293Y-105147331D02*
X107822055Y-105147331D01*
X107488721Y-105147331D02*
X107488721Y-104147331D01*
X107060150Y-105147331D02*
X107060150Y-104623521D01*
X107060150Y-104623521D02*
X107107769Y-104528283D01*
X107107769Y-104528283D02*
X107203007Y-104480664D01*
X107203007Y-104480664D02*
X107345864Y-104480664D01*
X107345864Y-104480664D02*
X107441102Y-104528283D01*
X107441102Y-104528283D02*
X107488721Y-104575902D01*
X106203007Y-105099712D02*
X106298245Y-105147331D01*
X106298245Y-105147331D02*
X106488721Y-105147331D01*
X106488721Y-105147331D02*
X106583959Y-105099712D01*
X106583959Y-105099712D02*
X106631578Y-105004473D01*
X106631578Y-105004473D02*
X106631578Y-104623521D01*
X106631578Y-104623521D02*
X106583959Y-104528283D01*
X106583959Y-104528283D02*
X106488721Y-104480664D01*
X106488721Y-104480664D02*
X106298245Y-104480664D01*
X106298245Y-104480664D02*
X106203007Y-104528283D01*
X106203007Y-104528283D02*
X106155388Y-104623521D01*
X106155388Y-104623521D02*
X106155388Y-104718759D01*
X106155388Y-104718759D02*
X106631578Y-104813997D01*
X104536340Y-105147331D02*
X104536340Y-104147331D01*
X104536340Y-105099712D02*
X104631578Y-105147331D01*
X104631578Y-105147331D02*
X104822054Y-105147331D01*
X104822054Y-105147331D02*
X104917292Y-105099712D01*
X104917292Y-105099712D02*
X104964911Y-105052092D01*
X104964911Y-105052092D02*
X105012530Y-104956854D01*
X105012530Y-104956854D02*
X105012530Y-104671140D01*
X105012530Y-104671140D02*
X104964911Y-104575902D01*
X104964911Y-104575902D02*
X104917292Y-104528283D01*
X104917292Y-104528283D02*
X104822054Y-104480664D01*
X104822054Y-104480664D02*
X104631578Y-104480664D01*
X104631578Y-104480664D02*
X104536340Y-104528283D01*
X104060149Y-105147331D02*
X104060149Y-104480664D01*
X104060149Y-104147331D02*
X104107768Y-104194950D01*
X104107768Y-104194950D02*
X104060149Y-104242569D01*
X104060149Y-104242569D02*
X104012530Y-104194950D01*
X104012530Y-104194950D02*
X104060149Y-104147331D01*
X104060149Y-104147331D02*
X104060149Y-104242569D01*
X103631578Y-105099712D02*
X103536340Y-105147331D01*
X103536340Y-105147331D02*
X103345864Y-105147331D01*
X103345864Y-105147331D02*
X103250626Y-105099712D01*
X103250626Y-105099712D02*
X103203007Y-105004473D01*
X103203007Y-105004473D02*
X103203007Y-104956854D01*
X103203007Y-104956854D02*
X103250626Y-104861616D01*
X103250626Y-104861616D02*
X103345864Y-104813997D01*
X103345864Y-104813997D02*
X103488721Y-104813997D01*
X103488721Y-104813997D02*
X103583959Y-104766378D01*
X103583959Y-104766378D02*
X103631578Y-104671140D01*
X103631578Y-104671140D02*
X103631578Y-104623521D01*
X103631578Y-104623521D02*
X103583959Y-104528283D01*
X103583959Y-104528283D02*
X103488721Y-104480664D01*
X103488721Y-104480664D02*
X103345864Y-104480664D01*
X103345864Y-104480664D02*
X103250626Y-104528283D01*
X102774435Y-104480664D02*
X102774435Y-105480664D01*
X102774435Y-104528283D02*
X102679197Y-104480664D01*
X102679197Y-104480664D02*
X102488721Y-104480664D01*
X102488721Y-104480664D02*
X102393483Y-104528283D01*
X102393483Y-104528283D02*
X102345864Y-104575902D01*
X102345864Y-104575902D02*
X102298245Y-104671140D01*
X102298245Y-104671140D02*
X102298245Y-104956854D01*
X102298245Y-104956854D02*
X102345864Y-105052092D01*
X102345864Y-105052092D02*
X102393483Y-105099712D01*
X102393483Y-105099712D02*
X102488721Y-105147331D01*
X102488721Y-105147331D02*
X102679197Y-105147331D01*
X102679197Y-105147331D02*
X102774435Y-105099712D01*
X101726816Y-105147331D02*
X101822054Y-105099712D01*
X101822054Y-105099712D02*
X101869673Y-105004473D01*
X101869673Y-105004473D02*
X101869673Y-104147331D01*
X100917292Y-105147331D02*
X100917292Y-104623521D01*
X100917292Y-104623521D02*
X100964911Y-104528283D01*
X100964911Y-104528283D02*
X101060149Y-104480664D01*
X101060149Y-104480664D02*
X101250625Y-104480664D01*
X101250625Y-104480664D02*
X101345863Y-104528283D01*
X100917292Y-105099712D02*
X101012530Y-105147331D01*
X101012530Y-105147331D02*
X101250625Y-105147331D01*
X101250625Y-105147331D02*
X101345863Y-105099712D01*
X101345863Y-105099712D02*
X101393482Y-105004473D01*
X101393482Y-105004473D02*
X101393482Y-104909235D01*
X101393482Y-104909235D02*
X101345863Y-104813997D01*
X101345863Y-104813997D02*
X101250625Y-104766378D01*
X101250625Y-104766378D02*
X101012530Y-104766378D01*
X101012530Y-104766378D02*
X100917292Y-104718759D01*
X100536339Y-104480664D02*
X100298244Y-105147331D01*
X100060149Y-104480664D02*
X100298244Y-105147331D01*
X100298244Y-105147331D02*
X100393482Y-105385426D01*
X100393482Y-105385426D02*
X100441101Y-105433045D01*
X100441101Y-105433045D02*
X100536339Y-105480664D01*
X99631577Y-104147331D02*
X99726815Y-104337807D01*
X99250625Y-105099712D02*
X99155387Y-105147331D01*
X99155387Y-105147331D02*
X98964911Y-105147331D01*
X98964911Y-105147331D02*
X98869673Y-105099712D01*
X98869673Y-105099712D02*
X98822054Y-105004473D01*
X98822054Y-105004473D02*
X98822054Y-104956854D01*
X98822054Y-104956854D02*
X98869673Y-104861616D01*
X98869673Y-104861616D02*
X98964911Y-104813997D01*
X98964911Y-104813997D02*
X99107768Y-104813997D01*
X99107768Y-104813997D02*
X99203006Y-104766378D01*
X99203006Y-104766378D02*
X99250625Y-104671140D01*
X99250625Y-104671140D02*
X99250625Y-104623521D01*
X99250625Y-104623521D02*
X99203006Y-104528283D01*
X99203006Y-104528283D02*
X99107768Y-104480664D01*
X99107768Y-104480664D02*
X98964911Y-104480664D01*
X98964911Y-104480664D02*
X98869673Y-104528283D01*
X106536339Y-106233465D02*
X106203006Y-106233465D01*
X106060149Y-106757275D02*
X106536339Y-106757275D01*
X106536339Y-106757275D02*
X106536339Y-105757275D01*
X106536339Y-105757275D02*
X106060149Y-105757275D01*
X104869672Y-106090608D02*
X104869672Y-107090608D01*
X104869672Y-106138227D02*
X104774434Y-106090608D01*
X104774434Y-106090608D02*
X104583958Y-106090608D01*
X104583958Y-106090608D02*
X104488720Y-106138227D01*
X104488720Y-106138227D02*
X104441101Y-106185846D01*
X104441101Y-106185846D02*
X104393482Y-106281084D01*
X104393482Y-106281084D02*
X104393482Y-106566798D01*
X104393482Y-106566798D02*
X104441101Y-106662036D01*
X104441101Y-106662036D02*
X104488720Y-106709656D01*
X104488720Y-106709656D02*
X104583958Y-106757275D01*
X104583958Y-106757275D02*
X104774434Y-106757275D01*
X104774434Y-106757275D02*
X104869672Y-106709656D01*
X103964910Y-106757275D02*
X103964910Y-106090608D01*
X103964910Y-105757275D02*
X104012529Y-105804894D01*
X104012529Y-105804894D02*
X103964910Y-105852513D01*
X103964910Y-105852513D02*
X103917291Y-105804894D01*
X103917291Y-105804894D02*
X103964910Y-105757275D01*
X103964910Y-105757275D02*
X103964910Y-105852513D01*
X103488720Y-106090608D02*
X103488720Y-106757275D01*
X103488720Y-106185846D02*
X103441101Y-106138227D01*
X103441101Y-106138227D02*
X103345863Y-106090608D01*
X103345863Y-106090608D02*
X103203006Y-106090608D01*
X103203006Y-106090608D02*
X103107768Y-106138227D01*
X103107768Y-106138227D02*
X103060149Y-106233465D01*
X103060149Y-106233465D02*
X103060149Y-106757275D01*
X101822053Y-106757275D02*
X101822053Y-106090608D01*
X101822053Y-105757275D02*
X101869672Y-105804894D01*
X101869672Y-105804894D02*
X101822053Y-105852513D01*
X101822053Y-105852513D02*
X101774434Y-105804894D01*
X101774434Y-105804894D02*
X101822053Y-105757275D01*
X101822053Y-105757275D02*
X101822053Y-105852513D01*
X101393482Y-106709656D02*
X101298244Y-106757275D01*
X101298244Y-106757275D02*
X101107768Y-106757275D01*
X101107768Y-106757275D02*
X101012530Y-106709656D01*
X101012530Y-106709656D02*
X100964911Y-106614417D01*
X100964911Y-106614417D02*
X100964911Y-106566798D01*
X100964911Y-106566798D02*
X101012530Y-106471560D01*
X101012530Y-106471560D02*
X101107768Y-106423941D01*
X101107768Y-106423941D02*
X101250625Y-106423941D01*
X101250625Y-106423941D02*
X101345863Y-106376322D01*
X101345863Y-106376322D02*
X101393482Y-106281084D01*
X101393482Y-106281084D02*
X101393482Y-106233465D01*
X101393482Y-106233465D02*
X101345863Y-106138227D01*
X101345863Y-106138227D02*
X101250625Y-106090608D01*
X101250625Y-106090608D02*
X101107768Y-106090608D01*
X101107768Y-106090608D02*
X101012530Y-106138227D01*
X99774434Y-106757275D02*
X99774434Y-106090608D01*
X99774434Y-105757275D02*
X99822053Y-105804894D01*
X99822053Y-105804894D02*
X99774434Y-105852513D01*
X99774434Y-105852513D02*
X99726815Y-105804894D01*
X99726815Y-105804894D02*
X99774434Y-105757275D01*
X99774434Y-105757275D02*
X99774434Y-105852513D01*
X99298244Y-106090608D02*
X99298244Y-106757275D01*
X99298244Y-106185846D02*
X99250625Y-106138227D01*
X99250625Y-106138227D02*
X99155387Y-106090608D01*
X99155387Y-106090608D02*
X99012530Y-106090608D01*
X99012530Y-106090608D02*
X98917292Y-106138227D01*
X98917292Y-106138227D02*
X98869673Y-106233465D01*
X98869673Y-106233465D02*
X98869673Y-106757275D01*
X109298245Y-108367219D02*
X109393483Y-108319600D01*
X109393483Y-108319600D02*
X109441102Y-108271980D01*
X109441102Y-108271980D02*
X109488721Y-108176742D01*
X109488721Y-108176742D02*
X109488721Y-107891028D01*
X109488721Y-107891028D02*
X109441102Y-107795790D01*
X109441102Y-107795790D02*
X109393483Y-107748171D01*
X109393483Y-107748171D02*
X109298245Y-107700552D01*
X109298245Y-107700552D02*
X109155388Y-107700552D01*
X109155388Y-107700552D02*
X109060150Y-107748171D01*
X109060150Y-107748171D02*
X109012531Y-107795790D01*
X109012531Y-107795790D02*
X108964912Y-107891028D01*
X108964912Y-107891028D02*
X108964912Y-108176742D01*
X108964912Y-108176742D02*
X109012531Y-108271980D01*
X109012531Y-108271980D02*
X109060150Y-108319600D01*
X109060150Y-108319600D02*
X109155388Y-108367219D01*
X109155388Y-108367219D02*
X109298245Y-108367219D01*
X108679197Y-107700552D02*
X108298245Y-107700552D01*
X108536340Y-107367219D02*
X108536340Y-108224361D01*
X108536340Y-108224361D02*
X108488721Y-108319600D01*
X108488721Y-108319600D02*
X108393483Y-108367219D01*
X108393483Y-108367219D02*
X108298245Y-108367219D01*
X107964911Y-108367219D02*
X107964911Y-107367219D01*
X107536340Y-108367219D02*
X107536340Y-107843409D01*
X107536340Y-107843409D02*
X107583959Y-107748171D01*
X107583959Y-107748171D02*
X107679197Y-107700552D01*
X107679197Y-107700552D02*
X107822054Y-107700552D01*
X107822054Y-107700552D02*
X107917292Y-107748171D01*
X107917292Y-107748171D02*
X107964911Y-107795790D01*
X106679197Y-108319600D02*
X106774435Y-108367219D01*
X106774435Y-108367219D02*
X106964911Y-108367219D01*
X106964911Y-108367219D02*
X107060149Y-108319600D01*
X107060149Y-108319600D02*
X107107768Y-108224361D01*
X107107768Y-108224361D02*
X107107768Y-107843409D01*
X107107768Y-107843409D02*
X107060149Y-107748171D01*
X107060149Y-107748171D02*
X106964911Y-107700552D01*
X106964911Y-107700552D02*
X106774435Y-107700552D01*
X106774435Y-107700552D02*
X106679197Y-107748171D01*
X106679197Y-107748171D02*
X106631578Y-107843409D01*
X106631578Y-107843409D02*
X106631578Y-107938647D01*
X106631578Y-107938647D02*
X107107768Y-108033885D01*
X106203006Y-108367219D02*
X106203006Y-107700552D01*
X106203006Y-107891028D02*
X106155387Y-107795790D01*
X106155387Y-107795790D02*
X106107768Y-107748171D01*
X106107768Y-107748171D02*
X106012530Y-107700552D01*
X106012530Y-107700552D02*
X105917292Y-107700552D01*
X104822053Y-107700552D02*
X104822053Y-108700552D01*
X104822053Y-107748171D02*
X104726815Y-107700552D01*
X104726815Y-107700552D02*
X104536339Y-107700552D01*
X104536339Y-107700552D02*
X104441101Y-107748171D01*
X104441101Y-107748171D02*
X104393482Y-107795790D01*
X104393482Y-107795790D02*
X104345863Y-107891028D01*
X104345863Y-107891028D02*
X104345863Y-108176742D01*
X104345863Y-108176742D02*
X104393482Y-108271980D01*
X104393482Y-108271980D02*
X104441101Y-108319600D01*
X104441101Y-108319600D02*
X104536339Y-108367219D01*
X104536339Y-108367219D02*
X104726815Y-108367219D01*
X104726815Y-108367219D02*
X104822053Y-108319600D01*
X103774434Y-108367219D02*
X103869672Y-108319600D01*
X103869672Y-108319600D02*
X103917291Y-108271980D01*
X103917291Y-108271980D02*
X103964910Y-108176742D01*
X103964910Y-108176742D02*
X103964910Y-107891028D01*
X103964910Y-107891028D02*
X103917291Y-107795790D01*
X103917291Y-107795790D02*
X103869672Y-107748171D01*
X103869672Y-107748171D02*
X103774434Y-107700552D01*
X103774434Y-107700552D02*
X103631577Y-107700552D01*
X103631577Y-107700552D02*
X103536339Y-107748171D01*
X103536339Y-107748171D02*
X103488720Y-107795790D01*
X103488720Y-107795790D02*
X103441101Y-107891028D01*
X103441101Y-107891028D02*
X103441101Y-108176742D01*
X103441101Y-108176742D02*
X103488720Y-108271980D01*
X103488720Y-108271980D02*
X103536339Y-108319600D01*
X103536339Y-108319600D02*
X103631577Y-108367219D01*
X103631577Y-108367219D02*
X103774434Y-108367219D01*
X103060148Y-108319600D02*
X102964910Y-108367219D01*
X102964910Y-108367219D02*
X102774434Y-108367219D01*
X102774434Y-108367219D02*
X102679196Y-108319600D01*
X102679196Y-108319600D02*
X102631577Y-108224361D01*
X102631577Y-108224361D02*
X102631577Y-108176742D01*
X102631577Y-108176742D02*
X102679196Y-108081504D01*
X102679196Y-108081504D02*
X102774434Y-108033885D01*
X102774434Y-108033885D02*
X102917291Y-108033885D01*
X102917291Y-108033885D02*
X103012529Y-107986266D01*
X103012529Y-107986266D02*
X103060148Y-107891028D01*
X103060148Y-107891028D02*
X103060148Y-107843409D01*
X103060148Y-107843409D02*
X103012529Y-107748171D01*
X103012529Y-107748171D02*
X102917291Y-107700552D01*
X102917291Y-107700552D02*
X102774434Y-107700552D01*
X102774434Y-107700552D02*
X102679196Y-107748171D01*
X102203005Y-108367219D02*
X102203005Y-107700552D01*
X102203005Y-107367219D02*
X102250624Y-107414838D01*
X102250624Y-107414838D02*
X102203005Y-107462457D01*
X102203005Y-107462457D02*
X102155386Y-107414838D01*
X102155386Y-107414838D02*
X102203005Y-107367219D01*
X102203005Y-107367219D02*
X102203005Y-107462457D01*
X101869672Y-107700552D02*
X101488720Y-107700552D01*
X101726815Y-107367219D02*
X101726815Y-108224361D01*
X101726815Y-108224361D02*
X101679196Y-108319600D01*
X101679196Y-108319600D02*
X101583958Y-108367219D01*
X101583958Y-108367219D02*
X101488720Y-108367219D01*
X101155386Y-108367219D02*
X101155386Y-107700552D01*
X101155386Y-107367219D02*
X101203005Y-107414838D01*
X101203005Y-107414838D02*
X101155386Y-107462457D01*
X101155386Y-107462457D02*
X101107767Y-107414838D01*
X101107767Y-107414838D02*
X101155386Y-107367219D01*
X101155386Y-107367219D02*
X101155386Y-107462457D01*
X100536339Y-108367219D02*
X100631577Y-108319600D01*
X100631577Y-108319600D02*
X100679196Y-108271980D01*
X100679196Y-108271980D02*
X100726815Y-108176742D01*
X100726815Y-108176742D02*
X100726815Y-107891028D01*
X100726815Y-107891028D02*
X100679196Y-107795790D01*
X100679196Y-107795790D02*
X100631577Y-107748171D01*
X100631577Y-107748171D02*
X100536339Y-107700552D01*
X100536339Y-107700552D02*
X100393482Y-107700552D01*
X100393482Y-107700552D02*
X100298244Y-107748171D01*
X100298244Y-107748171D02*
X100250625Y-107795790D01*
X100250625Y-107795790D02*
X100203006Y-107891028D01*
X100203006Y-107891028D02*
X100203006Y-108176742D01*
X100203006Y-108176742D02*
X100250625Y-108271980D01*
X100250625Y-108271980D02*
X100298244Y-108319600D01*
X100298244Y-108319600D02*
X100393482Y-108367219D01*
X100393482Y-108367219D02*
X100536339Y-108367219D01*
X99774434Y-107700552D02*
X99774434Y-108367219D01*
X99774434Y-107795790D02*
X99726815Y-107748171D01*
X99726815Y-107748171D02*
X99631577Y-107700552D01*
X99631577Y-107700552D02*
X99488720Y-107700552D01*
X99488720Y-107700552D02*
X99393482Y-107748171D01*
X99393482Y-107748171D02*
X99345863Y-107843409D01*
X99345863Y-107843409D02*
X99345863Y-108367219D01*
X98869672Y-108271980D02*
X98822053Y-108319600D01*
X98822053Y-108319600D02*
X98869672Y-108367219D01*
X98869672Y-108367219D02*
X98917291Y-108319600D01*
X98917291Y-108319600D02*
X98869672Y-108271980D01*
X98869672Y-108271980D02*
X98869672Y-108367219D01*
X130677945Y-97971560D02*
X130201755Y-97971560D01*
X130773183Y-98257275D02*
X130439850Y-97257275D01*
X130439850Y-97257275D02*
X130106517Y-98257275D01*
X129344612Y-98209656D02*
X129439850Y-98257275D01*
X129439850Y-98257275D02*
X129630326Y-98257275D01*
X129630326Y-98257275D02*
X129725564Y-98209656D01*
X129725564Y-98209656D02*
X129773183Y-98162036D01*
X129773183Y-98162036D02*
X129820802Y-98066798D01*
X129820802Y-98066798D02*
X129820802Y-97781084D01*
X129820802Y-97781084D02*
X129773183Y-97685846D01*
X129773183Y-97685846D02*
X129725564Y-97638227D01*
X129725564Y-97638227D02*
X129630326Y-97590608D01*
X129630326Y-97590608D02*
X129439850Y-97590608D01*
X129439850Y-97590608D02*
X129344612Y-97638227D01*
X128487469Y-98209656D02*
X128582707Y-98257275D01*
X128582707Y-98257275D02*
X128773183Y-98257275D01*
X128773183Y-98257275D02*
X128868421Y-98209656D01*
X128868421Y-98209656D02*
X128916040Y-98162036D01*
X128916040Y-98162036D02*
X128963659Y-98066798D01*
X128963659Y-98066798D02*
X128963659Y-97781084D01*
X128963659Y-97781084D02*
X128916040Y-97685846D01*
X128916040Y-97685846D02*
X128868421Y-97638227D01*
X128868421Y-97638227D02*
X128773183Y-97590608D01*
X128773183Y-97590608D02*
X128582707Y-97590608D01*
X128582707Y-97590608D02*
X128487469Y-97638227D01*
X127677945Y-98209656D02*
X127773183Y-98257275D01*
X127773183Y-98257275D02*
X127963659Y-98257275D01*
X127963659Y-98257275D02*
X128058897Y-98209656D01*
X128058897Y-98209656D02*
X128106516Y-98114417D01*
X128106516Y-98114417D02*
X128106516Y-97733465D01*
X128106516Y-97733465D02*
X128058897Y-97638227D01*
X128058897Y-97638227D02*
X127963659Y-97590608D01*
X127963659Y-97590608D02*
X127773183Y-97590608D01*
X127773183Y-97590608D02*
X127677945Y-97638227D01*
X127677945Y-97638227D02*
X127630326Y-97733465D01*
X127630326Y-97733465D02*
X127630326Y-97828703D01*
X127630326Y-97828703D02*
X128106516Y-97923941D01*
X127249373Y-98209656D02*
X127154135Y-98257275D01*
X127154135Y-98257275D02*
X126963659Y-98257275D01*
X126963659Y-98257275D02*
X126868421Y-98209656D01*
X126868421Y-98209656D02*
X126820802Y-98114417D01*
X126820802Y-98114417D02*
X126820802Y-98066798D01*
X126820802Y-98066798D02*
X126868421Y-97971560D01*
X126868421Y-97971560D02*
X126963659Y-97923941D01*
X126963659Y-97923941D02*
X127106516Y-97923941D01*
X127106516Y-97923941D02*
X127201754Y-97876322D01*
X127201754Y-97876322D02*
X127249373Y-97781084D01*
X127249373Y-97781084D02*
X127249373Y-97733465D01*
X127249373Y-97733465D02*
X127201754Y-97638227D01*
X127201754Y-97638227D02*
X127106516Y-97590608D01*
X127106516Y-97590608D02*
X126963659Y-97590608D01*
X126963659Y-97590608D02*
X126868421Y-97638227D01*
X126439849Y-98209656D02*
X126344611Y-98257275D01*
X126344611Y-98257275D02*
X126154135Y-98257275D01*
X126154135Y-98257275D02*
X126058897Y-98209656D01*
X126058897Y-98209656D02*
X126011278Y-98114417D01*
X126011278Y-98114417D02*
X126011278Y-98066798D01*
X126011278Y-98066798D02*
X126058897Y-97971560D01*
X126058897Y-97971560D02*
X126154135Y-97923941D01*
X126154135Y-97923941D02*
X126296992Y-97923941D01*
X126296992Y-97923941D02*
X126392230Y-97876322D01*
X126392230Y-97876322D02*
X126439849Y-97781084D01*
X126439849Y-97781084D02*
X126439849Y-97733465D01*
X126439849Y-97733465D02*
X126392230Y-97638227D01*
X126392230Y-97638227D02*
X126296992Y-97590608D01*
X126296992Y-97590608D02*
X126154135Y-97590608D01*
X126154135Y-97590608D02*
X126058897Y-97638227D01*
X124392230Y-98209656D02*
X124487468Y-98257275D01*
X124487468Y-98257275D02*
X124677944Y-98257275D01*
X124677944Y-98257275D02*
X124773182Y-98209656D01*
X124773182Y-98209656D02*
X124820801Y-98162036D01*
X124820801Y-98162036D02*
X124868420Y-98066798D01*
X124868420Y-98066798D02*
X124868420Y-97781084D01*
X124868420Y-97781084D02*
X124820801Y-97685846D01*
X124820801Y-97685846D02*
X124773182Y-97638227D01*
X124773182Y-97638227D02*
X124677944Y-97590608D01*
X124677944Y-97590608D02*
X124487468Y-97590608D01*
X124487468Y-97590608D02*
X124392230Y-97638227D01*
X123820801Y-98257275D02*
X123916039Y-98209656D01*
X123916039Y-98209656D02*
X123963658Y-98114417D01*
X123963658Y-98114417D02*
X123963658Y-97257275D01*
X123296991Y-98257275D02*
X123392229Y-98209656D01*
X123392229Y-98209656D02*
X123439848Y-98162036D01*
X123439848Y-98162036D02*
X123487467Y-98066798D01*
X123487467Y-98066798D02*
X123487467Y-97781084D01*
X123487467Y-97781084D02*
X123439848Y-97685846D01*
X123439848Y-97685846D02*
X123392229Y-97638227D01*
X123392229Y-97638227D02*
X123296991Y-97590608D01*
X123296991Y-97590608D02*
X123154134Y-97590608D01*
X123154134Y-97590608D02*
X123058896Y-97638227D01*
X123058896Y-97638227D02*
X123011277Y-97685846D01*
X123011277Y-97685846D02*
X122963658Y-97781084D01*
X122963658Y-97781084D02*
X122963658Y-98066798D01*
X122963658Y-98066798D02*
X123011277Y-98162036D01*
X123011277Y-98162036D02*
X123058896Y-98209656D01*
X123058896Y-98209656D02*
X123154134Y-98257275D01*
X123154134Y-98257275D02*
X123296991Y-98257275D01*
X122106515Y-98209656D02*
X122201753Y-98257275D01*
X122201753Y-98257275D02*
X122392229Y-98257275D01*
X122392229Y-98257275D02*
X122487467Y-98209656D01*
X122487467Y-98209656D02*
X122535086Y-98162036D01*
X122535086Y-98162036D02*
X122582705Y-98066798D01*
X122582705Y-98066798D02*
X122582705Y-97781084D01*
X122582705Y-97781084D02*
X122535086Y-97685846D01*
X122535086Y-97685846D02*
X122487467Y-97638227D01*
X122487467Y-97638227D02*
X122392229Y-97590608D01*
X122392229Y-97590608D02*
X122201753Y-97590608D01*
X122201753Y-97590608D02*
X122106515Y-97638227D01*
X121677943Y-98257275D02*
X121677943Y-97257275D01*
X121582705Y-97876322D02*
X121296991Y-98257275D01*
X121296991Y-97590608D02*
X121677943Y-97971560D01*
X120963657Y-97590608D02*
X120773181Y-98257275D01*
X120773181Y-98257275D02*
X120582705Y-97781084D01*
X120582705Y-97781084D02*
X120392229Y-98257275D01*
X120392229Y-98257275D02*
X120201753Y-97590608D01*
X119820800Y-98257275D02*
X119820800Y-97590608D01*
X119820800Y-97257275D02*
X119868419Y-97304894D01*
X119868419Y-97304894D02*
X119820800Y-97352513D01*
X119820800Y-97352513D02*
X119773181Y-97304894D01*
X119773181Y-97304894D02*
X119820800Y-97257275D01*
X119820800Y-97257275D02*
X119820800Y-97352513D01*
X119392229Y-98209656D02*
X119296991Y-98257275D01*
X119296991Y-98257275D02*
X119106515Y-98257275D01*
X119106515Y-98257275D02*
X119011277Y-98209656D01*
X119011277Y-98209656D02*
X118963658Y-98114417D01*
X118963658Y-98114417D02*
X118963658Y-98066798D01*
X118963658Y-98066798D02*
X119011277Y-97971560D01*
X119011277Y-97971560D02*
X119106515Y-97923941D01*
X119106515Y-97923941D02*
X119249372Y-97923941D01*
X119249372Y-97923941D02*
X119344610Y-97876322D01*
X119344610Y-97876322D02*
X119392229Y-97781084D01*
X119392229Y-97781084D02*
X119392229Y-97733465D01*
X119392229Y-97733465D02*
X119344610Y-97638227D01*
X119344610Y-97638227D02*
X119249372Y-97590608D01*
X119249372Y-97590608D02*
X119106515Y-97590608D01*
X119106515Y-97590608D02*
X119011277Y-97638227D01*
X118154134Y-98209656D02*
X118249372Y-98257275D01*
X118249372Y-98257275D02*
X118439848Y-98257275D01*
X118439848Y-98257275D02*
X118535086Y-98209656D01*
X118535086Y-98209656D02*
X118582705Y-98114417D01*
X118582705Y-98114417D02*
X118582705Y-97733465D01*
X118582705Y-97733465D02*
X118535086Y-97638227D01*
X118535086Y-97638227D02*
X118439848Y-97590608D01*
X118439848Y-97590608D02*
X118249372Y-97590608D01*
X118249372Y-97590608D02*
X118154134Y-97638227D01*
X118154134Y-97638227D02*
X118106515Y-97733465D01*
X118106515Y-97733465D02*
X118106515Y-97828703D01*
X118106515Y-97828703D02*
X118582705Y-97923941D01*
X117677943Y-98162036D02*
X117630324Y-98209656D01*
X117630324Y-98209656D02*
X117677943Y-98257275D01*
X117677943Y-98257275D02*
X117725562Y-98209656D01*
X117725562Y-98209656D02*
X117677943Y-98162036D01*
X117677943Y-98162036D02*
X117677943Y-98257275D01*
X117201753Y-97590608D02*
X117201753Y-98590608D01*
X117201753Y-97638227D02*
X117106515Y-97590608D01*
X117106515Y-97590608D02*
X116916039Y-97590608D01*
X116916039Y-97590608D02*
X116820801Y-97638227D01*
X116820801Y-97638227D02*
X116773182Y-97685846D01*
X116773182Y-97685846D02*
X116725563Y-97781084D01*
X116725563Y-97781084D02*
X116725563Y-98066798D01*
X116725563Y-98066798D02*
X116773182Y-98162036D01*
X116773182Y-98162036D02*
X116820801Y-98209656D01*
X116820801Y-98209656D02*
X116916039Y-98257275D01*
X116916039Y-98257275D02*
X117106515Y-98257275D01*
X117106515Y-98257275D02*
X117201753Y-98209656D01*
X115868420Y-98257275D02*
X115868420Y-97733465D01*
X115868420Y-97733465D02*
X115916039Y-97638227D01*
X115916039Y-97638227D02*
X116011277Y-97590608D01*
X116011277Y-97590608D02*
X116201753Y-97590608D01*
X116201753Y-97590608D02*
X116296991Y-97638227D01*
X115868420Y-98209656D02*
X115963658Y-98257275D01*
X115963658Y-98257275D02*
X116201753Y-98257275D01*
X116201753Y-98257275D02*
X116296991Y-98209656D01*
X116296991Y-98209656D02*
X116344610Y-98114417D01*
X116344610Y-98114417D02*
X116344610Y-98019179D01*
X116344610Y-98019179D02*
X116296991Y-97923941D01*
X116296991Y-97923941D02*
X116201753Y-97876322D01*
X116201753Y-97876322D02*
X115963658Y-97876322D01*
X115963658Y-97876322D02*
X115868420Y-97828703D01*
X114963658Y-97590608D02*
X114963658Y-98400132D01*
X114963658Y-98400132D02*
X115011277Y-98495370D01*
X115011277Y-98495370D02*
X115058896Y-98542989D01*
X115058896Y-98542989D02*
X115154134Y-98590608D01*
X115154134Y-98590608D02*
X115296991Y-98590608D01*
X115296991Y-98590608D02*
X115392229Y-98542989D01*
X114963658Y-98209656D02*
X115058896Y-98257275D01*
X115058896Y-98257275D02*
X115249372Y-98257275D01*
X115249372Y-98257275D02*
X115344610Y-98209656D01*
X115344610Y-98209656D02*
X115392229Y-98162036D01*
X115392229Y-98162036D02*
X115439848Y-98066798D01*
X115439848Y-98066798D02*
X115439848Y-97781084D01*
X115439848Y-97781084D02*
X115392229Y-97685846D01*
X115392229Y-97685846D02*
X115344610Y-97638227D01*
X115344610Y-97638227D02*
X115249372Y-97590608D01*
X115249372Y-97590608D02*
X115058896Y-97590608D01*
X115058896Y-97590608D02*
X114963658Y-97638227D01*
X114106515Y-98209656D02*
X114201753Y-98257275D01*
X114201753Y-98257275D02*
X114392229Y-98257275D01*
X114392229Y-98257275D02*
X114487467Y-98209656D01*
X114487467Y-98209656D02*
X114535086Y-98114417D01*
X114535086Y-98114417D02*
X114535086Y-97733465D01*
X114535086Y-97733465D02*
X114487467Y-97638227D01*
X114487467Y-97638227D02*
X114392229Y-97590608D01*
X114392229Y-97590608D02*
X114201753Y-97590608D01*
X114201753Y-97590608D02*
X114106515Y-97638227D01*
X114106515Y-97638227D02*
X114058896Y-97733465D01*
X114058896Y-97733465D02*
X114058896Y-97828703D01*
X114058896Y-97828703D02*
X114535086Y-97923941D01*
X112439848Y-98257275D02*
X112439848Y-97733465D01*
X112439848Y-97733465D02*
X112487467Y-97638227D01*
X112487467Y-97638227D02*
X112582705Y-97590608D01*
X112582705Y-97590608D02*
X112773181Y-97590608D01*
X112773181Y-97590608D02*
X112868419Y-97638227D01*
X112439848Y-98209656D02*
X112535086Y-98257275D01*
X112535086Y-98257275D02*
X112773181Y-98257275D01*
X112773181Y-98257275D02*
X112868419Y-98209656D01*
X112868419Y-98209656D02*
X112916038Y-98114417D01*
X112916038Y-98114417D02*
X112916038Y-98019179D01*
X112916038Y-98019179D02*
X112868419Y-97923941D01*
X112868419Y-97923941D02*
X112773181Y-97876322D01*
X112773181Y-97876322D02*
X112535086Y-97876322D01*
X112535086Y-97876322D02*
X112439848Y-97828703D01*
X111963657Y-97590608D02*
X111963657Y-98257275D01*
X111963657Y-97685846D02*
X111916038Y-97638227D01*
X111916038Y-97638227D02*
X111820800Y-97590608D01*
X111820800Y-97590608D02*
X111677943Y-97590608D01*
X111677943Y-97590608D02*
X111582705Y-97638227D01*
X111582705Y-97638227D02*
X111535086Y-97733465D01*
X111535086Y-97733465D02*
X111535086Y-98257275D01*
X110630324Y-98257275D02*
X110630324Y-97257275D01*
X110630324Y-98209656D02*
X110725562Y-98257275D01*
X110725562Y-98257275D02*
X110916038Y-98257275D01*
X110916038Y-98257275D02*
X111011276Y-98209656D01*
X111011276Y-98209656D02*
X111058895Y-98162036D01*
X111058895Y-98162036D02*
X111106514Y-98066798D01*
X111106514Y-98066798D02*
X111106514Y-97781084D01*
X111106514Y-97781084D02*
X111058895Y-97685846D01*
X111058895Y-97685846D02*
X111011276Y-97638227D01*
X111011276Y-97638227D02*
X110916038Y-97590608D01*
X110916038Y-97590608D02*
X110725562Y-97590608D01*
X110725562Y-97590608D02*
X110630324Y-97638227D01*
X130201755Y-99819600D02*
X130296993Y-99867219D01*
X130296993Y-99867219D02*
X130487469Y-99867219D01*
X130487469Y-99867219D02*
X130582707Y-99819600D01*
X130582707Y-99819600D02*
X130630326Y-99771980D01*
X130630326Y-99771980D02*
X130677945Y-99676742D01*
X130677945Y-99676742D02*
X130677945Y-99391028D01*
X130677945Y-99391028D02*
X130630326Y-99295790D01*
X130630326Y-99295790D02*
X130582707Y-99248171D01*
X130582707Y-99248171D02*
X130487469Y-99200552D01*
X130487469Y-99200552D02*
X130296993Y-99200552D01*
X130296993Y-99200552D02*
X130201755Y-99248171D01*
X129344612Y-99200552D02*
X129344612Y-99867219D01*
X129773183Y-99200552D02*
X129773183Y-99724361D01*
X129773183Y-99724361D02*
X129725564Y-99819600D01*
X129725564Y-99819600D02*
X129630326Y-99867219D01*
X129630326Y-99867219D02*
X129487469Y-99867219D01*
X129487469Y-99867219D02*
X129392231Y-99819600D01*
X129392231Y-99819600D02*
X129344612Y-99771980D01*
X128916040Y-99819600D02*
X128820802Y-99867219D01*
X128820802Y-99867219D02*
X128630326Y-99867219D01*
X128630326Y-99867219D02*
X128535088Y-99819600D01*
X128535088Y-99819600D02*
X128487469Y-99724361D01*
X128487469Y-99724361D02*
X128487469Y-99676742D01*
X128487469Y-99676742D02*
X128535088Y-99581504D01*
X128535088Y-99581504D02*
X128630326Y-99533885D01*
X128630326Y-99533885D02*
X128773183Y-99533885D01*
X128773183Y-99533885D02*
X128868421Y-99486266D01*
X128868421Y-99486266D02*
X128916040Y-99391028D01*
X128916040Y-99391028D02*
X128916040Y-99343409D01*
X128916040Y-99343409D02*
X128868421Y-99248171D01*
X128868421Y-99248171D02*
X128773183Y-99200552D01*
X128773183Y-99200552D02*
X128630326Y-99200552D01*
X128630326Y-99200552D02*
X128535088Y-99248171D01*
X128201754Y-99200552D02*
X127820802Y-99200552D01*
X128058897Y-98867219D02*
X128058897Y-99724361D01*
X128058897Y-99724361D02*
X128011278Y-99819600D01*
X128011278Y-99819600D02*
X127916040Y-99867219D01*
X127916040Y-99867219D02*
X127820802Y-99867219D01*
X127344611Y-99867219D02*
X127439849Y-99819600D01*
X127439849Y-99819600D02*
X127487468Y-99771980D01*
X127487468Y-99771980D02*
X127535087Y-99676742D01*
X127535087Y-99676742D02*
X127535087Y-99391028D01*
X127535087Y-99391028D02*
X127487468Y-99295790D01*
X127487468Y-99295790D02*
X127439849Y-99248171D01*
X127439849Y-99248171D02*
X127344611Y-99200552D01*
X127344611Y-99200552D02*
X127201754Y-99200552D01*
X127201754Y-99200552D02*
X127106516Y-99248171D01*
X127106516Y-99248171D02*
X127058897Y-99295790D01*
X127058897Y-99295790D02*
X127011278Y-99391028D01*
X127011278Y-99391028D02*
X127011278Y-99676742D01*
X127011278Y-99676742D02*
X127058897Y-99771980D01*
X127058897Y-99771980D02*
X127106516Y-99819600D01*
X127106516Y-99819600D02*
X127201754Y-99867219D01*
X127201754Y-99867219D02*
X127344611Y-99867219D01*
X126582706Y-99867219D02*
X126582706Y-99200552D01*
X126582706Y-99295790D02*
X126535087Y-99248171D01*
X126535087Y-99248171D02*
X126439849Y-99200552D01*
X126439849Y-99200552D02*
X126296992Y-99200552D01*
X126296992Y-99200552D02*
X126201754Y-99248171D01*
X126201754Y-99248171D02*
X126154135Y-99343409D01*
X126154135Y-99343409D02*
X126154135Y-99867219D01*
X126154135Y-99343409D02*
X126106516Y-99248171D01*
X126106516Y-99248171D02*
X126011278Y-99200552D01*
X126011278Y-99200552D02*
X125868421Y-99200552D01*
X125868421Y-99200552D02*
X125773182Y-99248171D01*
X125773182Y-99248171D02*
X125725563Y-99343409D01*
X125725563Y-99343409D02*
X125725563Y-99867219D01*
X125249373Y-99867219D02*
X125249373Y-99200552D01*
X125249373Y-98867219D02*
X125296992Y-98914838D01*
X125296992Y-98914838D02*
X125249373Y-98962457D01*
X125249373Y-98962457D02*
X125201754Y-98914838D01*
X125201754Y-98914838D02*
X125249373Y-98867219D01*
X125249373Y-98867219D02*
X125249373Y-98962457D01*
X124868421Y-99200552D02*
X124344612Y-99200552D01*
X124344612Y-99200552D02*
X124868421Y-99867219D01*
X124868421Y-99867219D02*
X124344612Y-99867219D01*
X123582707Y-99819600D02*
X123677945Y-99867219D01*
X123677945Y-99867219D02*
X123868421Y-99867219D01*
X123868421Y-99867219D02*
X123963659Y-99819600D01*
X123963659Y-99819600D02*
X124011278Y-99724361D01*
X124011278Y-99724361D02*
X124011278Y-99343409D01*
X124011278Y-99343409D02*
X123963659Y-99248171D01*
X123963659Y-99248171D02*
X123868421Y-99200552D01*
X123868421Y-99200552D02*
X123677945Y-99200552D01*
X123677945Y-99200552D02*
X123582707Y-99248171D01*
X123582707Y-99248171D02*
X123535088Y-99343409D01*
X123535088Y-99343409D02*
X123535088Y-99438647D01*
X123535088Y-99438647D02*
X124011278Y-99533885D01*
X122439849Y-99200552D02*
X122201754Y-99867219D01*
X121963659Y-99200552D02*
X122201754Y-99867219D01*
X122201754Y-99867219D02*
X122296992Y-100105314D01*
X122296992Y-100105314D02*
X122344611Y-100152933D01*
X122344611Y-100152933D02*
X122439849Y-100200552D01*
X121439849Y-99867219D02*
X121535087Y-99819600D01*
X121535087Y-99819600D02*
X121582706Y-99771980D01*
X121582706Y-99771980D02*
X121630325Y-99676742D01*
X121630325Y-99676742D02*
X121630325Y-99391028D01*
X121630325Y-99391028D02*
X121582706Y-99295790D01*
X121582706Y-99295790D02*
X121535087Y-99248171D01*
X121535087Y-99248171D02*
X121439849Y-99200552D01*
X121439849Y-99200552D02*
X121296992Y-99200552D01*
X121296992Y-99200552D02*
X121201754Y-99248171D01*
X121201754Y-99248171D02*
X121154135Y-99295790D01*
X121154135Y-99295790D02*
X121106516Y-99391028D01*
X121106516Y-99391028D02*
X121106516Y-99676742D01*
X121106516Y-99676742D02*
X121154135Y-99771980D01*
X121154135Y-99771980D02*
X121201754Y-99819600D01*
X121201754Y-99819600D02*
X121296992Y-99867219D01*
X121296992Y-99867219D02*
X121439849Y-99867219D01*
X120249373Y-99200552D02*
X120249373Y-99867219D01*
X120677944Y-99200552D02*
X120677944Y-99724361D01*
X120677944Y-99724361D02*
X120630325Y-99819600D01*
X120630325Y-99819600D02*
X120535087Y-99867219D01*
X120535087Y-99867219D02*
X120392230Y-99867219D01*
X120392230Y-99867219D02*
X120296992Y-99819600D01*
X120296992Y-99819600D02*
X120249373Y-99771980D01*
X119773182Y-99867219D02*
X119773182Y-99200552D01*
X119773182Y-99391028D02*
X119725563Y-99295790D01*
X119725563Y-99295790D02*
X119677944Y-99248171D01*
X119677944Y-99248171D02*
X119582706Y-99200552D01*
X119582706Y-99200552D02*
X119487468Y-99200552D01*
X117963658Y-99867219D02*
X117963658Y-98867219D01*
X117963658Y-99819600D02*
X118058896Y-99867219D01*
X118058896Y-99867219D02*
X118249372Y-99867219D01*
X118249372Y-99867219D02*
X118344610Y-99819600D01*
X118344610Y-99819600D02*
X118392229Y-99771980D01*
X118392229Y-99771980D02*
X118439848Y-99676742D01*
X118439848Y-99676742D02*
X118439848Y-99391028D01*
X118439848Y-99391028D02*
X118392229Y-99295790D01*
X118392229Y-99295790D02*
X118344610Y-99248171D01*
X118344610Y-99248171D02*
X118249372Y-99200552D01*
X118249372Y-99200552D02*
X118058896Y-99200552D01*
X118058896Y-99200552D02*
X117963658Y-99248171D01*
X117487467Y-99867219D02*
X117487467Y-99200552D01*
X117487467Y-98867219D02*
X117535086Y-98914838D01*
X117535086Y-98914838D02*
X117487467Y-98962457D01*
X117487467Y-98962457D02*
X117439848Y-98914838D01*
X117439848Y-98914838D02*
X117487467Y-98867219D01*
X117487467Y-98867219D02*
X117487467Y-98962457D01*
X117058896Y-99819600D02*
X116963658Y-99867219D01*
X116963658Y-99867219D02*
X116773182Y-99867219D01*
X116773182Y-99867219D02*
X116677944Y-99819600D01*
X116677944Y-99819600D02*
X116630325Y-99724361D01*
X116630325Y-99724361D02*
X116630325Y-99676742D01*
X116630325Y-99676742D02*
X116677944Y-99581504D01*
X116677944Y-99581504D02*
X116773182Y-99533885D01*
X116773182Y-99533885D02*
X116916039Y-99533885D01*
X116916039Y-99533885D02*
X117011277Y-99486266D01*
X117011277Y-99486266D02*
X117058896Y-99391028D01*
X117058896Y-99391028D02*
X117058896Y-99343409D01*
X117058896Y-99343409D02*
X117011277Y-99248171D01*
X117011277Y-99248171D02*
X116916039Y-99200552D01*
X116916039Y-99200552D02*
X116773182Y-99200552D01*
X116773182Y-99200552D02*
X116677944Y-99248171D01*
X116201753Y-99200552D02*
X116201753Y-100200552D01*
X116201753Y-99248171D02*
X116106515Y-99200552D01*
X116106515Y-99200552D02*
X115916039Y-99200552D01*
X115916039Y-99200552D02*
X115820801Y-99248171D01*
X115820801Y-99248171D02*
X115773182Y-99295790D01*
X115773182Y-99295790D02*
X115725563Y-99391028D01*
X115725563Y-99391028D02*
X115725563Y-99676742D01*
X115725563Y-99676742D02*
X115773182Y-99771980D01*
X115773182Y-99771980D02*
X115820801Y-99819600D01*
X115820801Y-99819600D02*
X115916039Y-99867219D01*
X115916039Y-99867219D02*
X116106515Y-99867219D01*
X116106515Y-99867219D02*
X116201753Y-99819600D01*
X115154134Y-99867219D02*
X115249372Y-99819600D01*
X115249372Y-99819600D02*
X115296991Y-99724361D01*
X115296991Y-99724361D02*
X115296991Y-98867219D01*
X114344610Y-99867219D02*
X114344610Y-99343409D01*
X114344610Y-99343409D02*
X114392229Y-99248171D01*
X114392229Y-99248171D02*
X114487467Y-99200552D01*
X114487467Y-99200552D02*
X114677943Y-99200552D01*
X114677943Y-99200552D02*
X114773181Y-99248171D01*
X114344610Y-99819600D02*
X114439848Y-99867219D01*
X114439848Y-99867219D02*
X114677943Y-99867219D01*
X114677943Y-99867219D02*
X114773181Y-99819600D01*
X114773181Y-99819600D02*
X114820800Y-99724361D01*
X114820800Y-99724361D02*
X114820800Y-99629123D01*
X114820800Y-99629123D02*
X114773181Y-99533885D01*
X114773181Y-99533885D02*
X114677943Y-99486266D01*
X114677943Y-99486266D02*
X114439848Y-99486266D01*
X114439848Y-99486266D02*
X114344610Y-99438647D01*
X113963657Y-99200552D02*
X113725562Y-99867219D01*
X113487467Y-99200552D02*
X113725562Y-99867219D01*
X113725562Y-99867219D02*
X113820800Y-100105314D01*
X113820800Y-100105314D02*
X113868419Y-100152933D01*
X113868419Y-100152933D02*
X113963657Y-100200552D01*
X113106514Y-99771980D02*
X113058895Y-99819600D01*
X113058895Y-99819600D02*
X113106514Y-99867219D01*
X113106514Y-99867219D02*
X113154133Y-99819600D01*
X113154133Y-99819600D02*
X113106514Y-99771980D01*
X113106514Y-99771980D02*
X113106514Y-99867219D01*
D15*
X141004819Y-75896666D02*
X141719104Y-75896666D01*
X141719104Y-75896666D02*
X141861961Y-75849047D01*
X141861961Y-75849047D02*
X141957200Y-75753809D01*
X141957200Y-75753809D02*
X142004819Y-75610952D01*
X142004819Y-75610952D02*
X142004819Y-75515714D01*
X142004819Y-76896666D02*
X142004819Y-76325238D01*
X142004819Y-76610952D02*
X141004819Y-76610952D01*
X141004819Y-76610952D02*
X141147676Y-76515714D01*
X141147676Y-76515714D02*
X141242914Y-76420476D01*
X141242914Y-76420476D02*
X141290533Y-76325238D01*
X98954819Y-74666666D02*
X99669104Y-74666666D01*
X99669104Y-74666666D02*
X99811961Y-74619047D01*
X99811961Y-74619047D02*
X99907200Y-74523809D01*
X99907200Y-74523809D02*
X99954819Y-74380952D01*
X99954819Y-74380952D02*
X99954819Y-74285714D01*
X99954819Y-75142857D02*
X98954819Y-75142857D01*
X98954819Y-75142857D02*
X98954819Y-75523809D01*
X98954819Y-75523809D02*
X99002438Y-75619047D01*
X99002438Y-75619047D02*
X99050057Y-75666666D01*
X99050057Y-75666666D02*
X99145295Y-75714285D01*
X99145295Y-75714285D02*
X99288152Y-75714285D01*
X99288152Y-75714285D02*
X99383390Y-75666666D01*
X99383390Y-75666666D02*
X99431009Y-75619047D01*
X99431009Y-75619047D02*
X99478628Y-75523809D01*
X99478628Y-75523809D02*
X99478628Y-75142857D01*
X99954819Y-76666666D02*
X99954819Y-76095238D01*
X99954819Y-76380952D02*
X98954819Y-76380952D01*
X98954819Y-76380952D02*
X99097676Y-76285714D01*
X99097676Y-76285714D02*
X99192914Y-76190476D01*
X99192914Y-76190476D02*
X99240533Y-76095238D01*
X99954819Y-67885714D02*
X99954819Y-67314286D01*
X99954819Y-67600000D02*
X98954819Y-67600000D01*
X98954819Y-67600000D02*
X99097676Y-67504762D01*
X99097676Y-67504762D02*
X99192914Y-67409524D01*
X99192914Y-67409524D02*
X99240533Y-67314286D01*
X98954819Y-72466667D02*
X98954819Y-73085714D01*
X98954819Y-73085714D02*
X99335771Y-72752381D01*
X99335771Y-72752381D02*
X99335771Y-72895238D01*
X99335771Y-72895238D02*
X99383390Y-72990476D01*
X99383390Y-72990476D02*
X99431009Y-73038095D01*
X99431009Y-73038095D02*
X99526247Y-73085714D01*
X99526247Y-73085714D02*
X99764342Y-73085714D01*
X99764342Y-73085714D02*
X99859580Y-73038095D01*
X99859580Y-73038095D02*
X99907200Y-72990476D01*
X99907200Y-72990476D02*
X99954819Y-72895238D01*
X99954819Y-72895238D02*
X99954819Y-72609524D01*
X99954819Y-72609524D02*
X99907200Y-72514286D01*
X99907200Y-72514286D02*
X99859580Y-72466667D01*
D11*
%TO.C,kibuzzard-6796368B*%
G36*
X154282403Y-78851788D02*
G01*
X154325894Y-79010873D01*
X154282403Y-79173391D01*
X154119886Y-79216881D01*
X153960801Y-79174535D01*
X153918455Y-79015451D01*
X153960801Y-78852933D01*
X154119886Y-78809442D01*
X154282403Y-78851788D01*
G37*
G36*
X155995708Y-78459227D02*
G01*
X156058655Y-78509585D01*
X156080401Y-78570243D01*
X156083834Y-78644635D01*
X156074392Y-78743348D01*
X156046066Y-78842632D01*
X156000572Y-78938484D01*
X155939628Y-79026896D01*
X155860372Y-79103577D01*
X155759943Y-79164235D01*
X155643491Y-79203720D01*
X155516166Y-79216881D01*
X154639485Y-79216881D01*
X154562804Y-79213448D01*
X154501001Y-79192847D01*
X154449499Y-79131044D01*
X154433476Y-79015451D01*
X154448355Y-78899857D01*
X154495279Y-78836910D01*
X154553648Y-78814020D01*
X154623462Y-78809442D01*
X155502432Y-78809442D01*
X155592847Y-78792275D01*
X155646638Y-78747639D01*
X155669528Y-78696137D01*
X155676395Y-78649213D01*
X155682117Y-78573677D01*
X155706152Y-78509585D01*
X155766810Y-78459227D01*
X155877825Y-78443205D01*
X155995708Y-78459227D01*
G37*
G36*
X155471531Y-79353076D02*
G01*
X155533333Y-79374821D01*
X155584835Y-79437768D01*
X155600858Y-79555651D01*
X155584835Y-79674678D01*
X155533333Y-79738770D01*
X155471531Y-79760515D01*
X155394850Y-79763948D01*
X155019456Y-79763948D01*
X154899285Y-79809728D01*
X154854649Y-79931044D01*
X154898140Y-80051216D01*
X155019456Y-80093562D01*
X155392561Y-80093562D01*
X155469242Y-80096996D01*
X155532189Y-80118741D01*
X155584835Y-80182833D01*
X155600858Y-80304149D01*
X155584835Y-80424320D01*
X155533333Y-80487268D01*
X155471531Y-80509013D01*
X155394850Y-80512446D01*
X155019456Y-80512446D01*
X154860245Y-80498967D01*
X154721380Y-80458528D01*
X154602861Y-80391130D01*
X154512574Y-80299062D01*
X154458401Y-80184613D01*
X154440343Y-80047783D01*
X154483834Y-79881831D01*
X154582260Y-79759371D01*
X154535336Y-79752504D01*
X154491845Y-79727325D01*
X154454077Y-79665522D01*
X154440343Y-79557940D01*
X154455222Y-79438913D01*
X154504435Y-79375966D01*
X154563948Y-79354220D01*
X154639485Y-79349642D01*
X155392561Y-79349642D01*
X155471531Y-79353076D01*
G37*
G36*
X155577969Y-83541345D02*
G01*
X155516166Y-83650644D01*
X155577969Y-83715308D01*
X155598569Y-83845207D01*
X155582546Y-83964235D01*
X155531044Y-84028326D01*
X155470386Y-84050072D01*
X155392561Y-84053505D01*
X154648641Y-84053505D01*
X154571960Y-84050072D01*
X154509013Y-84028326D01*
X154456366Y-83965379D01*
X154440343Y-83847496D01*
X154463805Y-83709013D01*
X154534192Y-83650644D01*
X154465522Y-83544778D01*
X154451593Y-83462947D01*
X154854649Y-83462947D01*
X154902718Y-83578541D01*
X155019456Y-83625465D01*
X155135050Y-83578541D01*
X155184263Y-83467525D01*
X155135050Y-83347353D01*
X155021745Y-83295851D01*
X154905007Y-83345064D01*
X154854649Y-83462947D01*
X154451593Y-83462947D01*
X154442632Y-83410300D01*
X154462216Y-83279065D01*
X154520966Y-83156986D01*
X154618884Y-83044063D01*
X154741472Y-82953775D01*
X154874233Y-82899603D01*
X155017167Y-82881545D01*
X155163917Y-82899475D01*
X155298967Y-82953267D01*
X155422318Y-83042918D01*
X155520235Y-83155460D01*
X155578986Y-83277921D01*
X155598569Y-83410300D01*
X155589573Y-83467525D01*
X155577969Y-83541345D01*
G37*
G36*
X155473820Y-81626037D02*
G01*
X155535622Y-81647783D01*
X155587124Y-81710730D01*
X155603147Y-81828612D01*
X155587124Y-81947639D01*
X155535622Y-82011731D01*
X155474964Y-82033476D01*
X155397139Y-82036910D01*
X154985122Y-82036910D01*
X154895851Y-82098712D01*
X154856938Y-82213162D01*
X154901574Y-82325322D01*
X155019456Y-82366524D01*
X155392561Y-82366524D01*
X155473820Y-82371102D01*
X155536767Y-82393991D01*
X155587124Y-82456938D01*
X155603147Y-82574821D01*
X155587124Y-82693848D01*
X155535622Y-82757940D01*
X155473820Y-82779685D01*
X155397139Y-82783119D01*
X155021745Y-82783119D01*
X154867112Y-82766587D01*
X154729773Y-82716993D01*
X154609728Y-82634335D01*
X154516897Y-82527261D01*
X154461199Y-82404419D01*
X154442632Y-82265808D01*
X154467239Y-82145637D01*
X154541059Y-82036910D01*
X154124464Y-82036910D01*
X154045494Y-82033476D01*
X153983691Y-82011731D01*
X153932189Y-81948784D01*
X153916166Y-81830901D01*
X153932189Y-81710730D01*
X153983691Y-81647783D01*
X154045494Y-81626037D01*
X154122175Y-81622604D01*
X155394850Y-81622604D01*
X155473820Y-81626037D01*
G37*
G36*
X154802003Y-80630329D02*
G01*
X154852361Y-80736767D01*
X154852361Y-80793991D01*
X155143062Y-80793991D01*
X155286505Y-80806835D01*
X155402480Y-80845366D01*
X155490987Y-80909585D01*
X155553298Y-81000763D01*
X155590685Y-81120172D01*
X155603147Y-81267811D01*
X155599714Y-81342203D01*
X155577969Y-81405150D01*
X155515021Y-81458941D01*
X155397139Y-81476109D01*
X155291845Y-81462375D01*
X155235765Y-81416595D01*
X155214020Y-81354793D01*
X155209442Y-81270100D01*
X155191130Y-81220887D01*
X155122461Y-81208298D01*
X154856938Y-81208298D01*
X154859227Y-81327325D01*
X154853505Y-81405150D01*
X154829471Y-81468097D01*
X154766524Y-81518455D01*
X154653219Y-81535622D01*
X154551359Y-81523033D01*
X154488412Y-81493276D01*
X154456366Y-81444063D01*
X154443777Y-81390272D01*
X154442632Y-81329614D01*
X154447210Y-81208298D01*
X154264092Y-81208298D01*
X154187411Y-81203720D01*
X154123319Y-81180830D01*
X154071817Y-81117883D01*
X154055794Y-81002289D01*
X154070672Y-80882117D01*
X154118741Y-80819170D01*
X154178255Y-80797425D01*
X154254936Y-80793991D01*
X154454077Y-80793991D01*
X154454077Y-80745923D01*
X154503290Y-80636052D01*
X154650930Y-80599428D01*
X154802003Y-80630329D01*
G37*
G36*
X155492704Y-84196280D02*
G01*
X155561946Y-84315594D01*
X155608298Y-84472103D01*
X155623748Y-84623462D01*
X155607908Y-84807222D01*
X155560389Y-84950146D01*
X155481190Y-85052235D01*
X155370312Y-85113488D01*
X155227754Y-85133906D01*
X155062947Y-85103004D01*
X154957654Y-85013734D01*
X154905007Y-84903863D01*
X154875250Y-84779113D01*
X154869528Y-84742489D01*
X154863805Y-84705866D01*
X154856938Y-84673820D01*
X154848927Y-84644063D01*
X154840916Y-84618884D01*
X154830615Y-84597139D01*
X154818026Y-84582260D01*
X154802003Y-84571960D01*
X154781402Y-84568526D01*
X154735622Y-84653219D01*
X154776824Y-84795136D01*
X154818026Y-84921030D01*
X154731044Y-85035479D01*
X154587983Y-85085265D01*
X154492990Y-84996567D01*
X154436338Y-84836910D01*
X154417454Y-84678398D01*
X154427754Y-84532539D01*
X154458655Y-84412367D01*
X154510157Y-84317883D01*
X154623748Y-84226037D01*
X154779113Y-84195422D01*
X154907725Y-84213019D01*
X155012017Y-84265808D01*
X155091989Y-84353791D01*
X155147639Y-84476967D01*
X155178541Y-84600572D01*
X155210587Y-84713877D01*
X155250644Y-84747067D01*
X155287268Y-84660086D01*
X155231187Y-84489557D01*
X155175107Y-84330472D01*
X155220887Y-84241202D01*
X155327325Y-84177682D01*
X155408584Y-84156509D01*
X155492704Y-84196280D01*
G37*
G36*
X155351359Y-77788555D02*
G01*
X155362804Y-77788555D01*
X155496710Y-77812589D01*
X155600858Y-77884692D01*
X155667811Y-77995708D01*
X155690129Y-78136481D01*
X155679542Y-78236910D01*
X155647783Y-78336767D01*
X155596280Y-78432904D01*
X155526466Y-78522175D01*
X155434049Y-78599714D01*
X155314735Y-78660658D01*
X155174535Y-78700143D01*
X155019456Y-78713305D01*
X154827325Y-78696853D01*
X154656080Y-78647496D01*
X154505722Y-78565236D01*
X154376252Y-78450072D01*
X154290552Y-78337545D01*
X154223897Y-78210552D01*
X154176286Y-78069093D01*
X154147720Y-77913167D01*
X154138197Y-77742775D01*
X154153505Y-77555722D01*
X154199428Y-77385980D01*
X154275966Y-77233548D01*
X154383119Y-77098426D01*
X154514020Y-76987768D01*
X154661803Y-76908727D01*
X154826466Y-76861302D01*
X155008011Y-76845494D01*
X155197997Y-76859514D01*
X155367382Y-76901574D01*
X155516166Y-76971674D01*
X155644349Y-77069814D01*
X155747496Y-77191845D01*
X155821173Y-77333619D01*
X155865379Y-77495136D01*
X155880114Y-77676395D01*
X155876681Y-77732475D01*
X155860658Y-77779399D01*
X155814878Y-77819456D01*
X155726753Y-77832046D01*
X155598569Y-77803433D01*
X155571102Y-77678684D01*
X155554824Y-77520235D01*
X155505993Y-77389763D01*
X155424607Y-77287268D01*
X155311683Y-77213511D01*
X155168240Y-77169258D01*
X154994278Y-77154506D01*
X154839008Y-77172818D01*
X154705866Y-77227754D01*
X154594850Y-77319313D01*
X154511556Y-77441392D01*
X154461580Y-77587887D01*
X154444921Y-77758798D01*
X154461199Y-77944842D01*
X154510030Y-78103163D01*
X154591416Y-78233763D01*
X154701288Y-78331044D01*
X154835575Y-78389413D01*
X154994278Y-78408870D01*
X155102718Y-78401431D01*
X155194564Y-78379113D01*
X155315880Y-78303577D01*
X155368526Y-78218884D01*
X155383405Y-78145637D01*
X155378827Y-78103290D01*
X155358226Y-78095279D01*
X154650930Y-78186838D01*
X154569671Y-78155937D01*
X154543348Y-78042632D01*
X154559943Y-77946495D01*
X154609728Y-77891559D01*
X154561660Y-77817167D01*
X154546795Y-77729041D01*
X154859227Y-77729041D01*
X154887840Y-77800000D01*
X154959943Y-77827468D01*
X154971388Y-77827468D01*
X155051502Y-77781688D01*
X155085837Y-77696996D01*
X155057225Y-77624893D01*
X154989700Y-77596280D01*
X154975966Y-77596280D01*
X154892418Y-77642060D01*
X154859227Y-77729041D01*
X154546795Y-77729041D01*
X154545637Y-77722175D01*
X154577969Y-77576824D01*
X154674964Y-77438340D01*
X154812589Y-77332475D01*
X154966810Y-77284979D01*
X155019456Y-77282690D01*
X155162804Y-77307868D01*
X155286123Y-77383405D01*
X155371102Y-77493848D01*
X155399428Y-77623748D01*
X155378064Y-77696996D01*
X155351359Y-77788555D01*
G37*
%TO.C,kibuzzard-6791A0E6*%
G36*
X144902718Y-101708155D02*
G01*
X144981402Y-101735336D01*
X145047210Y-101814020D01*
X145067239Y-101961373D01*
X145047210Y-102110157D01*
X144982833Y-102190272D01*
X144905579Y-102217454D01*
X144809728Y-102221745D01*
X144713877Y-102217454D01*
X144635193Y-102190272D01*
X144569385Y-102111588D01*
X144549356Y-101964235D01*
X144569385Y-101814020D01*
X144633763Y-101735336D01*
X144709585Y-101708155D01*
X144806867Y-101703863D01*
X144902718Y-101708155D01*
G37*
G36*
X144902718Y-108426323D02*
G01*
X144981402Y-108453505D01*
X145047210Y-108532189D01*
X145067239Y-108679542D01*
X145047210Y-108828326D01*
X144982833Y-108908441D01*
X144905579Y-108935622D01*
X144809728Y-108939914D01*
X144713877Y-108935622D01*
X144635193Y-108908441D01*
X144569385Y-108829757D01*
X144549356Y-108682403D01*
X144569385Y-108532189D01*
X144633763Y-108453505D01*
X144709585Y-108426323D01*
X144806867Y-108422031D01*
X144902718Y-108426323D01*
G37*
G36*
X144902718Y-94330472D02*
G01*
X144961373Y-94530758D01*
X144912732Y-94725322D01*
X144875536Y-94771102D01*
X144549356Y-95134478D01*
X144452074Y-95221745D01*
X144360515Y-95254649D01*
X144171674Y-95165951D01*
X144071531Y-94995708D01*
X144154506Y-94819742D01*
X144180258Y-94791130D01*
X143213162Y-94791130D01*
X143010014Y-94733906D01*
X142952790Y-94533619D01*
X143010014Y-94330472D01*
X143210300Y-94273247D01*
X144698140Y-94273247D01*
X144902718Y-94330472D01*
G37*
G36*
X144244635Y-101708155D02*
G01*
X144323319Y-101735336D01*
X144389127Y-101814020D01*
X144409156Y-101961373D01*
X144389127Y-102110157D01*
X144324750Y-102190272D01*
X144247496Y-102217454D01*
X144151645Y-102221745D01*
X143218884Y-102221745D01*
X143120172Y-102217454D01*
X143042918Y-102190272D01*
X142978541Y-102111588D01*
X142958512Y-101964235D01*
X142978541Y-101814020D01*
X143042918Y-101735336D01*
X143118741Y-101708155D01*
X143216023Y-101703863D01*
X144145923Y-101703863D01*
X144244635Y-101708155D01*
G37*
G36*
X144244635Y-108426323D02*
G01*
X144323319Y-108453505D01*
X144389127Y-108532189D01*
X144409156Y-108679542D01*
X144389127Y-108828326D01*
X144324750Y-108908441D01*
X144247496Y-108935622D01*
X144151645Y-108939914D01*
X143218884Y-108939914D01*
X143120172Y-108935622D01*
X143042918Y-108908441D01*
X142978541Y-108829757D01*
X142958512Y-108682403D01*
X142978541Y-108532189D01*
X143042918Y-108453505D01*
X143118741Y-108426323D01*
X143216023Y-108422031D01*
X144145923Y-108422031D01*
X144244635Y-108426323D01*
G37*
G36*
X144288984Y-95353362D02*
G01*
X144386266Y-95480687D01*
X144433476Y-95689557D01*
X144381617Y-95765379D01*
X144268956Y-95832618D01*
X143656652Y-96101574D01*
X144268956Y-96370529D01*
X144432046Y-96509299D01*
X144386266Y-96722461D01*
X144238913Y-96876967D01*
X144034335Y-96836910D01*
X143070100Y-96330472D01*
X142975680Y-96240343D01*
X142944206Y-96101574D01*
X142975680Y-95962804D01*
X143070100Y-95872675D01*
X144034335Y-95366237D01*
X144174535Y-95319027D01*
X144288984Y-95353362D01*
G37*
G36*
X143356223Y-99213162D02*
G01*
X143430615Y-99261803D01*
X143454936Y-99317597D01*
X143459227Y-99377682D01*
X143474964Y-99444921D01*
X143576538Y-99454936D01*
X144809728Y-99454936D01*
X144907010Y-99460658D01*
X144987124Y-99487840D01*
X145052933Y-99565093D01*
X145072961Y-99712446D01*
X145052933Y-99861230D01*
X144988555Y-99941345D01*
X144911302Y-99968526D01*
X144812589Y-99972818D01*
X143545064Y-99972818D01*
X143370172Y-99965665D01*
X143234621Y-99944206D01*
X143057225Y-99838340D01*
X142977110Y-99660944D01*
X142963162Y-99540773D01*
X142958512Y-99380544D01*
X142962804Y-99317597D01*
X142988555Y-99261803D01*
X143067239Y-99213162D01*
X143216023Y-99197425D01*
X143356223Y-99213162D01*
G37*
G36*
X144949928Y-109274678D02*
G01*
X144961373Y-109490701D01*
X144783977Y-109606581D01*
X143908441Y-109904149D01*
X144766810Y-110138770D01*
X144789700Y-110147353D01*
X144825465Y-110161660D01*
X144861230Y-110180258D01*
X144898426Y-110211731D01*
X144929900Y-110256080D01*
X144954220Y-110319027D01*
X144961373Y-110402003D01*
X144913448Y-110566524D01*
X144769671Y-110653791D01*
X143914163Y-110888412D01*
X144783977Y-111185980D01*
X144959943Y-111301860D01*
X144947067Y-111515021D01*
X144826896Y-111693848D01*
X144615165Y-111680973D01*
X143138770Y-111165951D01*
X143077253Y-111140200D01*
X143002861Y-111062947D01*
X142961373Y-110919886D01*
X143010014Y-110757511D01*
X143155937Y-110665236D01*
X144034335Y-110396280D01*
X143153076Y-110127325D01*
X143111588Y-110111588D01*
X143051502Y-110074392D01*
X142987124Y-109994278D01*
X142961373Y-109872675D01*
X143005722Y-109713162D01*
X143138770Y-109623748D01*
X144615165Y-109111588D01*
X144824034Y-109095851D01*
X144949928Y-109274678D01*
G37*
G36*
X143878557Y-102422667D02*
G01*
X144050230Y-102484661D01*
X144200286Y-102587983D01*
X144316325Y-102721825D01*
X144385948Y-102875378D01*
X144409156Y-103048641D01*
X144378398Y-103198856D01*
X144286123Y-103334764D01*
X144806867Y-103334764D01*
X144905579Y-103339056D01*
X144982833Y-103366237D01*
X145047210Y-103444921D01*
X145067239Y-103592275D01*
X145047210Y-103742489D01*
X144982833Y-103821173D01*
X144905579Y-103848355D01*
X144809728Y-103852647D01*
X143218884Y-103852647D01*
X143120172Y-103848355D01*
X143042918Y-103821173D01*
X142978541Y-103742489D01*
X142958512Y-103595136D01*
X142978541Y-103446352D01*
X143042918Y-103366237D01*
X143118741Y-103339056D01*
X143216023Y-103334764D01*
X143731044Y-103334764D01*
X143842632Y-103257511D01*
X143891273Y-103114449D01*
X143835479Y-102974249D01*
X143688126Y-102922747D01*
X143221745Y-102922747D01*
X143120172Y-102917024D01*
X143041488Y-102888412D01*
X142978541Y-102809728D01*
X142958512Y-102662375D01*
X142978541Y-102513591D01*
X143042918Y-102433476D01*
X143120172Y-102406295D01*
X143216023Y-102402003D01*
X143685265Y-102402003D01*
X143878557Y-102422667D01*
G37*
G36*
X144066524Y-100158441D02*
G01*
X144257511Y-100286123D01*
X144360833Y-100416309D01*
X144422826Y-100579876D01*
X144443491Y-100776824D01*
X144419806Y-100993483D01*
X144348752Y-101181847D01*
X144230329Y-101341917D01*
X144074392Y-101463519D01*
X143890796Y-101536481D01*
X143679542Y-101560801D01*
X143549356Y-101549714D01*
X143422031Y-101516452D01*
X143298999Y-101461373D01*
X143181688Y-101384835D01*
X143078326Y-101280043D01*
X142997139Y-101140200D01*
X142944564Y-100971388D01*
X142927039Y-100779685D01*
X142943312Y-100519313D01*
X142992132Y-100333333D01*
X143073498Y-100221745D01*
X143187411Y-100184549D01*
X143319027Y-100221745D01*
X143422031Y-100298999D01*
X143456366Y-100393419D01*
X143419170Y-100525036D01*
X143381974Y-100756795D01*
X143422031Y-100925608D01*
X143530758Y-101011445D01*
X143530758Y-100690987D01*
X143799714Y-100690987D01*
X143799714Y-101011445D01*
X143927039Y-100944206D01*
X143982833Y-100782546D01*
X143952790Y-100659514D01*
X143868383Y-100613734D01*
X143799714Y-100690987D01*
X143530758Y-100690987D01*
X143530758Y-100402003D01*
X143552575Y-100285765D01*
X143618026Y-100194564D01*
X143723534Y-100135551D01*
X143865522Y-100115880D01*
X144066524Y-100158441D01*
G37*
G36*
X144066524Y-105569027D02*
G01*
X144257511Y-105696710D01*
X144360833Y-105826896D01*
X144422826Y-105990463D01*
X144443491Y-106187411D01*
X144419806Y-106404069D01*
X144348752Y-106592434D01*
X144230329Y-106752504D01*
X144074392Y-106874106D01*
X143890796Y-106947067D01*
X143679542Y-106971388D01*
X143549356Y-106960300D01*
X143422031Y-106927039D01*
X143298999Y-106871960D01*
X143181688Y-106795422D01*
X143078326Y-106690629D01*
X142997139Y-106550787D01*
X142944564Y-106381974D01*
X142927039Y-106190272D01*
X142943312Y-105929900D01*
X142992132Y-105743920D01*
X143073498Y-105632332D01*
X143187411Y-105595136D01*
X143319027Y-105632332D01*
X143422031Y-105709585D01*
X143456366Y-105804006D01*
X143419170Y-105935622D01*
X143381974Y-106167382D01*
X143422031Y-106336195D01*
X143530758Y-106422031D01*
X143530758Y-106101574D01*
X143799714Y-106101574D01*
X143799714Y-106422031D01*
X143927039Y-106354793D01*
X143982833Y-106193133D01*
X143952790Y-106070100D01*
X143868383Y-106024320D01*
X143799714Y-106101574D01*
X143530758Y-106101574D01*
X143530758Y-105812589D01*
X143552575Y-105696352D01*
X143618026Y-105605150D01*
X143723534Y-105546137D01*
X143865522Y-105526466D01*
X144066524Y-105569027D01*
G37*
G36*
X144905579Y-97688126D02*
G01*
X144982833Y-97715308D01*
X145047210Y-97793991D01*
X145067239Y-97944206D01*
X145052933Y-98068670D01*
X145012876Y-98143062D01*
X144952790Y-98180258D01*
X144881259Y-98191702D01*
X144806867Y-98190272D01*
X144314735Y-98190272D01*
X144385551Y-98322604D01*
X144409156Y-98479256D01*
X144384677Y-98643300D01*
X144311238Y-98795899D01*
X144188841Y-98937053D01*
X144035606Y-99049913D01*
X143869655Y-99117628D01*
X143690987Y-99140200D01*
X143507550Y-99117787D01*
X143338738Y-99050548D01*
X143184549Y-98938484D01*
X143062152Y-98797806D01*
X142988714Y-98644731D01*
X142964235Y-98479256D01*
X142974983Y-98410587D01*
X143479256Y-98410587D01*
X143540773Y-98556509D01*
X143685265Y-98619456D01*
X143831187Y-98559371D01*
X143891273Y-98413448D01*
X143831187Y-98267525D01*
X143685265Y-98207439D01*
X143540773Y-98267525D01*
X143479256Y-98410587D01*
X142974983Y-98410587D01*
X142989986Y-98314735D01*
X143067239Y-98175966D01*
X142987840Y-98094421D01*
X142961373Y-97941345D01*
X142981402Y-97793991D01*
X143047210Y-97715308D01*
X143125894Y-97688126D01*
X143221745Y-97683834D01*
X144809728Y-97683834D01*
X144905579Y-97688126D01*
G37*
G36*
X143633763Y-107095851D02*
G01*
X143765379Y-107207439D01*
X143831187Y-107344778D01*
X143868383Y-107500715D01*
X143875536Y-107546495D01*
X143882690Y-107592275D01*
X143891273Y-107632332D01*
X143901288Y-107669528D01*
X143911302Y-107701001D01*
X143924177Y-107728183D01*
X143939914Y-107746781D01*
X143959943Y-107759657D01*
X143985694Y-107763948D01*
X144042918Y-107658083D01*
X143991416Y-107480687D01*
X143939914Y-107323319D01*
X144048641Y-107180258D01*
X144227468Y-107118026D01*
X144346209Y-107228898D01*
X144417024Y-107428469D01*
X144440629Y-107626609D01*
X144427754Y-107808933D01*
X144389127Y-107959148D01*
X144324750Y-108077253D01*
X144182761Y-108192060D01*
X143988555Y-108230329D01*
X143827790Y-108208333D01*
X143697425Y-108142346D01*
X143597461Y-108032368D01*
X143527897Y-107878398D01*
X143489270Y-107723891D01*
X143449213Y-107582260D01*
X143399142Y-107540773D01*
X143353362Y-107649499D01*
X143423462Y-107862661D01*
X143493562Y-108061516D01*
X143436338Y-108173104D01*
X143303290Y-108252504D01*
X143201717Y-108278970D01*
X143096567Y-108229256D01*
X143010014Y-108080114D01*
X142952074Y-107884478D01*
X142932761Y-107695279D01*
X142952561Y-107465579D01*
X143011960Y-107286924D01*
X143110959Y-107159313D01*
X143249557Y-107082747D01*
X143427754Y-107057225D01*
X143633763Y-107095851D01*
G37*
G36*
X143819027Y-103999642D02*
G01*
X143974249Y-104080114D01*
X144082976Y-104205651D01*
X144157368Y-104367668D01*
X144201717Y-104550787D01*
X144237482Y-104725322D01*
X144287554Y-104838340D01*
X144380544Y-104888412D01*
X144467811Y-104842632D01*
X144503577Y-104736767D01*
X144493562Y-104642346D01*
X144472103Y-104586552D01*
X144439199Y-104546495D01*
X144412017Y-104513591D01*
X144359084Y-104321888D01*
X144497854Y-104153076D01*
X144673820Y-104084406D01*
X144821173Y-104187411D01*
X144916547Y-104335877D01*
X144973772Y-104518042D01*
X144992847Y-104733906D01*
X144973613Y-104917342D01*
X144915912Y-105078525D01*
X144819742Y-105217454D01*
X144694325Y-105323955D01*
X144548879Y-105387856D01*
X144383405Y-105409156D01*
X144197425Y-105386266D01*
X144042918Y-105317597D01*
X143919886Y-105203147D01*
X143828326Y-105042918D01*
X143789342Y-104934549D01*
X143752504Y-104798283D01*
X143685265Y-104573677D01*
X143596567Y-104499285D01*
X143463519Y-104550787D01*
X143422031Y-104719599D01*
X143449213Y-104832618D01*
X143553648Y-104948498D01*
X143657924Y-105077571D01*
X143676999Y-105201558D01*
X143610873Y-105320458D01*
X143427754Y-105440629D01*
X143241774Y-105369099D01*
X143221745Y-105351931D01*
X143181688Y-105320458D01*
X143131617Y-105270386D01*
X143075823Y-105201717D01*
X143021459Y-105113019D01*
X142974249Y-105002861D01*
X142942775Y-104868383D01*
X142929900Y-104708155D01*
X142951359Y-104517883D01*
X143024320Y-104321888D01*
X143151645Y-104145923D01*
X143344778Y-104021459D01*
X143468526Y-103984979D01*
X143605150Y-103972818D01*
X143819027Y-103999642D01*
G37*
D16*
%TO.C,J1*%
X114590000Y-73630000D02*
X114590000Y-78830000D01*
X114590000Y-73630000D02*
X124780000Y-73630000D01*
X114590000Y-78830000D02*
X140110000Y-78830000D01*
X124780000Y-72710000D02*
X124780000Y-73630000D01*
X124780000Y-72710000D02*
X129780000Y-72710000D01*
X129780000Y-72710000D02*
X129780000Y-73630000D01*
X129780000Y-73630000D02*
X140110000Y-73630000D01*
X140110000Y-73630000D02*
X140110000Y-76230000D01*
X140110000Y-76230000D02*
X140110000Y-78830000D01*
%TO.C,JP1*%
X98500000Y-71600000D02*
X98500000Y-68800000D01*
X99200000Y-68150000D02*
X99800000Y-68150000D01*
X99800000Y-72250000D02*
X99200000Y-72250000D01*
X100500000Y-68800000D02*
X100500000Y-71600000D01*
X98500000Y-68850000D02*
G75*
G02*
X99200000Y-68150000I699999J1D01*
G01*
X99200000Y-72250000D02*
G75*
G02*
X98500000Y-71550000I0J700000D01*
G01*
X99800000Y-68150000D02*
G75*
G02*
X100500000Y-68850000I1J-699999D01*
G01*
X100500000Y-71550000D02*
G75*
G02*
X99800000Y-72250000I-700000J0D01*
G01*
%TD*%
M02*
