%TF.GenerationSoftware,KiCad,Pcbnew,8.0.7-unknown-202501031821~9d36205ced~ubuntu20.04.1*%
%TF.CreationDate,2025-02-02T17:40:00-03:00*%
%TF.ProjectId,Wise-Shield-32,57697365-2d53-4686-9965-6c642d33322e,1*%
%TF.SameCoordinates,Original*%
%TF.FileFunction,Other,User*%
%FSLAX46Y46*%
G04 Gerber Fmt 4.6, Leading zero omitted, Abs format (unit mm)*
G04 Created by KiCad (PCBNEW 8.0.7-unknown-202501031821~9d36205ced~ubuntu20.04.1) date 2025-02-02 17:40:00*
%MOMM*%
%LPD*%
G01*
G04 APERTURE LIST*
%ADD10C,0.050000*%
G04 APERTURE END LIST*
D10*
%TO.C,C3\u002A*%
X118500000Y-96000000D02*
G75*
G02*
X113000000Y-96000000I-2750000J0D01*
G01*
X113000000Y-96000000D02*
G75*
G02*
X118500000Y-96000000I2750000J0D01*
G01*
%TO.C,J6\u002A*%
X97500000Y-102750000D02*
X97500000Y-92250000D01*
X97500000Y-102750000D02*
X105500000Y-102750000D01*
X105500000Y-92250000D02*
X97500000Y-92250000D01*
X105500000Y-92250000D02*
X105500000Y-102750000D01*
%TO.C,D1\u002A*%
X113575000Y-101250000D02*
X113575000Y-105750000D01*
X113575000Y-105750000D02*
X118425000Y-105750000D01*
X118425000Y-101250000D02*
X113575000Y-101250000D01*
X118425000Y-105750000D02*
X118425000Y-101250000D01*
%TO.C,C4*%
X108450000Y-67000000D02*
X108450000Y-70000000D01*
X108450000Y-70000000D02*
X115550000Y-70000000D01*
X115550000Y-67000000D02*
X108450000Y-67000000D01*
X115550000Y-70000000D02*
X115550000Y-67000000D01*
%TO.C,J5*%
X124690000Y-106000000D02*
X141930000Y-106000000D01*
X124690000Y-120000000D02*
X124690000Y-106000000D01*
X141930000Y-120000000D02*
X124690000Y-120000000D01*
X141930000Y-120000000D02*
X141930000Y-106000000D01*
%TO.C,R1\u002A*%
X148200000Y-118180000D02*
X148200000Y-112820000D01*
X148200000Y-118180000D02*
X152800000Y-118180000D01*
X152800000Y-112820000D02*
X148200000Y-112820000D01*
X152800000Y-112820000D02*
X152800000Y-118180000D01*
%TO.C,C2*%
X108450000Y-82500000D02*
X108450000Y-85500000D01*
X108450000Y-85500000D02*
X115550000Y-85500000D01*
X115550000Y-82500000D02*
X108450000Y-82500000D01*
X115550000Y-85500000D02*
X115550000Y-82500000D01*
%TO.C,C5*%
X130750000Y-96000000D02*
G75*
G02*
X122250000Y-96000000I-4250000J0D01*
G01*
X122250000Y-96000000D02*
G75*
G02*
X130750000Y-96000000I4250000J0D01*
G01*
%TO.C,D2*%
X116400000Y-107340000D02*
X116400000Y-117660000D01*
X116400000Y-117660000D02*
X119600000Y-117660000D01*
X119600000Y-107340000D02*
X116400000Y-107340000D01*
X119600000Y-117660000D02*
X119600000Y-107340000D01*
%TO.C,R2*%
X133790000Y-67000000D02*
X133790000Y-70000000D01*
X133790000Y-70000000D02*
X146050000Y-70000000D01*
X146050000Y-67000000D02*
X133790000Y-67000000D01*
X146050000Y-70000000D02*
X146050000Y-67000000D01*
%TO.C,U2\u002A*%
X135000000Y-91560000D02*
X141000000Y-91560000D01*
X135000000Y-104060000D02*
X135000000Y-91560000D01*
X141000000Y-91560000D02*
X141000000Y-104060000D01*
X141000000Y-104060000D02*
X135000000Y-104060000D01*
%TO.C,J4\u002A*%
X148700000Y-92200000D02*
X152250000Y-92200000D01*
X148700000Y-111000000D02*
X148700000Y-92200000D01*
X152250000Y-92200000D02*
X152250000Y-111000000D01*
X152250000Y-111000000D02*
X148700000Y-111000000D01*
%TO.C,J3*%
X97500000Y-115792500D02*
X97500000Y-106292500D01*
X106500000Y-115792500D02*
X97500000Y-115792500D01*
X106500000Y-117792500D02*
X106500000Y-115792500D01*
X110500000Y-115792500D02*
X110500000Y-117792500D01*
X110500000Y-117792500D02*
X106500000Y-117792500D01*
X112500000Y-106292500D02*
X97500000Y-106292500D01*
X112500000Y-106542500D02*
X112500000Y-106292500D01*
X112500000Y-106542500D02*
X112500000Y-109042500D01*
X112500000Y-109042500D02*
X113500000Y-109042500D01*
X112500000Y-113042500D02*
X112500000Y-115792500D01*
X112500000Y-115792500D02*
X110500000Y-115792500D01*
X113500000Y-109042500D02*
X113500000Y-113042500D01*
X113500000Y-113042500D02*
X112500000Y-113042500D01*
%TO.C,R3*%
X133790000Y-82500000D02*
X133790000Y-85500000D01*
X133790000Y-85500000D02*
X146050000Y-85500000D01*
X146050000Y-82500000D02*
X133790000Y-82500000D01*
X146050000Y-85500000D02*
X146050000Y-82500000D01*
%TO.C,C1*%
X117950000Y-82500000D02*
X117950000Y-85500000D01*
X117950000Y-85500000D02*
X125050000Y-85500000D01*
X125050000Y-82500000D02*
X117950000Y-82500000D01*
X125050000Y-85500000D02*
X125050000Y-82500000D01*
%TO.C,R4\u002A*%
X131450000Y-98230000D02*
X131450000Y-102770000D01*
X131450000Y-102770000D02*
X133550000Y-102770000D01*
X133550000Y-98230000D02*
X131450000Y-98230000D01*
X133550000Y-102770000D02*
X133550000Y-98230000D01*
%TD*%
M02*
