%TF.GenerationSoftware,KiCad,Pcbnew,8.0.7-unknown-202501031821~9d36205ced~ubuntu20.04.1*%
%TF.CreationDate,2025-01-13T23:31:25-03:00*%
%TF.ProjectId,Wise-Shield-32,57697365-2d53-4686-9965-6c642d33322e,rev?*%
%TF.SameCoordinates,Original*%
%TF.FileFunction,Drillmap*%
%TF.FilePolarity,Positive*%
%FSLAX45Y45*%
G04 Gerber Fmt 4.5, Leading zero omitted, Abs format (unit mm)*
G04 Created by KiCad (PCBNEW 8.0.7-unknown-202501031821~9d36205ced~ubuntu20.04.1) date 2025-01-13 23:31:25*
%MOMM*%
%LPD*%
G01*
G04 APERTURE LIST*
%ADD10C,0.050000*%
%ADD11C,0.200000*%
%ADD12C,0.100000*%
%ADD13C,0.140000*%
%ADD14C,0.152000*%
%ADD15C,0.160000*%
G04 APERTURE END LIST*
D10*
X9750000Y-12000000D02*
X15700000Y-12000000D01*
X15700000Y-12000000D02*
X15700000Y-6100000D01*
X9750000Y-6100000D02*
X9750000Y-12000000D01*
X15700000Y-6100000D02*
X9750000Y-6100000D01*
D11*
D12*
X12738890Y-8133340D02*
X12776990Y-8171440D01*
X12776990Y-8133340D02*
X12738890Y-8171440D01*
X13793130Y-6867310D02*
X13831230Y-6905410D01*
X13831230Y-6867310D02*
X13793130Y-6905410D01*
X15384160Y-9911960D02*
X15422260Y-9950060D01*
X15422260Y-9911960D02*
X15384160Y-9950060D01*
X11182100Y-6350000D02*
G75*
G02*
X11105900Y-6350000I-38100J0D01*
G01*
X11105900Y-6350000D02*
G75*
G02*
X11182100Y-6350000I38100J0D01*
G01*
X11182100Y-8890000D02*
G75*
G02*
X11105900Y-8890000I-38100J0D01*
G01*
X11105900Y-8890000D02*
G75*
G02*
X11182100Y-8890000I38100J0D01*
G01*
X11436100Y-6350000D02*
G75*
G02*
X11359900Y-6350000I-38100J0D01*
G01*
X11359900Y-6350000D02*
G75*
G02*
X11436100Y-6350000I38100J0D01*
G01*
X11436100Y-8890000D02*
G75*
G02*
X11359900Y-8890000I-38100J0D01*
G01*
X11359900Y-8890000D02*
G75*
G02*
X11436100Y-8890000I38100J0D01*
G01*
X11690100Y-6350000D02*
G75*
G02*
X11613900Y-6350000I-38100J0D01*
G01*
X11613900Y-6350000D02*
G75*
G02*
X11690100Y-6350000I38100J0D01*
G01*
X11690100Y-8890000D02*
G75*
G02*
X11613900Y-8890000I-38100J0D01*
G01*
X11613900Y-8890000D02*
G75*
G02*
X11690100Y-8890000I38100J0D01*
G01*
X11944100Y-6350000D02*
G75*
G02*
X11867900Y-6350000I-38100J0D01*
G01*
X11867900Y-6350000D02*
G75*
G02*
X11944100Y-6350000I38100J0D01*
G01*
X11944100Y-8890000D02*
G75*
G02*
X11867900Y-8890000I-38100J0D01*
G01*
X11867900Y-8890000D02*
G75*
G02*
X11944100Y-8890000I38100J0D01*
G01*
X12198100Y-6350000D02*
G75*
G02*
X12121900Y-6350000I-38100J0D01*
G01*
X12121900Y-6350000D02*
G75*
G02*
X12198100Y-6350000I38100J0D01*
G01*
X12198100Y-8890000D02*
G75*
G02*
X12121900Y-8890000I-38100J0D01*
G01*
X12121900Y-8890000D02*
G75*
G02*
X12198100Y-8890000I38100J0D01*
G01*
X12452100Y-6350000D02*
G75*
G02*
X12375900Y-6350000I-38100J0D01*
G01*
X12375900Y-6350000D02*
G75*
G02*
X12452100Y-6350000I38100J0D01*
G01*
X12452100Y-8890000D02*
G75*
G02*
X12375900Y-8890000I-38100J0D01*
G01*
X12375900Y-8890000D02*
G75*
G02*
X12452100Y-8890000I38100J0D01*
G01*
X12706100Y-6350000D02*
G75*
G02*
X12629900Y-6350000I-38100J0D01*
G01*
X12629900Y-6350000D02*
G75*
G02*
X12706100Y-6350000I38100J0D01*
G01*
X12706100Y-8890000D02*
G75*
G02*
X12629900Y-8890000I-38100J0D01*
G01*
X12629900Y-8890000D02*
G75*
G02*
X12706100Y-8890000I38100J0D01*
G01*
X12960100Y-6350000D02*
G75*
G02*
X12883900Y-6350000I-38100J0D01*
G01*
X12883900Y-6350000D02*
G75*
G02*
X12960100Y-6350000I38100J0D01*
G01*
X12960100Y-8890000D02*
G75*
G02*
X12883900Y-8890000I-38100J0D01*
G01*
X12883900Y-8890000D02*
G75*
G02*
X12960100Y-8890000I38100J0D01*
G01*
X13214100Y-6350000D02*
G75*
G02*
X13137900Y-6350000I-38100J0D01*
G01*
X13137900Y-6350000D02*
G75*
G02*
X13214100Y-6350000I38100J0D01*
G01*
X13214100Y-8890000D02*
G75*
G02*
X13137900Y-8890000I-38100J0D01*
G01*
X13137900Y-8890000D02*
G75*
G02*
X13214100Y-8890000I38100J0D01*
G01*
X13468100Y-6350000D02*
G75*
G02*
X13391900Y-6350000I-38100J0D01*
G01*
X13391900Y-6350000D02*
G75*
G02*
X13468100Y-6350000I38100J0D01*
G01*
X13468100Y-8890000D02*
G75*
G02*
X13391900Y-8890000I-38100J0D01*
G01*
X13391900Y-8890000D02*
G75*
G02*
X13468100Y-8890000I38100J0D01*
G01*
X13722100Y-6350000D02*
G75*
G02*
X13645900Y-6350000I-38100J0D01*
G01*
X13645900Y-6350000D02*
G75*
G02*
X13722100Y-6350000I38100J0D01*
G01*
X13722100Y-8890000D02*
G75*
G02*
X13645900Y-8890000I-38100J0D01*
G01*
X13645900Y-8890000D02*
G75*
G02*
X13722100Y-8890000I38100J0D01*
G01*
X13976100Y-6350000D02*
G75*
G02*
X13899900Y-6350000I-38100J0D01*
G01*
X13899900Y-6350000D02*
G75*
G02*
X13976100Y-6350000I38100J0D01*
G01*
X13976100Y-8890000D02*
G75*
G02*
X13899900Y-8890000I-38100J0D01*
G01*
X13899900Y-8890000D02*
G75*
G02*
X13976100Y-8890000I38100J0D01*
G01*
X14230100Y-6350000D02*
G75*
G02*
X14153900Y-6350000I-38100J0D01*
G01*
X14153900Y-6350000D02*
G75*
G02*
X14230100Y-6350000I38100J0D01*
G01*
X14230100Y-8890000D02*
G75*
G02*
X14153900Y-8890000I-38100J0D01*
G01*
X14153900Y-8890000D02*
G75*
G02*
X14230100Y-8890000I38100J0D01*
G01*
X14484100Y-6350000D02*
G75*
G02*
X14407900Y-6350000I-38100J0D01*
G01*
X14407900Y-6350000D02*
G75*
G02*
X14484100Y-6350000I38100J0D01*
G01*
X14484100Y-8890000D02*
G75*
G02*
X14407900Y-8890000I-38100J0D01*
G01*
X14407900Y-8890000D02*
G75*
G02*
X14484100Y-8890000I38100J0D01*
G01*
X14738100Y-6350000D02*
G75*
G02*
X14661900Y-6350000I-38100J0D01*
G01*
X14661900Y-6350000D02*
G75*
G02*
X14738100Y-6350000I38100J0D01*
G01*
X14738100Y-8890000D02*
G75*
G02*
X14661900Y-8890000I-38100J0D01*
G01*
X14661900Y-8890000D02*
G75*
G02*
X14738100Y-8890000I38100J0D01*
G01*
X11000000Y-9560000D02*
X11000000Y-9640000D01*
X10960000Y-9600000D02*
X11040000Y-9600000D01*
X11150000Y-6760000D02*
X11150000Y-6840000D01*
X11110000Y-6800000D02*
X11190000Y-6800000D01*
X11150000Y-8410000D02*
X11150000Y-8490000D01*
X11110000Y-8450000D02*
X11190000Y-8450000D01*
X11500000Y-9560000D02*
X11500000Y-9640000D01*
X11460000Y-9600000D02*
X11540000Y-9600000D01*
X11650000Y-6760000D02*
X11650000Y-6840000D01*
X11610000Y-6800000D02*
X11690000Y-6800000D01*
X11650000Y-8410000D02*
X11650000Y-8490000D01*
X11610000Y-8450000D02*
X11690000Y-8450000D01*
X11900000Y-8410000D02*
X11900000Y-8490000D01*
X11860000Y-8450000D02*
X11940000Y-8450000D01*
X12050000Y-9560000D02*
X12050000Y-9640000D01*
X12010000Y-9600000D02*
X12090000Y-9600000D01*
X12300000Y-9560000D02*
X12300000Y-9640000D01*
X12260000Y-9600000D02*
X12340000Y-9600000D01*
X12400000Y-8410000D02*
X12400000Y-8490000D01*
X12360000Y-8450000D02*
X12440000Y-8450000D01*
X12475000Y-10310000D02*
X12475000Y-10390000D01*
X12435000Y-10350000D02*
X12515000Y-10350000D01*
X12729000Y-10310000D02*
X12729000Y-10390000D01*
X12689000Y-10350000D02*
X12769000Y-10350000D01*
X13392000Y-6760000D02*
X13392000Y-6840000D01*
X13352000Y-6800000D02*
X13432000Y-6800000D01*
X13392000Y-8410000D02*
X13392000Y-8490000D01*
X13352000Y-8450000D02*
X13432000Y-8450000D01*
X14408000Y-6760000D02*
X14408000Y-6840000D01*
X14368000Y-6800000D02*
X14448000Y-6800000D01*
X14408000Y-8410000D02*
X14408000Y-8490000D01*
X14368000Y-8450000D02*
X14448000Y-8450000D01*
X14500000Y-10610000D02*
X14500000Y-10690000D01*
X14460000Y-10650000D02*
X14540000Y-10650000D01*
X14500000Y-10864000D02*
X14500000Y-10944000D01*
X14460000Y-10904000D02*
X14540000Y-10904000D01*
X14500000Y-11118000D02*
X14500000Y-11198000D01*
X14460000Y-11158000D02*
X14540000Y-11158000D01*
X14500000Y-11372000D02*
X14500000Y-11452000D01*
X14460000Y-11412000D02*
X14540000Y-11412000D01*
X15200000Y-11160000D02*
X15200000Y-11240000D01*
X15160000Y-11200000D02*
X15240000Y-11200000D01*
X15200000Y-11460000D02*
X15200000Y-11540000D01*
X15160000Y-11500000D02*
X15240000Y-11500000D01*
X12877820Y-9631820D02*
X12877820Y-9568180D01*
X12814180Y-9568180D01*
X12814180Y-9631820D01*
X12877820Y-9631820D01*
X13131820Y-9631820D02*
X13131820Y-9568180D01*
X13068180Y-9568180D01*
X13068180Y-9631820D01*
X13131820Y-9631820D01*
X10550000Y-11154250D02*
X10600000Y-11104250D01*
X10550000Y-11054250D01*
X10500000Y-11104250D01*
X10550000Y-11154250D01*
X10500000Y-11004250D02*
X10500000Y-11204250D01*
X10600000Y-11204250D02*
G75*
G02*
X10500000Y-11204250I-50000J0D01*
G01*
X10600000Y-11204250D02*
X10600000Y-11004250D01*
X10600000Y-11004250D02*
G75*
G03*
X10500000Y-11004250I-50000J0D01*
G01*
X10850000Y-11624250D02*
X10900000Y-11574250D01*
X10850000Y-11524250D01*
X10800000Y-11574250D01*
X10850000Y-11624250D01*
X10750000Y-11624250D02*
X10950000Y-11624250D01*
X10950000Y-11524250D02*
G75*
G02*
X10950000Y-11624250I0J-50000D01*
G01*
X10950000Y-11524250D02*
X10750000Y-11524250D01*
X10750000Y-11524250D02*
G75*
G03*
X10750000Y-11624250I0J-50000D01*
G01*
X11150000Y-11154250D02*
X11200000Y-11104250D01*
X11150000Y-11054250D01*
X11100000Y-11104250D01*
X11150000Y-11154250D01*
X11100000Y-11004250D02*
X11100000Y-11204250D01*
X11200000Y-11204250D02*
G75*
G02*
X11100000Y-11204250I-50000J0D01*
G01*
X11200000Y-11204250D02*
X11200000Y-11004250D01*
X11200000Y-11004250D02*
G75*
G03*
X11100000Y-11004250I-50000J0D01*
G01*
X11826000Y-7546000D02*
X11876000Y-7496000D01*
X11826000Y-7446000D01*
X11776000Y-7496000D01*
X11826000Y-7546000D01*
X11826000Y-7800000D02*
X11876000Y-7750000D01*
X11826000Y-7700000D01*
X11776000Y-7750000D01*
X11826000Y-7800000D01*
X12080000Y-7546000D02*
X12130000Y-7496000D01*
X12080000Y-7446000D01*
X12030000Y-7496000D01*
X12080000Y-7546000D01*
X12080000Y-7800000D02*
X12130000Y-7750000D01*
X12080000Y-7700000D01*
X12030000Y-7750000D01*
X12080000Y-7800000D01*
X12334000Y-7546000D02*
X12384000Y-7496000D01*
X12334000Y-7446000D01*
X12284000Y-7496000D01*
X12334000Y-7546000D01*
X12334000Y-7800000D02*
X12384000Y-7750000D01*
X12334000Y-7700000D01*
X12284000Y-7750000D01*
X12334000Y-7800000D01*
X12588000Y-7546000D02*
X12638000Y-7496000D01*
X12588000Y-7446000D01*
X12538000Y-7496000D01*
X12588000Y-7546000D01*
X12588000Y-7800000D02*
X12638000Y-7750000D01*
X12588000Y-7700000D01*
X12538000Y-7750000D01*
X12588000Y-7800000D01*
X12842000Y-7546000D02*
X12892000Y-7496000D01*
X12842000Y-7446000D01*
X12792000Y-7496000D01*
X12842000Y-7546000D01*
X12842000Y-7800000D02*
X12892000Y-7750000D01*
X12842000Y-7700000D01*
X12792000Y-7750000D01*
X12842000Y-7800000D01*
X13096000Y-7546000D02*
X13146000Y-7496000D01*
X13096000Y-7446000D01*
X13046000Y-7496000D01*
X13096000Y-7546000D01*
X13096000Y-7800000D02*
X13146000Y-7750000D01*
X13096000Y-7700000D01*
X13046000Y-7750000D01*
X13096000Y-7800000D01*
X13350000Y-7546000D02*
X13400000Y-7496000D01*
X13350000Y-7446000D01*
X13300000Y-7496000D01*
X13350000Y-7546000D01*
X13350000Y-7800000D02*
X13400000Y-7750000D01*
X13350000Y-7700000D01*
X13300000Y-7750000D01*
X13350000Y-7800000D01*
X13604000Y-7546000D02*
X13654000Y-7496000D01*
X13604000Y-7446000D01*
X13554000Y-7496000D01*
X13604000Y-7546000D01*
X13604000Y-7800000D02*
X13654000Y-7750000D01*
X13604000Y-7700000D01*
X13554000Y-7750000D01*
X13604000Y-7800000D01*
X15200000Y-9346000D02*
X15250000Y-9296000D01*
X15200000Y-9246000D01*
X15150000Y-9296000D01*
X15200000Y-9346000D01*
X15200000Y-9600000D02*
X15250000Y-9550000D01*
X15200000Y-9500000D01*
X15150000Y-9550000D01*
X15200000Y-9600000D01*
X15200000Y-9854000D02*
X15250000Y-9804000D01*
X15200000Y-9754000D01*
X15150000Y-9804000D01*
X15200000Y-9854000D01*
X15200000Y-10108000D02*
X15250000Y-10058000D01*
X15200000Y-10008000D01*
X15150000Y-10058000D01*
X15200000Y-10108000D01*
X15200000Y-10362000D02*
X15250000Y-10312000D01*
X15200000Y-10262000D01*
X15150000Y-10312000D01*
X15200000Y-10362000D01*
X15200000Y-10616000D02*
X15250000Y-10566000D01*
X15200000Y-10516000D01*
X15150000Y-10566000D01*
X15200000Y-10616000D01*
X15200000Y-10870000D02*
X15250000Y-10820000D01*
X15200000Y-10770000D01*
X15150000Y-10820000D01*
X15200000Y-10870000D01*
D13*
X12780000Y-10830000D02*
X12920000Y-10970000D01*
X12920000Y-10830000D02*
X12780000Y-10970000D01*
X12920000Y-10900000D02*
G75*
G02*
X12780000Y-10900000I-70000J0D01*
G01*
X12780000Y-10900000D02*
G75*
G02*
X12920000Y-10900000I70000J0D01*
G01*
X13542000Y-10830000D02*
X13682000Y-10970000D01*
X13682000Y-10830000D02*
X13542000Y-10970000D01*
X13682000Y-10900000D02*
G75*
G02*
X13542000Y-10900000I-70000J0D01*
G01*
X13542000Y-10900000D02*
G75*
G02*
X13682000Y-10900000I70000J0D01*
G01*
D14*
X10074000Y-9420000D02*
X10226000Y-9572000D01*
X10226000Y-9420000D02*
X10074000Y-9572000D01*
X10150000Y-9420000D02*
X10150000Y-9572000D01*
X10074000Y-9496000D02*
X10226000Y-9496000D01*
X10074000Y-9928000D02*
X10226000Y-10080000D01*
X10226000Y-9928000D02*
X10074000Y-10080000D01*
X10150000Y-9928000D02*
X10150000Y-10080000D01*
X10074000Y-10004000D02*
X10226000Y-10004000D01*
D15*
X11770000Y-10350000D02*
X11930000Y-10510000D01*
X11930000Y-10350000D02*
X11770000Y-10510000D01*
X11906569Y-10486569D02*
X11906569Y-10373431D01*
X11793431Y-10373431D01*
X11793431Y-10486569D01*
X11906569Y-10486569D01*
X11770000Y-11620000D02*
X11930000Y-11780000D01*
X11930000Y-11620000D02*
X11770000Y-11780000D01*
X11906569Y-11756569D02*
X11906569Y-11643431D01*
X11793431Y-11643431D01*
X11793431Y-11756569D01*
X11906569Y-11756569D01*
D11*
X10008277Y-12313984D02*
X10008277Y-12113984D01*
X10008277Y-12113984D02*
X10055896Y-12113984D01*
X10055896Y-12113984D02*
X10084467Y-12123508D01*
X10084467Y-12123508D02*
X10103515Y-12142555D01*
X10103515Y-12142555D02*
X10113039Y-12161603D01*
X10113039Y-12161603D02*
X10122563Y-12199698D01*
X10122563Y-12199698D02*
X10122563Y-12228269D01*
X10122563Y-12228269D02*
X10113039Y-12266365D01*
X10113039Y-12266365D02*
X10103515Y-12285412D01*
X10103515Y-12285412D02*
X10084467Y-12304460D01*
X10084467Y-12304460D02*
X10055896Y-12313984D01*
X10055896Y-12313984D02*
X10008277Y-12313984D01*
X10208277Y-12313984D02*
X10208277Y-12180650D01*
X10208277Y-12218746D02*
X10217801Y-12199698D01*
X10217801Y-12199698D02*
X10227324Y-12190174D01*
X10227324Y-12190174D02*
X10246372Y-12180650D01*
X10246372Y-12180650D02*
X10265420Y-12180650D01*
X10332086Y-12313984D02*
X10332086Y-12180650D01*
X10332086Y-12113984D02*
X10322563Y-12123508D01*
X10322563Y-12123508D02*
X10332086Y-12133031D01*
X10332086Y-12133031D02*
X10341610Y-12123508D01*
X10341610Y-12123508D02*
X10332086Y-12113984D01*
X10332086Y-12113984D02*
X10332086Y-12133031D01*
X10455896Y-12313984D02*
X10436848Y-12304460D01*
X10436848Y-12304460D02*
X10427324Y-12285412D01*
X10427324Y-12285412D02*
X10427324Y-12113984D01*
X10560658Y-12313984D02*
X10541610Y-12304460D01*
X10541610Y-12304460D02*
X10532086Y-12285412D01*
X10532086Y-12285412D02*
X10532086Y-12113984D01*
X10789229Y-12313984D02*
X10789229Y-12113984D01*
X10789229Y-12113984D02*
X10855896Y-12256841D01*
X10855896Y-12256841D02*
X10922563Y-12113984D01*
X10922563Y-12113984D02*
X10922563Y-12313984D01*
X11103515Y-12313984D02*
X11103515Y-12209222D01*
X11103515Y-12209222D02*
X11093991Y-12190174D01*
X11093991Y-12190174D02*
X11074944Y-12180650D01*
X11074944Y-12180650D02*
X11036848Y-12180650D01*
X11036848Y-12180650D02*
X11017801Y-12190174D01*
X11103515Y-12304460D02*
X11084467Y-12313984D01*
X11084467Y-12313984D02*
X11036848Y-12313984D01*
X11036848Y-12313984D02*
X11017801Y-12304460D01*
X11017801Y-12304460D02*
X11008277Y-12285412D01*
X11008277Y-12285412D02*
X11008277Y-12266365D01*
X11008277Y-12266365D02*
X11017801Y-12247317D01*
X11017801Y-12247317D02*
X11036848Y-12237793D01*
X11036848Y-12237793D02*
X11084467Y-12237793D01*
X11084467Y-12237793D02*
X11103515Y-12228269D01*
X11198753Y-12180650D02*
X11198753Y-12380650D01*
X11198753Y-12190174D02*
X11217801Y-12180650D01*
X11217801Y-12180650D02*
X11255896Y-12180650D01*
X11255896Y-12180650D02*
X11274943Y-12190174D01*
X11274943Y-12190174D02*
X11284467Y-12199698D01*
X11284467Y-12199698D02*
X11293991Y-12218746D01*
X11293991Y-12218746D02*
X11293991Y-12275888D01*
X11293991Y-12275888D02*
X11284467Y-12294936D01*
X11284467Y-12294936D02*
X11274943Y-12304460D01*
X11274943Y-12304460D02*
X11255896Y-12313984D01*
X11255896Y-12313984D02*
X11217801Y-12313984D01*
X11217801Y-12313984D02*
X11198753Y-12304460D01*
X11379705Y-12294936D02*
X11389229Y-12304460D01*
X11389229Y-12304460D02*
X11379705Y-12313984D01*
X11379705Y-12313984D02*
X11370182Y-12304460D01*
X11370182Y-12304460D02*
X11379705Y-12294936D01*
X11379705Y-12294936D02*
X11379705Y-12313984D01*
X11379705Y-12190174D02*
X11389229Y-12199698D01*
X11389229Y-12199698D02*
X11379705Y-12209222D01*
X11379705Y-12209222D02*
X11370182Y-12199698D01*
X11370182Y-12199698D02*
X11379705Y-12190174D01*
X11379705Y-12190174D02*
X11379705Y-12209222D01*
D12*
X9709400Y-12623450D02*
X9747500Y-12661550D01*
X9747500Y-12623450D02*
X9709400Y-12661550D01*
D11*
X10046372Y-12533984D02*
X10065420Y-12533984D01*
X10065420Y-12533984D02*
X10084467Y-12543508D01*
X10084467Y-12543508D02*
X10093991Y-12553031D01*
X10093991Y-12553031D02*
X10103515Y-12572079D01*
X10103515Y-12572079D02*
X10113039Y-12610174D01*
X10113039Y-12610174D02*
X10113039Y-12657793D01*
X10113039Y-12657793D02*
X10103515Y-12695888D01*
X10103515Y-12695888D02*
X10093991Y-12714936D01*
X10093991Y-12714936D02*
X10084467Y-12724460D01*
X10084467Y-12724460D02*
X10065420Y-12733984D01*
X10065420Y-12733984D02*
X10046372Y-12733984D01*
X10046372Y-12733984D02*
X10027324Y-12724460D01*
X10027324Y-12724460D02*
X10017801Y-12714936D01*
X10017801Y-12714936D02*
X10008277Y-12695888D01*
X10008277Y-12695888D02*
X9998753Y-12657793D01*
X9998753Y-12657793D02*
X9998753Y-12610174D01*
X9998753Y-12610174D02*
X10008277Y-12572079D01*
X10008277Y-12572079D02*
X10017801Y-12553031D01*
X10017801Y-12553031D02*
X10027324Y-12543508D01*
X10027324Y-12543508D02*
X10046372Y-12533984D01*
X10198753Y-12714936D02*
X10208277Y-12724460D01*
X10208277Y-12724460D02*
X10198753Y-12733984D01*
X10198753Y-12733984D02*
X10189229Y-12724460D01*
X10189229Y-12724460D02*
X10198753Y-12714936D01*
X10198753Y-12714936D02*
X10198753Y-12733984D01*
X10274944Y-12533984D02*
X10398753Y-12533984D01*
X10398753Y-12533984D02*
X10332086Y-12610174D01*
X10332086Y-12610174D02*
X10360658Y-12610174D01*
X10360658Y-12610174D02*
X10379705Y-12619698D01*
X10379705Y-12619698D02*
X10389229Y-12629222D01*
X10389229Y-12629222D02*
X10398753Y-12648269D01*
X10398753Y-12648269D02*
X10398753Y-12695888D01*
X10398753Y-12695888D02*
X10389229Y-12714936D01*
X10389229Y-12714936D02*
X10379705Y-12724460D01*
X10379705Y-12724460D02*
X10360658Y-12733984D01*
X10360658Y-12733984D02*
X10303515Y-12733984D01*
X10303515Y-12733984D02*
X10284467Y-12724460D01*
X10284467Y-12724460D02*
X10274944Y-12714936D01*
X10513039Y-12619698D02*
X10493991Y-12610174D01*
X10493991Y-12610174D02*
X10484467Y-12600650D01*
X10484467Y-12600650D02*
X10474944Y-12581603D01*
X10474944Y-12581603D02*
X10474944Y-12572079D01*
X10474944Y-12572079D02*
X10484467Y-12553031D01*
X10484467Y-12553031D02*
X10493991Y-12543508D01*
X10493991Y-12543508D02*
X10513039Y-12533984D01*
X10513039Y-12533984D02*
X10551134Y-12533984D01*
X10551134Y-12533984D02*
X10570182Y-12543508D01*
X10570182Y-12543508D02*
X10579705Y-12553031D01*
X10579705Y-12553031D02*
X10589229Y-12572079D01*
X10589229Y-12572079D02*
X10589229Y-12581603D01*
X10589229Y-12581603D02*
X10579705Y-12600650D01*
X10579705Y-12600650D02*
X10570182Y-12610174D01*
X10570182Y-12610174D02*
X10551134Y-12619698D01*
X10551134Y-12619698D02*
X10513039Y-12619698D01*
X10513039Y-12619698D02*
X10493991Y-12629222D01*
X10493991Y-12629222D02*
X10484467Y-12638746D01*
X10484467Y-12638746D02*
X10474944Y-12657793D01*
X10474944Y-12657793D02*
X10474944Y-12695888D01*
X10474944Y-12695888D02*
X10484467Y-12714936D01*
X10484467Y-12714936D02*
X10493991Y-12724460D01*
X10493991Y-12724460D02*
X10513039Y-12733984D01*
X10513039Y-12733984D02*
X10551134Y-12733984D01*
X10551134Y-12733984D02*
X10570182Y-12724460D01*
X10570182Y-12724460D02*
X10579705Y-12714936D01*
X10579705Y-12714936D02*
X10589229Y-12695888D01*
X10589229Y-12695888D02*
X10589229Y-12657793D01*
X10589229Y-12657793D02*
X10579705Y-12638746D01*
X10579705Y-12638746D02*
X10570182Y-12629222D01*
X10570182Y-12629222D02*
X10551134Y-12619698D01*
X10779705Y-12733984D02*
X10665420Y-12733984D01*
X10722563Y-12733984D02*
X10722563Y-12533984D01*
X10722563Y-12533984D02*
X10703515Y-12562555D01*
X10703515Y-12562555D02*
X10684467Y-12581603D01*
X10684467Y-12581603D02*
X10665420Y-12591127D01*
X10865420Y-12733984D02*
X10865420Y-12600650D01*
X10865420Y-12619698D02*
X10874944Y-12610174D01*
X10874944Y-12610174D02*
X10893991Y-12600650D01*
X10893991Y-12600650D02*
X10922563Y-12600650D01*
X10922563Y-12600650D02*
X10941610Y-12610174D01*
X10941610Y-12610174D02*
X10951134Y-12629222D01*
X10951134Y-12629222D02*
X10951134Y-12733984D01*
X10951134Y-12629222D02*
X10960658Y-12610174D01*
X10960658Y-12610174D02*
X10979705Y-12600650D01*
X10979705Y-12600650D02*
X11008277Y-12600650D01*
X11008277Y-12600650D02*
X11027325Y-12610174D01*
X11027325Y-12610174D02*
X11036848Y-12629222D01*
X11036848Y-12629222D02*
X11036848Y-12733984D01*
X11132086Y-12733984D02*
X11132086Y-12600650D01*
X11132086Y-12619698D02*
X11141610Y-12610174D01*
X11141610Y-12610174D02*
X11160658Y-12600650D01*
X11160658Y-12600650D02*
X11189229Y-12600650D01*
X11189229Y-12600650D02*
X11208277Y-12610174D01*
X11208277Y-12610174D02*
X11217801Y-12629222D01*
X11217801Y-12629222D02*
X11217801Y-12733984D01*
X11217801Y-12629222D02*
X11227324Y-12610174D01*
X11227324Y-12610174D02*
X11246372Y-12600650D01*
X11246372Y-12600650D02*
X11274943Y-12600650D01*
X11274943Y-12600650D02*
X11293991Y-12610174D01*
X11293991Y-12610174D02*
X11303515Y-12629222D01*
X11303515Y-12629222D02*
X11303515Y-12733984D01*
X11693991Y-12524460D02*
X11522563Y-12781603D01*
X11951134Y-12533984D02*
X11970182Y-12533984D01*
X11970182Y-12533984D02*
X11989229Y-12543508D01*
X11989229Y-12543508D02*
X11998753Y-12553031D01*
X11998753Y-12553031D02*
X12008277Y-12572079D01*
X12008277Y-12572079D02*
X12017801Y-12610174D01*
X12017801Y-12610174D02*
X12017801Y-12657793D01*
X12017801Y-12657793D02*
X12008277Y-12695888D01*
X12008277Y-12695888D02*
X11998753Y-12714936D01*
X11998753Y-12714936D02*
X11989229Y-12724460D01*
X11989229Y-12724460D02*
X11970182Y-12733984D01*
X11970182Y-12733984D02*
X11951134Y-12733984D01*
X11951134Y-12733984D02*
X11932086Y-12724460D01*
X11932086Y-12724460D02*
X11922563Y-12714936D01*
X11922563Y-12714936D02*
X11913039Y-12695888D01*
X11913039Y-12695888D02*
X11903515Y-12657793D01*
X11903515Y-12657793D02*
X11903515Y-12610174D01*
X11903515Y-12610174D02*
X11913039Y-12572079D01*
X11913039Y-12572079D02*
X11922563Y-12553031D01*
X11922563Y-12553031D02*
X11932086Y-12543508D01*
X11932086Y-12543508D02*
X11951134Y-12533984D01*
X12103515Y-12714936D02*
X12113039Y-12724460D01*
X12113039Y-12724460D02*
X12103515Y-12733984D01*
X12103515Y-12733984D02*
X12093991Y-12724460D01*
X12093991Y-12724460D02*
X12103515Y-12714936D01*
X12103515Y-12714936D02*
X12103515Y-12733984D01*
X12236848Y-12533984D02*
X12255896Y-12533984D01*
X12255896Y-12533984D02*
X12274944Y-12543508D01*
X12274944Y-12543508D02*
X12284467Y-12553031D01*
X12284467Y-12553031D02*
X12293991Y-12572079D01*
X12293991Y-12572079D02*
X12303515Y-12610174D01*
X12303515Y-12610174D02*
X12303515Y-12657793D01*
X12303515Y-12657793D02*
X12293991Y-12695888D01*
X12293991Y-12695888D02*
X12284467Y-12714936D01*
X12284467Y-12714936D02*
X12274944Y-12724460D01*
X12274944Y-12724460D02*
X12255896Y-12733984D01*
X12255896Y-12733984D02*
X12236848Y-12733984D01*
X12236848Y-12733984D02*
X12217801Y-12724460D01*
X12217801Y-12724460D02*
X12208277Y-12714936D01*
X12208277Y-12714936D02*
X12198753Y-12695888D01*
X12198753Y-12695888D02*
X12189229Y-12657793D01*
X12189229Y-12657793D02*
X12189229Y-12610174D01*
X12189229Y-12610174D02*
X12198753Y-12572079D01*
X12198753Y-12572079D02*
X12208277Y-12553031D01*
X12208277Y-12553031D02*
X12217801Y-12543508D01*
X12217801Y-12543508D02*
X12236848Y-12533984D01*
X12493991Y-12733984D02*
X12379706Y-12733984D01*
X12436848Y-12733984D02*
X12436848Y-12533984D01*
X12436848Y-12533984D02*
X12417801Y-12562555D01*
X12417801Y-12562555D02*
X12398753Y-12581603D01*
X12398753Y-12581603D02*
X12379706Y-12591127D01*
X12674944Y-12533984D02*
X12579706Y-12533984D01*
X12579706Y-12533984D02*
X12570182Y-12629222D01*
X12570182Y-12629222D02*
X12579706Y-12619698D01*
X12579706Y-12619698D02*
X12598753Y-12610174D01*
X12598753Y-12610174D02*
X12646372Y-12610174D01*
X12646372Y-12610174D02*
X12665420Y-12619698D01*
X12665420Y-12619698D02*
X12674944Y-12629222D01*
X12674944Y-12629222D02*
X12684467Y-12648269D01*
X12684467Y-12648269D02*
X12684467Y-12695888D01*
X12684467Y-12695888D02*
X12674944Y-12714936D01*
X12674944Y-12714936D02*
X12665420Y-12724460D01*
X12665420Y-12724460D02*
X12646372Y-12733984D01*
X12646372Y-12733984D02*
X12598753Y-12733984D01*
X12598753Y-12733984D02*
X12579706Y-12724460D01*
X12579706Y-12724460D02*
X12570182Y-12714936D01*
X12808277Y-12533984D02*
X12827325Y-12533984D01*
X12827325Y-12533984D02*
X12846372Y-12543508D01*
X12846372Y-12543508D02*
X12855896Y-12553031D01*
X12855896Y-12553031D02*
X12865420Y-12572079D01*
X12865420Y-12572079D02*
X12874944Y-12610174D01*
X12874944Y-12610174D02*
X12874944Y-12657793D01*
X12874944Y-12657793D02*
X12865420Y-12695888D01*
X12865420Y-12695888D02*
X12855896Y-12714936D01*
X12855896Y-12714936D02*
X12846372Y-12724460D01*
X12846372Y-12724460D02*
X12827325Y-12733984D01*
X12827325Y-12733984D02*
X12808277Y-12733984D01*
X12808277Y-12733984D02*
X12789229Y-12724460D01*
X12789229Y-12724460D02*
X12779706Y-12714936D01*
X12779706Y-12714936D02*
X12770182Y-12695888D01*
X12770182Y-12695888D02*
X12760658Y-12657793D01*
X12760658Y-12657793D02*
X12760658Y-12610174D01*
X12760658Y-12610174D02*
X12770182Y-12572079D01*
X12770182Y-12572079D02*
X12779706Y-12553031D01*
X12779706Y-12553031D02*
X12789229Y-12543508D01*
X12789229Y-12543508D02*
X12808277Y-12533984D01*
X12951134Y-12533984D02*
X12951134Y-12572079D01*
X13027325Y-12533984D02*
X13027325Y-12572079D01*
X13322563Y-12810174D02*
X13313039Y-12800650D01*
X13313039Y-12800650D02*
X13293991Y-12772079D01*
X13293991Y-12772079D02*
X13284468Y-12753031D01*
X13284468Y-12753031D02*
X13274944Y-12724460D01*
X13274944Y-12724460D02*
X13265420Y-12676841D01*
X13265420Y-12676841D02*
X13265420Y-12638746D01*
X13265420Y-12638746D02*
X13274944Y-12591127D01*
X13274944Y-12591127D02*
X13284468Y-12562555D01*
X13284468Y-12562555D02*
X13293991Y-12543508D01*
X13293991Y-12543508D02*
X13313039Y-12514936D01*
X13313039Y-12514936D02*
X13322563Y-12505412D01*
X13379706Y-12533984D02*
X13503515Y-12533984D01*
X13503515Y-12533984D02*
X13436848Y-12610174D01*
X13436848Y-12610174D02*
X13465420Y-12610174D01*
X13465420Y-12610174D02*
X13484468Y-12619698D01*
X13484468Y-12619698D02*
X13493991Y-12629222D01*
X13493991Y-12629222D02*
X13503515Y-12648269D01*
X13503515Y-12648269D02*
X13503515Y-12695888D01*
X13503515Y-12695888D02*
X13493991Y-12714936D01*
X13493991Y-12714936D02*
X13484468Y-12724460D01*
X13484468Y-12724460D02*
X13465420Y-12733984D01*
X13465420Y-12733984D02*
X13408277Y-12733984D01*
X13408277Y-12733984D02*
X13389229Y-12724460D01*
X13389229Y-12724460D02*
X13379706Y-12714936D01*
X13741610Y-12733984D02*
X13741610Y-12533984D01*
X13827325Y-12733984D02*
X13827325Y-12629222D01*
X13827325Y-12629222D02*
X13817801Y-12610174D01*
X13817801Y-12610174D02*
X13798753Y-12600650D01*
X13798753Y-12600650D02*
X13770182Y-12600650D01*
X13770182Y-12600650D02*
X13751134Y-12610174D01*
X13751134Y-12610174D02*
X13741610Y-12619698D01*
X13951134Y-12733984D02*
X13932087Y-12724460D01*
X13932087Y-12724460D02*
X13922563Y-12714936D01*
X13922563Y-12714936D02*
X13913039Y-12695888D01*
X13913039Y-12695888D02*
X13913039Y-12638746D01*
X13913039Y-12638746D02*
X13922563Y-12619698D01*
X13922563Y-12619698D02*
X13932087Y-12610174D01*
X13932087Y-12610174D02*
X13951134Y-12600650D01*
X13951134Y-12600650D02*
X13979706Y-12600650D01*
X13979706Y-12600650D02*
X13998753Y-12610174D01*
X13998753Y-12610174D02*
X14008277Y-12619698D01*
X14008277Y-12619698D02*
X14017801Y-12638746D01*
X14017801Y-12638746D02*
X14017801Y-12695888D01*
X14017801Y-12695888D02*
X14008277Y-12714936D01*
X14008277Y-12714936D02*
X13998753Y-12724460D01*
X13998753Y-12724460D02*
X13979706Y-12733984D01*
X13979706Y-12733984D02*
X13951134Y-12733984D01*
X14132087Y-12733984D02*
X14113039Y-12724460D01*
X14113039Y-12724460D02*
X14103515Y-12705412D01*
X14103515Y-12705412D02*
X14103515Y-12533984D01*
X14284468Y-12724460D02*
X14265420Y-12733984D01*
X14265420Y-12733984D02*
X14227325Y-12733984D01*
X14227325Y-12733984D02*
X14208277Y-12724460D01*
X14208277Y-12724460D02*
X14198753Y-12705412D01*
X14198753Y-12705412D02*
X14198753Y-12629222D01*
X14198753Y-12629222D02*
X14208277Y-12610174D01*
X14208277Y-12610174D02*
X14227325Y-12600650D01*
X14227325Y-12600650D02*
X14265420Y-12600650D01*
X14265420Y-12600650D02*
X14284468Y-12610174D01*
X14284468Y-12610174D02*
X14293991Y-12629222D01*
X14293991Y-12629222D02*
X14293991Y-12648269D01*
X14293991Y-12648269D02*
X14198753Y-12667317D01*
X14370182Y-12724460D02*
X14389230Y-12733984D01*
X14389230Y-12733984D02*
X14427325Y-12733984D01*
X14427325Y-12733984D02*
X14446372Y-12724460D01*
X14446372Y-12724460D02*
X14455896Y-12705412D01*
X14455896Y-12705412D02*
X14455896Y-12695888D01*
X14455896Y-12695888D02*
X14446372Y-12676841D01*
X14446372Y-12676841D02*
X14427325Y-12667317D01*
X14427325Y-12667317D02*
X14398753Y-12667317D01*
X14398753Y-12667317D02*
X14379706Y-12657793D01*
X14379706Y-12657793D02*
X14370182Y-12638746D01*
X14370182Y-12638746D02*
X14370182Y-12629222D01*
X14370182Y-12629222D02*
X14379706Y-12610174D01*
X14379706Y-12610174D02*
X14398753Y-12600650D01*
X14398753Y-12600650D02*
X14427325Y-12600650D01*
X14427325Y-12600650D02*
X14446372Y-12610174D01*
X14522563Y-12810174D02*
X14532087Y-12800650D01*
X14532087Y-12800650D02*
X14551134Y-12772079D01*
X14551134Y-12772079D02*
X14560658Y-12753031D01*
X14560658Y-12753031D02*
X14570182Y-12724460D01*
X14570182Y-12724460D02*
X14579706Y-12676841D01*
X14579706Y-12676841D02*
X14579706Y-12638746D01*
X14579706Y-12638746D02*
X14570182Y-12591127D01*
X14570182Y-12591127D02*
X14560658Y-12562555D01*
X14560658Y-12562555D02*
X14551134Y-12543508D01*
X14551134Y-12543508D02*
X14532087Y-12514936D01*
X14532087Y-12514936D02*
X14522563Y-12505412D01*
D12*
X9747500Y-12906500D02*
G75*
G02*
X9671300Y-12906500I-38100J0D01*
G01*
X9671300Y-12906500D02*
G75*
G02*
X9747500Y-12906500I38100J0D01*
G01*
D11*
X10046372Y-12797984D02*
X10065420Y-12797984D01*
X10065420Y-12797984D02*
X10084467Y-12807508D01*
X10084467Y-12807508D02*
X10093991Y-12817031D01*
X10093991Y-12817031D02*
X10103515Y-12836079D01*
X10103515Y-12836079D02*
X10113039Y-12874174D01*
X10113039Y-12874174D02*
X10113039Y-12921793D01*
X10113039Y-12921793D02*
X10103515Y-12959888D01*
X10103515Y-12959888D02*
X10093991Y-12978936D01*
X10093991Y-12978936D02*
X10084467Y-12988460D01*
X10084467Y-12988460D02*
X10065420Y-12997984D01*
X10065420Y-12997984D02*
X10046372Y-12997984D01*
X10046372Y-12997984D02*
X10027324Y-12988460D01*
X10027324Y-12988460D02*
X10017801Y-12978936D01*
X10017801Y-12978936D02*
X10008277Y-12959888D01*
X10008277Y-12959888D02*
X9998753Y-12921793D01*
X9998753Y-12921793D02*
X9998753Y-12874174D01*
X9998753Y-12874174D02*
X10008277Y-12836079D01*
X10008277Y-12836079D02*
X10017801Y-12817031D01*
X10017801Y-12817031D02*
X10027324Y-12807508D01*
X10027324Y-12807508D02*
X10046372Y-12797984D01*
X10198753Y-12978936D02*
X10208277Y-12988460D01*
X10208277Y-12988460D02*
X10198753Y-12997984D01*
X10198753Y-12997984D02*
X10189229Y-12988460D01*
X10189229Y-12988460D02*
X10198753Y-12978936D01*
X10198753Y-12978936D02*
X10198753Y-12997984D01*
X10274944Y-12797984D02*
X10408277Y-12797984D01*
X10408277Y-12797984D02*
X10322563Y-12997984D01*
X10570182Y-12797984D02*
X10532086Y-12797984D01*
X10532086Y-12797984D02*
X10513039Y-12807508D01*
X10513039Y-12807508D02*
X10503515Y-12817031D01*
X10503515Y-12817031D02*
X10484467Y-12845603D01*
X10484467Y-12845603D02*
X10474944Y-12883698D01*
X10474944Y-12883698D02*
X10474944Y-12959888D01*
X10474944Y-12959888D02*
X10484467Y-12978936D01*
X10484467Y-12978936D02*
X10493991Y-12988460D01*
X10493991Y-12988460D02*
X10513039Y-12997984D01*
X10513039Y-12997984D02*
X10551134Y-12997984D01*
X10551134Y-12997984D02*
X10570182Y-12988460D01*
X10570182Y-12988460D02*
X10579705Y-12978936D01*
X10579705Y-12978936D02*
X10589229Y-12959888D01*
X10589229Y-12959888D02*
X10589229Y-12912269D01*
X10589229Y-12912269D02*
X10579705Y-12893222D01*
X10579705Y-12893222D02*
X10570182Y-12883698D01*
X10570182Y-12883698D02*
X10551134Y-12874174D01*
X10551134Y-12874174D02*
X10513039Y-12874174D01*
X10513039Y-12874174D02*
X10493991Y-12883698D01*
X10493991Y-12883698D02*
X10484467Y-12893222D01*
X10484467Y-12893222D02*
X10474944Y-12912269D01*
X10665420Y-12817031D02*
X10674944Y-12807508D01*
X10674944Y-12807508D02*
X10693991Y-12797984D01*
X10693991Y-12797984D02*
X10741610Y-12797984D01*
X10741610Y-12797984D02*
X10760658Y-12807508D01*
X10760658Y-12807508D02*
X10770182Y-12817031D01*
X10770182Y-12817031D02*
X10779705Y-12836079D01*
X10779705Y-12836079D02*
X10779705Y-12855127D01*
X10779705Y-12855127D02*
X10770182Y-12883698D01*
X10770182Y-12883698D02*
X10655896Y-12997984D01*
X10655896Y-12997984D02*
X10779705Y-12997984D01*
X10865420Y-12997984D02*
X10865420Y-12864650D01*
X10865420Y-12883698D02*
X10874944Y-12874174D01*
X10874944Y-12874174D02*
X10893991Y-12864650D01*
X10893991Y-12864650D02*
X10922563Y-12864650D01*
X10922563Y-12864650D02*
X10941610Y-12874174D01*
X10941610Y-12874174D02*
X10951134Y-12893222D01*
X10951134Y-12893222D02*
X10951134Y-12997984D01*
X10951134Y-12893222D02*
X10960658Y-12874174D01*
X10960658Y-12874174D02*
X10979705Y-12864650D01*
X10979705Y-12864650D02*
X11008277Y-12864650D01*
X11008277Y-12864650D02*
X11027325Y-12874174D01*
X11027325Y-12874174D02*
X11036848Y-12893222D01*
X11036848Y-12893222D02*
X11036848Y-12997984D01*
X11132086Y-12997984D02*
X11132086Y-12864650D01*
X11132086Y-12883698D02*
X11141610Y-12874174D01*
X11141610Y-12874174D02*
X11160658Y-12864650D01*
X11160658Y-12864650D02*
X11189229Y-12864650D01*
X11189229Y-12864650D02*
X11208277Y-12874174D01*
X11208277Y-12874174D02*
X11217801Y-12893222D01*
X11217801Y-12893222D02*
X11217801Y-12997984D01*
X11217801Y-12893222D02*
X11227324Y-12874174D01*
X11227324Y-12874174D02*
X11246372Y-12864650D01*
X11246372Y-12864650D02*
X11274943Y-12864650D01*
X11274943Y-12864650D02*
X11293991Y-12874174D01*
X11293991Y-12874174D02*
X11303515Y-12893222D01*
X11303515Y-12893222D02*
X11303515Y-12997984D01*
X11693991Y-12788460D02*
X11522563Y-13045603D01*
X11951134Y-12797984D02*
X11970182Y-12797984D01*
X11970182Y-12797984D02*
X11989229Y-12807508D01*
X11989229Y-12807508D02*
X11998753Y-12817031D01*
X11998753Y-12817031D02*
X12008277Y-12836079D01*
X12008277Y-12836079D02*
X12017801Y-12874174D01*
X12017801Y-12874174D02*
X12017801Y-12921793D01*
X12017801Y-12921793D02*
X12008277Y-12959888D01*
X12008277Y-12959888D02*
X11998753Y-12978936D01*
X11998753Y-12978936D02*
X11989229Y-12988460D01*
X11989229Y-12988460D02*
X11970182Y-12997984D01*
X11970182Y-12997984D02*
X11951134Y-12997984D01*
X11951134Y-12997984D02*
X11932086Y-12988460D01*
X11932086Y-12988460D02*
X11922563Y-12978936D01*
X11922563Y-12978936D02*
X11913039Y-12959888D01*
X11913039Y-12959888D02*
X11903515Y-12921793D01*
X11903515Y-12921793D02*
X11903515Y-12874174D01*
X11903515Y-12874174D02*
X11913039Y-12836079D01*
X11913039Y-12836079D02*
X11922563Y-12817031D01*
X11922563Y-12817031D02*
X11932086Y-12807508D01*
X11932086Y-12807508D02*
X11951134Y-12797984D01*
X12103515Y-12978936D02*
X12113039Y-12988460D01*
X12113039Y-12988460D02*
X12103515Y-12997984D01*
X12103515Y-12997984D02*
X12093991Y-12988460D01*
X12093991Y-12988460D02*
X12103515Y-12978936D01*
X12103515Y-12978936D02*
X12103515Y-12997984D01*
X12236848Y-12797984D02*
X12255896Y-12797984D01*
X12255896Y-12797984D02*
X12274944Y-12807508D01*
X12274944Y-12807508D02*
X12284467Y-12817031D01*
X12284467Y-12817031D02*
X12293991Y-12836079D01*
X12293991Y-12836079D02*
X12303515Y-12874174D01*
X12303515Y-12874174D02*
X12303515Y-12921793D01*
X12303515Y-12921793D02*
X12293991Y-12959888D01*
X12293991Y-12959888D02*
X12284467Y-12978936D01*
X12284467Y-12978936D02*
X12274944Y-12988460D01*
X12274944Y-12988460D02*
X12255896Y-12997984D01*
X12255896Y-12997984D02*
X12236848Y-12997984D01*
X12236848Y-12997984D02*
X12217801Y-12988460D01*
X12217801Y-12988460D02*
X12208277Y-12978936D01*
X12208277Y-12978936D02*
X12198753Y-12959888D01*
X12198753Y-12959888D02*
X12189229Y-12921793D01*
X12189229Y-12921793D02*
X12189229Y-12874174D01*
X12189229Y-12874174D02*
X12198753Y-12836079D01*
X12198753Y-12836079D02*
X12208277Y-12817031D01*
X12208277Y-12817031D02*
X12217801Y-12807508D01*
X12217801Y-12807508D02*
X12236848Y-12797984D01*
X12370182Y-12797984D02*
X12493991Y-12797984D01*
X12493991Y-12797984D02*
X12427325Y-12874174D01*
X12427325Y-12874174D02*
X12455896Y-12874174D01*
X12455896Y-12874174D02*
X12474944Y-12883698D01*
X12474944Y-12883698D02*
X12484467Y-12893222D01*
X12484467Y-12893222D02*
X12493991Y-12912269D01*
X12493991Y-12912269D02*
X12493991Y-12959888D01*
X12493991Y-12959888D02*
X12484467Y-12978936D01*
X12484467Y-12978936D02*
X12474944Y-12988460D01*
X12474944Y-12988460D02*
X12455896Y-12997984D01*
X12455896Y-12997984D02*
X12398753Y-12997984D01*
X12398753Y-12997984D02*
X12379706Y-12988460D01*
X12379706Y-12988460D02*
X12370182Y-12978936D01*
X12617801Y-12797984D02*
X12636848Y-12797984D01*
X12636848Y-12797984D02*
X12655896Y-12807508D01*
X12655896Y-12807508D02*
X12665420Y-12817031D01*
X12665420Y-12817031D02*
X12674944Y-12836079D01*
X12674944Y-12836079D02*
X12684467Y-12874174D01*
X12684467Y-12874174D02*
X12684467Y-12921793D01*
X12684467Y-12921793D02*
X12674944Y-12959888D01*
X12674944Y-12959888D02*
X12665420Y-12978936D01*
X12665420Y-12978936D02*
X12655896Y-12988460D01*
X12655896Y-12988460D02*
X12636848Y-12997984D01*
X12636848Y-12997984D02*
X12617801Y-12997984D01*
X12617801Y-12997984D02*
X12598753Y-12988460D01*
X12598753Y-12988460D02*
X12589229Y-12978936D01*
X12589229Y-12978936D02*
X12579706Y-12959888D01*
X12579706Y-12959888D02*
X12570182Y-12921793D01*
X12570182Y-12921793D02*
X12570182Y-12874174D01*
X12570182Y-12874174D02*
X12579706Y-12836079D01*
X12579706Y-12836079D02*
X12589229Y-12817031D01*
X12589229Y-12817031D02*
X12598753Y-12807508D01*
X12598753Y-12807508D02*
X12617801Y-12797984D01*
X12808277Y-12797984D02*
X12827325Y-12797984D01*
X12827325Y-12797984D02*
X12846372Y-12807508D01*
X12846372Y-12807508D02*
X12855896Y-12817031D01*
X12855896Y-12817031D02*
X12865420Y-12836079D01*
X12865420Y-12836079D02*
X12874944Y-12874174D01*
X12874944Y-12874174D02*
X12874944Y-12921793D01*
X12874944Y-12921793D02*
X12865420Y-12959888D01*
X12865420Y-12959888D02*
X12855896Y-12978936D01*
X12855896Y-12978936D02*
X12846372Y-12988460D01*
X12846372Y-12988460D02*
X12827325Y-12997984D01*
X12827325Y-12997984D02*
X12808277Y-12997984D01*
X12808277Y-12997984D02*
X12789229Y-12988460D01*
X12789229Y-12988460D02*
X12779706Y-12978936D01*
X12779706Y-12978936D02*
X12770182Y-12959888D01*
X12770182Y-12959888D02*
X12760658Y-12921793D01*
X12760658Y-12921793D02*
X12760658Y-12874174D01*
X12760658Y-12874174D02*
X12770182Y-12836079D01*
X12770182Y-12836079D02*
X12779706Y-12817031D01*
X12779706Y-12817031D02*
X12789229Y-12807508D01*
X12789229Y-12807508D02*
X12808277Y-12797984D01*
X12951134Y-12797984D02*
X12951134Y-12836079D01*
X13027325Y-12797984D02*
X13027325Y-12836079D01*
X13322563Y-13074174D02*
X13313039Y-13064650D01*
X13313039Y-13064650D02*
X13293991Y-13036079D01*
X13293991Y-13036079D02*
X13284468Y-13017031D01*
X13284468Y-13017031D02*
X13274944Y-12988460D01*
X13274944Y-12988460D02*
X13265420Y-12940841D01*
X13265420Y-12940841D02*
X13265420Y-12902746D01*
X13265420Y-12902746D02*
X13274944Y-12855127D01*
X13274944Y-12855127D02*
X13284468Y-12826555D01*
X13284468Y-12826555D02*
X13293991Y-12807508D01*
X13293991Y-12807508D02*
X13313039Y-12778936D01*
X13313039Y-12778936D02*
X13322563Y-12769412D01*
X13379706Y-12797984D02*
X13503515Y-12797984D01*
X13503515Y-12797984D02*
X13436848Y-12874174D01*
X13436848Y-12874174D02*
X13465420Y-12874174D01*
X13465420Y-12874174D02*
X13484468Y-12883698D01*
X13484468Y-12883698D02*
X13493991Y-12893222D01*
X13493991Y-12893222D02*
X13503515Y-12912269D01*
X13503515Y-12912269D02*
X13503515Y-12959888D01*
X13503515Y-12959888D02*
X13493991Y-12978936D01*
X13493991Y-12978936D02*
X13484468Y-12988460D01*
X13484468Y-12988460D02*
X13465420Y-12997984D01*
X13465420Y-12997984D02*
X13408277Y-12997984D01*
X13408277Y-12997984D02*
X13389229Y-12988460D01*
X13389229Y-12988460D02*
X13379706Y-12978936D01*
X13627325Y-12797984D02*
X13646372Y-12797984D01*
X13646372Y-12797984D02*
X13665420Y-12807508D01*
X13665420Y-12807508D02*
X13674944Y-12817031D01*
X13674944Y-12817031D02*
X13684468Y-12836079D01*
X13684468Y-12836079D02*
X13693991Y-12874174D01*
X13693991Y-12874174D02*
X13693991Y-12921793D01*
X13693991Y-12921793D02*
X13684468Y-12959888D01*
X13684468Y-12959888D02*
X13674944Y-12978936D01*
X13674944Y-12978936D02*
X13665420Y-12988460D01*
X13665420Y-12988460D02*
X13646372Y-12997984D01*
X13646372Y-12997984D02*
X13627325Y-12997984D01*
X13627325Y-12997984D02*
X13608277Y-12988460D01*
X13608277Y-12988460D02*
X13598753Y-12978936D01*
X13598753Y-12978936D02*
X13589229Y-12959888D01*
X13589229Y-12959888D02*
X13579706Y-12921793D01*
X13579706Y-12921793D02*
X13579706Y-12874174D01*
X13579706Y-12874174D02*
X13589229Y-12836079D01*
X13589229Y-12836079D02*
X13598753Y-12817031D01*
X13598753Y-12817031D02*
X13608277Y-12807508D01*
X13608277Y-12807508D02*
X13627325Y-12797984D01*
X13932087Y-12997984D02*
X13932087Y-12797984D01*
X14017801Y-12997984D02*
X14017801Y-12893222D01*
X14017801Y-12893222D02*
X14008277Y-12874174D01*
X14008277Y-12874174D02*
X13989230Y-12864650D01*
X13989230Y-12864650D02*
X13960658Y-12864650D01*
X13960658Y-12864650D02*
X13941610Y-12874174D01*
X13941610Y-12874174D02*
X13932087Y-12883698D01*
X14141610Y-12997984D02*
X14122563Y-12988460D01*
X14122563Y-12988460D02*
X14113039Y-12978936D01*
X14113039Y-12978936D02*
X14103515Y-12959888D01*
X14103515Y-12959888D02*
X14103515Y-12902746D01*
X14103515Y-12902746D02*
X14113039Y-12883698D01*
X14113039Y-12883698D02*
X14122563Y-12874174D01*
X14122563Y-12874174D02*
X14141610Y-12864650D01*
X14141610Y-12864650D02*
X14170182Y-12864650D01*
X14170182Y-12864650D02*
X14189230Y-12874174D01*
X14189230Y-12874174D02*
X14198753Y-12883698D01*
X14198753Y-12883698D02*
X14208277Y-12902746D01*
X14208277Y-12902746D02*
X14208277Y-12959888D01*
X14208277Y-12959888D02*
X14198753Y-12978936D01*
X14198753Y-12978936D02*
X14189230Y-12988460D01*
X14189230Y-12988460D02*
X14170182Y-12997984D01*
X14170182Y-12997984D02*
X14141610Y-12997984D01*
X14322563Y-12997984D02*
X14303515Y-12988460D01*
X14303515Y-12988460D02*
X14293991Y-12969412D01*
X14293991Y-12969412D02*
X14293991Y-12797984D01*
X14474944Y-12988460D02*
X14455896Y-12997984D01*
X14455896Y-12997984D02*
X14417801Y-12997984D01*
X14417801Y-12997984D02*
X14398753Y-12988460D01*
X14398753Y-12988460D02*
X14389230Y-12969412D01*
X14389230Y-12969412D02*
X14389230Y-12893222D01*
X14389230Y-12893222D02*
X14398753Y-12874174D01*
X14398753Y-12874174D02*
X14417801Y-12864650D01*
X14417801Y-12864650D02*
X14455896Y-12864650D01*
X14455896Y-12864650D02*
X14474944Y-12874174D01*
X14474944Y-12874174D02*
X14484468Y-12893222D01*
X14484468Y-12893222D02*
X14484468Y-12912269D01*
X14484468Y-12912269D02*
X14389230Y-12931317D01*
X14560658Y-12988460D02*
X14579706Y-12997984D01*
X14579706Y-12997984D02*
X14617801Y-12997984D01*
X14617801Y-12997984D02*
X14636849Y-12988460D01*
X14636849Y-12988460D02*
X14646372Y-12969412D01*
X14646372Y-12969412D02*
X14646372Y-12959888D01*
X14646372Y-12959888D02*
X14636849Y-12940841D01*
X14636849Y-12940841D02*
X14617801Y-12931317D01*
X14617801Y-12931317D02*
X14589230Y-12931317D01*
X14589230Y-12931317D02*
X14570182Y-12921793D01*
X14570182Y-12921793D02*
X14560658Y-12902746D01*
X14560658Y-12902746D02*
X14560658Y-12893222D01*
X14560658Y-12893222D02*
X14570182Y-12874174D01*
X14570182Y-12874174D02*
X14589230Y-12864650D01*
X14589230Y-12864650D02*
X14617801Y-12864650D01*
X14617801Y-12864650D02*
X14636849Y-12874174D01*
X14713039Y-13074174D02*
X14722563Y-13064650D01*
X14722563Y-13064650D02*
X14741611Y-13036079D01*
X14741611Y-13036079D02*
X14751134Y-13017031D01*
X14751134Y-13017031D02*
X14760658Y-12988460D01*
X14760658Y-12988460D02*
X14770182Y-12940841D01*
X14770182Y-12940841D02*
X14770182Y-12902746D01*
X14770182Y-12902746D02*
X14760658Y-12855127D01*
X14760658Y-12855127D02*
X14751134Y-12826555D01*
X14751134Y-12826555D02*
X14741611Y-12807508D01*
X14741611Y-12807508D02*
X14722563Y-12778936D01*
X14722563Y-12778936D02*
X14713039Y-12769412D01*
D12*
X9707500Y-13130500D02*
X9707500Y-13210500D01*
X9667500Y-13170500D02*
X9747500Y-13170500D01*
D11*
X10046372Y-13061984D02*
X10065420Y-13061984D01*
X10065420Y-13061984D02*
X10084467Y-13071508D01*
X10084467Y-13071508D02*
X10093991Y-13081031D01*
X10093991Y-13081031D02*
X10103515Y-13100079D01*
X10103515Y-13100079D02*
X10113039Y-13138174D01*
X10113039Y-13138174D02*
X10113039Y-13185793D01*
X10113039Y-13185793D02*
X10103515Y-13223888D01*
X10103515Y-13223888D02*
X10093991Y-13242936D01*
X10093991Y-13242936D02*
X10084467Y-13252460D01*
X10084467Y-13252460D02*
X10065420Y-13261984D01*
X10065420Y-13261984D02*
X10046372Y-13261984D01*
X10046372Y-13261984D02*
X10027324Y-13252460D01*
X10027324Y-13252460D02*
X10017801Y-13242936D01*
X10017801Y-13242936D02*
X10008277Y-13223888D01*
X10008277Y-13223888D02*
X9998753Y-13185793D01*
X9998753Y-13185793D02*
X9998753Y-13138174D01*
X9998753Y-13138174D02*
X10008277Y-13100079D01*
X10008277Y-13100079D02*
X10017801Y-13081031D01*
X10017801Y-13081031D02*
X10027324Y-13071508D01*
X10027324Y-13071508D02*
X10046372Y-13061984D01*
X10198753Y-13242936D02*
X10208277Y-13252460D01*
X10208277Y-13252460D02*
X10198753Y-13261984D01*
X10198753Y-13261984D02*
X10189229Y-13252460D01*
X10189229Y-13252460D02*
X10198753Y-13242936D01*
X10198753Y-13242936D02*
X10198753Y-13261984D01*
X10322563Y-13147698D02*
X10303515Y-13138174D01*
X10303515Y-13138174D02*
X10293991Y-13128650D01*
X10293991Y-13128650D02*
X10284467Y-13109603D01*
X10284467Y-13109603D02*
X10284467Y-13100079D01*
X10284467Y-13100079D02*
X10293991Y-13081031D01*
X10293991Y-13081031D02*
X10303515Y-13071508D01*
X10303515Y-13071508D02*
X10322563Y-13061984D01*
X10322563Y-13061984D02*
X10360658Y-13061984D01*
X10360658Y-13061984D02*
X10379705Y-13071508D01*
X10379705Y-13071508D02*
X10389229Y-13081031D01*
X10389229Y-13081031D02*
X10398753Y-13100079D01*
X10398753Y-13100079D02*
X10398753Y-13109603D01*
X10398753Y-13109603D02*
X10389229Y-13128650D01*
X10389229Y-13128650D02*
X10379705Y-13138174D01*
X10379705Y-13138174D02*
X10360658Y-13147698D01*
X10360658Y-13147698D02*
X10322563Y-13147698D01*
X10322563Y-13147698D02*
X10303515Y-13157222D01*
X10303515Y-13157222D02*
X10293991Y-13166746D01*
X10293991Y-13166746D02*
X10284467Y-13185793D01*
X10284467Y-13185793D02*
X10284467Y-13223888D01*
X10284467Y-13223888D02*
X10293991Y-13242936D01*
X10293991Y-13242936D02*
X10303515Y-13252460D01*
X10303515Y-13252460D02*
X10322563Y-13261984D01*
X10322563Y-13261984D02*
X10360658Y-13261984D01*
X10360658Y-13261984D02*
X10379705Y-13252460D01*
X10379705Y-13252460D02*
X10389229Y-13242936D01*
X10389229Y-13242936D02*
X10398753Y-13223888D01*
X10398753Y-13223888D02*
X10398753Y-13185793D01*
X10398753Y-13185793D02*
X10389229Y-13166746D01*
X10389229Y-13166746D02*
X10379705Y-13157222D01*
X10379705Y-13157222D02*
X10360658Y-13147698D01*
X10522563Y-13061984D02*
X10541610Y-13061984D01*
X10541610Y-13061984D02*
X10560658Y-13071508D01*
X10560658Y-13071508D02*
X10570182Y-13081031D01*
X10570182Y-13081031D02*
X10579705Y-13100079D01*
X10579705Y-13100079D02*
X10589229Y-13138174D01*
X10589229Y-13138174D02*
X10589229Y-13185793D01*
X10589229Y-13185793D02*
X10579705Y-13223888D01*
X10579705Y-13223888D02*
X10570182Y-13242936D01*
X10570182Y-13242936D02*
X10560658Y-13252460D01*
X10560658Y-13252460D02*
X10541610Y-13261984D01*
X10541610Y-13261984D02*
X10522563Y-13261984D01*
X10522563Y-13261984D02*
X10503515Y-13252460D01*
X10503515Y-13252460D02*
X10493991Y-13242936D01*
X10493991Y-13242936D02*
X10484467Y-13223888D01*
X10484467Y-13223888D02*
X10474944Y-13185793D01*
X10474944Y-13185793D02*
X10474944Y-13138174D01*
X10474944Y-13138174D02*
X10484467Y-13100079D01*
X10484467Y-13100079D02*
X10493991Y-13081031D01*
X10493991Y-13081031D02*
X10503515Y-13071508D01*
X10503515Y-13071508D02*
X10522563Y-13061984D01*
X10713039Y-13061984D02*
X10732086Y-13061984D01*
X10732086Y-13061984D02*
X10751134Y-13071508D01*
X10751134Y-13071508D02*
X10760658Y-13081031D01*
X10760658Y-13081031D02*
X10770182Y-13100079D01*
X10770182Y-13100079D02*
X10779705Y-13138174D01*
X10779705Y-13138174D02*
X10779705Y-13185793D01*
X10779705Y-13185793D02*
X10770182Y-13223888D01*
X10770182Y-13223888D02*
X10760658Y-13242936D01*
X10760658Y-13242936D02*
X10751134Y-13252460D01*
X10751134Y-13252460D02*
X10732086Y-13261984D01*
X10732086Y-13261984D02*
X10713039Y-13261984D01*
X10713039Y-13261984D02*
X10693991Y-13252460D01*
X10693991Y-13252460D02*
X10684467Y-13242936D01*
X10684467Y-13242936D02*
X10674944Y-13223888D01*
X10674944Y-13223888D02*
X10665420Y-13185793D01*
X10665420Y-13185793D02*
X10665420Y-13138174D01*
X10665420Y-13138174D02*
X10674944Y-13100079D01*
X10674944Y-13100079D02*
X10684467Y-13081031D01*
X10684467Y-13081031D02*
X10693991Y-13071508D01*
X10693991Y-13071508D02*
X10713039Y-13061984D01*
X10865420Y-13261984D02*
X10865420Y-13128650D01*
X10865420Y-13147698D02*
X10874944Y-13138174D01*
X10874944Y-13138174D02*
X10893991Y-13128650D01*
X10893991Y-13128650D02*
X10922563Y-13128650D01*
X10922563Y-13128650D02*
X10941610Y-13138174D01*
X10941610Y-13138174D02*
X10951134Y-13157222D01*
X10951134Y-13157222D02*
X10951134Y-13261984D01*
X10951134Y-13157222D02*
X10960658Y-13138174D01*
X10960658Y-13138174D02*
X10979705Y-13128650D01*
X10979705Y-13128650D02*
X11008277Y-13128650D01*
X11008277Y-13128650D02*
X11027325Y-13138174D01*
X11027325Y-13138174D02*
X11036848Y-13157222D01*
X11036848Y-13157222D02*
X11036848Y-13261984D01*
X11132086Y-13261984D02*
X11132086Y-13128650D01*
X11132086Y-13147698D02*
X11141610Y-13138174D01*
X11141610Y-13138174D02*
X11160658Y-13128650D01*
X11160658Y-13128650D02*
X11189229Y-13128650D01*
X11189229Y-13128650D02*
X11208277Y-13138174D01*
X11208277Y-13138174D02*
X11217801Y-13157222D01*
X11217801Y-13157222D02*
X11217801Y-13261984D01*
X11217801Y-13157222D02*
X11227324Y-13138174D01*
X11227324Y-13138174D02*
X11246372Y-13128650D01*
X11246372Y-13128650D02*
X11274943Y-13128650D01*
X11274943Y-13128650D02*
X11293991Y-13138174D01*
X11293991Y-13138174D02*
X11303515Y-13157222D01*
X11303515Y-13157222D02*
X11303515Y-13261984D01*
X11693991Y-13052460D02*
X11522563Y-13309603D01*
X11951134Y-13061984D02*
X11970182Y-13061984D01*
X11970182Y-13061984D02*
X11989229Y-13071508D01*
X11989229Y-13071508D02*
X11998753Y-13081031D01*
X11998753Y-13081031D02*
X12008277Y-13100079D01*
X12008277Y-13100079D02*
X12017801Y-13138174D01*
X12017801Y-13138174D02*
X12017801Y-13185793D01*
X12017801Y-13185793D02*
X12008277Y-13223888D01*
X12008277Y-13223888D02*
X11998753Y-13242936D01*
X11998753Y-13242936D02*
X11989229Y-13252460D01*
X11989229Y-13252460D02*
X11970182Y-13261984D01*
X11970182Y-13261984D02*
X11951134Y-13261984D01*
X11951134Y-13261984D02*
X11932086Y-13252460D01*
X11932086Y-13252460D02*
X11922563Y-13242936D01*
X11922563Y-13242936D02*
X11913039Y-13223888D01*
X11913039Y-13223888D02*
X11903515Y-13185793D01*
X11903515Y-13185793D02*
X11903515Y-13138174D01*
X11903515Y-13138174D02*
X11913039Y-13100079D01*
X11913039Y-13100079D02*
X11922563Y-13081031D01*
X11922563Y-13081031D02*
X11932086Y-13071508D01*
X11932086Y-13071508D02*
X11951134Y-13061984D01*
X12103515Y-13242936D02*
X12113039Y-13252460D01*
X12113039Y-13252460D02*
X12103515Y-13261984D01*
X12103515Y-13261984D02*
X12093991Y-13252460D01*
X12093991Y-13252460D02*
X12103515Y-13242936D01*
X12103515Y-13242936D02*
X12103515Y-13261984D01*
X12236848Y-13061984D02*
X12255896Y-13061984D01*
X12255896Y-13061984D02*
X12274944Y-13071508D01*
X12274944Y-13071508D02*
X12284467Y-13081031D01*
X12284467Y-13081031D02*
X12293991Y-13100079D01*
X12293991Y-13100079D02*
X12303515Y-13138174D01*
X12303515Y-13138174D02*
X12303515Y-13185793D01*
X12303515Y-13185793D02*
X12293991Y-13223888D01*
X12293991Y-13223888D02*
X12284467Y-13242936D01*
X12284467Y-13242936D02*
X12274944Y-13252460D01*
X12274944Y-13252460D02*
X12255896Y-13261984D01*
X12255896Y-13261984D02*
X12236848Y-13261984D01*
X12236848Y-13261984D02*
X12217801Y-13252460D01*
X12217801Y-13252460D02*
X12208277Y-13242936D01*
X12208277Y-13242936D02*
X12198753Y-13223888D01*
X12198753Y-13223888D02*
X12189229Y-13185793D01*
X12189229Y-13185793D02*
X12189229Y-13138174D01*
X12189229Y-13138174D02*
X12198753Y-13100079D01*
X12198753Y-13100079D02*
X12208277Y-13081031D01*
X12208277Y-13081031D02*
X12217801Y-13071508D01*
X12217801Y-13071508D02*
X12236848Y-13061984D01*
X12370182Y-13061984D02*
X12493991Y-13061984D01*
X12493991Y-13061984D02*
X12427325Y-13138174D01*
X12427325Y-13138174D02*
X12455896Y-13138174D01*
X12455896Y-13138174D02*
X12474944Y-13147698D01*
X12474944Y-13147698D02*
X12484467Y-13157222D01*
X12484467Y-13157222D02*
X12493991Y-13176269D01*
X12493991Y-13176269D02*
X12493991Y-13223888D01*
X12493991Y-13223888D02*
X12484467Y-13242936D01*
X12484467Y-13242936D02*
X12474944Y-13252460D01*
X12474944Y-13252460D02*
X12455896Y-13261984D01*
X12455896Y-13261984D02*
X12398753Y-13261984D01*
X12398753Y-13261984D02*
X12379706Y-13252460D01*
X12379706Y-13252460D02*
X12370182Y-13242936D01*
X12684467Y-13261984D02*
X12570182Y-13261984D01*
X12627325Y-13261984D02*
X12627325Y-13061984D01*
X12627325Y-13061984D02*
X12608277Y-13090555D01*
X12608277Y-13090555D02*
X12589229Y-13109603D01*
X12589229Y-13109603D02*
X12570182Y-13119127D01*
X12865420Y-13061984D02*
X12770182Y-13061984D01*
X12770182Y-13061984D02*
X12760658Y-13157222D01*
X12760658Y-13157222D02*
X12770182Y-13147698D01*
X12770182Y-13147698D02*
X12789229Y-13138174D01*
X12789229Y-13138174D02*
X12836848Y-13138174D01*
X12836848Y-13138174D02*
X12855896Y-13147698D01*
X12855896Y-13147698D02*
X12865420Y-13157222D01*
X12865420Y-13157222D02*
X12874944Y-13176269D01*
X12874944Y-13176269D02*
X12874944Y-13223888D01*
X12874944Y-13223888D02*
X12865420Y-13242936D01*
X12865420Y-13242936D02*
X12855896Y-13252460D01*
X12855896Y-13252460D02*
X12836848Y-13261984D01*
X12836848Y-13261984D02*
X12789229Y-13261984D01*
X12789229Y-13261984D02*
X12770182Y-13252460D01*
X12770182Y-13252460D02*
X12760658Y-13242936D01*
X12951134Y-13061984D02*
X12951134Y-13100079D01*
X13027325Y-13061984D02*
X13027325Y-13100079D01*
X13322563Y-13338174D02*
X13313039Y-13328650D01*
X13313039Y-13328650D02*
X13293991Y-13300079D01*
X13293991Y-13300079D02*
X13284468Y-13281031D01*
X13284468Y-13281031D02*
X13274944Y-13252460D01*
X13274944Y-13252460D02*
X13265420Y-13204841D01*
X13265420Y-13204841D02*
X13265420Y-13166746D01*
X13265420Y-13166746D02*
X13274944Y-13119127D01*
X13274944Y-13119127D02*
X13284468Y-13090555D01*
X13284468Y-13090555D02*
X13293991Y-13071508D01*
X13293991Y-13071508D02*
X13313039Y-13042936D01*
X13313039Y-13042936D02*
X13322563Y-13033412D01*
X13389229Y-13081031D02*
X13398753Y-13071508D01*
X13398753Y-13071508D02*
X13417801Y-13061984D01*
X13417801Y-13061984D02*
X13465420Y-13061984D01*
X13465420Y-13061984D02*
X13484468Y-13071508D01*
X13484468Y-13071508D02*
X13493991Y-13081031D01*
X13493991Y-13081031D02*
X13503515Y-13100079D01*
X13503515Y-13100079D02*
X13503515Y-13119127D01*
X13503515Y-13119127D02*
X13493991Y-13147698D01*
X13493991Y-13147698D02*
X13379706Y-13261984D01*
X13379706Y-13261984D02*
X13503515Y-13261984D01*
X13579706Y-13081031D02*
X13589229Y-13071508D01*
X13589229Y-13071508D02*
X13608277Y-13061984D01*
X13608277Y-13061984D02*
X13655896Y-13061984D01*
X13655896Y-13061984D02*
X13674944Y-13071508D01*
X13674944Y-13071508D02*
X13684468Y-13081031D01*
X13684468Y-13081031D02*
X13693991Y-13100079D01*
X13693991Y-13100079D02*
X13693991Y-13119127D01*
X13693991Y-13119127D02*
X13684468Y-13147698D01*
X13684468Y-13147698D02*
X13570182Y-13261984D01*
X13570182Y-13261984D02*
X13693991Y-13261984D01*
X13932087Y-13261984D02*
X13932087Y-13061984D01*
X14017801Y-13261984D02*
X14017801Y-13157222D01*
X14017801Y-13157222D02*
X14008277Y-13138174D01*
X14008277Y-13138174D02*
X13989230Y-13128650D01*
X13989230Y-13128650D02*
X13960658Y-13128650D01*
X13960658Y-13128650D02*
X13941610Y-13138174D01*
X13941610Y-13138174D02*
X13932087Y-13147698D01*
X14141610Y-13261984D02*
X14122563Y-13252460D01*
X14122563Y-13252460D02*
X14113039Y-13242936D01*
X14113039Y-13242936D02*
X14103515Y-13223888D01*
X14103515Y-13223888D02*
X14103515Y-13166746D01*
X14103515Y-13166746D02*
X14113039Y-13147698D01*
X14113039Y-13147698D02*
X14122563Y-13138174D01*
X14122563Y-13138174D02*
X14141610Y-13128650D01*
X14141610Y-13128650D02*
X14170182Y-13128650D01*
X14170182Y-13128650D02*
X14189230Y-13138174D01*
X14189230Y-13138174D02*
X14198753Y-13147698D01*
X14198753Y-13147698D02*
X14208277Y-13166746D01*
X14208277Y-13166746D02*
X14208277Y-13223888D01*
X14208277Y-13223888D02*
X14198753Y-13242936D01*
X14198753Y-13242936D02*
X14189230Y-13252460D01*
X14189230Y-13252460D02*
X14170182Y-13261984D01*
X14170182Y-13261984D02*
X14141610Y-13261984D01*
X14322563Y-13261984D02*
X14303515Y-13252460D01*
X14303515Y-13252460D02*
X14293991Y-13233412D01*
X14293991Y-13233412D02*
X14293991Y-13061984D01*
X14474944Y-13252460D02*
X14455896Y-13261984D01*
X14455896Y-13261984D02*
X14417801Y-13261984D01*
X14417801Y-13261984D02*
X14398753Y-13252460D01*
X14398753Y-13252460D02*
X14389230Y-13233412D01*
X14389230Y-13233412D02*
X14389230Y-13157222D01*
X14389230Y-13157222D02*
X14398753Y-13138174D01*
X14398753Y-13138174D02*
X14417801Y-13128650D01*
X14417801Y-13128650D02*
X14455896Y-13128650D01*
X14455896Y-13128650D02*
X14474944Y-13138174D01*
X14474944Y-13138174D02*
X14484468Y-13157222D01*
X14484468Y-13157222D02*
X14484468Y-13176269D01*
X14484468Y-13176269D02*
X14389230Y-13195317D01*
X14560658Y-13252460D02*
X14579706Y-13261984D01*
X14579706Y-13261984D02*
X14617801Y-13261984D01*
X14617801Y-13261984D02*
X14636849Y-13252460D01*
X14636849Y-13252460D02*
X14646372Y-13233412D01*
X14646372Y-13233412D02*
X14646372Y-13223888D01*
X14646372Y-13223888D02*
X14636849Y-13204841D01*
X14636849Y-13204841D02*
X14617801Y-13195317D01*
X14617801Y-13195317D02*
X14589230Y-13195317D01*
X14589230Y-13195317D02*
X14570182Y-13185793D01*
X14570182Y-13185793D02*
X14560658Y-13166746D01*
X14560658Y-13166746D02*
X14560658Y-13157222D01*
X14560658Y-13157222D02*
X14570182Y-13138174D01*
X14570182Y-13138174D02*
X14589230Y-13128650D01*
X14589230Y-13128650D02*
X14617801Y-13128650D01*
X14617801Y-13128650D02*
X14636849Y-13138174D01*
X14713039Y-13338174D02*
X14722563Y-13328650D01*
X14722563Y-13328650D02*
X14741611Y-13300079D01*
X14741611Y-13300079D02*
X14751134Y-13281031D01*
X14751134Y-13281031D02*
X14760658Y-13252460D01*
X14760658Y-13252460D02*
X14770182Y-13204841D01*
X14770182Y-13204841D02*
X14770182Y-13166746D01*
X14770182Y-13166746D02*
X14760658Y-13119127D01*
X14760658Y-13119127D02*
X14751134Y-13090555D01*
X14751134Y-13090555D02*
X14741611Y-13071508D01*
X14741611Y-13071508D02*
X14722563Y-13042936D01*
X14722563Y-13042936D02*
X14713039Y-13033412D01*
D12*
X9734320Y-13466320D02*
X9734320Y-13402680D01*
X9670680Y-13402680D01*
X9670680Y-13466320D01*
X9734320Y-13466320D01*
D11*
X10046372Y-13325984D02*
X10065420Y-13325984D01*
X10065420Y-13325984D02*
X10084467Y-13335508D01*
X10084467Y-13335508D02*
X10093991Y-13345031D01*
X10093991Y-13345031D02*
X10103515Y-13364079D01*
X10103515Y-13364079D02*
X10113039Y-13402174D01*
X10113039Y-13402174D02*
X10113039Y-13449793D01*
X10113039Y-13449793D02*
X10103515Y-13487888D01*
X10103515Y-13487888D02*
X10093991Y-13506936D01*
X10093991Y-13506936D02*
X10084467Y-13516460D01*
X10084467Y-13516460D02*
X10065420Y-13525984D01*
X10065420Y-13525984D02*
X10046372Y-13525984D01*
X10046372Y-13525984D02*
X10027324Y-13516460D01*
X10027324Y-13516460D02*
X10017801Y-13506936D01*
X10017801Y-13506936D02*
X10008277Y-13487888D01*
X10008277Y-13487888D02*
X9998753Y-13449793D01*
X9998753Y-13449793D02*
X9998753Y-13402174D01*
X9998753Y-13402174D02*
X10008277Y-13364079D01*
X10008277Y-13364079D02*
X10017801Y-13345031D01*
X10017801Y-13345031D02*
X10027324Y-13335508D01*
X10027324Y-13335508D02*
X10046372Y-13325984D01*
X10198753Y-13506936D02*
X10208277Y-13516460D01*
X10208277Y-13516460D02*
X10198753Y-13525984D01*
X10198753Y-13525984D02*
X10189229Y-13516460D01*
X10189229Y-13516460D02*
X10198753Y-13506936D01*
X10198753Y-13506936D02*
X10198753Y-13525984D01*
X10303515Y-13525984D02*
X10341610Y-13525984D01*
X10341610Y-13525984D02*
X10360658Y-13516460D01*
X10360658Y-13516460D02*
X10370182Y-13506936D01*
X10370182Y-13506936D02*
X10389229Y-13478365D01*
X10389229Y-13478365D02*
X10398753Y-13440269D01*
X10398753Y-13440269D02*
X10398753Y-13364079D01*
X10398753Y-13364079D02*
X10389229Y-13345031D01*
X10389229Y-13345031D02*
X10379705Y-13335508D01*
X10379705Y-13335508D02*
X10360658Y-13325984D01*
X10360658Y-13325984D02*
X10322563Y-13325984D01*
X10322563Y-13325984D02*
X10303515Y-13335508D01*
X10303515Y-13335508D02*
X10293991Y-13345031D01*
X10293991Y-13345031D02*
X10284467Y-13364079D01*
X10284467Y-13364079D02*
X10284467Y-13411698D01*
X10284467Y-13411698D02*
X10293991Y-13430746D01*
X10293991Y-13430746D02*
X10303515Y-13440269D01*
X10303515Y-13440269D02*
X10322563Y-13449793D01*
X10322563Y-13449793D02*
X10360658Y-13449793D01*
X10360658Y-13449793D02*
X10379705Y-13440269D01*
X10379705Y-13440269D02*
X10389229Y-13430746D01*
X10389229Y-13430746D02*
X10398753Y-13411698D01*
X10522563Y-13325984D02*
X10541610Y-13325984D01*
X10541610Y-13325984D02*
X10560658Y-13335508D01*
X10560658Y-13335508D02*
X10570182Y-13345031D01*
X10570182Y-13345031D02*
X10579705Y-13364079D01*
X10579705Y-13364079D02*
X10589229Y-13402174D01*
X10589229Y-13402174D02*
X10589229Y-13449793D01*
X10589229Y-13449793D02*
X10579705Y-13487888D01*
X10579705Y-13487888D02*
X10570182Y-13506936D01*
X10570182Y-13506936D02*
X10560658Y-13516460D01*
X10560658Y-13516460D02*
X10541610Y-13525984D01*
X10541610Y-13525984D02*
X10522563Y-13525984D01*
X10522563Y-13525984D02*
X10503515Y-13516460D01*
X10503515Y-13516460D02*
X10493991Y-13506936D01*
X10493991Y-13506936D02*
X10484467Y-13487888D01*
X10484467Y-13487888D02*
X10474944Y-13449793D01*
X10474944Y-13449793D02*
X10474944Y-13402174D01*
X10474944Y-13402174D02*
X10484467Y-13364079D01*
X10484467Y-13364079D02*
X10493991Y-13345031D01*
X10493991Y-13345031D02*
X10503515Y-13335508D01*
X10503515Y-13335508D02*
X10522563Y-13325984D01*
X10713039Y-13325984D02*
X10732086Y-13325984D01*
X10732086Y-13325984D02*
X10751134Y-13335508D01*
X10751134Y-13335508D02*
X10760658Y-13345031D01*
X10760658Y-13345031D02*
X10770182Y-13364079D01*
X10770182Y-13364079D02*
X10779705Y-13402174D01*
X10779705Y-13402174D02*
X10779705Y-13449793D01*
X10779705Y-13449793D02*
X10770182Y-13487888D01*
X10770182Y-13487888D02*
X10760658Y-13506936D01*
X10760658Y-13506936D02*
X10751134Y-13516460D01*
X10751134Y-13516460D02*
X10732086Y-13525984D01*
X10732086Y-13525984D02*
X10713039Y-13525984D01*
X10713039Y-13525984D02*
X10693991Y-13516460D01*
X10693991Y-13516460D02*
X10684467Y-13506936D01*
X10684467Y-13506936D02*
X10674944Y-13487888D01*
X10674944Y-13487888D02*
X10665420Y-13449793D01*
X10665420Y-13449793D02*
X10665420Y-13402174D01*
X10665420Y-13402174D02*
X10674944Y-13364079D01*
X10674944Y-13364079D02*
X10684467Y-13345031D01*
X10684467Y-13345031D02*
X10693991Y-13335508D01*
X10693991Y-13335508D02*
X10713039Y-13325984D01*
X10865420Y-13525984D02*
X10865420Y-13392650D01*
X10865420Y-13411698D02*
X10874944Y-13402174D01*
X10874944Y-13402174D02*
X10893991Y-13392650D01*
X10893991Y-13392650D02*
X10922563Y-13392650D01*
X10922563Y-13392650D02*
X10941610Y-13402174D01*
X10941610Y-13402174D02*
X10951134Y-13421222D01*
X10951134Y-13421222D02*
X10951134Y-13525984D01*
X10951134Y-13421222D02*
X10960658Y-13402174D01*
X10960658Y-13402174D02*
X10979705Y-13392650D01*
X10979705Y-13392650D02*
X11008277Y-13392650D01*
X11008277Y-13392650D02*
X11027325Y-13402174D01*
X11027325Y-13402174D02*
X11036848Y-13421222D01*
X11036848Y-13421222D02*
X11036848Y-13525984D01*
X11132086Y-13525984D02*
X11132086Y-13392650D01*
X11132086Y-13411698D02*
X11141610Y-13402174D01*
X11141610Y-13402174D02*
X11160658Y-13392650D01*
X11160658Y-13392650D02*
X11189229Y-13392650D01*
X11189229Y-13392650D02*
X11208277Y-13402174D01*
X11208277Y-13402174D02*
X11217801Y-13421222D01*
X11217801Y-13421222D02*
X11217801Y-13525984D01*
X11217801Y-13421222D02*
X11227324Y-13402174D01*
X11227324Y-13402174D02*
X11246372Y-13392650D01*
X11246372Y-13392650D02*
X11274943Y-13392650D01*
X11274943Y-13392650D02*
X11293991Y-13402174D01*
X11293991Y-13402174D02*
X11303515Y-13421222D01*
X11303515Y-13421222D02*
X11303515Y-13525984D01*
X11693991Y-13316460D02*
X11522563Y-13573603D01*
X11951134Y-13325984D02*
X11970182Y-13325984D01*
X11970182Y-13325984D02*
X11989229Y-13335508D01*
X11989229Y-13335508D02*
X11998753Y-13345031D01*
X11998753Y-13345031D02*
X12008277Y-13364079D01*
X12008277Y-13364079D02*
X12017801Y-13402174D01*
X12017801Y-13402174D02*
X12017801Y-13449793D01*
X12017801Y-13449793D02*
X12008277Y-13487888D01*
X12008277Y-13487888D02*
X11998753Y-13506936D01*
X11998753Y-13506936D02*
X11989229Y-13516460D01*
X11989229Y-13516460D02*
X11970182Y-13525984D01*
X11970182Y-13525984D02*
X11951134Y-13525984D01*
X11951134Y-13525984D02*
X11932086Y-13516460D01*
X11932086Y-13516460D02*
X11922563Y-13506936D01*
X11922563Y-13506936D02*
X11913039Y-13487888D01*
X11913039Y-13487888D02*
X11903515Y-13449793D01*
X11903515Y-13449793D02*
X11903515Y-13402174D01*
X11903515Y-13402174D02*
X11913039Y-13364079D01*
X11913039Y-13364079D02*
X11922563Y-13345031D01*
X11922563Y-13345031D02*
X11932086Y-13335508D01*
X11932086Y-13335508D02*
X11951134Y-13325984D01*
X12103515Y-13506936D02*
X12113039Y-13516460D01*
X12113039Y-13516460D02*
X12103515Y-13525984D01*
X12103515Y-13525984D02*
X12093991Y-13516460D01*
X12093991Y-13516460D02*
X12103515Y-13506936D01*
X12103515Y-13506936D02*
X12103515Y-13525984D01*
X12236848Y-13325984D02*
X12255896Y-13325984D01*
X12255896Y-13325984D02*
X12274944Y-13335508D01*
X12274944Y-13335508D02*
X12284467Y-13345031D01*
X12284467Y-13345031D02*
X12293991Y-13364079D01*
X12293991Y-13364079D02*
X12303515Y-13402174D01*
X12303515Y-13402174D02*
X12303515Y-13449793D01*
X12303515Y-13449793D02*
X12293991Y-13487888D01*
X12293991Y-13487888D02*
X12284467Y-13506936D01*
X12284467Y-13506936D02*
X12274944Y-13516460D01*
X12274944Y-13516460D02*
X12255896Y-13525984D01*
X12255896Y-13525984D02*
X12236848Y-13525984D01*
X12236848Y-13525984D02*
X12217801Y-13516460D01*
X12217801Y-13516460D02*
X12208277Y-13506936D01*
X12208277Y-13506936D02*
X12198753Y-13487888D01*
X12198753Y-13487888D02*
X12189229Y-13449793D01*
X12189229Y-13449793D02*
X12189229Y-13402174D01*
X12189229Y-13402174D02*
X12198753Y-13364079D01*
X12198753Y-13364079D02*
X12208277Y-13345031D01*
X12208277Y-13345031D02*
X12217801Y-13335508D01*
X12217801Y-13335508D02*
X12236848Y-13325984D01*
X12370182Y-13325984D02*
X12493991Y-13325984D01*
X12493991Y-13325984D02*
X12427325Y-13402174D01*
X12427325Y-13402174D02*
X12455896Y-13402174D01*
X12455896Y-13402174D02*
X12474944Y-13411698D01*
X12474944Y-13411698D02*
X12484467Y-13421222D01*
X12484467Y-13421222D02*
X12493991Y-13440269D01*
X12493991Y-13440269D02*
X12493991Y-13487888D01*
X12493991Y-13487888D02*
X12484467Y-13506936D01*
X12484467Y-13506936D02*
X12474944Y-13516460D01*
X12474944Y-13516460D02*
X12455896Y-13525984D01*
X12455896Y-13525984D02*
X12398753Y-13525984D01*
X12398753Y-13525984D02*
X12379706Y-13516460D01*
X12379706Y-13516460D02*
X12370182Y-13506936D01*
X12674944Y-13325984D02*
X12579706Y-13325984D01*
X12579706Y-13325984D02*
X12570182Y-13421222D01*
X12570182Y-13421222D02*
X12579706Y-13411698D01*
X12579706Y-13411698D02*
X12598753Y-13402174D01*
X12598753Y-13402174D02*
X12646372Y-13402174D01*
X12646372Y-13402174D02*
X12665420Y-13411698D01*
X12665420Y-13411698D02*
X12674944Y-13421222D01*
X12674944Y-13421222D02*
X12684467Y-13440269D01*
X12684467Y-13440269D02*
X12684467Y-13487888D01*
X12684467Y-13487888D02*
X12674944Y-13506936D01*
X12674944Y-13506936D02*
X12665420Y-13516460D01*
X12665420Y-13516460D02*
X12646372Y-13525984D01*
X12646372Y-13525984D02*
X12598753Y-13525984D01*
X12598753Y-13525984D02*
X12579706Y-13516460D01*
X12579706Y-13516460D02*
X12570182Y-13506936D01*
X12855896Y-13392650D02*
X12855896Y-13525984D01*
X12808277Y-13316460D02*
X12760658Y-13459317D01*
X12760658Y-13459317D02*
X12884467Y-13459317D01*
X12951134Y-13325984D02*
X12951134Y-13364079D01*
X13027325Y-13325984D02*
X13027325Y-13364079D01*
X13322563Y-13602174D02*
X13313039Y-13592650D01*
X13313039Y-13592650D02*
X13293991Y-13564079D01*
X13293991Y-13564079D02*
X13284468Y-13545031D01*
X13284468Y-13545031D02*
X13274944Y-13516460D01*
X13274944Y-13516460D02*
X13265420Y-13468841D01*
X13265420Y-13468841D02*
X13265420Y-13430746D01*
X13265420Y-13430746D02*
X13274944Y-13383127D01*
X13274944Y-13383127D02*
X13284468Y-13354555D01*
X13284468Y-13354555D02*
X13293991Y-13335508D01*
X13293991Y-13335508D02*
X13313039Y-13306936D01*
X13313039Y-13306936D02*
X13322563Y-13297412D01*
X13389229Y-13345031D02*
X13398753Y-13335508D01*
X13398753Y-13335508D02*
X13417801Y-13325984D01*
X13417801Y-13325984D02*
X13465420Y-13325984D01*
X13465420Y-13325984D02*
X13484468Y-13335508D01*
X13484468Y-13335508D02*
X13493991Y-13345031D01*
X13493991Y-13345031D02*
X13503515Y-13364079D01*
X13503515Y-13364079D02*
X13503515Y-13383127D01*
X13503515Y-13383127D02*
X13493991Y-13411698D01*
X13493991Y-13411698D02*
X13379706Y-13525984D01*
X13379706Y-13525984D02*
X13503515Y-13525984D01*
X13741610Y-13525984D02*
X13741610Y-13325984D01*
X13827325Y-13525984D02*
X13827325Y-13421222D01*
X13827325Y-13421222D02*
X13817801Y-13402174D01*
X13817801Y-13402174D02*
X13798753Y-13392650D01*
X13798753Y-13392650D02*
X13770182Y-13392650D01*
X13770182Y-13392650D02*
X13751134Y-13402174D01*
X13751134Y-13402174D02*
X13741610Y-13411698D01*
X13951134Y-13525984D02*
X13932087Y-13516460D01*
X13932087Y-13516460D02*
X13922563Y-13506936D01*
X13922563Y-13506936D02*
X13913039Y-13487888D01*
X13913039Y-13487888D02*
X13913039Y-13430746D01*
X13913039Y-13430746D02*
X13922563Y-13411698D01*
X13922563Y-13411698D02*
X13932087Y-13402174D01*
X13932087Y-13402174D02*
X13951134Y-13392650D01*
X13951134Y-13392650D02*
X13979706Y-13392650D01*
X13979706Y-13392650D02*
X13998753Y-13402174D01*
X13998753Y-13402174D02*
X14008277Y-13411698D01*
X14008277Y-13411698D02*
X14017801Y-13430746D01*
X14017801Y-13430746D02*
X14017801Y-13487888D01*
X14017801Y-13487888D02*
X14008277Y-13506936D01*
X14008277Y-13506936D02*
X13998753Y-13516460D01*
X13998753Y-13516460D02*
X13979706Y-13525984D01*
X13979706Y-13525984D02*
X13951134Y-13525984D01*
X14132087Y-13525984D02*
X14113039Y-13516460D01*
X14113039Y-13516460D02*
X14103515Y-13497412D01*
X14103515Y-13497412D02*
X14103515Y-13325984D01*
X14284468Y-13516460D02*
X14265420Y-13525984D01*
X14265420Y-13525984D02*
X14227325Y-13525984D01*
X14227325Y-13525984D02*
X14208277Y-13516460D01*
X14208277Y-13516460D02*
X14198753Y-13497412D01*
X14198753Y-13497412D02*
X14198753Y-13421222D01*
X14198753Y-13421222D02*
X14208277Y-13402174D01*
X14208277Y-13402174D02*
X14227325Y-13392650D01*
X14227325Y-13392650D02*
X14265420Y-13392650D01*
X14265420Y-13392650D02*
X14284468Y-13402174D01*
X14284468Y-13402174D02*
X14293991Y-13421222D01*
X14293991Y-13421222D02*
X14293991Y-13440269D01*
X14293991Y-13440269D02*
X14198753Y-13459317D01*
X14370182Y-13516460D02*
X14389230Y-13525984D01*
X14389230Y-13525984D02*
X14427325Y-13525984D01*
X14427325Y-13525984D02*
X14446372Y-13516460D01*
X14446372Y-13516460D02*
X14455896Y-13497412D01*
X14455896Y-13497412D02*
X14455896Y-13487888D01*
X14455896Y-13487888D02*
X14446372Y-13468841D01*
X14446372Y-13468841D02*
X14427325Y-13459317D01*
X14427325Y-13459317D02*
X14398753Y-13459317D01*
X14398753Y-13459317D02*
X14379706Y-13449793D01*
X14379706Y-13449793D02*
X14370182Y-13430746D01*
X14370182Y-13430746D02*
X14370182Y-13421222D01*
X14370182Y-13421222D02*
X14379706Y-13402174D01*
X14379706Y-13402174D02*
X14398753Y-13392650D01*
X14398753Y-13392650D02*
X14427325Y-13392650D01*
X14427325Y-13392650D02*
X14446372Y-13402174D01*
X14522563Y-13602174D02*
X14532087Y-13592650D01*
X14532087Y-13592650D02*
X14551134Y-13564079D01*
X14551134Y-13564079D02*
X14560658Y-13545031D01*
X14560658Y-13545031D02*
X14570182Y-13516460D01*
X14570182Y-13516460D02*
X14579706Y-13468841D01*
X14579706Y-13468841D02*
X14579706Y-13430746D01*
X14579706Y-13430746D02*
X14570182Y-13383127D01*
X14570182Y-13383127D02*
X14560658Y-13354555D01*
X14560658Y-13354555D02*
X14551134Y-13335508D01*
X14551134Y-13335508D02*
X14532087Y-13306936D01*
X14532087Y-13306936D02*
X14522563Y-13297412D01*
D12*
X9697500Y-13748500D02*
X9747500Y-13698500D01*
X9697500Y-13648500D01*
X9647500Y-13698500D01*
X9697500Y-13748500D01*
D11*
X10113039Y-13789984D02*
X9998753Y-13789984D01*
X10055896Y-13789984D02*
X10055896Y-13589984D01*
X10055896Y-13589984D02*
X10036848Y-13618555D01*
X10036848Y-13618555D02*
X10017801Y-13637603D01*
X10017801Y-13637603D02*
X9998753Y-13647127D01*
X10198753Y-13770936D02*
X10208277Y-13780460D01*
X10208277Y-13780460D02*
X10198753Y-13789984D01*
X10198753Y-13789984D02*
X10189229Y-13780460D01*
X10189229Y-13780460D02*
X10198753Y-13770936D01*
X10198753Y-13770936D02*
X10198753Y-13789984D01*
X10332086Y-13589984D02*
X10351134Y-13589984D01*
X10351134Y-13589984D02*
X10370182Y-13599508D01*
X10370182Y-13599508D02*
X10379705Y-13609031D01*
X10379705Y-13609031D02*
X10389229Y-13628079D01*
X10389229Y-13628079D02*
X10398753Y-13666174D01*
X10398753Y-13666174D02*
X10398753Y-13713793D01*
X10398753Y-13713793D02*
X10389229Y-13751888D01*
X10389229Y-13751888D02*
X10379705Y-13770936D01*
X10379705Y-13770936D02*
X10370182Y-13780460D01*
X10370182Y-13780460D02*
X10351134Y-13789984D01*
X10351134Y-13789984D02*
X10332086Y-13789984D01*
X10332086Y-13789984D02*
X10313039Y-13780460D01*
X10313039Y-13780460D02*
X10303515Y-13770936D01*
X10303515Y-13770936D02*
X10293991Y-13751888D01*
X10293991Y-13751888D02*
X10284467Y-13713793D01*
X10284467Y-13713793D02*
X10284467Y-13666174D01*
X10284467Y-13666174D02*
X10293991Y-13628079D01*
X10293991Y-13628079D02*
X10303515Y-13609031D01*
X10303515Y-13609031D02*
X10313039Y-13599508D01*
X10313039Y-13599508D02*
X10332086Y-13589984D01*
X10522563Y-13589984D02*
X10541610Y-13589984D01*
X10541610Y-13589984D02*
X10560658Y-13599508D01*
X10560658Y-13599508D02*
X10570182Y-13609031D01*
X10570182Y-13609031D02*
X10579705Y-13628079D01*
X10579705Y-13628079D02*
X10589229Y-13666174D01*
X10589229Y-13666174D02*
X10589229Y-13713793D01*
X10589229Y-13713793D02*
X10579705Y-13751888D01*
X10579705Y-13751888D02*
X10570182Y-13770936D01*
X10570182Y-13770936D02*
X10560658Y-13780460D01*
X10560658Y-13780460D02*
X10541610Y-13789984D01*
X10541610Y-13789984D02*
X10522563Y-13789984D01*
X10522563Y-13789984D02*
X10503515Y-13780460D01*
X10503515Y-13780460D02*
X10493991Y-13770936D01*
X10493991Y-13770936D02*
X10484467Y-13751888D01*
X10484467Y-13751888D02*
X10474944Y-13713793D01*
X10474944Y-13713793D02*
X10474944Y-13666174D01*
X10474944Y-13666174D02*
X10484467Y-13628079D01*
X10484467Y-13628079D02*
X10493991Y-13609031D01*
X10493991Y-13609031D02*
X10503515Y-13599508D01*
X10503515Y-13599508D02*
X10522563Y-13589984D01*
X10713039Y-13589984D02*
X10732086Y-13589984D01*
X10732086Y-13589984D02*
X10751134Y-13599508D01*
X10751134Y-13599508D02*
X10760658Y-13609031D01*
X10760658Y-13609031D02*
X10770182Y-13628079D01*
X10770182Y-13628079D02*
X10779705Y-13666174D01*
X10779705Y-13666174D02*
X10779705Y-13713793D01*
X10779705Y-13713793D02*
X10770182Y-13751888D01*
X10770182Y-13751888D02*
X10760658Y-13770936D01*
X10760658Y-13770936D02*
X10751134Y-13780460D01*
X10751134Y-13780460D02*
X10732086Y-13789984D01*
X10732086Y-13789984D02*
X10713039Y-13789984D01*
X10713039Y-13789984D02*
X10693991Y-13780460D01*
X10693991Y-13780460D02*
X10684467Y-13770936D01*
X10684467Y-13770936D02*
X10674944Y-13751888D01*
X10674944Y-13751888D02*
X10665420Y-13713793D01*
X10665420Y-13713793D02*
X10665420Y-13666174D01*
X10665420Y-13666174D02*
X10674944Y-13628079D01*
X10674944Y-13628079D02*
X10684467Y-13609031D01*
X10684467Y-13609031D02*
X10693991Y-13599508D01*
X10693991Y-13599508D02*
X10713039Y-13589984D01*
X10865420Y-13789984D02*
X10865420Y-13656650D01*
X10865420Y-13675698D02*
X10874944Y-13666174D01*
X10874944Y-13666174D02*
X10893991Y-13656650D01*
X10893991Y-13656650D02*
X10922563Y-13656650D01*
X10922563Y-13656650D02*
X10941610Y-13666174D01*
X10941610Y-13666174D02*
X10951134Y-13685222D01*
X10951134Y-13685222D02*
X10951134Y-13789984D01*
X10951134Y-13685222D02*
X10960658Y-13666174D01*
X10960658Y-13666174D02*
X10979705Y-13656650D01*
X10979705Y-13656650D02*
X11008277Y-13656650D01*
X11008277Y-13656650D02*
X11027325Y-13666174D01*
X11027325Y-13666174D02*
X11036848Y-13685222D01*
X11036848Y-13685222D02*
X11036848Y-13789984D01*
X11132086Y-13789984D02*
X11132086Y-13656650D01*
X11132086Y-13675698D02*
X11141610Y-13666174D01*
X11141610Y-13666174D02*
X11160658Y-13656650D01*
X11160658Y-13656650D02*
X11189229Y-13656650D01*
X11189229Y-13656650D02*
X11208277Y-13666174D01*
X11208277Y-13666174D02*
X11217801Y-13685222D01*
X11217801Y-13685222D02*
X11217801Y-13789984D01*
X11217801Y-13685222D02*
X11227324Y-13666174D01*
X11227324Y-13666174D02*
X11246372Y-13656650D01*
X11246372Y-13656650D02*
X11274943Y-13656650D01*
X11274943Y-13656650D02*
X11293991Y-13666174D01*
X11293991Y-13666174D02*
X11303515Y-13685222D01*
X11303515Y-13685222D02*
X11303515Y-13789984D01*
X11693991Y-13580460D02*
X11522563Y-13837603D01*
X11951134Y-13589984D02*
X11970182Y-13589984D01*
X11970182Y-13589984D02*
X11989229Y-13599508D01*
X11989229Y-13599508D02*
X11998753Y-13609031D01*
X11998753Y-13609031D02*
X12008277Y-13628079D01*
X12008277Y-13628079D02*
X12017801Y-13666174D01*
X12017801Y-13666174D02*
X12017801Y-13713793D01*
X12017801Y-13713793D02*
X12008277Y-13751888D01*
X12008277Y-13751888D02*
X11998753Y-13770936D01*
X11998753Y-13770936D02*
X11989229Y-13780460D01*
X11989229Y-13780460D02*
X11970182Y-13789984D01*
X11970182Y-13789984D02*
X11951134Y-13789984D01*
X11951134Y-13789984D02*
X11932086Y-13780460D01*
X11932086Y-13780460D02*
X11922563Y-13770936D01*
X11922563Y-13770936D02*
X11913039Y-13751888D01*
X11913039Y-13751888D02*
X11903515Y-13713793D01*
X11903515Y-13713793D02*
X11903515Y-13666174D01*
X11903515Y-13666174D02*
X11913039Y-13628079D01*
X11913039Y-13628079D02*
X11922563Y-13609031D01*
X11922563Y-13609031D02*
X11932086Y-13599508D01*
X11932086Y-13599508D02*
X11951134Y-13589984D01*
X12103515Y-13770936D02*
X12113039Y-13780460D01*
X12113039Y-13780460D02*
X12103515Y-13789984D01*
X12103515Y-13789984D02*
X12093991Y-13780460D01*
X12093991Y-13780460D02*
X12103515Y-13770936D01*
X12103515Y-13770936D02*
X12103515Y-13789984D01*
X12236848Y-13589984D02*
X12255896Y-13589984D01*
X12255896Y-13589984D02*
X12274944Y-13599508D01*
X12274944Y-13599508D02*
X12284467Y-13609031D01*
X12284467Y-13609031D02*
X12293991Y-13628079D01*
X12293991Y-13628079D02*
X12303515Y-13666174D01*
X12303515Y-13666174D02*
X12303515Y-13713793D01*
X12303515Y-13713793D02*
X12293991Y-13751888D01*
X12293991Y-13751888D02*
X12284467Y-13770936D01*
X12284467Y-13770936D02*
X12274944Y-13780460D01*
X12274944Y-13780460D02*
X12255896Y-13789984D01*
X12255896Y-13789984D02*
X12236848Y-13789984D01*
X12236848Y-13789984D02*
X12217801Y-13780460D01*
X12217801Y-13780460D02*
X12208277Y-13770936D01*
X12208277Y-13770936D02*
X12198753Y-13751888D01*
X12198753Y-13751888D02*
X12189229Y-13713793D01*
X12189229Y-13713793D02*
X12189229Y-13666174D01*
X12189229Y-13666174D02*
X12198753Y-13628079D01*
X12198753Y-13628079D02*
X12208277Y-13609031D01*
X12208277Y-13609031D02*
X12217801Y-13599508D01*
X12217801Y-13599508D02*
X12236848Y-13589984D01*
X12370182Y-13589984D02*
X12493991Y-13589984D01*
X12493991Y-13589984D02*
X12427325Y-13666174D01*
X12427325Y-13666174D02*
X12455896Y-13666174D01*
X12455896Y-13666174D02*
X12474944Y-13675698D01*
X12474944Y-13675698D02*
X12484467Y-13685222D01*
X12484467Y-13685222D02*
X12493991Y-13704269D01*
X12493991Y-13704269D02*
X12493991Y-13751888D01*
X12493991Y-13751888D02*
X12484467Y-13770936D01*
X12484467Y-13770936D02*
X12474944Y-13780460D01*
X12474944Y-13780460D02*
X12455896Y-13789984D01*
X12455896Y-13789984D02*
X12398753Y-13789984D01*
X12398753Y-13789984D02*
X12379706Y-13780460D01*
X12379706Y-13780460D02*
X12370182Y-13770936D01*
X12589229Y-13789984D02*
X12627325Y-13789984D01*
X12627325Y-13789984D02*
X12646372Y-13780460D01*
X12646372Y-13780460D02*
X12655896Y-13770936D01*
X12655896Y-13770936D02*
X12674944Y-13742365D01*
X12674944Y-13742365D02*
X12684467Y-13704269D01*
X12684467Y-13704269D02*
X12684467Y-13628079D01*
X12684467Y-13628079D02*
X12674944Y-13609031D01*
X12674944Y-13609031D02*
X12665420Y-13599508D01*
X12665420Y-13599508D02*
X12646372Y-13589984D01*
X12646372Y-13589984D02*
X12608277Y-13589984D01*
X12608277Y-13589984D02*
X12589229Y-13599508D01*
X12589229Y-13599508D02*
X12579706Y-13609031D01*
X12579706Y-13609031D02*
X12570182Y-13628079D01*
X12570182Y-13628079D02*
X12570182Y-13675698D01*
X12570182Y-13675698D02*
X12579706Y-13694746D01*
X12579706Y-13694746D02*
X12589229Y-13704269D01*
X12589229Y-13704269D02*
X12608277Y-13713793D01*
X12608277Y-13713793D02*
X12646372Y-13713793D01*
X12646372Y-13713793D02*
X12665420Y-13704269D01*
X12665420Y-13704269D02*
X12674944Y-13694746D01*
X12674944Y-13694746D02*
X12684467Y-13675698D01*
X12855896Y-13656650D02*
X12855896Y-13789984D01*
X12808277Y-13580460D02*
X12760658Y-13723317D01*
X12760658Y-13723317D02*
X12884467Y-13723317D01*
X12951134Y-13589984D02*
X12951134Y-13628079D01*
X13027325Y-13589984D02*
X13027325Y-13628079D01*
X13322563Y-13866174D02*
X13313039Y-13856650D01*
X13313039Y-13856650D02*
X13293991Y-13828079D01*
X13293991Y-13828079D02*
X13284468Y-13809031D01*
X13284468Y-13809031D02*
X13274944Y-13780460D01*
X13274944Y-13780460D02*
X13265420Y-13732841D01*
X13265420Y-13732841D02*
X13265420Y-13694746D01*
X13265420Y-13694746D02*
X13274944Y-13647127D01*
X13274944Y-13647127D02*
X13284468Y-13618555D01*
X13284468Y-13618555D02*
X13293991Y-13599508D01*
X13293991Y-13599508D02*
X13313039Y-13570936D01*
X13313039Y-13570936D02*
X13322563Y-13561412D01*
X13389229Y-13609031D02*
X13398753Y-13599508D01*
X13398753Y-13599508D02*
X13417801Y-13589984D01*
X13417801Y-13589984D02*
X13465420Y-13589984D01*
X13465420Y-13589984D02*
X13484468Y-13599508D01*
X13484468Y-13599508D02*
X13493991Y-13609031D01*
X13493991Y-13609031D02*
X13503515Y-13628079D01*
X13503515Y-13628079D02*
X13503515Y-13647127D01*
X13503515Y-13647127D02*
X13493991Y-13675698D01*
X13493991Y-13675698D02*
X13379706Y-13789984D01*
X13379706Y-13789984D02*
X13503515Y-13789984D01*
X13570182Y-13589984D02*
X13693991Y-13589984D01*
X13693991Y-13589984D02*
X13627325Y-13666174D01*
X13627325Y-13666174D02*
X13655896Y-13666174D01*
X13655896Y-13666174D02*
X13674944Y-13675698D01*
X13674944Y-13675698D02*
X13684468Y-13685222D01*
X13684468Y-13685222D02*
X13693991Y-13704269D01*
X13693991Y-13704269D02*
X13693991Y-13751888D01*
X13693991Y-13751888D02*
X13684468Y-13770936D01*
X13684468Y-13770936D02*
X13674944Y-13780460D01*
X13674944Y-13780460D02*
X13655896Y-13789984D01*
X13655896Y-13789984D02*
X13598753Y-13789984D01*
X13598753Y-13789984D02*
X13579706Y-13780460D01*
X13579706Y-13780460D02*
X13570182Y-13770936D01*
X13932087Y-13789984D02*
X13932087Y-13589984D01*
X14017801Y-13789984D02*
X14017801Y-13685222D01*
X14017801Y-13685222D02*
X14008277Y-13666174D01*
X14008277Y-13666174D02*
X13989230Y-13656650D01*
X13989230Y-13656650D02*
X13960658Y-13656650D01*
X13960658Y-13656650D02*
X13941610Y-13666174D01*
X13941610Y-13666174D02*
X13932087Y-13675698D01*
X14141610Y-13789984D02*
X14122563Y-13780460D01*
X14122563Y-13780460D02*
X14113039Y-13770936D01*
X14113039Y-13770936D02*
X14103515Y-13751888D01*
X14103515Y-13751888D02*
X14103515Y-13694746D01*
X14103515Y-13694746D02*
X14113039Y-13675698D01*
X14113039Y-13675698D02*
X14122563Y-13666174D01*
X14122563Y-13666174D02*
X14141610Y-13656650D01*
X14141610Y-13656650D02*
X14170182Y-13656650D01*
X14170182Y-13656650D02*
X14189230Y-13666174D01*
X14189230Y-13666174D02*
X14198753Y-13675698D01*
X14198753Y-13675698D02*
X14208277Y-13694746D01*
X14208277Y-13694746D02*
X14208277Y-13751888D01*
X14208277Y-13751888D02*
X14198753Y-13770936D01*
X14198753Y-13770936D02*
X14189230Y-13780460D01*
X14189230Y-13780460D02*
X14170182Y-13789984D01*
X14170182Y-13789984D02*
X14141610Y-13789984D01*
X14322563Y-13789984D02*
X14303515Y-13780460D01*
X14303515Y-13780460D02*
X14293991Y-13761412D01*
X14293991Y-13761412D02*
X14293991Y-13589984D01*
X14474944Y-13780460D02*
X14455896Y-13789984D01*
X14455896Y-13789984D02*
X14417801Y-13789984D01*
X14417801Y-13789984D02*
X14398753Y-13780460D01*
X14398753Y-13780460D02*
X14389230Y-13761412D01*
X14389230Y-13761412D02*
X14389230Y-13685222D01*
X14389230Y-13685222D02*
X14398753Y-13666174D01*
X14398753Y-13666174D02*
X14417801Y-13656650D01*
X14417801Y-13656650D02*
X14455896Y-13656650D01*
X14455896Y-13656650D02*
X14474944Y-13666174D01*
X14474944Y-13666174D02*
X14484468Y-13685222D01*
X14484468Y-13685222D02*
X14484468Y-13704269D01*
X14484468Y-13704269D02*
X14389230Y-13723317D01*
X14560658Y-13780460D02*
X14579706Y-13789984D01*
X14579706Y-13789984D02*
X14617801Y-13789984D01*
X14617801Y-13789984D02*
X14636849Y-13780460D01*
X14636849Y-13780460D02*
X14646372Y-13761412D01*
X14646372Y-13761412D02*
X14646372Y-13751888D01*
X14646372Y-13751888D02*
X14636849Y-13732841D01*
X14636849Y-13732841D02*
X14617801Y-13723317D01*
X14617801Y-13723317D02*
X14589230Y-13723317D01*
X14589230Y-13723317D02*
X14570182Y-13713793D01*
X14570182Y-13713793D02*
X14560658Y-13694746D01*
X14560658Y-13694746D02*
X14560658Y-13685222D01*
X14560658Y-13685222D02*
X14570182Y-13666174D01*
X14570182Y-13666174D02*
X14589230Y-13656650D01*
X14589230Y-13656650D02*
X14617801Y-13656650D01*
X14617801Y-13656650D02*
X14636849Y-13666174D01*
X14884468Y-13713793D02*
X15036849Y-13713793D01*
X14960658Y-13789984D02*
X14960658Y-13637603D01*
X15265420Y-13589984D02*
X15389230Y-13589984D01*
X15389230Y-13589984D02*
X15322563Y-13666174D01*
X15322563Y-13666174D02*
X15351134Y-13666174D01*
X15351134Y-13666174D02*
X15370182Y-13675698D01*
X15370182Y-13675698D02*
X15379706Y-13685222D01*
X15379706Y-13685222D02*
X15389230Y-13704269D01*
X15389230Y-13704269D02*
X15389230Y-13751888D01*
X15389230Y-13751888D02*
X15379706Y-13770936D01*
X15379706Y-13770936D02*
X15370182Y-13780460D01*
X15370182Y-13780460D02*
X15351134Y-13789984D01*
X15351134Y-13789984D02*
X15293992Y-13789984D01*
X15293992Y-13789984D02*
X15274944Y-13780460D01*
X15274944Y-13780460D02*
X15265420Y-13770936D01*
X15617801Y-13780460D02*
X15636849Y-13789984D01*
X15636849Y-13789984D02*
X15674944Y-13789984D01*
X15674944Y-13789984D02*
X15693992Y-13780460D01*
X15693992Y-13780460D02*
X15703515Y-13761412D01*
X15703515Y-13761412D02*
X15703515Y-13751888D01*
X15703515Y-13751888D02*
X15693992Y-13732841D01*
X15693992Y-13732841D02*
X15674944Y-13723317D01*
X15674944Y-13723317D02*
X15646373Y-13723317D01*
X15646373Y-13723317D02*
X15627325Y-13713793D01*
X15627325Y-13713793D02*
X15617801Y-13694746D01*
X15617801Y-13694746D02*
X15617801Y-13685222D01*
X15617801Y-13685222D02*
X15627325Y-13666174D01*
X15627325Y-13666174D02*
X15646373Y-13656650D01*
X15646373Y-13656650D02*
X15674944Y-13656650D01*
X15674944Y-13656650D02*
X15693992Y-13666174D01*
X15817801Y-13789984D02*
X15798754Y-13780460D01*
X15798754Y-13780460D02*
X15789230Y-13761412D01*
X15789230Y-13761412D02*
X15789230Y-13589984D01*
X15922563Y-13789984D02*
X15903515Y-13780460D01*
X15903515Y-13780460D02*
X15893992Y-13770936D01*
X15893992Y-13770936D02*
X15884468Y-13751888D01*
X15884468Y-13751888D02*
X15884468Y-13694746D01*
X15884468Y-13694746D02*
X15893992Y-13675698D01*
X15893992Y-13675698D02*
X15903515Y-13666174D01*
X15903515Y-13666174D02*
X15922563Y-13656650D01*
X15922563Y-13656650D02*
X15951135Y-13656650D01*
X15951135Y-13656650D02*
X15970182Y-13666174D01*
X15970182Y-13666174D02*
X15979706Y-13675698D01*
X15979706Y-13675698D02*
X15989230Y-13694746D01*
X15989230Y-13694746D02*
X15989230Y-13751888D01*
X15989230Y-13751888D02*
X15979706Y-13770936D01*
X15979706Y-13770936D02*
X15970182Y-13780460D01*
X15970182Y-13780460D02*
X15951135Y-13789984D01*
X15951135Y-13789984D02*
X15922563Y-13789984D01*
X16046373Y-13656650D02*
X16122563Y-13656650D01*
X16074944Y-13589984D02*
X16074944Y-13761412D01*
X16074944Y-13761412D02*
X16084468Y-13780460D01*
X16084468Y-13780460D02*
X16103515Y-13789984D01*
X16103515Y-13789984D02*
X16122563Y-13789984D01*
X16179706Y-13780460D02*
X16198754Y-13789984D01*
X16198754Y-13789984D02*
X16236849Y-13789984D01*
X16236849Y-13789984D02*
X16255896Y-13780460D01*
X16255896Y-13780460D02*
X16265420Y-13761412D01*
X16265420Y-13761412D02*
X16265420Y-13751888D01*
X16265420Y-13751888D02*
X16255896Y-13732841D01*
X16255896Y-13732841D02*
X16236849Y-13723317D01*
X16236849Y-13723317D02*
X16208277Y-13723317D01*
X16208277Y-13723317D02*
X16189230Y-13713793D01*
X16189230Y-13713793D02*
X16179706Y-13694746D01*
X16179706Y-13694746D02*
X16179706Y-13685222D01*
X16179706Y-13685222D02*
X16189230Y-13666174D01*
X16189230Y-13666174D02*
X16208277Y-13656650D01*
X16208277Y-13656650D02*
X16236849Y-13656650D01*
X16236849Y-13656650D02*
X16255896Y-13666174D01*
X16332087Y-13866174D02*
X16341611Y-13856650D01*
X16341611Y-13856650D02*
X16360658Y-13828079D01*
X16360658Y-13828079D02*
X16370182Y-13809031D01*
X16370182Y-13809031D02*
X16379706Y-13780460D01*
X16379706Y-13780460D02*
X16389230Y-13732841D01*
X16389230Y-13732841D02*
X16389230Y-13694746D01*
X16389230Y-13694746D02*
X16379706Y-13647127D01*
X16379706Y-13647127D02*
X16370182Y-13618555D01*
X16370182Y-13618555D02*
X16360658Y-13599508D01*
X16360658Y-13599508D02*
X16341611Y-13570936D01*
X16341611Y-13570936D02*
X16332087Y-13561412D01*
D13*
X9607500Y-13892500D02*
X9747500Y-14032500D01*
X9747500Y-13892500D02*
X9607500Y-14032500D01*
X9747500Y-13962500D02*
G75*
G02*
X9607500Y-13962500I-70000J0D01*
G01*
X9607500Y-13962500D02*
G75*
G02*
X9747500Y-13962500I70000J0D01*
G01*
D11*
X10113039Y-14053984D02*
X9998753Y-14053984D01*
X10055896Y-14053984D02*
X10055896Y-13853984D01*
X10055896Y-13853984D02*
X10036848Y-13882555D01*
X10036848Y-13882555D02*
X10017801Y-13901603D01*
X10017801Y-13901603D02*
X9998753Y-13911127D01*
X10198753Y-14034936D02*
X10208277Y-14044460D01*
X10208277Y-14044460D02*
X10198753Y-14053984D01*
X10198753Y-14053984D02*
X10189229Y-14044460D01*
X10189229Y-14044460D02*
X10198753Y-14034936D01*
X10198753Y-14034936D02*
X10198753Y-14053984D01*
X10379705Y-13920650D02*
X10379705Y-14053984D01*
X10332086Y-13844460D02*
X10284467Y-13987317D01*
X10284467Y-13987317D02*
X10408277Y-13987317D01*
X10522563Y-13853984D02*
X10541610Y-13853984D01*
X10541610Y-13853984D02*
X10560658Y-13863508D01*
X10560658Y-13863508D02*
X10570182Y-13873031D01*
X10570182Y-13873031D02*
X10579705Y-13892079D01*
X10579705Y-13892079D02*
X10589229Y-13930174D01*
X10589229Y-13930174D02*
X10589229Y-13977793D01*
X10589229Y-13977793D02*
X10579705Y-14015888D01*
X10579705Y-14015888D02*
X10570182Y-14034936D01*
X10570182Y-14034936D02*
X10560658Y-14044460D01*
X10560658Y-14044460D02*
X10541610Y-14053984D01*
X10541610Y-14053984D02*
X10522563Y-14053984D01*
X10522563Y-14053984D02*
X10503515Y-14044460D01*
X10503515Y-14044460D02*
X10493991Y-14034936D01*
X10493991Y-14034936D02*
X10484467Y-14015888D01*
X10484467Y-14015888D02*
X10474944Y-13977793D01*
X10474944Y-13977793D02*
X10474944Y-13930174D01*
X10474944Y-13930174D02*
X10484467Y-13892079D01*
X10484467Y-13892079D02*
X10493991Y-13873031D01*
X10493991Y-13873031D02*
X10503515Y-13863508D01*
X10503515Y-13863508D02*
X10522563Y-13853984D01*
X10713039Y-13853984D02*
X10732086Y-13853984D01*
X10732086Y-13853984D02*
X10751134Y-13863508D01*
X10751134Y-13863508D02*
X10760658Y-13873031D01*
X10760658Y-13873031D02*
X10770182Y-13892079D01*
X10770182Y-13892079D02*
X10779705Y-13930174D01*
X10779705Y-13930174D02*
X10779705Y-13977793D01*
X10779705Y-13977793D02*
X10770182Y-14015888D01*
X10770182Y-14015888D02*
X10760658Y-14034936D01*
X10760658Y-14034936D02*
X10751134Y-14044460D01*
X10751134Y-14044460D02*
X10732086Y-14053984D01*
X10732086Y-14053984D02*
X10713039Y-14053984D01*
X10713039Y-14053984D02*
X10693991Y-14044460D01*
X10693991Y-14044460D02*
X10684467Y-14034936D01*
X10684467Y-14034936D02*
X10674944Y-14015888D01*
X10674944Y-14015888D02*
X10665420Y-13977793D01*
X10665420Y-13977793D02*
X10665420Y-13930174D01*
X10665420Y-13930174D02*
X10674944Y-13892079D01*
X10674944Y-13892079D02*
X10684467Y-13873031D01*
X10684467Y-13873031D02*
X10693991Y-13863508D01*
X10693991Y-13863508D02*
X10713039Y-13853984D01*
X10865420Y-14053984D02*
X10865420Y-13920650D01*
X10865420Y-13939698D02*
X10874944Y-13930174D01*
X10874944Y-13930174D02*
X10893991Y-13920650D01*
X10893991Y-13920650D02*
X10922563Y-13920650D01*
X10922563Y-13920650D02*
X10941610Y-13930174D01*
X10941610Y-13930174D02*
X10951134Y-13949222D01*
X10951134Y-13949222D02*
X10951134Y-14053984D01*
X10951134Y-13949222D02*
X10960658Y-13930174D01*
X10960658Y-13930174D02*
X10979705Y-13920650D01*
X10979705Y-13920650D02*
X11008277Y-13920650D01*
X11008277Y-13920650D02*
X11027325Y-13930174D01*
X11027325Y-13930174D02*
X11036848Y-13949222D01*
X11036848Y-13949222D02*
X11036848Y-14053984D01*
X11132086Y-14053984D02*
X11132086Y-13920650D01*
X11132086Y-13939698D02*
X11141610Y-13930174D01*
X11141610Y-13930174D02*
X11160658Y-13920650D01*
X11160658Y-13920650D02*
X11189229Y-13920650D01*
X11189229Y-13920650D02*
X11208277Y-13930174D01*
X11208277Y-13930174D02*
X11217801Y-13949222D01*
X11217801Y-13949222D02*
X11217801Y-14053984D01*
X11217801Y-13949222D02*
X11227324Y-13930174D01*
X11227324Y-13930174D02*
X11246372Y-13920650D01*
X11246372Y-13920650D02*
X11274943Y-13920650D01*
X11274943Y-13920650D02*
X11293991Y-13930174D01*
X11293991Y-13930174D02*
X11303515Y-13949222D01*
X11303515Y-13949222D02*
X11303515Y-14053984D01*
X11693991Y-13844460D02*
X11522563Y-14101603D01*
X11951134Y-13853984D02*
X11970182Y-13853984D01*
X11970182Y-13853984D02*
X11989229Y-13863508D01*
X11989229Y-13863508D02*
X11998753Y-13873031D01*
X11998753Y-13873031D02*
X12008277Y-13892079D01*
X12008277Y-13892079D02*
X12017801Y-13930174D01*
X12017801Y-13930174D02*
X12017801Y-13977793D01*
X12017801Y-13977793D02*
X12008277Y-14015888D01*
X12008277Y-14015888D02*
X11998753Y-14034936D01*
X11998753Y-14034936D02*
X11989229Y-14044460D01*
X11989229Y-14044460D02*
X11970182Y-14053984D01*
X11970182Y-14053984D02*
X11951134Y-14053984D01*
X11951134Y-14053984D02*
X11932086Y-14044460D01*
X11932086Y-14044460D02*
X11922563Y-14034936D01*
X11922563Y-14034936D02*
X11913039Y-14015888D01*
X11913039Y-14015888D02*
X11903515Y-13977793D01*
X11903515Y-13977793D02*
X11903515Y-13930174D01*
X11903515Y-13930174D02*
X11913039Y-13892079D01*
X11913039Y-13892079D02*
X11922563Y-13873031D01*
X11922563Y-13873031D02*
X11932086Y-13863508D01*
X11932086Y-13863508D02*
X11951134Y-13853984D01*
X12103515Y-14034936D02*
X12113039Y-14044460D01*
X12113039Y-14044460D02*
X12103515Y-14053984D01*
X12103515Y-14053984D02*
X12093991Y-14044460D01*
X12093991Y-14044460D02*
X12103515Y-14034936D01*
X12103515Y-14034936D02*
X12103515Y-14053984D01*
X12236848Y-13853984D02*
X12255896Y-13853984D01*
X12255896Y-13853984D02*
X12274944Y-13863508D01*
X12274944Y-13863508D02*
X12284467Y-13873031D01*
X12284467Y-13873031D02*
X12293991Y-13892079D01*
X12293991Y-13892079D02*
X12303515Y-13930174D01*
X12303515Y-13930174D02*
X12303515Y-13977793D01*
X12303515Y-13977793D02*
X12293991Y-14015888D01*
X12293991Y-14015888D02*
X12284467Y-14034936D01*
X12284467Y-14034936D02*
X12274944Y-14044460D01*
X12274944Y-14044460D02*
X12255896Y-14053984D01*
X12255896Y-14053984D02*
X12236848Y-14053984D01*
X12236848Y-14053984D02*
X12217801Y-14044460D01*
X12217801Y-14044460D02*
X12208277Y-14034936D01*
X12208277Y-14034936D02*
X12198753Y-14015888D01*
X12198753Y-14015888D02*
X12189229Y-13977793D01*
X12189229Y-13977793D02*
X12189229Y-13930174D01*
X12189229Y-13930174D02*
X12198753Y-13892079D01*
X12198753Y-13892079D02*
X12208277Y-13873031D01*
X12208277Y-13873031D02*
X12217801Y-13863508D01*
X12217801Y-13863508D02*
X12236848Y-13853984D01*
X12484467Y-13853984D02*
X12389229Y-13853984D01*
X12389229Y-13853984D02*
X12379706Y-13949222D01*
X12379706Y-13949222D02*
X12389229Y-13939698D01*
X12389229Y-13939698D02*
X12408277Y-13930174D01*
X12408277Y-13930174D02*
X12455896Y-13930174D01*
X12455896Y-13930174D02*
X12474944Y-13939698D01*
X12474944Y-13939698D02*
X12484467Y-13949222D01*
X12484467Y-13949222D02*
X12493991Y-13968269D01*
X12493991Y-13968269D02*
X12493991Y-14015888D01*
X12493991Y-14015888D02*
X12484467Y-14034936D01*
X12484467Y-14034936D02*
X12474944Y-14044460D01*
X12474944Y-14044460D02*
X12455896Y-14053984D01*
X12455896Y-14053984D02*
X12408277Y-14053984D01*
X12408277Y-14053984D02*
X12389229Y-14044460D01*
X12389229Y-14044460D02*
X12379706Y-14034936D01*
X12674944Y-13853984D02*
X12579706Y-13853984D01*
X12579706Y-13853984D02*
X12570182Y-13949222D01*
X12570182Y-13949222D02*
X12579706Y-13939698D01*
X12579706Y-13939698D02*
X12598753Y-13930174D01*
X12598753Y-13930174D02*
X12646372Y-13930174D01*
X12646372Y-13930174D02*
X12665420Y-13939698D01*
X12665420Y-13939698D02*
X12674944Y-13949222D01*
X12674944Y-13949222D02*
X12684467Y-13968269D01*
X12684467Y-13968269D02*
X12684467Y-14015888D01*
X12684467Y-14015888D02*
X12674944Y-14034936D01*
X12674944Y-14034936D02*
X12665420Y-14044460D01*
X12665420Y-14044460D02*
X12646372Y-14053984D01*
X12646372Y-14053984D02*
X12598753Y-14053984D01*
X12598753Y-14053984D02*
X12579706Y-14044460D01*
X12579706Y-14044460D02*
X12570182Y-14034936D01*
X12874944Y-14053984D02*
X12760658Y-14053984D01*
X12817801Y-14053984D02*
X12817801Y-13853984D01*
X12817801Y-13853984D02*
X12798753Y-13882555D01*
X12798753Y-13882555D02*
X12779706Y-13901603D01*
X12779706Y-13901603D02*
X12760658Y-13911127D01*
X12951134Y-13853984D02*
X12951134Y-13892079D01*
X13027325Y-13853984D02*
X13027325Y-13892079D01*
X13322563Y-14130174D02*
X13313039Y-14120650D01*
X13313039Y-14120650D02*
X13293991Y-14092079D01*
X13293991Y-14092079D02*
X13284468Y-14073031D01*
X13284468Y-14073031D02*
X13274944Y-14044460D01*
X13274944Y-14044460D02*
X13265420Y-13996841D01*
X13265420Y-13996841D02*
X13265420Y-13958746D01*
X13265420Y-13958746D02*
X13274944Y-13911127D01*
X13274944Y-13911127D02*
X13284468Y-13882555D01*
X13284468Y-13882555D02*
X13293991Y-13863508D01*
X13293991Y-13863508D02*
X13313039Y-13834936D01*
X13313039Y-13834936D02*
X13322563Y-13825412D01*
X13389229Y-13873031D02*
X13398753Y-13863508D01*
X13398753Y-13863508D02*
X13417801Y-13853984D01*
X13417801Y-13853984D02*
X13465420Y-13853984D01*
X13465420Y-13853984D02*
X13484468Y-13863508D01*
X13484468Y-13863508D02*
X13493991Y-13873031D01*
X13493991Y-13873031D02*
X13503515Y-13892079D01*
X13503515Y-13892079D02*
X13503515Y-13911127D01*
X13503515Y-13911127D02*
X13493991Y-13939698D01*
X13493991Y-13939698D02*
X13379706Y-14053984D01*
X13379706Y-14053984D02*
X13503515Y-14053984D01*
X13741610Y-14053984D02*
X13741610Y-13853984D01*
X13827325Y-14053984D02*
X13827325Y-13949222D01*
X13827325Y-13949222D02*
X13817801Y-13930174D01*
X13817801Y-13930174D02*
X13798753Y-13920650D01*
X13798753Y-13920650D02*
X13770182Y-13920650D01*
X13770182Y-13920650D02*
X13751134Y-13930174D01*
X13751134Y-13930174D02*
X13741610Y-13939698D01*
X13951134Y-14053984D02*
X13932087Y-14044460D01*
X13932087Y-14044460D02*
X13922563Y-14034936D01*
X13922563Y-14034936D02*
X13913039Y-14015888D01*
X13913039Y-14015888D02*
X13913039Y-13958746D01*
X13913039Y-13958746D02*
X13922563Y-13939698D01*
X13922563Y-13939698D02*
X13932087Y-13930174D01*
X13932087Y-13930174D02*
X13951134Y-13920650D01*
X13951134Y-13920650D02*
X13979706Y-13920650D01*
X13979706Y-13920650D02*
X13998753Y-13930174D01*
X13998753Y-13930174D02*
X14008277Y-13939698D01*
X14008277Y-13939698D02*
X14017801Y-13958746D01*
X14017801Y-13958746D02*
X14017801Y-14015888D01*
X14017801Y-14015888D02*
X14008277Y-14034936D01*
X14008277Y-14034936D02*
X13998753Y-14044460D01*
X13998753Y-14044460D02*
X13979706Y-14053984D01*
X13979706Y-14053984D02*
X13951134Y-14053984D01*
X14132087Y-14053984D02*
X14113039Y-14044460D01*
X14113039Y-14044460D02*
X14103515Y-14025412D01*
X14103515Y-14025412D02*
X14103515Y-13853984D01*
X14284468Y-14044460D02*
X14265420Y-14053984D01*
X14265420Y-14053984D02*
X14227325Y-14053984D01*
X14227325Y-14053984D02*
X14208277Y-14044460D01*
X14208277Y-14044460D02*
X14198753Y-14025412D01*
X14198753Y-14025412D02*
X14198753Y-13949222D01*
X14198753Y-13949222D02*
X14208277Y-13930174D01*
X14208277Y-13930174D02*
X14227325Y-13920650D01*
X14227325Y-13920650D02*
X14265420Y-13920650D01*
X14265420Y-13920650D02*
X14284468Y-13930174D01*
X14284468Y-13930174D02*
X14293991Y-13949222D01*
X14293991Y-13949222D02*
X14293991Y-13968269D01*
X14293991Y-13968269D02*
X14198753Y-13987317D01*
X14370182Y-14044460D02*
X14389230Y-14053984D01*
X14389230Y-14053984D02*
X14427325Y-14053984D01*
X14427325Y-14053984D02*
X14446372Y-14044460D01*
X14446372Y-14044460D02*
X14455896Y-14025412D01*
X14455896Y-14025412D02*
X14455896Y-14015888D01*
X14455896Y-14015888D02*
X14446372Y-13996841D01*
X14446372Y-13996841D02*
X14427325Y-13987317D01*
X14427325Y-13987317D02*
X14398753Y-13987317D01*
X14398753Y-13987317D02*
X14379706Y-13977793D01*
X14379706Y-13977793D02*
X14370182Y-13958746D01*
X14370182Y-13958746D02*
X14370182Y-13949222D01*
X14370182Y-13949222D02*
X14379706Y-13930174D01*
X14379706Y-13930174D02*
X14398753Y-13920650D01*
X14398753Y-13920650D02*
X14427325Y-13920650D01*
X14427325Y-13920650D02*
X14446372Y-13930174D01*
X14522563Y-14130174D02*
X14532087Y-14120650D01*
X14532087Y-14120650D02*
X14551134Y-14092079D01*
X14551134Y-14092079D02*
X14560658Y-14073031D01*
X14560658Y-14073031D02*
X14570182Y-14044460D01*
X14570182Y-14044460D02*
X14579706Y-13996841D01*
X14579706Y-13996841D02*
X14579706Y-13958746D01*
X14579706Y-13958746D02*
X14570182Y-13911127D01*
X14570182Y-13911127D02*
X14560658Y-13882555D01*
X14560658Y-13882555D02*
X14551134Y-13863508D01*
X14551134Y-13863508D02*
X14532087Y-13834936D01*
X14532087Y-13834936D02*
X14522563Y-13825412D01*
D14*
X9595500Y-14150500D02*
X9747500Y-14302500D01*
X9747500Y-14150500D02*
X9595500Y-14302500D01*
X9671500Y-14150500D02*
X9671500Y-14302500D01*
X9595500Y-14226500D02*
X9747500Y-14226500D01*
D11*
X10113039Y-14317984D02*
X9998753Y-14317984D01*
X10055896Y-14317984D02*
X10055896Y-14117984D01*
X10055896Y-14117984D02*
X10036848Y-14146555D01*
X10036848Y-14146555D02*
X10017801Y-14165603D01*
X10017801Y-14165603D02*
X9998753Y-14175127D01*
X10198753Y-14298936D02*
X10208277Y-14308460D01*
X10208277Y-14308460D02*
X10198753Y-14317984D01*
X10198753Y-14317984D02*
X10189229Y-14308460D01*
X10189229Y-14308460D02*
X10198753Y-14298936D01*
X10198753Y-14298936D02*
X10198753Y-14317984D01*
X10389229Y-14117984D02*
X10293991Y-14117984D01*
X10293991Y-14117984D02*
X10284467Y-14213222D01*
X10284467Y-14213222D02*
X10293991Y-14203698D01*
X10293991Y-14203698D02*
X10313039Y-14194174D01*
X10313039Y-14194174D02*
X10360658Y-14194174D01*
X10360658Y-14194174D02*
X10379705Y-14203698D01*
X10379705Y-14203698D02*
X10389229Y-14213222D01*
X10389229Y-14213222D02*
X10398753Y-14232269D01*
X10398753Y-14232269D02*
X10398753Y-14279888D01*
X10398753Y-14279888D02*
X10389229Y-14298936D01*
X10389229Y-14298936D02*
X10379705Y-14308460D01*
X10379705Y-14308460D02*
X10360658Y-14317984D01*
X10360658Y-14317984D02*
X10313039Y-14317984D01*
X10313039Y-14317984D02*
X10293991Y-14308460D01*
X10293991Y-14308460D02*
X10284467Y-14298936D01*
X10474944Y-14137031D02*
X10484467Y-14127508D01*
X10484467Y-14127508D02*
X10503515Y-14117984D01*
X10503515Y-14117984D02*
X10551134Y-14117984D01*
X10551134Y-14117984D02*
X10570182Y-14127508D01*
X10570182Y-14127508D02*
X10579705Y-14137031D01*
X10579705Y-14137031D02*
X10589229Y-14156079D01*
X10589229Y-14156079D02*
X10589229Y-14175127D01*
X10589229Y-14175127D02*
X10579705Y-14203698D01*
X10579705Y-14203698D02*
X10465420Y-14317984D01*
X10465420Y-14317984D02*
X10589229Y-14317984D01*
X10713039Y-14117984D02*
X10732086Y-14117984D01*
X10732086Y-14117984D02*
X10751134Y-14127508D01*
X10751134Y-14127508D02*
X10760658Y-14137031D01*
X10760658Y-14137031D02*
X10770182Y-14156079D01*
X10770182Y-14156079D02*
X10779705Y-14194174D01*
X10779705Y-14194174D02*
X10779705Y-14241793D01*
X10779705Y-14241793D02*
X10770182Y-14279888D01*
X10770182Y-14279888D02*
X10760658Y-14298936D01*
X10760658Y-14298936D02*
X10751134Y-14308460D01*
X10751134Y-14308460D02*
X10732086Y-14317984D01*
X10732086Y-14317984D02*
X10713039Y-14317984D01*
X10713039Y-14317984D02*
X10693991Y-14308460D01*
X10693991Y-14308460D02*
X10684467Y-14298936D01*
X10684467Y-14298936D02*
X10674944Y-14279888D01*
X10674944Y-14279888D02*
X10665420Y-14241793D01*
X10665420Y-14241793D02*
X10665420Y-14194174D01*
X10665420Y-14194174D02*
X10674944Y-14156079D01*
X10674944Y-14156079D02*
X10684467Y-14137031D01*
X10684467Y-14137031D02*
X10693991Y-14127508D01*
X10693991Y-14127508D02*
X10713039Y-14117984D01*
X10865420Y-14317984D02*
X10865420Y-14184650D01*
X10865420Y-14203698D02*
X10874944Y-14194174D01*
X10874944Y-14194174D02*
X10893991Y-14184650D01*
X10893991Y-14184650D02*
X10922563Y-14184650D01*
X10922563Y-14184650D02*
X10941610Y-14194174D01*
X10941610Y-14194174D02*
X10951134Y-14213222D01*
X10951134Y-14213222D02*
X10951134Y-14317984D01*
X10951134Y-14213222D02*
X10960658Y-14194174D01*
X10960658Y-14194174D02*
X10979705Y-14184650D01*
X10979705Y-14184650D02*
X11008277Y-14184650D01*
X11008277Y-14184650D02*
X11027325Y-14194174D01*
X11027325Y-14194174D02*
X11036848Y-14213222D01*
X11036848Y-14213222D02*
X11036848Y-14317984D01*
X11132086Y-14317984D02*
X11132086Y-14184650D01*
X11132086Y-14203698D02*
X11141610Y-14194174D01*
X11141610Y-14194174D02*
X11160658Y-14184650D01*
X11160658Y-14184650D02*
X11189229Y-14184650D01*
X11189229Y-14184650D02*
X11208277Y-14194174D01*
X11208277Y-14194174D02*
X11217801Y-14213222D01*
X11217801Y-14213222D02*
X11217801Y-14317984D01*
X11217801Y-14213222D02*
X11227324Y-14194174D01*
X11227324Y-14194174D02*
X11246372Y-14184650D01*
X11246372Y-14184650D02*
X11274943Y-14184650D01*
X11274943Y-14184650D02*
X11293991Y-14194174D01*
X11293991Y-14194174D02*
X11303515Y-14213222D01*
X11303515Y-14213222D02*
X11303515Y-14317984D01*
X11693991Y-14108460D02*
X11522563Y-14365603D01*
X11951134Y-14117984D02*
X11970182Y-14117984D01*
X11970182Y-14117984D02*
X11989229Y-14127508D01*
X11989229Y-14127508D02*
X11998753Y-14137031D01*
X11998753Y-14137031D02*
X12008277Y-14156079D01*
X12008277Y-14156079D02*
X12017801Y-14194174D01*
X12017801Y-14194174D02*
X12017801Y-14241793D01*
X12017801Y-14241793D02*
X12008277Y-14279888D01*
X12008277Y-14279888D02*
X11998753Y-14298936D01*
X11998753Y-14298936D02*
X11989229Y-14308460D01*
X11989229Y-14308460D02*
X11970182Y-14317984D01*
X11970182Y-14317984D02*
X11951134Y-14317984D01*
X11951134Y-14317984D02*
X11932086Y-14308460D01*
X11932086Y-14308460D02*
X11922563Y-14298936D01*
X11922563Y-14298936D02*
X11913039Y-14279888D01*
X11913039Y-14279888D02*
X11903515Y-14241793D01*
X11903515Y-14241793D02*
X11903515Y-14194174D01*
X11903515Y-14194174D02*
X11913039Y-14156079D01*
X11913039Y-14156079D02*
X11922563Y-14137031D01*
X11922563Y-14137031D02*
X11932086Y-14127508D01*
X11932086Y-14127508D02*
X11951134Y-14117984D01*
X12103515Y-14298936D02*
X12113039Y-14308460D01*
X12113039Y-14308460D02*
X12103515Y-14317984D01*
X12103515Y-14317984D02*
X12093991Y-14308460D01*
X12093991Y-14308460D02*
X12103515Y-14298936D01*
X12103515Y-14298936D02*
X12103515Y-14317984D01*
X12236848Y-14117984D02*
X12255896Y-14117984D01*
X12255896Y-14117984D02*
X12274944Y-14127508D01*
X12274944Y-14127508D02*
X12284467Y-14137031D01*
X12284467Y-14137031D02*
X12293991Y-14156079D01*
X12293991Y-14156079D02*
X12303515Y-14194174D01*
X12303515Y-14194174D02*
X12303515Y-14241793D01*
X12303515Y-14241793D02*
X12293991Y-14279888D01*
X12293991Y-14279888D02*
X12284467Y-14298936D01*
X12284467Y-14298936D02*
X12274944Y-14308460D01*
X12274944Y-14308460D02*
X12255896Y-14317984D01*
X12255896Y-14317984D02*
X12236848Y-14317984D01*
X12236848Y-14317984D02*
X12217801Y-14308460D01*
X12217801Y-14308460D02*
X12208277Y-14298936D01*
X12208277Y-14298936D02*
X12198753Y-14279888D01*
X12198753Y-14279888D02*
X12189229Y-14241793D01*
X12189229Y-14241793D02*
X12189229Y-14194174D01*
X12189229Y-14194174D02*
X12198753Y-14156079D01*
X12198753Y-14156079D02*
X12208277Y-14137031D01*
X12208277Y-14137031D02*
X12217801Y-14127508D01*
X12217801Y-14127508D02*
X12236848Y-14117984D01*
X12484467Y-14117984D02*
X12389229Y-14117984D01*
X12389229Y-14117984D02*
X12379706Y-14213222D01*
X12379706Y-14213222D02*
X12389229Y-14203698D01*
X12389229Y-14203698D02*
X12408277Y-14194174D01*
X12408277Y-14194174D02*
X12455896Y-14194174D01*
X12455896Y-14194174D02*
X12474944Y-14203698D01*
X12474944Y-14203698D02*
X12484467Y-14213222D01*
X12484467Y-14213222D02*
X12493991Y-14232269D01*
X12493991Y-14232269D02*
X12493991Y-14279888D01*
X12493991Y-14279888D02*
X12484467Y-14298936D01*
X12484467Y-14298936D02*
X12474944Y-14308460D01*
X12474944Y-14308460D02*
X12455896Y-14317984D01*
X12455896Y-14317984D02*
X12408277Y-14317984D01*
X12408277Y-14317984D02*
X12389229Y-14308460D01*
X12389229Y-14308460D02*
X12379706Y-14298936D01*
X12589229Y-14317984D02*
X12627325Y-14317984D01*
X12627325Y-14317984D02*
X12646372Y-14308460D01*
X12646372Y-14308460D02*
X12655896Y-14298936D01*
X12655896Y-14298936D02*
X12674944Y-14270365D01*
X12674944Y-14270365D02*
X12684467Y-14232269D01*
X12684467Y-14232269D02*
X12684467Y-14156079D01*
X12684467Y-14156079D02*
X12674944Y-14137031D01*
X12674944Y-14137031D02*
X12665420Y-14127508D01*
X12665420Y-14127508D02*
X12646372Y-14117984D01*
X12646372Y-14117984D02*
X12608277Y-14117984D01*
X12608277Y-14117984D02*
X12589229Y-14127508D01*
X12589229Y-14127508D02*
X12579706Y-14137031D01*
X12579706Y-14137031D02*
X12570182Y-14156079D01*
X12570182Y-14156079D02*
X12570182Y-14203698D01*
X12570182Y-14203698D02*
X12579706Y-14222746D01*
X12579706Y-14222746D02*
X12589229Y-14232269D01*
X12589229Y-14232269D02*
X12608277Y-14241793D01*
X12608277Y-14241793D02*
X12646372Y-14241793D01*
X12646372Y-14241793D02*
X12665420Y-14232269D01*
X12665420Y-14232269D02*
X12674944Y-14222746D01*
X12674944Y-14222746D02*
X12684467Y-14203698D01*
X12798753Y-14203698D02*
X12779706Y-14194174D01*
X12779706Y-14194174D02*
X12770182Y-14184650D01*
X12770182Y-14184650D02*
X12760658Y-14165603D01*
X12760658Y-14165603D02*
X12760658Y-14156079D01*
X12760658Y-14156079D02*
X12770182Y-14137031D01*
X12770182Y-14137031D02*
X12779706Y-14127508D01*
X12779706Y-14127508D02*
X12798753Y-14117984D01*
X12798753Y-14117984D02*
X12836848Y-14117984D01*
X12836848Y-14117984D02*
X12855896Y-14127508D01*
X12855896Y-14127508D02*
X12865420Y-14137031D01*
X12865420Y-14137031D02*
X12874944Y-14156079D01*
X12874944Y-14156079D02*
X12874944Y-14165603D01*
X12874944Y-14165603D02*
X12865420Y-14184650D01*
X12865420Y-14184650D02*
X12855896Y-14194174D01*
X12855896Y-14194174D02*
X12836848Y-14203698D01*
X12836848Y-14203698D02*
X12798753Y-14203698D01*
X12798753Y-14203698D02*
X12779706Y-14213222D01*
X12779706Y-14213222D02*
X12770182Y-14222746D01*
X12770182Y-14222746D02*
X12760658Y-14241793D01*
X12760658Y-14241793D02*
X12760658Y-14279888D01*
X12760658Y-14279888D02*
X12770182Y-14298936D01*
X12770182Y-14298936D02*
X12779706Y-14308460D01*
X12779706Y-14308460D02*
X12798753Y-14317984D01*
X12798753Y-14317984D02*
X12836848Y-14317984D01*
X12836848Y-14317984D02*
X12855896Y-14308460D01*
X12855896Y-14308460D02*
X12865420Y-14298936D01*
X12865420Y-14298936D02*
X12874944Y-14279888D01*
X12874944Y-14279888D02*
X12874944Y-14241793D01*
X12874944Y-14241793D02*
X12865420Y-14222746D01*
X12865420Y-14222746D02*
X12855896Y-14213222D01*
X12855896Y-14213222D02*
X12836848Y-14203698D01*
X12951134Y-14117984D02*
X12951134Y-14156079D01*
X13027325Y-14117984D02*
X13027325Y-14156079D01*
X13322563Y-14394174D02*
X13313039Y-14384650D01*
X13313039Y-14384650D02*
X13293991Y-14356079D01*
X13293991Y-14356079D02*
X13284468Y-14337031D01*
X13284468Y-14337031D02*
X13274944Y-14308460D01*
X13274944Y-14308460D02*
X13265420Y-14260841D01*
X13265420Y-14260841D02*
X13265420Y-14222746D01*
X13265420Y-14222746D02*
X13274944Y-14175127D01*
X13274944Y-14175127D02*
X13284468Y-14146555D01*
X13284468Y-14146555D02*
X13293991Y-14127508D01*
X13293991Y-14127508D02*
X13313039Y-14098936D01*
X13313039Y-14098936D02*
X13322563Y-14089412D01*
X13389229Y-14137031D02*
X13398753Y-14127508D01*
X13398753Y-14127508D02*
X13417801Y-14117984D01*
X13417801Y-14117984D02*
X13465420Y-14117984D01*
X13465420Y-14117984D02*
X13484468Y-14127508D01*
X13484468Y-14127508D02*
X13493991Y-14137031D01*
X13493991Y-14137031D02*
X13503515Y-14156079D01*
X13503515Y-14156079D02*
X13503515Y-14175127D01*
X13503515Y-14175127D02*
X13493991Y-14203698D01*
X13493991Y-14203698D02*
X13379706Y-14317984D01*
X13379706Y-14317984D02*
X13503515Y-14317984D01*
X13741610Y-14317984D02*
X13741610Y-14117984D01*
X13827325Y-14317984D02*
X13827325Y-14213222D01*
X13827325Y-14213222D02*
X13817801Y-14194174D01*
X13817801Y-14194174D02*
X13798753Y-14184650D01*
X13798753Y-14184650D02*
X13770182Y-14184650D01*
X13770182Y-14184650D02*
X13751134Y-14194174D01*
X13751134Y-14194174D02*
X13741610Y-14203698D01*
X13951134Y-14317984D02*
X13932087Y-14308460D01*
X13932087Y-14308460D02*
X13922563Y-14298936D01*
X13922563Y-14298936D02*
X13913039Y-14279888D01*
X13913039Y-14279888D02*
X13913039Y-14222746D01*
X13913039Y-14222746D02*
X13922563Y-14203698D01*
X13922563Y-14203698D02*
X13932087Y-14194174D01*
X13932087Y-14194174D02*
X13951134Y-14184650D01*
X13951134Y-14184650D02*
X13979706Y-14184650D01*
X13979706Y-14184650D02*
X13998753Y-14194174D01*
X13998753Y-14194174D02*
X14008277Y-14203698D01*
X14008277Y-14203698D02*
X14017801Y-14222746D01*
X14017801Y-14222746D02*
X14017801Y-14279888D01*
X14017801Y-14279888D02*
X14008277Y-14298936D01*
X14008277Y-14298936D02*
X13998753Y-14308460D01*
X13998753Y-14308460D02*
X13979706Y-14317984D01*
X13979706Y-14317984D02*
X13951134Y-14317984D01*
X14132087Y-14317984D02*
X14113039Y-14308460D01*
X14113039Y-14308460D02*
X14103515Y-14289412D01*
X14103515Y-14289412D02*
X14103515Y-14117984D01*
X14284468Y-14308460D02*
X14265420Y-14317984D01*
X14265420Y-14317984D02*
X14227325Y-14317984D01*
X14227325Y-14317984D02*
X14208277Y-14308460D01*
X14208277Y-14308460D02*
X14198753Y-14289412D01*
X14198753Y-14289412D02*
X14198753Y-14213222D01*
X14198753Y-14213222D02*
X14208277Y-14194174D01*
X14208277Y-14194174D02*
X14227325Y-14184650D01*
X14227325Y-14184650D02*
X14265420Y-14184650D01*
X14265420Y-14184650D02*
X14284468Y-14194174D01*
X14284468Y-14194174D02*
X14293991Y-14213222D01*
X14293991Y-14213222D02*
X14293991Y-14232269D01*
X14293991Y-14232269D02*
X14198753Y-14251317D01*
X14370182Y-14308460D02*
X14389230Y-14317984D01*
X14389230Y-14317984D02*
X14427325Y-14317984D01*
X14427325Y-14317984D02*
X14446372Y-14308460D01*
X14446372Y-14308460D02*
X14455896Y-14289412D01*
X14455896Y-14289412D02*
X14455896Y-14279888D01*
X14455896Y-14279888D02*
X14446372Y-14260841D01*
X14446372Y-14260841D02*
X14427325Y-14251317D01*
X14427325Y-14251317D02*
X14398753Y-14251317D01*
X14398753Y-14251317D02*
X14379706Y-14241793D01*
X14379706Y-14241793D02*
X14370182Y-14222746D01*
X14370182Y-14222746D02*
X14370182Y-14213222D01*
X14370182Y-14213222D02*
X14379706Y-14194174D01*
X14379706Y-14194174D02*
X14398753Y-14184650D01*
X14398753Y-14184650D02*
X14427325Y-14184650D01*
X14427325Y-14184650D02*
X14446372Y-14194174D01*
X14522563Y-14394174D02*
X14532087Y-14384650D01*
X14532087Y-14384650D02*
X14551134Y-14356079D01*
X14551134Y-14356079D02*
X14560658Y-14337031D01*
X14560658Y-14337031D02*
X14570182Y-14308460D01*
X14570182Y-14308460D02*
X14579706Y-14260841D01*
X14579706Y-14260841D02*
X14579706Y-14222746D01*
X14579706Y-14222746D02*
X14570182Y-14175127D01*
X14570182Y-14175127D02*
X14560658Y-14146555D01*
X14560658Y-14146555D02*
X14551134Y-14127508D01*
X14551134Y-14127508D02*
X14532087Y-14098936D01*
X14532087Y-14098936D02*
X14522563Y-14089412D01*
D15*
X9587500Y-14418500D02*
X9747500Y-14578500D01*
X9747500Y-14418500D02*
X9587500Y-14578500D01*
X9724069Y-14555069D02*
X9724069Y-14441931D01*
X9610931Y-14441931D01*
X9610931Y-14555069D01*
X9724069Y-14555069D01*
D11*
X10113039Y-14589984D02*
X9998753Y-14589984D01*
X10055896Y-14589984D02*
X10055896Y-14389984D01*
X10055896Y-14389984D02*
X10036848Y-14418555D01*
X10036848Y-14418555D02*
X10017801Y-14437603D01*
X10017801Y-14437603D02*
X9998753Y-14447127D01*
X10198753Y-14570936D02*
X10208277Y-14580460D01*
X10208277Y-14580460D02*
X10198753Y-14589984D01*
X10198753Y-14589984D02*
X10189229Y-14580460D01*
X10189229Y-14580460D02*
X10198753Y-14570936D01*
X10198753Y-14570936D02*
X10198753Y-14589984D01*
X10379705Y-14389984D02*
X10341610Y-14389984D01*
X10341610Y-14389984D02*
X10322563Y-14399508D01*
X10322563Y-14399508D02*
X10313039Y-14409031D01*
X10313039Y-14409031D02*
X10293991Y-14437603D01*
X10293991Y-14437603D02*
X10284467Y-14475698D01*
X10284467Y-14475698D02*
X10284467Y-14551888D01*
X10284467Y-14551888D02*
X10293991Y-14570936D01*
X10293991Y-14570936D02*
X10303515Y-14580460D01*
X10303515Y-14580460D02*
X10322563Y-14589984D01*
X10322563Y-14589984D02*
X10360658Y-14589984D01*
X10360658Y-14589984D02*
X10379705Y-14580460D01*
X10379705Y-14580460D02*
X10389229Y-14570936D01*
X10389229Y-14570936D02*
X10398753Y-14551888D01*
X10398753Y-14551888D02*
X10398753Y-14504269D01*
X10398753Y-14504269D02*
X10389229Y-14485222D01*
X10389229Y-14485222D02*
X10379705Y-14475698D01*
X10379705Y-14475698D02*
X10360658Y-14466174D01*
X10360658Y-14466174D02*
X10322563Y-14466174D01*
X10322563Y-14466174D02*
X10303515Y-14475698D01*
X10303515Y-14475698D02*
X10293991Y-14485222D01*
X10293991Y-14485222D02*
X10284467Y-14504269D01*
X10522563Y-14389984D02*
X10541610Y-14389984D01*
X10541610Y-14389984D02*
X10560658Y-14399508D01*
X10560658Y-14399508D02*
X10570182Y-14409031D01*
X10570182Y-14409031D02*
X10579705Y-14428079D01*
X10579705Y-14428079D02*
X10589229Y-14466174D01*
X10589229Y-14466174D02*
X10589229Y-14513793D01*
X10589229Y-14513793D02*
X10579705Y-14551888D01*
X10579705Y-14551888D02*
X10570182Y-14570936D01*
X10570182Y-14570936D02*
X10560658Y-14580460D01*
X10560658Y-14580460D02*
X10541610Y-14589984D01*
X10541610Y-14589984D02*
X10522563Y-14589984D01*
X10522563Y-14589984D02*
X10503515Y-14580460D01*
X10503515Y-14580460D02*
X10493991Y-14570936D01*
X10493991Y-14570936D02*
X10484467Y-14551888D01*
X10484467Y-14551888D02*
X10474944Y-14513793D01*
X10474944Y-14513793D02*
X10474944Y-14466174D01*
X10474944Y-14466174D02*
X10484467Y-14428079D01*
X10484467Y-14428079D02*
X10493991Y-14409031D01*
X10493991Y-14409031D02*
X10503515Y-14399508D01*
X10503515Y-14399508D02*
X10522563Y-14389984D01*
X10713039Y-14389984D02*
X10732086Y-14389984D01*
X10732086Y-14389984D02*
X10751134Y-14399508D01*
X10751134Y-14399508D02*
X10760658Y-14409031D01*
X10760658Y-14409031D02*
X10770182Y-14428079D01*
X10770182Y-14428079D02*
X10779705Y-14466174D01*
X10779705Y-14466174D02*
X10779705Y-14513793D01*
X10779705Y-14513793D02*
X10770182Y-14551888D01*
X10770182Y-14551888D02*
X10760658Y-14570936D01*
X10760658Y-14570936D02*
X10751134Y-14580460D01*
X10751134Y-14580460D02*
X10732086Y-14589984D01*
X10732086Y-14589984D02*
X10713039Y-14589984D01*
X10713039Y-14589984D02*
X10693991Y-14580460D01*
X10693991Y-14580460D02*
X10684467Y-14570936D01*
X10684467Y-14570936D02*
X10674944Y-14551888D01*
X10674944Y-14551888D02*
X10665420Y-14513793D01*
X10665420Y-14513793D02*
X10665420Y-14466174D01*
X10665420Y-14466174D02*
X10674944Y-14428079D01*
X10674944Y-14428079D02*
X10684467Y-14409031D01*
X10684467Y-14409031D02*
X10693991Y-14399508D01*
X10693991Y-14399508D02*
X10713039Y-14389984D01*
X10865420Y-14589984D02*
X10865420Y-14456650D01*
X10865420Y-14475698D02*
X10874944Y-14466174D01*
X10874944Y-14466174D02*
X10893991Y-14456650D01*
X10893991Y-14456650D02*
X10922563Y-14456650D01*
X10922563Y-14456650D02*
X10941610Y-14466174D01*
X10941610Y-14466174D02*
X10951134Y-14485222D01*
X10951134Y-14485222D02*
X10951134Y-14589984D01*
X10951134Y-14485222D02*
X10960658Y-14466174D01*
X10960658Y-14466174D02*
X10979705Y-14456650D01*
X10979705Y-14456650D02*
X11008277Y-14456650D01*
X11008277Y-14456650D02*
X11027325Y-14466174D01*
X11027325Y-14466174D02*
X11036848Y-14485222D01*
X11036848Y-14485222D02*
X11036848Y-14589984D01*
X11132086Y-14589984D02*
X11132086Y-14456650D01*
X11132086Y-14475698D02*
X11141610Y-14466174D01*
X11141610Y-14466174D02*
X11160658Y-14456650D01*
X11160658Y-14456650D02*
X11189229Y-14456650D01*
X11189229Y-14456650D02*
X11208277Y-14466174D01*
X11208277Y-14466174D02*
X11217801Y-14485222D01*
X11217801Y-14485222D02*
X11217801Y-14589984D01*
X11217801Y-14485222D02*
X11227324Y-14466174D01*
X11227324Y-14466174D02*
X11246372Y-14456650D01*
X11246372Y-14456650D02*
X11274943Y-14456650D01*
X11274943Y-14456650D02*
X11293991Y-14466174D01*
X11293991Y-14466174D02*
X11303515Y-14485222D01*
X11303515Y-14485222D02*
X11303515Y-14589984D01*
X11693991Y-14380460D02*
X11522563Y-14637603D01*
X11951134Y-14389984D02*
X11970182Y-14389984D01*
X11970182Y-14389984D02*
X11989229Y-14399508D01*
X11989229Y-14399508D02*
X11998753Y-14409031D01*
X11998753Y-14409031D02*
X12008277Y-14428079D01*
X12008277Y-14428079D02*
X12017801Y-14466174D01*
X12017801Y-14466174D02*
X12017801Y-14513793D01*
X12017801Y-14513793D02*
X12008277Y-14551888D01*
X12008277Y-14551888D02*
X11998753Y-14570936D01*
X11998753Y-14570936D02*
X11989229Y-14580460D01*
X11989229Y-14580460D02*
X11970182Y-14589984D01*
X11970182Y-14589984D02*
X11951134Y-14589984D01*
X11951134Y-14589984D02*
X11932086Y-14580460D01*
X11932086Y-14580460D02*
X11922563Y-14570936D01*
X11922563Y-14570936D02*
X11913039Y-14551888D01*
X11913039Y-14551888D02*
X11903515Y-14513793D01*
X11903515Y-14513793D02*
X11903515Y-14466174D01*
X11903515Y-14466174D02*
X11913039Y-14428079D01*
X11913039Y-14428079D02*
X11922563Y-14409031D01*
X11922563Y-14409031D02*
X11932086Y-14399508D01*
X11932086Y-14399508D02*
X11951134Y-14389984D01*
X12103515Y-14570936D02*
X12113039Y-14580460D01*
X12113039Y-14580460D02*
X12103515Y-14589984D01*
X12103515Y-14589984D02*
X12093991Y-14580460D01*
X12093991Y-14580460D02*
X12103515Y-14570936D01*
X12103515Y-14570936D02*
X12103515Y-14589984D01*
X12236848Y-14389984D02*
X12255896Y-14389984D01*
X12255896Y-14389984D02*
X12274944Y-14399508D01*
X12274944Y-14399508D02*
X12284467Y-14409031D01*
X12284467Y-14409031D02*
X12293991Y-14428079D01*
X12293991Y-14428079D02*
X12303515Y-14466174D01*
X12303515Y-14466174D02*
X12303515Y-14513793D01*
X12303515Y-14513793D02*
X12293991Y-14551888D01*
X12293991Y-14551888D02*
X12284467Y-14570936D01*
X12284467Y-14570936D02*
X12274944Y-14580460D01*
X12274944Y-14580460D02*
X12255896Y-14589984D01*
X12255896Y-14589984D02*
X12236848Y-14589984D01*
X12236848Y-14589984D02*
X12217801Y-14580460D01*
X12217801Y-14580460D02*
X12208277Y-14570936D01*
X12208277Y-14570936D02*
X12198753Y-14551888D01*
X12198753Y-14551888D02*
X12189229Y-14513793D01*
X12189229Y-14513793D02*
X12189229Y-14466174D01*
X12189229Y-14466174D02*
X12198753Y-14428079D01*
X12198753Y-14428079D02*
X12208277Y-14409031D01*
X12208277Y-14409031D02*
X12217801Y-14399508D01*
X12217801Y-14399508D02*
X12236848Y-14389984D01*
X12474944Y-14389984D02*
X12436848Y-14389984D01*
X12436848Y-14389984D02*
X12417801Y-14399508D01*
X12417801Y-14399508D02*
X12408277Y-14409031D01*
X12408277Y-14409031D02*
X12389229Y-14437603D01*
X12389229Y-14437603D02*
X12379706Y-14475698D01*
X12379706Y-14475698D02*
X12379706Y-14551888D01*
X12379706Y-14551888D02*
X12389229Y-14570936D01*
X12389229Y-14570936D02*
X12398753Y-14580460D01*
X12398753Y-14580460D02*
X12417801Y-14589984D01*
X12417801Y-14589984D02*
X12455896Y-14589984D01*
X12455896Y-14589984D02*
X12474944Y-14580460D01*
X12474944Y-14580460D02*
X12484467Y-14570936D01*
X12484467Y-14570936D02*
X12493991Y-14551888D01*
X12493991Y-14551888D02*
X12493991Y-14504269D01*
X12493991Y-14504269D02*
X12484467Y-14485222D01*
X12484467Y-14485222D02*
X12474944Y-14475698D01*
X12474944Y-14475698D02*
X12455896Y-14466174D01*
X12455896Y-14466174D02*
X12417801Y-14466174D01*
X12417801Y-14466174D02*
X12398753Y-14475698D01*
X12398753Y-14475698D02*
X12389229Y-14485222D01*
X12389229Y-14485222D02*
X12379706Y-14504269D01*
X12560658Y-14389984D02*
X12684467Y-14389984D01*
X12684467Y-14389984D02*
X12617801Y-14466174D01*
X12617801Y-14466174D02*
X12646372Y-14466174D01*
X12646372Y-14466174D02*
X12665420Y-14475698D01*
X12665420Y-14475698D02*
X12674944Y-14485222D01*
X12674944Y-14485222D02*
X12684467Y-14504269D01*
X12684467Y-14504269D02*
X12684467Y-14551888D01*
X12684467Y-14551888D02*
X12674944Y-14570936D01*
X12674944Y-14570936D02*
X12665420Y-14580460D01*
X12665420Y-14580460D02*
X12646372Y-14589984D01*
X12646372Y-14589984D02*
X12589229Y-14589984D01*
X12589229Y-14589984D02*
X12570182Y-14580460D01*
X12570182Y-14580460D02*
X12560658Y-14570936D01*
X12808277Y-14389984D02*
X12827325Y-14389984D01*
X12827325Y-14389984D02*
X12846372Y-14399508D01*
X12846372Y-14399508D02*
X12855896Y-14409031D01*
X12855896Y-14409031D02*
X12865420Y-14428079D01*
X12865420Y-14428079D02*
X12874944Y-14466174D01*
X12874944Y-14466174D02*
X12874944Y-14513793D01*
X12874944Y-14513793D02*
X12865420Y-14551888D01*
X12865420Y-14551888D02*
X12855896Y-14570936D01*
X12855896Y-14570936D02*
X12846372Y-14580460D01*
X12846372Y-14580460D02*
X12827325Y-14589984D01*
X12827325Y-14589984D02*
X12808277Y-14589984D01*
X12808277Y-14589984D02*
X12789229Y-14580460D01*
X12789229Y-14580460D02*
X12779706Y-14570936D01*
X12779706Y-14570936D02*
X12770182Y-14551888D01*
X12770182Y-14551888D02*
X12760658Y-14513793D01*
X12760658Y-14513793D02*
X12760658Y-14466174D01*
X12760658Y-14466174D02*
X12770182Y-14428079D01*
X12770182Y-14428079D02*
X12779706Y-14409031D01*
X12779706Y-14409031D02*
X12789229Y-14399508D01*
X12789229Y-14399508D02*
X12808277Y-14389984D01*
X12951134Y-14389984D02*
X12951134Y-14428079D01*
X13027325Y-14389984D02*
X13027325Y-14428079D01*
X13322563Y-14666174D02*
X13313039Y-14656650D01*
X13313039Y-14656650D02*
X13293991Y-14628079D01*
X13293991Y-14628079D02*
X13284468Y-14609031D01*
X13284468Y-14609031D02*
X13274944Y-14580460D01*
X13274944Y-14580460D02*
X13265420Y-14532841D01*
X13265420Y-14532841D02*
X13265420Y-14494746D01*
X13265420Y-14494746D02*
X13274944Y-14447127D01*
X13274944Y-14447127D02*
X13284468Y-14418555D01*
X13284468Y-14418555D02*
X13293991Y-14399508D01*
X13293991Y-14399508D02*
X13313039Y-14370936D01*
X13313039Y-14370936D02*
X13322563Y-14361412D01*
X13389229Y-14409031D02*
X13398753Y-14399508D01*
X13398753Y-14399508D02*
X13417801Y-14389984D01*
X13417801Y-14389984D02*
X13465420Y-14389984D01*
X13465420Y-14389984D02*
X13484468Y-14399508D01*
X13484468Y-14399508D02*
X13493991Y-14409031D01*
X13493991Y-14409031D02*
X13503515Y-14428079D01*
X13503515Y-14428079D02*
X13503515Y-14447127D01*
X13503515Y-14447127D02*
X13493991Y-14475698D01*
X13493991Y-14475698D02*
X13379706Y-14589984D01*
X13379706Y-14589984D02*
X13503515Y-14589984D01*
X13741610Y-14589984D02*
X13741610Y-14389984D01*
X13827325Y-14589984D02*
X13827325Y-14485222D01*
X13827325Y-14485222D02*
X13817801Y-14466174D01*
X13817801Y-14466174D02*
X13798753Y-14456650D01*
X13798753Y-14456650D02*
X13770182Y-14456650D01*
X13770182Y-14456650D02*
X13751134Y-14466174D01*
X13751134Y-14466174D02*
X13741610Y-14475698D01*
X13951134Y-14589984D02*
X13932087Y-14580460D01*
X13932087Y-14580460D02*
X13922563Y-14570936D01*
X13922563Y-14570936D02*
X13913039Y-14551888D01*
X13913039Y-14551888D02*
X13913039Y-14494746D01*
X13913039Y-14494746D02*
X13922563Y-14475698D01*
X13922563Y-14475698D02*
X13932087Y-14466174D01*
X13932087Y-14466174D02*
X13951134Y-14456650D01*
X13951134Y-14456650D02*
X13979706Y-14456650D01*
X13979706Y-14456650D02*
X13998753Y-14466174D01*
X13998753Y-14466174D02*
X14008277Y-14475698D01*
X14008277Y-14475698D02*
X14017801Y-14494746D01*
X14017801Y-14494746D02*
X14017801Y-14551888D01*
X14017801Y-14551888D02*
X14008277Y-14570936D01*
X14008277Y-14570936D02*
X13998753Y-14580460D01*
X13998753Y-14580460D02*
X13979706Y-14589984D01*
X13979706Y-14589984D02*
X13951134Y-14589984D01*
X14132087Y-14589984D02*
X14113039Y-14580460D01*
X14113039Y-14580460D02*
X14103515Y-14561412D01*
X14103515Y-14561412D02*
X14103515Y-14389984D01*
X14284468Y-14580460D02*
X14265420Y-14589984D01*
X14265420Y-14589984D02*
X14227325Y-14589984D01*
X14227325Y-14589984D02*
X14208277Y-14580460D01*
X14208277Y-14580460D02*
X14198753Y-14561412D01*
X14198753Y-14561412D02*
X14198753Y-14485222D01*
X14198753Y-14485222D02*
X14208277Y-14466174D01*
X14208277Y-14466174D02*
X14227325Y-14456650D01*
X14227325Y-14456650D02*
X14265420Y-14456650D01*
X14265420Y-14456650D02*
X14284468Y-14466174D01*
X14284468Y-14466174D02*
X14293991Y-14485222D01*
X14293991Y-14485222D02*
X14293991Y-14504269D01*
X14293991Y-14504269D02*
X14198753Y-14523317D01*
X14370182Y-14580460D02*
X14389230Y-14589984D01*
X14389230Y-14589984D02*
X14427325Y-14589984D01*
X14427325Y-14589984D02*
X14446372Y-14580460D01*
X14446372Y-14580460D02*
X14455896Y-14561412D01*
X14455896Y-14561412D02*
X14455896Y-14551888D01*
X14455896Y-14551888D02*
X14446372Y-14532841D01*
X14446372Y-14532841D02*
X14427325Y-14523317D01*
X14427325Y-14523317D02*
X14398753Y-14523317D01*
X14398753Y-14523317D02*
X14379706Y-14513793D01*
X14379706Y-14513793D02*
X14370182Y-14494746D01*
X14370182Y-14494746D02*
X14370182Y-14485222D01*
X14370182Y-14485222D02*
X14379706Y-14466174D01*
X14379706Y-14466174D02*
X14398753Y-14456650D01*
X14398753Y-14456650D02*
X14427325Y-14456650D01*
X14427325Y-14456650D02*
X14446372Y-14466174D01*
X14522563Y-14666174D02*
X14532087Y-14656650D01*
X14532087Y-14656650D02*
X14551134Y-14628079D01*
X14551134Y-14628079D02*
X14560658Y-14609031D01*
X14560658Y-14609031D02*
X14570182Y-14580460D01*
X14570182Y-14580460D02*
X14579706Y-14532841D01*
X14579706Y-14532841D02*
X14579706Y-14494746D01*
X14579706Y-14494746D02*
X14570182Y-14447127D01*
X14570182Y-14447127D02*
X14560658Y-14418555D01*
X14560658Y-14418555D02*
X14551134Y-14399508D01*
X14551134Y-14399508D02*
X14532087Y-14370936D01*
X14532087Y-14370936D02*
X14522563Y-14361412D01*
M02*
